G04 #@! TF.FileFunction,Copper,L1,Top,Signal*
%FSLAX46Y46*%
G04 Gerber Fmt 4.6, Leading zero omitted, Abs format (unit mm)*
G04 Created by KiCad (PCBNEW 4.0.6) date 10/30/17 11:30:06*
%MOMM*%
%LPD*%
G01*
G04 APERTURE LIST*
%ADD10C,0.025400*%
%ADD11R,0.800000X1.900000*%
%ADD12R,1.250000X1.500000*%
%ADD13R,1.500000X1.250000*%
%ADD14R,1.800000X2.500000*%
%ADD15R,2.500000X1.800000*%
%ADD16R,1.500000X1.300000*%
%ADD17R,1.300000X1.700000*%
%ADD18C,2.400000*%
%ADD19R,2.400000X2.400000*%
%ADD20R,1.700000X1.700000*%
%ADD21O,1.700000X1.700000*%
%ADD22R,3.000000X0.900000*%
%ADD23R,4.300000X4.300000*%
%ADD24R,1.300000X1.500000*%
%ADD25C,2.500000*%
%ADD26C,3.000000*%
%ADD27R,2.000000X0.700000*%
%ADD28R,1.200000X1.200000*%
%ADD29R,1.500000X4.000000*%
%ADD30R,3.750000X2.700000*%
%ADD31R,1.600000X1.600000*%
%ADD32O,1.600000X1.600000*%
%ADD33R,3.800000X3.000000*%
%ADD34R,1.500000X2.500000*%
%ADD35C,5.500000*%
%ADD36R,4.000000X1.500000*%
%ADD37C,0.600000*%
%ADD38C,0.350000*%
%ADD39C,2.000000*%
%ADD40C,0.254000*%
G04 APERTURE END LIST*
D10*
D11*
X168140000Y-71930000D03*
X166240000Y-71930000D03*
X167190000Y-74930000D03*
D12*
X135520000Y-91980000D03*
X135520000Y-94480000D03*
D13*
X156440000Y-66660000D03*
X158940000Y-66660000D03*
D14*
X132050000Y-94010000D03*
X132050000Y-90010000D03*
D15*
X163540000Y-54620000D03*
X167540000Y-54620000D03*
D16*
X165620000Y-61300000D03*
X168320000Y-61300000D03*
D17*
X175450000Y-74750000D03*
X171950000Y-74750000D03*
D18*
X135780000Y-103020000D03*
D19*
X132280000Y-103020000D03*
D18*
X143650000Y-103010000D03*
D19*
X140150000Y-103010000D03*
D20*
X167590000Y-49390000D03*
D21*
X170130000Y-49390000D03*
X172670000Y-49390000D03*
X175210000Y-49390000D03*
D20*
X147880000Y-67690000D03*
D21*
X147880000Y-70230000D03*
D18*
X169300000Y-103040000D03*
X172800000Y-103040000D03*
D19*
X165800000Y-103040000D03*
D22*
X131930000Y-48350000D03*
X131930000Y-49850000D03*
X131930000Y-51350000D03*
X131930000Y-52850000D03*
X131930000Y-54350000D03*
X131930000Y-55850000D03*
X131930000Y-57350000D03*
X131930000Y-58850000D03*
X131930000Y-60350000D03*
X149930000Y-60350000D03*
X149930000Y-58850000D03*
X149930000Y-57350000D03*
X149930000Y-55850000D03*
X149930000Y-54350000D03*
X149930000Y-52850000D03*
X149930000Y-51350000D03*
X149930000Y-49850000D03*
X149930000Y-48350000D03*
D23*
X142120000Y-54950000D03*
D24*
X151600000Y-99810000D03*
X151600000Y-102510000D03*
D16*
X147700000Y-82930000D03*
X145000000Y-82930000D03*
X175080000Y-61240000D03*
X172380000Y-61240000D03*
D24*
X143750000Y-64750000D03*
X143750000Y-67450000D03*
X139030000Y-64720000D03*
X139030000Y-67420000D03*
X141540000Y-64760000D03*
X141540000Y-67460000D03*
X163900000Y-75060000D03*
X163900000Y-72360000D03*
X172670000Y-52410000D03*
X172670000Y-55110000D03*
X175220000Y-52450000D03*
X175220000Y-55150000D03*
D25*
X162950000Y-82670000D03*
D26*
X162950000Y-94870000D03*
X175000000Y-94920000D03*
D25*
X174950000Y-82670000D03*
D26*
X169000000Y-80720000D03*
D27*
X133750000Y-81080000D03*
X133750000Y-84080000D03*
X133750000Y-85580000D03*
D28*
X130890000Y-79680000D03*
X130890000Y-86980000D03*
X133100000Y-86980000D03*
X133100000Y-79680000D03*
D29*
X148470000Y-99000000D03*
X148470000Y-105500000D03*
D30*
X133135000Y-75690000D03*
X140685000Y-75690000D03*
D31*
X147800000Y-94490000D03*
D32*
X150340000Y-86870000D03*
X150340000Y-94490000D03*
X147800000Y-86870000D03*
D33*
X141160000Y-93830000D03*
D34*
X141160000Y-87530000D03*
X138860000Y-87530000D03*
X143460000Y-87530000D03*
D33*
X156410000Y-76410000D03*
D34*
X156410000Y-70110000D03*
X154110000Y-70110000D03*
X158710000Y-70110000D03*
D35*
X156510000Y-60310000D03*
X133290000Y-67100000D03*
X155320000Y-104840000D03*
D31*
X175070000Y-68290000D03*
D32*
X167450000Y-65750000D03*
X175070000Y-65750000D03*
X167450000Y-68290000D03*
D24*
X162530000Y-61360000D03*
X162530000Y-64060000D03*
D36*
X155140000Y-49970000D03*
X161640000Y-49970000D03*
D37*
X140208000Y-85598000D03*
X148590000Y-78232000D03*
X155448000Y-72009000D03*
X160147000Y-69215000D03*
X161671000Y-59944000D03*
X163449000Y-58166000D03*
X160660000Y-70490000D03*
X165570000Y-69850000D03*
X169240000Y-52010000D03*
X163370000Y-51890000D03*
X142240000Y-89408000D03*
X137160000Y-92837000D03*
X152146000Y-56769000D03*
X149352000Y-101727000D03*
X157353000Y-68199000D03*
X142367000Y-68961000D03*
X144907000Y-88138000D03*
X145415000Y-67691000D03*
X173482000Y-72898000D03*
X155575000Y-65024000D03*
X151130000Y-61468000D03*
X164211000Y-62865000D03*
X170434000Y-63500000D03*
X168783000Y-76581000D03*
X170307000Y-76454000D03*
X135128000Y-89916000D03*
X132334000Y-96266000D03*
X136970000Y-65150000D03*
X137580000Y-49260000D03*
X145415000Y-65278000D03*
X160909000Y-64262000D03*
X147828000Y-96266000D03*
X143256000Y-96012000D03*
X144399000Y-81280000D03*
X142621000Y-79502000D03*
X148971000Y-102616000D03*
X142494000Y-85598000D03*
X144399000Y-84328000D03*
X164211000Y-63881000D03*
X170942000Y-62611000D03*
X145161000Y-104648000D03*
X140335000Y-63373000D03*
X138910000Y-52430000D03*
X138950000Y-59170000D03*
X170561000Y-57277000D03*
X154686000Y-57277000D03*
X153416000Y-58547000D03*
X152146000Y-58547000D03*
X173863000Y-56515000D03*
X153797000Y-56388000D03*
X147701000Y-51943000D03*
X153670000Y-51435000D03*
D38*
X138860000Y-87530000D02*
X138811000Y-87503000D01*
X138811000Y-87503000D02*
X139954000Y-86360000D01*
X139954000Y-86360000D02*
X139954000Y-85852000D01*
X139954000Y-85852000D02*
X140208000Y-85598000D01*
X148590000Y-78232000D02*
X154051000Y-72771000D01*
X154051000Y-72771000D02*
X154051000Y-70104000D01*
X154051000Y-70104000D02*
X154110000Y-70110000D01*
X154110000Y-70110000D02*
X154051000Y-70104000D01*
X154051000Y-70104000D02*
X155194000Y-71247000D01*
X155194000Y-71247000D02*
X155194000Y-71755000D01*
X155194000Y-71755000D02*
X155448000Y-72009000D01*
X160147000Y-69215000D02*
X160147000Y-64008000D01*
X160147000Y-64008000D02*
X160274000Y-63881000D01*
X160274000Y-63881000D02*
X160274000Y-63627000D01*
X160274000Y-63627000D02*
X161417000Y-62484000D01*
X161417000Y-62484000D02*
X161417000Y-60198000D01*
X161417000Y-60198000D02*
X161671000Y-59944000D01*
X163449000Y-58166000D02*
X163576000Y-58039000D01*
X163576000Y-58039000D02*
X163576000Y-54610000D01*
X163576000Y-54610000D02*
X163540000Y-54620000D01*
X138860000Y-87530000D02*
X138811000Y-87503000D01*
X138811000Y-87503000D02*
X135509000Y-90805000D01*
X135509000Y-90805000D02*
X135509000Y-91948000D01*
X135509000Y-91948000D02*
X135520000Y-91980000D01*
X135520000Y-91980000D02*
X135509000Y-91948000D01*
X135509000Y-91948000D02*
X134112000Y-91948000D01*
X134112000Y-91948000D02*
X132050000Y-94010000D01*
X166240000Y-71930000D02*
X166240000Y-70520000D01*
X160280000Y-70110000D02*
X158710000Y-70110000D01*
X160660000Y-70490000D02*
X160280000Y-70110000D01*
X166240000Y-70520000D02*
X165570000Y-69850000D01*
X161640000Y-49970000D02*
X161640000Y-50160000D01*
X161640000Y-50160000D02*
X163370000Y-51890000D01*
X170130000Y-51120000D02*
X170130000Y-49390000D01*
X169240000Y-52010000D02*
X170130000Y-51120000D01*
X161640000Y-49970000D02*
X161640000Y-49210000D01*
X160780000Y-48350000D02*
X149930000Y-48350000D01*
X161640000Y-49210000D02*
X160780000Y-48350000D01*
X143460000Y-87530000D02*
X143510000Y-87503000D01*
X143510000Y-87503000D02*
X142367000Y-88646000D01*
X142367000Y-88646000D02*
X142367000Y-89281000D01*
X142367000Y-89281000D02*
X142240000Y-89408000D01*
X137160000Y-92837000D02*
X135509000Y-94488000D01*
X135509000Y-94488000D02*
X135520000Y-94480000D01*
X152146000Y-56769000D02*
X151892000Y-56515000D01*
X151892000Y-56515000D02*
X150622000Y-56515000D01*
X150622000Y-56515000D02*
X149987000Y-55880000D01*
X149987000Y-55880000D02*
X149930000Y-55850000D01*
X143750000Y-67450000D02*
X143764000Y-67437000D01*
X143764000Y-67437000D02*
X143637000Y-67564000D01*
X143637000Y-67564000D02*
X143637000Y-68707000D01*
X143637000Y-68707000D02*
X143510000Y-68834000D01*
X143510000Y-68834000D02*
X143510000Y-87503000D01*
X143510000Y-87503000D02*
X143460000Y-87530000D01*
X149352000Y-101727000D02*
X150622000Y-101727000D01*
X150622000Y-101727000D02*
X151554000Y-102509000D01*
X151554000Y-102509000D02*
X151600000Y-102510000D01*
X149930000Y-48350000D02*
X149987000Y-48387000D01*
X161671000Y-49911000D02*
X161640000Y-49970000D01*
X158940000Y-66660000D02*
X158877000Y-66675000D01*
X158877000Y-66675000D02*
X156464000Y-64262000D01*
X156464000Y-64262000D02*
X156464000Y-60325000D01*
X156464000Y-60325000D02*
X156510000Y-60310000D01*
X158710000Y-70110000D02*
X158750000Y-70104000D01*
X157353000Y-68199000D02*
X158877000Y-66675000D01*
X158877000Y-66675000D02*
X158940000Y-66660000D01*
X151600000Y-102510000D02*
X151554000Y-102509000D01*
X151554000Y-102509000D02*
X153035000Y-102489000D01*
X153035000Y-102489000D02*
X155301000Y-104825000D01*
X155301000Y-104825000D02*
X155320000Y-104840000D01*
X142367000Y-68961000D02*
X143764000Y-67564000D01*
X143764000Y-67564000D02*
X143764000Y-67437000D01*
X143764000Y-67437000D02*
X143750000Y-67450000D01*
X131930000Y-60350000D02*
X131953000Y-60325000D01*
X131953000Y-60325000D02*
X133350000Y-61722000D01*
X133350000Y-61722000D02*
X133350000Y-67056000D01*
X133350000Y-67056000D02*
X133290000Y-67100000D01*
X161640000Y-49970000D02*
X161671000Y-49911000D01*
X133290000Y-67100000D02*
X133350000Y-67056000D01*
X133350000Y-67056000D02*
X133096000Y-67310000D01*
X133096000Y-67310000D02*
X133096000Y-75692000D01*
X133096000Y-75692000D02*
X133135000Y-75690000D01*
X135520000Y-94480000D02*
X135509000Y-94488000D01*
X135509000Y-94488000D02*
X135763000Y-94742000D01*
X135763000Y-94742000D02*
X135763000Y-102997000D01*
X135763000Y-102997000D02*
X135780000Y-103020000D01*
X143460000Y-87530000D02*
X143510000Y-87503000D01*
X143510000Y-87503000D02*
X144272000Y-87503000D01*
X144272000Y-87503000D02*
X144907000Y-88138000D01*
X149930000Y-55850000D02*
X149987000Y-55880000D01*
X149987000Y-55880000D02*
X151130000Y-55880000D01*
X151130000Y-55880000D02*
X151765000Y-55245000D01*
X151765000Y-55245000D02*
X151892000Y-55245000D01*
X151892000Y-55245000D02*
X151892000Y-49022000D01*
X151892000Y-49022000D02*
X150622000Y-49022000D01*
X150622000Y-49022000D02*
X149987000Y-48387000D01*
X149987000Y-48387000D02*
X149930000Y-48350000D01*
X143750000Y-67450000D02*
X143764000Y-67437000D01*
X143764000Y-67437000D02*
X145161000Y-67437000D01*
X145161000Y-67437000D02*
X145415000Y-67691000D01*
X158940000Y-66660000D02*
X158877000Y-66675000D01*
X158877000Y-66675000D02*
X158750000Y-66802000D01*
X158750000Y-66802000D02*
X158750000Y-70104000D01*
X158750000Y-70104000D02*
X158710000Y-70110000D01*
X173482000Y-72898000D02*
X175387000Y-74803000D01*
X175387000Y-74803000D02*
X175450000Y-74750000D01*
X156440000Y-66660000D02*
X156464000Y-66675000D01*
X156464000Y-66675000D02*
X155575000Y-65786000D01*
X155575000Y-65786000D02*
X155575000Y-65024000D01*
X175450000Y-74750000D02*
X175387000Y-74803000D01*
X175387000Y-74803000D02*
X175006000Y-75184000D01*
X175006000Y-75184000D02*
X175006000Y-82677000D01*
X175006000Y-82677000D02*
X174950000Y-82670000D01*
X156410000Y-70110000D02*
X156464000Y-70104000D01*
X156464000Y-70104000D02*
X156464000Y-76454000D01*
X156464000Y-76454000D02*
X156410000Y-76410000D01*
X156410000Y-70110000D02*
X156464000Y-70104000D01*
X156464000Y-70104000D02*
X156464000Y-66675000D01*
X156464000Y-66675000D02*
X156440000Y-66660000D01*
X132050000Y-90010000D02*
X132080000Y-90043000D01*
X132080000Y-90043000D02*
X134112000Y-88011000D01*
X134112000Y-88011000D02*
X134112000Y-85979000D01*
X134112000Y-85979000D02*
X133731000Y-85598000D01*
X133731000Y-85598000D02*
X133750000Y-85580000D01*
X167590000Y-49390000D02*
X167640000Y-49403000D01*
X167640000Y-49403000D02*
X167513000Y-49530000D01*
X167513000Y-49530000D02*
X167513000Y-54610000D01*
X167513000Y-54610000D02*
X167540000Y-54620000D01*
X149930000Y-60350000D02*
X149987000Y-60325000D01*
X149987000Y-60325000D02*
X151130000Y-61468000D01*
X164211000Y-62865000D02*
X165608000Y-61468000D01*
X165608000Y-61468000D02*
X165608000Y-61341000D01*
X165608000Y-61341000D02*
X165620000Y-61300000D01*
X168320000Y-61300000D02*
X168275000Y-61341000D01*
X168275000Y-61341000D02*
X170434000Y-63500000D01*
X162950000Y-82670000D02*
X162941000Y-82677000D01*
X162941000Y-82677000D02*
X162890000Y-80080000D01*
X162890000Y-80080000D02*
X167132000Y-74930000D01*
X167132000Y-74930000D02*
X167190000Y-74930000D01*
X167190000Y-74930000D02*
X167132000Y-74930000D01*
X167132000Y-74930000D02*
X168783000Y-76581000D01*
X170307000Y-76454000D02*
X171958000Y-74803000D01*
X171958000Y-74803000D02*
X171950000Y-74750000D01*
X162941000Y-82677000D02*
X162950000Y-82670000D01*
X171831000Y-74676000D02*
X171958000Y-74803000D01*
X171958000Y-74803000D02*
X171950000Y-74750000D01*
X133750000Y-84080000D02*
X133731000Y-84074000D01*
X133731000Y-84074000D02*
X134239000Y-84074000D01*
X134239000Y-84074000D02*
X135001000Y-84836000D01*
X135001000Y-84836000D02*
X135128000Y-84836000D01*
X135128000Y-84836000D02*
X135128000Y-89916000D01*
X132334000Y-96266000D02*
X132334000Y-102997000D01*
X132334000Y-102997000D02*
X132280000Y-103020000D01*
X131930000Y-48350000D02*
X136670000Y-48350000D01*
X136970000Y-65150000D02*
X139030000Y-67210000D01*
X136670000Y-48350000D02*
X137580000Y-49260000D01*
X139030000Y-67210000D02*
X139030000Y-67420000D01*
X139030000Y-67420000D02*
X139065000Y-67437000D01*
X131953000Y-48387000D02*
X131930000Y-48350000D01*
X141540000Y-67460000D02*
X141478000Y-67437000D01*
X141478000Y-67437000D02*
X142621000Y-66294000D01*
X142621000Y-66294000D02*
X144399000Y-66294000D01*
X144399000Y-66294000D02*
X145415000Y-65278000D01*
X160909000Y-64262000D02*
X162306000Y-64262000D01*
X162306000Y-64262000D02*
X162560000Y-64008000D01*
X162560000Y-64008000D02*
X162530000Y-64060000D01*
X148470000Y-99000000D02*
X148452000Y-99050000D01*
X148452000Y-99050000D02*
X148198000Y-98796000D01*
X148198000Y-98796000D02*
X147828000Y-96266000D01*
X143256000Y-96012000D02*
X141097000Y-93853000D01*
X141097000Y-93853000D02*
X141160000Y-93830000D01*
X145000000Y-82930000D02*
X145034000Y-82931000D01*
X145034000Y-82931000D02*
X144399000Y-82296000D01*
X144399000Y-82296000D02*
X144399000Y-81280000D01*
X142621000Y-79502000D02*
X140716000Y-77597000D01*
X140716000Y-77597000D02*
X140716000Y-75692000D01*
X140716000Y-75692000D02*
X140685000Y-75690000D01*
X148971000Y-102616000D02*
X148717000Y-102362000D01*
X148717000Y-102362000D02*
X148717000Y-101981000D01*
X148717000Y-101981000D02*
X148590000Y-101981000D01*
X148590000Y-101981000D02*
X148082000Y-101473000D01*
X148082000Y-101473000D02*
X148452000Y-99050000D01*
X148452000Y-99050000D02*
X148470000Y-99000000D01*
X141160000Y-87530000D02*
X141097000Y-87503000D01*
X141097000Y-87503000D02*
X142240000Y-86360000D01*
X142240000Y-86360000D02*
X142240000Y-85852000D01*
X142240000Y-85852000D02*
X142494000Y-85598000D01*
X144399000Y-84328000D02*
X145034000Y-83693000D01*
X145034000Y-83693000D02*
X145034000Y-82931000D01*
X145034000Y-82931000D02*
X145000000Y-82930000D01*
X162530000Y-64060000D02*
X162560000Y-64008000D01*
X162560000Y-64008000D02*
X164084000Y-64008000D01*
X164084000Y-64008000D02*
X164211000Y-63881000D01*
X170942000Y-62611000D02*
X172339000Y-61214000D01*
X172339000Y-61214000D02*
X172380000Y-61240000D01*
X140685000Y-75690000D02*
X140716000Y-75692000D01*
X140716000Y-75692000D02*
X141478000Y-74930000D01*
X141478000Y-74930000D02*
X141478000Y-67437000D01*
X141478000Y-67437000D02*
X141540000Y-67460000D01*
X141160000Y-93830000D02*
X141097000Y-93853000D01*
X141097000Y-93853000D02*
X141097000Y-87503000D01*
X141097000Y-87503000D02*
X141160000Y-87530000D01*
X141540000Y-67460000D02*
X141478000Y-67437000D01*
X141478000Y-67437000D02*
X139065000Y-67437000D01*
X139065000Y-67437000D02*
X139030000Y-67420000D01*
X148470000Y-105500000D02*
X148452000Y-105527000D01*
X148452000Y-105527000D02*
X146050000Y-105537000D01*
X146050000Y-105537000D02*
X145161000Y-104648000D01*
X147800000Y-94490000D02*
X147828000Y-94488000D01*
X147828000Y-94488000D02*
X146939000Y-95377000D01*
X146939000Y-95377000D02*
X146939000Y-101473000D01*
X146939000Y-101473000D02*
X148082000Y-102616000D01*
X148082000Y-102616000D02*
X148452000Y-105527000D01*
X148452000Y-105527000D02*
X148470000Y-105500000D01*
X172670000Y-49390000D02*
X172720000Y-49403000D01*
X172720000Y-49403000D02*
X172720000Y-52451000D01*
X172720000Y-52451000D02*
X172670000Y-52410000D01*
X175220000Y-52450000D02*
X175260000Y-52451000D01*
X175260000Y-52451000D02*
X175260000Y-49403000D01*
X175260000Y-49403000D02*
X175210000Y-49390000D01*
X131930000Y-58850000D02*
X131953000Y-58801000D01*
X131953000Y-58801000D02*
X133223000Y-58801000D01*
X133223000Y-58801000D02*
X139065000Y-64643000D01*
X139065000Y-64643000D02*
X139065000Y-64770000D01*
X139065000Y-64770000D02*
X139030000Y-64720000D01*
X139030000Y-64720000D02*
X139065000Y-64770000D01*
X139065000Y-64770000D02*
X140335000Y-63500000D01*
X140335000Y-63500000D02*
X140335000Y-63373000D01*
X169000000Y-80720000D02*
X169037000Y-80772000D01*
X169037000Y-80772000D02*
X169291000Y-81026000D01*
D39*
X169291000Y-81026000D02*
X169291000Y-102997000D01*
D38*
X169291000Y-102997000D02*
X169300000Y-103040000D01*
X172800000Y-103040000D02*
X172847000Y-102997000D01*
D39*
X172847000Y-102997000D02*
X175006000Y-100838000D01*
X175006000Y-100838000D02*
X175006000Y-94869000D01*
D38*
X175006000Y-94869000D02*
X175000000Y-94920000D01*
X165800000Y-103040000D02*
X165862000Y-102997000D01*
D39*
X165862000Y-102997000D02*
X162941000Y-100076000D01*
X162941000Y-100076000D02*
X162941000Y-94869000D01*
D38*
X162941000Y-94869000D02*
X162950000Y-94870000D01*
X141540000Y-64760000D02*
X141540000Y-61910000D01*
X136330000Y-49850000D02*
X131930000Y-49850000D01*
X138910000Y-52430000D02*
X136330000Y-49850000D01*
X138950000Y-59320000D02*
X138950000Y-59170000D01*
X141540000Y-61910000D02*
X138950000Y-59320000D01*
X131930000Y-49850000D02*
X131953000Y-49911000D01*
X131953000Y-49911000D02*
X130556000Y-49911000D01*
X141478000Y-64770000D02*
X141540000Y-64760000D01*
X131930000Y-55850000D02*
X137460000Y-55850000D01*
X143750000Y-62750000D02*
X143750000Y-64750000D01*
X142230000Y-61230000D02*
X143750000Y-62750000D01*
X142230000Y-60620000D02*
X142230000Y-61230000D01*
X137460000Y-55850000D02*
X142230000Y-60620000D01*
X143750000Y-64750000D02*
X143764000Y-64770000D01*
X131953000Y-55880000D02*
X131930000Y-55850000D01*
X172670000Y-55110000D02*
X172720000Y-55118000D01*
X172720000Y-55118000D02*
X170561000Y-57277000D01*
X154686000Y-57277000D02*
X153416000Y-58547000D01*
X152146000Y-58547000D02*
X150241000Y-58547000D01*
X150241000Y-58547000D02*
X149987000Y-58801000D01*
X149987000Y-58801000D02*
X149930000Y-58850000D01*
X175220000Y-55150000D02*
X175260000Y-55118000D01*
X175260000Y-55118000D02*
X173863000Y-56515000D01*
X153797000Y-56388000D02*
X153670000Y-56388000D01*
X153670000Y-56388000D02*
X152654000Y-57404000D01*
X152654000Y-57404000D02*
X152527000Y-57404000D01*
X152527000Y-57404000D02*
X152400000Y-57531000D01*
X152400000Y-57531000D02*
X150114000Y-57531000D01*
X150114000Y-57531000D02*
X149987000Y-57404000D01*
X149987000Y-57404000D02*
X149930000Y-57350000D01*
X149930000Y-54350000D02*
X149987000Y-54356000D01*
X149987000Y-54356000D02*
X148590000Y-54356000D01*
X148590000Y-54356000D02*
X146558000Y-56388000D01*
X146558000Y-56388000D02*
X146558000Y-71501000D01*
X146558000Y-71501000D02*
X147701000Y-72644000D01*
X147701000Y-72644000D02*
X147701000Y-82931000D01*
X147701000Y-82931000D02*
X147700000Y-82930000D01*
X147700000Y-82930000D02*
X147828000Y-83058000D01*
X147828000Y-83058000D02*
X147828000Y-86868000D01*
X147828000Y-86868000D02*
X147800000Y-86870000D01*
X155140000Y-49970000D02*
X155194000Y-49911000D01*
X155194000Y-49911000D02*
X162560000Y-57277000D01*
X162560000Y-57277000D02*
X162560000Y-61341000D01*
X162560000Y-61341000D02*
X162530000Y-61360000D01*
X149930000Y-52850000D02*
X149987000Y-52832000D01*
X149987000Y-52832000D02*
X148590000Y-52832000D01*
X148590000Y-52832000D02*
X147701000Y-51943000D01*
X153670000Y-51435000D02*
X155194000Y-49911000D01*
X155194000Y-49911000D02*
X155140000Y-49970000D01*
X168140000Y-71930000D02*
X168140000Y-72150000D01*
X168140000Y-72150000D02*
X166830000Y-73460000D01*
X165500000Y-73460000D02*
X163900000Y-75060000D01*
X166830000Y-73460000D02*
X165500000Y-73460000D01*
X168140000Y-71930000D02*
X168140000Y-72260000D01*
X168140000Y-71930000D02*
X168148000Y-71882000D01*
X163957000Y-75057000D02*
X163900000Y-75060000D01*
X163900000Y-75060000D02*
X163957000Y-75057000D01*
X150340000Y-94490000D02*
X150368000Y-94488000D01*
X150368000Y-94488000D02*
X151384000Y-95504000D01*
X151384000Y-95504000D02*
X151554000Y-99842000D01*
X151554000Y-99842000D02*
X151600000Y-99810000D01*
X175080000Y-61240000D02*
X175133000Y-61214000D01*
X175133000Y-61214000D02*
X176276000Y-62357000D01*
X176276000Y-62357000D02*
X176276000Y-66929000D01*
X176276000Y-66929000D02*
X175133000Y-68072000D01*
X175133000Y-68072000D02*
X175133000Y-68326000D01*
X175133000Y-68326000D02*
X175070000Y-68290000D01*
X167450000Y-65750000D02*
X167513000Y-65786000D01*
X167513000Y-65786000D02*
X163957000Y-69342000D01*
X163957000Y-69342000D02*
X163957000Y-72390000D01*
X163957000Y-72390000D02*
X163900000Y-72360000D01*
D40*
G36*
X132057000Y-60223000D02*
X132077000Y-60223000D01*
X132077000Y-60477000D01*
X132057000Y-60477000D01*
X132057000Y-61276250D01*
X132215750Y-61435000D01*
X133556309Y-61435000D01*
X133789698Y-61338327D01*
X133968327Y-61159699D01*
X134065000Y-60926310D01*
X134065000Y-60788512D01*
X137732560Y-64456073D01*
X137732560Y-64590447D01*
X137500327Y-64357808D01*
X137156799Y-64215162D01*
X136784833Y-64214838D01*
X136441057Y-64356883D01*
X136177808Y-64619673D01*
X136035162Y-64963201D01*
X136035050Y-65092082D01*
X135706266Y-64863339D01*
X133469605Y-67100000D01*
X135706266Y-69336661D01*
X136154932Y-69024513D01*
X136673331Y-67781657D01*
X136676648Y-66435024D01*
X136480988Y-65959348D01*
X136742372Y-66067884D01*
X137732560Y-67058073D01*
X137732560Y-68170000D01*
X137776838Y-68405317D01*
X137915910Y-68621441D01*
X138128110Y-68766431D01*
X138380000Y-68817440D01*
X139680000Y-68817440D01*
X139915317Y-68773162D01*
X140131441Y-68634090D01*
X140276431Y-68421890D01*
X140279541Y-68406535D01*
X140286838Y-68445317D01*
X140425910Y-68661441D01*
X140638110Y-68806431D01*
X140668000Y-68812484D01*
X140668000Y-73692560D01*
X138810000Y-73692560D01*
X138574683Y-73736838D01*
X138358559Y-73875910D01*
X138213569Y-74088110D01*
X138162560Y-74340000D01*
X138162560Y-77040000D01*
X138206838Y-77275317D01*
X138345910Y-77491441D01*
X138558110Y-77636431D01*
X138810000Y-77687440D01*
X139923990Y-77687440D01*
X139967658Y-77906974D01*
X139999968Y-77955329D01*
X140143244Y-78169756D01*
X141703571Y-79730084D01*
X141827883Y-80030943D01*
X142090673Y-80294192D01*
X142434201Y-80436838D01*
X142806167Y-80437162D01*
X143149943Y-80295117D01*
X143413192Y-80032327D01*
X143555838Y-79688799D01*
X143556162Y-79316833D01*
X143414117Y-78973057D01*
X143151327Y-78709808D01*
X142848629Y-78584116D01*
X141951952Y-77687440D01*
X142560000Y-77687440D01*
X142795317Y-77643162D01*
X143011441Y-77504090D01*
X143156431Y-77291890D01*
X143207440Y-77040000D01*
X143207440Y-74340000D01*
X143163162Y-74104683D01*
X143024090Y-73888559D01*
X142811890Y-73743569D01*
X142560000Y-73692560D01*
X142288000Y-73692560D01*
X142288000Y-68839000D01*
X142425317Y-68813162D01*
X142641441Y-68674090D01*
X142655495Y-68653521D01*
X142740301Y-68738327D01*
X142973690Y-68835000D01*
X143464250Y-68835000D01*
X143623000Y-68676250D01*
X143623000Y-67577000D01*
X143877000Y-67577000D01*
X143877000Y-68676250D01*
X144035750Y-68835000D01*
X144526310Y-68835000D01*
X144759699Y-68738327D01*
X144938327Y-68559698D01*
X145035000Y-68326309D01*
X145035000Y-67735750D01*
X144876250Y-67577000D01*
X143877000Y-67577000D01*
X143623000Y-67577000D01*
X143603000Y-67577000D01*
X143603000Y-67323000D01*
X143623000Y-67323000D01*
X143623000Y-67303000D01*
X143877000Y-67303000D01*
X143877000Y-67323000D01*
X144876250Y-67323000D01*
X145035000Y-67164250D01*
X145035000Y-66803512D01*
X145643083Y-66195429D01*
X145748000Y-66152079D01*
X145748000Y-71501000D01*
X145809658Y-71810974D01*
X145911131Y-71962838D01*
X145985244Y-72073756D01*
X146891000Y-72979513D01*
X146891000Y-81643662D01*
X146714683Y-81676838D01*
X146498559Y-81815910D01*
X146353569Y-82028110D01*
X146350919Y-82041197D01*
X146214090Y-81828559D01*
X146001890Y-81683569D01*
X145750000Y-81632560D01*
X145265008Y-81632560D01*
X145333838Y-81466799D01*
X145334162Y-81094833D01*
X145192117Y-80751057D01*
X144929327Y-80487808D01*
X144585799Y-80345162D01*
X144213833Y-80344838D01*
X143870057Y-80486883D01*
X143606808Y-80749673D01*
X143464162Y-81093201D01*
X143463838Y-81465167D01*
X143589000Y-81768083D01*
X143589000Y-82296000D01*
X143602560Y-82364170D01*
X143602560Y-83580000D01*
X143637713Y-83766822D01*
X143606808Y-83797673D01*
X143464162Y-84141201D01*
X143463838Y-84513167D01*
X143605883Y-84856943D01*
X143868673Y-85120192D01*
X144212201Y-85262838D01*
X144584167Y-85263162D01*
X144927943Y-85121117D01*
X145191192Y-84858327D01*
X145316884Y-84555629D01*
X145606757Y-84265756D01*
X145632359Y-84227440D01*
X145750000Y-84227440D01*
X145985317Y-84183162D01*
X146201441Y-84044090D01*
X146346431Y-83831890D01*
X146349081Y-83818803D01*
X146485910Y-84031441D01*
X146698110Y-84176431D01*
X146950000Y-84227440D01*
X147018000Y-84227440D01*
X147018000Y-85671705D01*
X146785302Y-85827189D01*
X146474233Y-86292736D01*
X146365000Y-86841887D01*
X146365000Y-86898113D01*
X146474233Y-87447264D01*
X146785302Y-87912811D01*
X147250849Y-88223880D01*
X147800000Y-88333113D01*
X148349151Y-88223880D01*
X148814698Y-87912811D01*
X149084986Y-87508297D01*
X149187611Y-87725134D01*
X149602577Y-88101041D01*
X149990961Y-88261904D01*
X150213000Y-88139915D01*
X150213000Y-86997000D01*
X150467000Y-86997000D01*
X150467000Y-88139915D01*
X150689039Y-88261904D01*
X151077423Y-88101041D01*
X151492389Y-87725134D01*
X151731914Y-87219041D01*
X151610629Y-86997000D01*
X150467000Y-86997000D01*
X150213000Y-86997000D01*
X150193000Y-86997000D01*
X150193000Y-86743000D01*
X150213000Y-86743000D01*
X150213000Y-85600085D01*
X150467000Y-85600085D01*
X150467000Y-86743000D01*
X151610629Y-86743000D01*
X151731914Y-86520959D01*
X151492389Y-86014866D01*
X151077423Y-85638959D01*
X150689039Y-85478096D01*
X150467000Y-85600085D01*
X150213000Y-85600085D01*
X149990961Y-85478096D01*
X149602577Y-85638959D01*
X149187611Y-86014866D01*
X149084986Y-86231703D01*
X148814698Y-85827189D01*
X148638000Y-85709123D01*
X148638000Y-84192065D01*
X148685317Y-84183162D01*
X148901441Y-84044090D01*
X149046431Y-83831890D01*
X149097440Y-83580000D01*
X149097440Y-82280000D01*
X149053162Y-82044683D01*
X148914090Y-81828559D01*
X148701890Y-81683569D01*
X148511000Y-81644913D01*
X148511000Y-79166932D01*
X148775167Y-79167162D01*
X149118943Y-79025117D01*
X149382192Y-78762327D01*
X149507884Y-78459628D01*
X154623756Y-73343757D01*
X154722089Y-73196591D01*
X154799342Y-73080974D01*
X154861000Y-72771000D01*
X154861000Y-72744420D01*
X154917673Y-72801192D01*
X155261201Y-72943838D01*
X155633167Y-72944162D01*
X155654000Y-72935554D01*
X155654000Y-74262560D01*
X154510000Y-74262560D01*
X154274683Y-74306838D01*
X154058559Y-74445910D01*
X153913569Y-74658110D01*
X153862560Y-74910000D01*
X153862560Y-77910000D01*
X153906838Y-78145317D01*
X154045910Y-78361441D01*
X154258110Y-78506431D01*
X154510000Y-78557440D01*
X158094495Y-78557440D01*
X157780272Y-78763854D01*
X157744469Y-78799345D01*
X157725294Y-78845969D01*
X157725770Y-78896380D01*
X157745821Y-78942634D01*
X157782287Y-78977443D01*
X157829423Y-78995322D01*
X157879802Y-78993454D01*
X157919112Y-78976548D01*
X158012724Y-78915827D01*
X158003642Y-78961487D01*
X158003642Y-79031416D01*
X157990000Y-79100000D01*
X157990000Y-102779868D01*
X157736266Y-102603339D01*
X155499605Y-104840000D01*
X157736266Y-107076661D01*
X157990000Y-106900132D01*
X157990000Y-107000000D01*
X157992698Y-107013562D01*
X157989433Y-107032100D01*
X157990172Y-107065640D01*
X158007447Y-107143485D01*
X158011429Y-107223117D01*
X158068581Y-107450442D01*
X158156038Y-107634936D01*
X158187244Y-107700768D01*
X158285247Y-107832670D01*
X156947355Y-107830793D01*
X157230371Y-107714380D01*
X157244513Y-107704932D01*
X157556661Y-107256266D01*
X155320000Y-105019605D01*
X153083339Y-107256266D01*
X153395487Y-107704932D01*
X153686268Y-107826218D01*
X149769400Y-107820722D01*
X149816431Y-107751890D01*
X149867440Y-107500000D01*
X149867440Y-103500000D01*
X149823162Y-103264683D01*
X149753334Y-103156168D01*
X149763192Y-103146327D01*
X149905838Y-102802799D01*
X149905844Y-102795750D01*
X150315000Y-102795750D01*
X150315000Y-103386309D01*
X150411673Y-103619698D01*
X150590301Y-103798327D01*
X150823690Y-103895000D01*
X151314250Y-103895000D01*
X151473000Y-103736250D01*
X151473000Y-102637000D01*
X151727000Y-102637000D01*
X151727000Y-103736250D01*
X151885750Y-103895000D01*
X152046510Y-103895000D01*
X151936669Y-104158343D01*
X151933352Y-105504976D01*
X152445620Y-106750371D01*
X152455068Y-106764513D01*
X152903734Y-107076661D01*
X155140395Y-104840000D01*
X152903734Y-102603339D01*
X152779218Y-102689968D01*
X152726250Y-102637000D01*
X151727000Y-102637000D01*
X151473000Y-102637000D01*
X150473750Y-102637000D01*
X150315000Y-102795750D01*
X149905844Y-102795750D01*
X149906162Y-102430833D01*
X149903229Y-102423734D01*
X153083339Y-102423734D01*
X155320000Y-104660395D01*
X157556661Y-102423734D01*
X157244513Y-101975068D01*
X156001657Y-101456669D01*
X154655024Y-101453352D01*
X153409629Y-101965620D01*
X153395487Y-101975068D01*
X153083339Y-102423734D01*
X149903229Y-102423734D01*
X149764117Y-102087057D01*
X149501327Y-101823808D01*
X149495229Y-101821276D01*
X149465342Y-101671026D01*
X149423941Y-101609066D01*
X149455317Y-101603162D01*
X149671441Y-101464090D01*
X149816431Y-101251890D01*
X149867440Y-101000000D01*
X149867440Y-97000000D01*
X149823162Y-96764683D01*
X149684090Y-96548559D01*
X149471890Y-96403569D01*
X149220000Y-96352560D01*
X148762925Y-96352560D01*
X148763162Y-96080833D01*
X148696417Y-95919298D01*
X148835317Y-95893162D01*
X149051441Y-95754090D01*
X149196431Y-95541890D01*
X149227815Y-95386911D01*
X149325302Y-95532811D01*
X149790849Y-95843880D01*
X150340000Y-95953113D01*
X150589037Y-95903576D01*
X150689725Y-98472898D01*
X150498559Y-98595910D01*
X150353569Y-98808110D01*
X150302560Y-99060000D01*
X150302560Y-100560000D01*
X150346838Y-100795317D01*
X150485910Y-101011441D01*
X150698110Y-101156431D01*
X150731490Y-101163191D01*
X150590301Y-101221673D01*
X150411673Y-101400302D01*
X150315000Y-101633691D01*
X150315000Y-102224250D01*
X150473750Y-102383000D01*
X151473000Y-102383000D01*
X151473000Y-102363000D01*
X151727000Y-102363000D01*
X151727000Y-102383000D01*
X152726250Y-102383000D01*
X152885000Y-102224250D01*
X152885000Y-101633691D01*
X152788327Y-101400302D01*
X152609699Y-101221673D01*
X152473713Y-101165346D01*
X152485317Y-101163162D01*
X152701441Y-101024090D01*
X152846431Y-100811890D01*
X152897440Y-100560000D01*
X152897440Y-99060000D01*
X152853162Y-98824683D01*
X152714090Y-98608559D01*
X152501890Y-98463569D01*
X152309073Y-98424523D01*
X152193379Y-95472282D01*
X152160131Y-95333735D01*
X152132342Y-95194027D01*
X152123390Y-95180630D01*
X152119630Y-95164960D01*
X152035909Y-95049704D01*
X151956757Y-94931244D01*
X151736613Y-94711100D01*
X151775000Y-94518113D01*
X151775000Y-94461887D01*
X151665767Y-93912736D01*
X151354698Y-93447189D01*
X150889151Y-93136120D01*
X150340000Y-93026887D01*
X149790849Y-93136120D01*
X149325302Y-93447189D01*
X149228899Y-93591465D01*
X149203162Y-93454683D01*
X149064090Y-93238559D01*
X148851890Y-93093569D01*
X148600000Y-93042560D01*
X147000000Y-93042560D01*
X146764683Y-93086838D01*
X146548559Y-93225910D01*
X146403569Y-93438110D01*
X146352560Y-93690000D01*
X146352560Y-94824723D01*
X146190658Y-95067026D01*
X146129000Y-95377000D01*
X146129000Y-101473000D01*
X146190658Y-101782974D01*
X146336950Y-102001914D01*
X146366244Y-102045756D01*
X147313389Y-102992902D01*
X147315053Y-103005992D01*
X147268559Y-103035910D01*
X147123569Y-103248110D01*
X147072560Y-103500000D01*
X147072560Y-104722736D01*
X146384115Y-104725602D01*
X146078430Y-104419917D01*
X145954117Y-104119057D01*
X145691327Y-103855808D01*
X145347799Y-103713162D01*
X145344931Y-103713160D01*
X145484681Y-103376605D01*
X145485318Y-102646597D01*
X145206545Y-101971914D01*
X144690801Y-101455270D01*
X144016605Y-101175319D01*
X143286597Y-101174682D01*
X142611914Y-101453455D01*
X142095270Y-101969199D01*
X141997440Y-102204799D01*
X141997440Y-101810000D01*
X141953162Y-101574683D01*
X141814090Y-101358559D01*
X141601890Y-101213569D01*
X141350000Y-101162560D01*
X138950000Y-101162560D01*
X138714683Y-101206838D01*
X138498559Y-101345910D01*
X138353569Y-101558110D01*
X138302560Y-101810000D01*
X138302560Y-104210000D01*
X138346838Y-104445317D01*
X138485910Y-104661441D01*
X138698110Y-104806431D01*
X138950000Y-104857440D01*
X141350000Y-104857440D01*
X141585317Y-104813162D01*
X141801441Y-104674090D01*
X141946431Y-104461890D01*
X141997440Y-104210000D01*
X141997440Y-103815712D01*
X142093455Y-104048086D01*
X142609199Y-104564730D01*
X143283395Y-104844681D01*
X144013403Y-104845318D01*
X144225904Y-104757515D01*
X144225838Y-104833167D01*
X144367883Y-105176943D01*
X144630673Y-105440192D01*
X144933372Y-105565884D01*
X145477244Y-106109757D01*
X145478673Y-106110712D01*
X145479633Y-106112136D01*
X145609974Y-106198444D01*
X145740027Y-106285343D01*
X145741713Y-106285678D01*
X145743144Y-106286626D01*
X145896670Y-106316501D01*
X146050000Y-106346999D01*
X146051683Y-106346664D01*
X146053372Y-106346993D01*
X147072560Y-106342750D01*
X147072560Y-107500000D01*
X147116838Y-107735317D01*
X147169448Y-107817075D01*
X130710000Y-107793982D01*
X130710000Y-104735730D01*
X130828110Y-104816431D01*
X131080000Y-104867440D01*
X133480000Y-104867440D01*
X133715317Y-104823162D01*
X133931441Y-104684090D01*
X134076431Y-104471890D01*
X134107761Y-104317175D01*
X134662430Y-104317175D01*
X134785565Y-104604788D01*
X135467734Y-104864707D01*
X136197443Y-104843786D01*
X136774435Y-104604788D01*
X136897570Y-104317175D01*
X135780000Y-103199605D01*
X134662430Y-104317175D01*
X134107761Y-104317175D01*
X134127440Y-104220000D01*
X134127440Y-103850819D01*
X134195212Y-104014435D01*
X134482825Y-104137570D01*
X135600395Y-103020000D01*
X135959605Y-103020000D01*
X137077175Y-104137570D01*
X137364788Y-104014435D01*
X137624707Y-103332266D01*
X137603786Y-102602557D01*
X137364788Y-102025565D01*
X137077175Y-101902430D01*
X135959605Y-103020000D01*
X135600395Y-103020000D01*
X134482825Y-101902430D01*
X134195212Y-102025565D01*
X134127440Y-102203436D01*
X134127440Y-101820000D01*
X134109156Y-101722825D01*
X134662430Y-101722825D01*
X135780000Y-102840395D01*
X136897570Y-101722825D01*
X136774435Y-101435212D01*
X136092266Y-101175293D01*
X135362557Y-101196214D01*
X134785565Y-101435212D01*
X134662430Y-101722825D01*
X134109156Y-101722825D01*
X134083162Y-101584683D01*
X133944090Y-101368559D01*
X133731890Y-101223569D01*
X133480000Y-101172560D01*
X133144000Y-101172560D01*
X133144000Y-96753441D01*
X133268838Y-96452799D01*
X133269162Y-96080833D01*
X133179662Y-95864226D01*
X133185317Y-95863162D01*
X133401441Y-95724090D01*
X133546431Y-95511890D01*
X133597440Y-95260000D01*
X133597440Y-94765750D01*
X134260000Y-94765750D01*
X134260000Y-95356309D01*
X134356673Y-95589698D01*
X134535301Y-95768327D01*
X134768690Y-95865000D01*
X135234250Y-95865000D01*
X135393000Y-95706250D01*
X135393000Y-94607000D01*
X135647000Y-94607000D01*
X135647000Y-95706250D01*
X135805750Y-95865000D01*
X136271310Y-95865000D01*
X136504699Y-95768327D01*
X136683327Y-95589698D01*
X136780000Y-95356309D01*
X136780000Y-94765750D01*
X136621250Y-94607000D01*
X135647000Y-94607000D01*
X135393000Y-94607000D01*
X134418750Y-94607000D01*
X134260000Y-94765750D01*
X133597440Y-94765750D01*
X133597440Y-93608072D01*
X134283660Y-92921853D01*
X134291838Y-92965317D01*
X134430910Y-93181441D01*
X134499006Y-93227969D01*
X134356673Y-93370302D01*
X134260000Y-93603691D01*
X134260000Y-94194250D01*
X134418750Y-94353000D01*
X135393000Y-94353000D01*
X135393000Y-94333000D01*
X135647000Y-94333000D01*
X135647000Y-94353000D01*
X136621250Y-94353000D01*
X136780000Y-94194250D01*
X136780000Y-93603691D01*
X136683327Y-93370302D01*
X136542090Y-93229064D01*
X136596441Y-93194090D01*
X136741431Y-92981890D01*
X136792440Y-92730000D01*
X136792440Y-91230000D01*
X136748162Y-90994683D01*
X136637227Y-90822285D01*
X138045196Y-89414317D01*
X138110000Y-89427440D01*
X139610000Y-89427440D01*
X139845317Y-89383162D01*
X140011477Y-89276241D01*
X140158110Y-89376431D01*
X140287000Y-89402532D01*
X140287000Y-91682560D01*
X139260000Y-91682560D01*
X139024683Y-91726838D01*
X138808559Y-91865910D01*
X138663569Y-92078110D01*
X138612560Y-92330000D01*
X138612560Y-95330000D01*
X138656838Y-95565317D01*
X138795910Y-95781441D01*
X139008110Y-95926431D01*
X139260000Y-95977440D01*
X142075927Y-95977440D01*
X142338571Y-96240084D01*
X142462883Y-96540943D01*
X142725673Y-96804192D01*
X143069201Y-96946838D01*
X143441167Y-96947162D01*
X143784943Y-96805117D01*
X144048192Y-96542327D01*
X144190838Y-96198799D01*
X144191162Y-95826833D01*
X144049117Y-95483057D01*
X143786327Y-95219808D01*
X143707440Y-95187051D01*
X143707440Y-92330000D01*
X143663162Y-92094683D01*
X143524090Y-91878559D01*
X143311890Y-91733569D01*
X143060000Y-91682560D01*
X141907000Y-91682560D01*
X141907000Y-89427440D01*
X141910000Y-89427440D01*
X142145317Y-89383162D01*
X142309492Y-89277518D01*
X142350301Y-89318327D01*
X142583690Y-89415000D01*
X143174250Y-89415000D01*
X143333000Y-89256250D01*
X143333000Y-87657000D01*
X143587000Y-87657000D01*
X143587000Y-89256250D01*
X143745750Y-89415000D01*
X144336310Y-89415000D01*
X144569699Y-89318327D01*
X144748327Y-89139698D01*
X144845000Y-88906309D01*
X144845000Y-87815750D01*
X144686250Y-87657000D01*
X143587000Y-87657000D01*
X143333000Y-87657000D01*
X143313000Y-87657000D01*
X143313000Y-87403000D01*
X143333000Y-87403000D01*
X143333000Y-86015601D01*
X143420968Y-85803750D01*
X143587000Y-85803750D01*
X143587000Y-87403000D01*
X144686250Y-87403000D01*
X144845000Y-87244250D01*
X144845000Y-86153691D01*
X144748327Y-85920302D01*
X144569699Y-85741673D01*
X144336310Y-85645000D01*
X143745750Y-85645000D01*
X143587000Y-85803750D01*
X143420968Y-85803750D01*
X143428838Y-85784799D01*
X143429162Y-85412833D01*
X143287117Y-85069057D01*
X143024327Y-84805808D01*
X142680799Y-84663162D01*
X142308833Y-84662838D01*
X141965057Y-84804883D01*
X141701808Y-85067673D01*
X141559162Y-85411201D01*
X141559136Y-85441038D01*
X141491658Y-85542026D01*
X141473650Y-85632560D01*
X141142971Y-85632560D01*
X141143162Y-85412833D01*
X141001117Y-85069057D01*
X140738327Y-84805808D01*
X140394799Y-84663162D01*
X140022833Y-84662838D01*
X139679057Y-84804883D01*
X139415808Y-85067673D01*
X139273162Y-85411201D01*
X139273136Y-85441038D01*
X139205658Y-85542026D01*
X139187650Y-85632560D01*
X138110000Y-85632560D01*
X137874683Y-85676838D01*
X137658559Y-85815910D01*
X137513569Y-86028110D01*
X137462560Y-86280000D01*
X137462560Y-87705927D01*
X135938000Y-89230488D01*
X135938000Y-84836000D01*
X135876342Y-84526026D01*
X135700756Y-84263244D01*
X135437974Y-84087658D01*
X135397440Y-84079595D01*
X135397440Y-83730000D01*
X135353162Y-83494683D01*
X135214090Y-83278559D01*
X135001890Y-83133569D01*
X134750000Y-83082560D01*
X132750000Y-83082560D01*
X132514683Y-83126838D01*
X132298559Y-83265910D01*
X132153569Y-83478110D01*
X132102560Y-83730000D01*
X132102560Y-83745098D01*
X131775127Y-83744812D01*
X131376200Y-83909646D01*
X131070718Y-84214595D01*
X130905189Y-84613233D01*
X130904812Y-85044873D01*
X131069646Y-85443800D01*
X131357902Y-85732560D01*
X130710000Y-85732560D01*
X130710000Y-80927440D01*
X131358375Y-80927440D01*
X131070718Y-81214595D01*
X130905189Y-81613233D01*
X130904812Y-82044873D01*
X131069646Y-82443800D01*
X131374595Y-82749282D01*
X131773233Y-82914811D01*
X132204873Y-82915188D01*
X132603800Y-82750354D01*
X132909282Y-82445405D01*
X133062074Y-82077440D01*
X134750000Y-82077440D01*
X134985317Y-82033162D01*
X135201441Y-81894090D01*
X135346431Y-81681890D01*
X135397440Y-81430000D01*
X135397440Y-80730000D01*
X135353162Y-80494683D01*
X135214090Y-80278559D01*
X135001890Y-80133569D01*
X134750000Y-80082560D01*
X134347440Y-80082560D01*
X134347440Y-79080000D01*
X134303162Y-78844683D01*
X134164090Y-78628559D01*
X133951890Y-78483569D01*
X133700000Y-78432560D01*
X132500000Y-78432560D01*
X132264683Y-78476838D01*
X132048559Y-78615910D01*
X131995716Y-78693248D01*
X131954090Y-78628559D01*
X131741890Y-78483569D01*
X131490000Y-78432560D01*
X130710000Y-78432560D01*
X130710000Y-77371518D01*
X130721673Y-77399699D01*
X130900302Y-77578327D01*
X131133691Y-77675000D01*
X132849250Y-77675000D01*
X133008000Y-77516250D01*
X133008000Y-75817000D01*
X133262000Y-75817000D01*
X133262000Y-77516250D01*
X133420750Y-77675000D01*
X135136309Y-77675000D01*
X135369698Y-77578327D01*
X135548327Y-77399699D01*
X135645000Y-77166310D01*
X135645000Y-75975750D01*
X135486250Y-75817000D01*
X133262000Y-75817000D01*
X133008000Y-75817000D01*
X132988000Y-75817000D01*
X132988000Y-75563000D01*
X133008000Y-75563000D01*
X133008000Y-73863750D01*
X133262000Y-73863750D01*
X133262000Y-75563000D01*
X135486250Y-75563000D01*
X135645000Y-75404250D01*
X135645000Y-74213690D01*
X135548327Y-73980301D01*
X135369698Y-73801673D01*
X135136309Y-73705000D01*
X133420750Y-73705000D01*
X133262000Y-73863750D01*
X133008000Y-73863750D01*
X132849250Y-73705000D01*
X131133691Y-73705000D01*
X130900302Y-73801673D01*
X130721673Y-73980301D01*
X130710000Y-74008482D01*
X130710000Y-69516266D01*
X131053339Y-69516266D01*
X131365487Y-69964932D01*
X132608343Y-70483331D01*
X133954976Y-70486648D01*
X135200371Y-69974380D01*
X135214513Y-69964932D01*
X135526661Y-69516266D01*
X133290000Y-67279605D01*
X131053339Y-69516266D01*
X130710000Y-69516266D01*
X130710000Y-69222747D01*
X130873734Y-69336661D01*
X133110395Y-67100000D01*
X130873734Y-64863339D01*
X130710000Y-64977253D01*
X130710000Y-64683734D01*
X131053339Y-64683734D01*
X133290000Y-66920395D01*
X135526661Y-64683734D01*
X135214513Y-64235068D01*
X133971657Y-63716669D01*
X132625024Y-63713352D01*
X131379629Y-64225620D01*
X131365487Y-64235068D01*
X131053339Y-64683734D01*
X130710000Y-64683734D01*
X130710000Y-61435000D01*
X131644250Y-61435000D01*
X131803000Y-61276250D01*
X131803000Y-60477000D01*
X131783000Y-60477000D01*
X131783000Y-60223000D01*
X131803000Y-60223000D01*
X131803000Y-60203000D01*
X132057000Y-60203000D01*
X132057000Y-60223000D01*
X132057000Y-60223000D01*
G37*
X132057000Y-60223000D02*
X132077000Y-60223000D01*
X132077000Y-60477000D01*
X132057000Y-60477000D01*
X132057000Y-61276250D01*
X132215750Y-61435000D01*
X133556309Y-61435000D01*
X133789698Y-61338327D01*
X133968327Y-61159699D01*
X134065000Y-60926310D01*
X134065000Y-60788512D01*
X137732560Y-64456073D01*
X137732560Y-64590447D01*
X137500327Y-64357808D01*
X137156799Y-64215162D01*
X136784833Y-64214838D01*
X136441057Y-64356883D01*
X136177808Y-64619673D01*
X136035162Y-64963201D01*
X136035050Y-65092082D01*
X135706266Y-64863339D01*
X133469605Y-67100000D01*
X135706266Y-69336661D01*
X136154932Y-69024513D01*
X136673331Y-67781657D01*
X136676648Y-66435024D01*
X136480988Y-65959348D01*
X136742372Y-66067884D01*
X137732560Y-67058073D01*
X137732560Y-68170000D01*
X137776838Y-68405317D01*
X137915910Y-68621441D01*
X138128110Y-68766431D01*
X138380000Y-68817440D01*
X139680000Y-68817440D01*
X139915317Y-68773162D01*
X140131441Y-68634090D01*
X140276431Y-68421890D01*
X140279541Y-68406535D01*
X140286838Y-68445317D01*
X140425910Y-68661441D01*
X140638110Y-68806431D01*
X140668000Y-68812484D01*
X140668000Y-73692560D01*
X138810000Y-73692560D01*
X138574683Y-73736838D01*
X138358559Y-73875910D01*
X138213569Y-74088110D01*
X138162560Y-74340000D01*
X138162560Y-77040000D01*
X138206838Y-77275317D01*
X138345910Y-77491441D01*
X138558110Y-77636431D01*
X138810000Y-77687440D01*
X139923990Y-77687440D01*
X139967658Y-77906974D01*
X139999968Y-77955329D01*
X140143244Y-78169756D01*
X141703571Y-79730084D01*
X141827883Y-80030943D01*
X142090673Y-80294192D01*
X142434201Y-80436838D01*
X142806167Y-80437162D01*
X143149943Y-80295117D01*
X143413192Y-80032327D01*
X143555838Y-79688799D01*
X143556162Y-79316833D01*
X143414117Y-78973057D01*
X143151327Y-78709808D01*
X142848629Y-78584116D01*
X141951952Y-77687440D01*
X142560000Y-77687440D01*
X142795317Y-77643162D01*
X143011441Y-77504090D01*
X143156431Y-77291890D01*
X143207440Y-77040000D01*
X143207440Y-74340000D01*
X143163162Y-74104683D01*
X143024090Y-73888559D01*
X142811890Y-73743569D01*
X142560000Y-73692560D01*
X142288000Y-73692560D01*
X142288000Y-68839000D01*
X142425317Y-68813162D01*
X142641441Y-68674090D01*
X142655495Y-68653521D01*
X142740301Y-68738327D01*
X142973690Y-68835000D01*
X143464250Y-68835000D01*
X143623000Y-68676250D01*
X143623000Y-67577000D01*
X143877000Y-67577000D01*
X143877000Y-68676250D01*
X144035750Y-68835000D01*
X144526310Y-68835000D01*
X144759699Y-68738327D01*
X144938327Y-68559698D01*
X145035000Y-68326309D01*
X145035000Y-67735750D01*
X144876250Y-67577000D01*
X143877000Y-67577000D01*
X143623000Y-67577000D01*
X143603000Y-67577000D01*
X143603000Y-67323000D01*
X143623000Y-67323000D01*
X143623000Y-67303000D01*
X143877000Y-67303000D01*
X143877000Y-67323000D01*
X144876250Y-67323000D01*
X145035000Y-67164250D01*
X145035000Y-66803512D01*
X145643083Y-66195429D01*
X145748000Y-66152079D01*
X145748000Y-71501000D01*
X145809658Y-71810974D01*
X145911131Y-71962838D01*
X145985244Y-72073756D01*
X146891000Y-72979513D01*
X146891000Y-81643662D01*
X146714683Y-81676838D01*
X146498559Y-81815910D01*
X146353569Y-82028110D01*
X146350919Y-82041197D01*
X146214090Y-81828559D01*
X146001890Y-81683569D01*
X145750000Y-81632560D01*
X145265008Y-81632560D01*
X145333838Y-81466799D01*
X145334162Y-81094833D01*
X145192117Y-80751057D01*
X144929327Y-80487808D01*
X144585799Y-80345162D01*
X144213833Y-80344838D01*
X143870057Y-80486883D01*
X143606808Y-80749673D01*
X143464162Y-81093201D01*
X143463838Y-81465167D01*
X143589000Y-81768083D01*
X143589000Y-82296000D01*
X143602560Y-82364170D01*
X143602560Y-83580000D01*
X143637713Y-83766822D01*
X143606808Y-83797673D01*
X143464162Y-84141201D01*
X143463838Y-84513167D01*
X143605883Y-84856943D01*
X143868673Y-85120192D01*
X144212201Y-85262838D01*
X144584167Y-85263162D01*
X144927943Y-85121117D01*
X145191192Y-84858327D01*
X145316884Y-84555629D01*
X145606757Y-84265756D01*
X145632359Y-84227440D01*
X145750000Y-84227440D01*
X145985317Y-84183162D01*
X146201441Y-84044090D01*
X146346431Y-83831890D01*
X146349081Y-83818803D01*
X146485910Y-84031441D01*
X146698110Y-84176431D01*
X146950000Y-84227440D01*
X147018000Y-84227440D01*
X147018000Y-85671705D01*
X146785302Y-85827189D01*
X146474233Y-86292736D01*
X146365000Y-86841887D01*
X146365000Y-86898113D01*
X146474233Y-87447264D01*
X146785302Y-87912811D01*
X147250849Y-88223880D01*
X147800000Y-88333113D01*
X148349151Y-88223880D01*
X148814698Y-87912811D01*
X149084986Y-87508297D01*
X149187611Y-87725134D01*
X149602577Y-88101041D01*
X149990961Y-88261904D01*
X150213000Y-88139915D01*
X150213000Y-86997000D01*
X150467000Y-86997000D01*
X150467000Y-88139915D01*
X150689039Y-88261904D01*
X151077423Y-88101041D01*
X151492389Y-87725134D01*
X151731914Y-87219041D01*
X151610629Y-86997000D01*
X150467000Y-86997000D01*
X150213000Y-86997000D01*
X150193000Y-86997000D01*
X150193000Y-86743000D01*
X150213000Y-86743000D01*
X150213000Y-85600085D01*
X150467000Y-85600085D01*
X150467000Y-86743000D01*
X151610629Y-86743000D01*
X151731914Y-86520959D01*
X151492389Y-86014866D01*
X151077423Y-85638959D01*
X150689039Y-85478096D01*
X150467000Y-85600085D01*
X150213000Y-85600085D01*
X149990961Y-85478096D01*
X149602577Y-85638959D01*
X149187611Y-86014866D01*
X149084986Y-86231703D01*
X148814698Y-85827189D01*
X148638000Y-85709123D01*
X148638000Y-84192065D01*
X148685317Y-84183162D01*
X148901441Y-84044090D01*
X149046431Y-83831890D01*
X149097440Y-83580000D01*
X149097440Y-82280000D01*
X149053162Y-82044683D01*
X148914090Y-81828559D01*
X148701890Y-81683569D01*
X148511000Y-81644913D01*
X148511000Y-79166932D01*
X148775167Y-79167162D01*
X149118943Y-79025117D01*
X149382192Y-78762327D01*
X149507884Y-78459628D01*
X154623756Y-73343757D01*
X154722089Y-73196591D01*
X154799342Y-73080974D01*
X154861000Y-72771000D01*
X154861000Y-72744420D01*
X154917673Y-72801192D01*
X155261201Y-72943838D01*
X155633167Y-72944162D01*
X155654000Y-72935554D01*
X155654000Y-74262560D01*
X154510000Y-74262560D01*
X154274683Y-74306838D01*
X154058559Y-74445910D01*
X153913569Y-74658110D01*
X153862560Y-74910000D01*
X153862560Y-77910000D01*
X153906838Y-78145317D01*
X154045910Y-78361441D01*
X154258110Y-78506431D01*
X154510000Y-78557440D01*
X158094495Y-78557440D01*
X157780272Y-78763854D01*
X157744469Y-78799345D01*
X157725294Y-78845969D01*
X157725770Y-78896380D01*
X157745821Y-78942634D01*
X157782287Y-78977443D01*
X157829423Y-78995322D01*
X157879802Y-78993454D01*
X157919112Y-78976548D01*
X158012724Y-78915827D01*
X158003642Y-78961487D01*
X158003642Y-79031416D01*
X157990000Y-79100000D01*
X157990000Y-102779868D01*
X157736266Y-102603339D01*
X155499605Y-104840000D01*
X157736266Y-107076661D01*
X157990000Y-106900132D01*
X157990000Y-107000000D01*
X157992698Y-107013562D01*
X157989433Y-107032100D01*
X157990172Y-107065640D01*
X158007447Y-107143485D01*
X158011429Y-107223117D01*
X158068581Y-107450442D01*
X158156038Y-107634936D01*
X158187244Y-107700768D01*
X158285247Y-107832670D01*
X156947355Y-107830793D01*
X157230371Y-107714380D01*
X157244513Y-107704932D01*
X157556661Y-107256266D01*
X155320000Y-105019605D01*
X153083339Y-107256266D01*
X153395487Y-107704932D01*
X153686268Y-107826218D01*
X149769400Y-107820722D01*
X149816431Y-107751890D01*
X149867440Y-107500000D01*
X149867440Y-103500000D01*
X149823162Y-103264683D01*
X149753334Y-103156168D01*
X149763192Y-103146327D01*
X149905838Y-102802799D01*
X149905844Y-102795750D01*
X150315000Y-102795750D01*
X150315000Y-103386309D01*
X150411673Y-103619698D01*
X150590301Y-103798327D01*
X150823690Y-103895000D01*
X151314250Y-103895000D01*
X151473000Y-103736250D01*
X151473000Y-102637000D01*
X151727000Y-102637000D01*
X151727000Y-103736250D01*
X151885750Y-103895000D01*
X152046510Y-103895000D01*
X151936669Y-104158343D01*
X151933352Y-105504976D01*
X152445620Y-106750371D01*
X152455068Y-106764513D01*
X152903734Y-107076661D01*
X155140395Y-104840000D01*
X152903734Y-102603339D01*
X152779218Y-102689968D01*
X152726250Y-102637000D01*
X151727000Y-102637000D01*
X151473000Y-102637000D01*
X150473750Y-102637000D01*
X150315000Y-102795750D01*
X149905844Y-102795750D01*
X149906162Y-102430833D01*
X149903229Y-102423734D01*
X153083339Y-102423734D01*
X155320000Y-104660395D01*
X157556661Y-102423734D01*
X157244513Y-101975068D01*
X156001657Y-101456669D01*
X154655024Y-101453352D01*
X153409629Y-101965620D01*
X153395487Y-101975068D01*
X153083339Y-102423734D01*
X149903229Y-102423734D01*
X149764117Y-102087057D01*
X149501327Y-101823808D01*
X149495229Y-101821276D01*
X149465342Y-101671026D01*
X149423941Y-101609066D01*
X149455317Y-101603162D01*
X149671441Y-101464090D01*
X149816431Y-101251890D01*
X149867440Y-101000000D01*
X149867440Y-97000000D01*
X149823162Y-96764683D01*
X149684090Y-96548559D01*
X149471890Y-96403569D01*
X149220000Y-96352560D01*
X148762925Y-96352560D01*
X148763162Y-96080833D01*
X148696417Y-95919298D01*
X148835317Y-95893162D01*
X149051441Y-95754090D01*
X149196431Y-95541890D01*
X149227815Y-95386911D01*
X149325302Y-95532811D01*
X149790849Y-95843880D01*
X150340000Y-95953113D01*
X150589037Y-95903576D01*
X150689725Y-98472898D01*
X150498559Y-98595910D01*
X150353569Y-98808110D01*
X150302560Y-99060000D01*
X150302560Y-100560000D01*
X150346838Y-100795317D01*
X150485910Y-101011441D01*
X150698110Y-101156431D01*
X150731490Y-101163191D01*
X150590301Y-101221673D01*
X150411673Y-101400302D01*
X150315000Y-101633691D01*
X150315000Y-102224250D01*
X150473750Y-102383000D01*
X151473000Y-102383000D01*
X151473000Y-102363000D01*
X151727000Y-102363000D01*
X151727000Y-102383000D01*
X152726250Y-102383000D01*
X152885000Y-102224250D01*
X152885000Y-101633691D01*
X152788327Y-101400302D01*
X152609699Y-101221673D01*
X152473713Y-101165346D01*
X152485317Y-101163162D01*
X152701441Y-101024090D01*
X152846431Y-100811890D01*
X152897440Y-100560000D01*
X152897440Y-99060000D01*
X152853162Y-98824683D01*
X152714090Y-98608559D01*
X152501890Y-98463569D01*
X152309073Y-98424523D01*
X152193379Y-95472282D01*
X152160131Y-95333735D01*
X152132342Y-95194027D01*
X152123390Y-95180630D01*
X152119630Y-95164960D01*
X152035909Y-95049704D01*
X151956757Y-94931244D01*
X151736613Y-94711100D01*
X151775000Y-94518113D01*
X151775000Y-94461887D01*
X151665767Y-93912736D01*
X151354698Y-93447189D01*
X150889151Y-93136120D01*
X150340000Y-93026887D01*
X149790849Y-93136120D01*
X149325302Y-93447189D01*
X149228899Y-93591465D01*
X149203162Y-93454683D01*
X149064090Y-93238559D01*
X148851890Y-93093569D01*
X148600000Y-93042560D01*
X147000000Y-93042560D01*
X146764683Y-93086838D01*
X146548559Y-93225910D01*
X146403569Y-93438110D01*
X146352560Y-93690000D01*
X146352560Y-94824723D01*
X146190658Y-95067026D01*
X146129000Y-95377000D01*
X146129000Y-101473000D01*
X146190658Y-101782974D01*
X146336950Y-102001914D01*
X146366244Y-102045756D01*
X147313389Y-102992902D01*
X147315053Y-103005992D01*
X147268559Y-103035910D01*
X147123569Y-103248110D01*
X147072560Y-103500000D01*
X147072560Y-104722736D01*
X146384115Y-104725602D01*
X146078430Y-104419917D01*
X145954117Y-104119057D01*
X145691327Y-103855808D01*
X145347799Y-103713162D01*
X145344931Y-103713160D01*
X145484681Y-103376605D01*
X145485318Y-102646597D01*
X145206545Y-101971914D01*
X144690801Y-101455270D01*
X144016605Y-101175319D01*
X143286597Y-101174682D01*
X142611914Y-101453455D01*
X142095270Y-101969199D01*
X141997440Y-102204799D01*
X141997440Y-101810000D01*
X141953162Y-101574683D01*
X141814090Y-101358559D01*
X141601890Y-101213569D01*
X141350000Y-101162560D01*
X138950000Y-101162560D01*
X138714683Y-101206838D01*
X138498559Y-101345910D01*
X138353569Y-101558110D01*
X138302560Y-101810000D01*
X138302560Y-104210000D01*
X138346838Y-104445317D01*
X138485910Y-104661441D01*
X138698110Y-104806431D01*
X138950000Y-104857440D01*
X141350000Y-104857440D01*
X141585317Y-104813162D01*
X141801441Y-104674090D01*
X141946431Y-104461890D01*
X141997440Y-104210000D01*
X141997440Y-103815712D01*
X142093455Y-104048086D01*
X142609199Y-104564730D01*
X143283395Y-104844681D01*
X144013403Y-104845318D01*
X144225904Y-104757515D01*
X144225838Y-104833167D01*
X144367883Y-105176943D01*
X144630673Y-105440192D01*
X144933372Y-105565884D01*
X145477244Y-106109757D01*
X145478673Y-106110712D01*
X145479633Y-106112136D01*
X145609974Y-106198444D01*
X145740027Y-106285343D01*
X145741713Y-106285678D01*
X145743144Y-106286626D01*
X145896670Y-106316501D01*
X146050000Y-106346999D01*
X146051683Y-106346664D01*
X146053372Y-106346993D01*
X147072560Y-106342750D01*
X147072560Y-107500000D01*
X147116838Y-107735317D01*
X147169448Y-107817075D01*
X130710000Y-107793982D01*
X130710000Y-104735730D01*
X130828110Y-104816431D01*
X131080000Y-104867440D01*
X133480000Y-104867440D01*
X133715317Y-104823162D01*
X133931441Y-104684090D01*
X134076431Y-104471890D01*
X134107761Y-104317175D01*
X134662430Y-104317175D01*
X134785565Y-104604788D01*
X135467734Y-104864707D01*
X136197443Y-104843786D01*
X136774435Y-104604788D01*
X136897570Y-104317175D01*
X135780000Y-103199605D01*
X134662430Y-104317175D01*
X134107761Y-104317175D01*
X134127440Y-104220000D01*
X134127440Y-103850819D01*
X134195212Y-104014435D01*
X134482825Y-104137570D01*
X135600395Y-103020000D01*
X135959605Y-103020000D01*
X137077175Y-104137570D01*
X137364788Y-104014435D01*
X137624707Y-103332266D01*
X137603786Y-102602557D01*
X137364788Y-102025565D01*
X137077175Y-101902430D01*
X135959605Y-103020000D01*
X135600395Y-103020000D01*
X134482825Y-101902430D01*
X134195212Y-102025565D01*
X134127440Y-102203436D01*
X134127440Y-101820000D01*
X134109156Y-101722825D01*
X134662430Y-101722825D01*
X135780000Y-102840395D01*
X136897570Y-101722825D01*
X136774435Y-101435212D01*
X136092266Y-101175293D01*
X135362557Y-101196214D01*
X134785565Y-101435212D01*
X134662430Y-101722825D01*
X134109156Y-101722825D01*
X134083162Y-101584683D01*
X133944090Y-101368559D01*
X133731890Y-101223569D01*
X133480000Y-101172560D01*
X133144000Y-101172560D01*
X133144000Y-96753441D01*
X133268838Y-96452799D01*
X133269162Y-96080833D01*
X133179662Y-95864226D01*
X133185317Y-95863162D01*
X133401441Y-95724090D01*
X133546431Y-95511890D01*
X133597440Y-95260000D01*
X133597440Y-94765750D01*
X134260000Y-94765750D01*
X134260000Y-95356309D01*
X134356673Y-95589698D01*
X134535301Y-95768327D01*
X134768690Y-95865000D01*
X135234250Y-95865000D01*
X135393000Y-95706250D01*
X135393000Y-94607000D01*
X135647000Y-94607000D01*
X135647000Y-95706250D01*
X135805750Y-95865000D01*
X136271310Y-95865000D01*
X136504699Y-95768327D01*
X136683327Y-95589698D01*
X136780000Y-95356309D01*
X136780000Y-94765750D01*
X136621250Y-94607000D01*
X135647000Y-94607000D01*
X135393000Y-94607000D01*
X134418750Y-94607000D01*
X134260000Y-94765750D01*
X133597440Y-94765750D01*
X133597440Y-93608072D01*
X134283660Y-92921853D01*
X134291838Y-92965317D01*
X134430910Y-93181441D01*
X134499006Y-93227969D01*
X134356673Y-93370302D01*
X134260000Y-93603691D01*
X134260000Y-94194250D01*
X134418750Y-94353000D01*
X135393000Y-94353000D01*
X135393000Y-94333000D01*
X135647000Y-94333000D01*
X135647000Y-94353000D01*
X136621250Y-94353000D01*
X136780000Y-94194250D01*
X136780000Y-93603691D01*
X136683327Y-93370302D01*
X136542090Y-93229064D01*
X136596441Y-93194090D01*
X136741431Y-92981890D01*
X136792440Y-92730000D01*
X136792440Y-91230000D01*
X136748162Y-90994683D01*
X136637227Y-90822285D01*
X138045196Y-89414317D01*
X138110000Y-89427440D01*
X139610000Y-89427440D01*
X139845317Y-89383162D01*
X140011477Y-89276241D01*
X140158110Y-89376431D01*
X140287000Y-89402532D01*
X140287000Y-91682560D01*
X139260000Y-91682560D01*
X139024683Y-91726838D01*
X138808559Y-91865910D01*
X138663569Y-92078110D01*
X138612560Y-92330000D01*
X138612560Y-95330000D01*
X138656838Y-95565317D01*
X138795910Y-95781441D01*
X139008110Y-95926431D01*
X139260000Y-95977440D01*
X142075927Y-95977440D01*
X142338571Y-96240084D01*
X142462883Y-96540943D01*
X142725673Y-96804192D01*
X143069201Y-96946838D01*
X143441167Y-96947162D01*
X143784943Y-96805117D01*
X144048192Y-96542327D01*
X144190838Y-96198799D01*
X144191162Y-95826833D01*
X144049117Y-95483057D01*
X143786327Y-95219808D01*
X143707440Y-95187051D01*
X143707440Y-92330000D01*
X143663162Y-92094683D01*
X143524090Y-91878559D01*
X143311890Y-91733569D01*
X143060000Y-91682560D01*
X141907000Y-91682560D01*
X141907000Y-89427440D01*
X141910000Y-89427440D01*
X142145317Y-89383162D01*
X142309492Y-89277518D01*
X142350301Y-89318327D01*
X142583690Y-89415000D01*
X143174250Y-89415000D01*
X143333000Y-89256250D01*
X143333000Y-87657000D01*
X143587000Y-87657000D01*
X143587000Y-89256250D01*
X143745750Y-89415000D01*
X144336310Y-89415000D01*
X144569699Y-89318327D01*
X144748327Y-89139698D01*
X144845000Y-88906309D01*
X144845000Y-87815750D01*
X144686250Y-87657000D01*
X143587000Y-87657000D01*
X143333000Y-87657000D01*
X143313000Y-87657000D01*
X143313000Y-87403000D01*
X143333000Y-87403000D01*
X143333000Y-86015601D01*
X143420968Y-85803750D01*
X143587000Y-85803750D01*
X143587000Y-87403000D01*
X144686250Y-87403000D01*
X144845000Y-87244250D01*
X144845000Y-86153691D01*
X144748327Y-85920302D01*
X144569699Y-85741673D01*
X144336310Y-85645000D01*
X143745750Y-85645000D01*
X143587000Y-85803750D01*
X143420968Y-85803750D01*
X143428838Y-85784799D01*
X143429162Y-85412833D01*
X143287117Y-85069057D01*
X143024327Y-84805808D01*
X142680799Y-84663162D01*
X142308833Y-84662838D01*
X141965057Y-84804883D01*
X141701808Y-85067673D01*
X141559162Y-85411201D01*
X141559136Y-85441038D01*
X141491658Y-85542026D01*
X141473650Y-85632560D01*
X141142971Y-85632560D01*
X141143162Y-85412833D01*
X141001117Y-85069057D01*
X140738327Y-84805808D01*
X140394799Y-84663162D01*
X140022833Y-84662838D01*
X139679057Y-84804883D01*
X139415808Y-85067673D01*
X139273162Y-85411201D01*
X139273136Y-85441038D01*
X139205658Y-85542026D01*
X139187650Y-85632560D01*
X138110000Y-85632560D01*
X137874683Y-85676838D01*
X137658559Y-85815910D01*
X137513569Y-86028110D01*
X137462560Y-86280000D01*
X137462560Y-87705927D01*
X135938000Y-89230488D01*
X135938000Y-84836000D01*
X135876342Y-84526026D01*
X135700756Y-84263244D01*
X135437974Y-84087658D01*
X135397440Y-84079595D01*
X135397440Y-83730000D01*
X135353162Y-83494683D01*
X135214090Y-83278559D01*
X135001890Y-83133569D01*
X134750000Y-83082560D01*
X132750000Y-83082560D01*
X132514683Y-83126838D01*
X132298559Y-83265910D01*
X132153569Y-83478110D01*
X132102560Y-83730000D01*
X132102560Y-83745098D01*
X131775127Y-83744812D01*
X131376200Y-83909646D01*
X131070718Y-84214595D01*
X130905189Y-84613233D01*
X130904812Y-85044873D01*
X131069646Y-85443800D01*
X131357902Y-85732560D01*
X130710000Y-85732560D01*
X130710000Y-80927440D01*
X131358375Y-80927440D01*
X131070718Y-81214595D01*
X130905189Y-81613233D01*
X130904812Y-82044873D01*
X131069646Y-82443800D01*
X131374595Y-82749282D01*
X131773233Y-82914811D01*
X132204873Y-82915188D01*
X132603800Y-82750354D01*
X132909282Y-82445405D01*
X133062074Y-82077440D01*
X134750000Y-82077440D01*
X134985317Y-82033162D01*
X135201441Y-81894090D01*
X135346431Y-81681890D01*
X135397440Y-81430000D01*
X135397440Y-80730000D01*
X135353162Y-80494683D01*
X135214090Y-80278559D01*
X135001890Y-80133569D01*
X134750000Y-80082560D01*
X134347440Y-80082560D01*
X134347440Y-79080000D01*
X134303162Y-78844683D01*
X134164090Y-78628559D01*
X133951890Y-78483569D01*
X133700000Y-78432560D01*
X132500000Y-78432560D01*
X132264683Y-78476838D01*
X132048559Y-78615910D01*
X131995716Y-78693248D01*
X131954090Y-78628559D01*
X131741890Y-78483569D01*
X131490000Y-78432560D01*
X130710000Y-78432560D01*
X130710000Y-77371518D01*
X130721673Y-77399699D01*
X130900302Y-77578327D01*
X131133691Y-77675000D01*
X132849250Y-77675000D01*
X133008000Y-77516250D01*
X133008000Y-75817000D01*
X133262000Y-75817000D01*
X133262000Y-77516250D01*
X133420750Y-77675000D01*
X135136309Y-77675000D01*
X135369698Y-77578327D01*
X135548327Y-77399699D01*
X135645000Y-77166310D01*
X135645000Y-75975750D01*
X135486250Y-75817000D01*
X133262000Y-75817000D01*
X133008000Y-75817000D01*
X132988000Y-75817000D01*
X132988000Y-75563000D01*
X133008000Y-75563000D01*
X133008000Y-73863750D01*
X133262000Y-73863750D01*
X133262000Y-75563000D01*
X135486250Y-75563000D01*
X135645000Y-75404250D01*
X135645000Y-74213690D01*
X135548327Y-73980301D01*
X135369698Y-73801673D01*
X135136309Y-73705000D01*
X133420750Y-73705000D01*
X133262000Y-73863750D01*
X133008000Y-73863750D01*
X132849250Y-73705000D01*
X131133691Y-73705000D01*
X130900302Y-73801673D01*
X130721673Y-73980301D01*
X130710000Y-74008482D01*
X130710000Y-69516266D01*
X131053339Y-69516266D01*
X131365487Y-69964932D01*
X132608343Y-70483331D01*
X133954976Y-70486648D01*
X135200371Y-69974380D01*
X135214513Y-69964932D01*
X135526661Y-69516266D01*
X133290000Y-67279605D01*
X131053339Y-69516266D01*
X130710000Y-69516266D01*
X130710000Y-69222747D01*
X130873734Y-69336661D01*
X133110395Y-67100000D01*
X130873734Y-64863339D01*
X130710000Y-64977253D01*
X130710000Y-64683734D01*
X131053339Y-64683734D01*
X133290000Y-66920395D01*
X135526661Y-64683734D01*
X135214513Y-64235068D01*
X133971657Y-63716669D01*
X132625024Y-63713352D01*
X131379629Y-64225620D01*
X131365487Y-64235068D01*
X131053339Y-64683734D01*
X130710000Y-64683734D01*
X130710000Y-61435000D01*
X131644250Y-61435000D01*
X131803000Y-61276250D01*
X131803000Y-60477000D01*
X131783000Y-60477000D01*
X131783000Y-60223000D01*
X131803000Y-60223000D01*
X131803000Y-60203000D01*
X132057000Y-60203000D01*
X132057000Y-60223000D01*
G36*
X147953750Y-48223000D02*
X149803000Y-48223000D01*
X149803000Y-48210000D01*
X150057000Y-48210000D01*
X150057000Y-48223000D01*
X151906250Y-48223000D01*
X151919250Y-48210000D01*
X166196939Y-48210000D01*
X166143569Y-48288110D01*
X166092560Y-48540000D01*
X166092560Y-50240000D01*
X166136838Y-50475317D01*
X166275910Y-50691441D01*
X166488110Y-50836431D01*
X166703000Y-50879947D01*
X166703000Y-53072560D01*
X166290000Y-53072560D01*
X166054683Y-53116838D01*
X165838559Y-53255910D01*
X165693569Y-53468110D01*
X165642560Y-53720000D01*
X165642560Y-55520000D01*
X165686838Y-55755317D01*
X165825910Y-55971441D01*
X166038110Y-56116431D01*
X166290000Y-56167440D01*
X168790000Y-56167440D01*
X169025317Y-56123162D01*
X169241441Y-55984090D01*
X169386431Y-55771890D01*
X169437440Y-55520000D01*
X169437440Y-53720000D01*
X169393162Y-53484683D01*
X169254090Y-53268559D01*
X169041890Y-53123569D01*
X168790000Y-53072560D01*
X168323000Y-53072560D01*
X168323000Y-50887440D01*
X168440000Y-50887440D01*
X168675317Y-50843162D01*
X168891441Y-50704090D01*
X169036431Y-50491890D01*
X169058301Y-50383893D01*
X169363076Y-50661645D01*
X169773110Y-50831476D01*
X170003000Y-50710155D01*
X170003000Y-49517000D01*
X169983000Y-49517000D01*
X169983000Y-49263000D01*
X170003000Y-49263000D01*
X170003000Y-49243000D01*
X170257000Y-49243000D01*
X170257000Y-49263000D01*
X170277000Y-49263000D01*
X170277000Y-49517000D01*
X170257000Y-49517000D01*
X170257000Y-50710155D01*
X170486890Y-50831476D01*
X170896924Y-50661645D01*
X171325183Y-50271358D01*
X171392298Y-50128447D01*
X171619946Y-50469147D01*
X171910000Y-50662954D01*
X171910000Y-51033258D01*
X171784683Y-51056838D01*
X171568559Y-51195910D01*
X171423569Y-51408110D01*
X171372560Y-51660000D01*
X171372560Y-53160000D01*
X171416838Y-53395317D01*
X171555910Y-53611441D01*
X171768110Y-53756431D01*
X171781197Y-53759081D01*
X171568559Y-53895910D01*
X171423569Y-54108110D01*
X171372560Y-54360000D01*
X171372560Y-55319927D01*
X170332918Y-56359570D01*
X170032057Y-56483883D01*
X169768808Y-56746673D01*
X169626162Y-57090201D01*
X169625838Y-57462167D01*
X169767883Y-57805943D01*
X170030673Y-58069192D01*
X170374201Y-58211838D01*
X170746167Y-58212162D01*
X171089943Y-58070117D01*
X171353192Y-57807327D01*
X171478884Y-57504628D01*
X172476073Y-56507440D01*
X172928006Y-56507440D01*
X172927838Y-56700167D01*
X173069883Y-57043943D01*
X173332673Y-57307192D01*
X173676201Y-57449838D01*
X174048167Y-57450162D01*
X174391943Y-57308117D01*
X174655192Y-57045327D01*
X174780884Y-56742628D01*
X174976072Y-56547440D01*
X175870000Y-56547440D01*
X176105317Y-56503162D01*
X176321441Y-56364090D01*
X176390000Y-56263751D01*
X176390000Y-60287607D01*
X176294090Y-60138559D01*
X176081890Y-59993569D01*
X175830000Y-59942560D01*
X174330000Y-59942560D01*
X174094683Y-59986838D01*
X173878559Y-60125910D01*
X173733569Y-60338110D01*
X173730919Y-60351197D01*
X173594090Y-60138559D01*
X173381890Y-59993569D01*
X173130000Y-59942560D01*
X171630000Y-59942560D01*
X171394683Y-59986838D01*
X171178559Y-60125910D01*
X171033569Y-60338110D01*
X170982560Y-60590000D01*
X170982560Y-61424928D01*
X170713917Y-61693570D01*
X170413057Y-61817883D01*
X170155001Y-62075489D01*
X169717440Y-61637928D01*
X169717440Y-60650000D01*
X169673162Y-60414683D01*
X169534090Y-60198559D01*
X169321890Y-60053569D01*
X169070000Y-60002560D01*
X167570000Y-60002560D01*
X167334683Y-60046838D01*
X167118559Y-60185910D01*
X166973569Y-60398110D01*
X166970919Y-60411197D01*
X166834090Y-60198559D01*
X166621890Y-60053569D01*
X166370000Y-60002560D01*
X164870000Y-60002560D01*
X164634683Y-60046838D01*
X164418559Y-60185910D01*
X164273569Y-60398110D01*
X164222560Y-60650000D01*
X164222560Y-61707928D01*
X163982917Y-61947570D01*
X163827440Y-62011812D01*
X163827440Y-60610000D01*
X163783162Y-60374683D01*
X163644090Y-60158559D01*
X163431890Y-60013569D01*
X163370000Y-60001036D01*
X163370000Y-59100932D01*
X163634167Y-59101162D01*
X163977943Y-58959117D01*
X164241192Y-58696327D01*
X164383838Y-58352799D01*
X164384103Y-58048537D01*
X164386000Y-58039000D01*
X164386000Y-56167440D01*
X164790000Y-56167440D01*
X165025317Y-56123162D01*
X165241441Y-55984090D01*
X165386431Y-55771890D01*
X165437440Y-55520000D01*
X165437440Y-53720000D01*
X165393162Y-53484683D01*
X165254090Y-53268559D01*
X165041890Y-53123569D01*
X164790000Y-53072560D01*
X162290000Y-53072560D01*
X162054683Y-53116838D01*
X161838559Y-53255910D01*
X161693569Y-53468110D01*
X161642560Y-53720000D01*
X161642560Y-55214047D01*
X157600031Y-51171518D01*
X157736431Y-50971890D01*
X157787440Y-50720000D01*
X157787440Y-50255750D01*
X159005000Y-50255750D01*
X159005000Y-50846310D01*
X159101673Y-51079699D01*
X159280302Y-51258327D01*
X159513691Y-51355000D01*
X161354250Y-51355000D01*
X161513000Y-51196250D01*
X161513000Y-50097000D01*
X161767000Y-50097000D01*
X161767000Y-51196250D01*
X161925750Y-51355000D01*
X163766309Y-51355000D01*
X163999698Y-51258327D01*
X164178327Y-51079699D01*
X164275000Y-50846310D01*
X164275000Y-50255750D01*
X164116250Y-50097000D01*
X161767000Y-50097000D01*
X161513000Y-50097000D01*
X159163750Y-50097000D01*
X159005000Y-50255750D01*
X157787440Y-50255750D01*
X157787440Y-49220000D01*
X157763674Y-49093690D01*
X159005000Y-49093690D01*
X159005000Y-49684250D01*
X159163750Y-49843000D01*
X161513000Y-49843000D01*
X161513000Y-48743750D01*
X161767000Y-48743750D01*
X161767000Y-49843000D01*
X164116250Y-49843000D01*
X164275000Y-49684250D01*
X164275000Y-49093690D01*
X164178327Y-48860301D01*
X163999698Y-48681673D01*
X163766309Y-48585000D01*
X161925750Y-48585000D01*
X161767000Y-48743750D01*
X161513000Y-48743750D01*
X161354250Y-48585000D01*
X159513691Y-48585000D01*
X159280302Y-48681673D01*
X159101673Y-48860301D01*
X159005000Y-49093690D01*
X157763674Y-49093690D01*
X157743162Y-48984683D01*
X157604090Y-48768559D01*
X157391890Y-48623569D01*
X157140000Y-48572560D01*
X153140000Y-48572560D01*
X152904683Y-48616838D01*
X152688559Y-48755910D01*
X152543569Y-48968110D01*
X152492560Y-49220000D01*
X152492560Y-50720000D01*
X152536838Y-50955317D01*
X152675910Y-51171441D01*
X152746896Y-51219943D01*
X152735162Y-51248201D01*
X152734838Y-51620167D01*
X152876883Y-51963943D01*
X153139673Y-52227192D01*
X153483201Y-52369838D01*
X153855167Y-52370162D01*
X154198943Y-52228117D01*
X154462192Y-51965327D01*
X154587884Y-51662628D01*
X154883072Y-51367440D01*
X155504928Y-51367440D01*
X161750000Y-57612513D01*
X161750000Y-59009068D01*
X161485833Y-59008838D01*
X161142057Y-59150883D01*
X160878808Y-59413673D01*
X160736162Y-59757201D01*
X160736136Y-59787038D01*
X160668658Y-59888026D01*
X160607000Y-60198000D01*
X160607000Y-62148487D01*
X159701244Y-63054244D01*
X159525658Y-63317026D01*
X159471581Y-63588890D01*
X159398658Y-63698026D01*
X159337000Y-64008000D01*
X159337000Y-65400000D01*
X159225750Y-65400000D01*
X159067000Y-65558750D01*
X159067000Y-66533000D01*
X159087000Y-66533000D01*
X159087000Y-66787000D01*
X159067000Y-66787000D01*
X159067000Y-67761250D01*
X159225750Y-67920000D01*
X159337000Y-67920000D01*
X159337000Y-68225000D01*
X158995750Y-68225000D01*
X158837000Y-68383750D01*
X158837000Y-69983000D01*
X158857000Y-69983000D01*
X158857000Y-70237000D01*
X158837000Y-70237000D01*
X158837000Y-71836250D01*
X158995750Y-71995000D01*
X159586310Y-71995000D01*
X159819699Y-71898327D01*
X159998327Y-71719698D01*
X160095000Y-71486309D01*
X160095000Y-70395750D01*
X159936252Y-70237002D01*
X160095000Y-70237002D01*
X160095000Y-70149955D01*
X160332167Y-70150162D01*
X160675943Y-70008117D01*
X160939192Y-69745327D01*
X161081838Y-69401799D01*
X161082162Y-69029833D01*
X160957000Y-68726917D01*
X160957000Y-65197043D01*
X161094167Y-65197162D01*
X161315658Y-65105644D01*
X161415910Y-65261441D01*
X161628110Y-65406431D01*
X161880000Y-65457440D01*
X163180000Y-65457440D01*
X163415317Y-65413162D01*
X163631441Y-65274090D01*
X163776431Y-65061890D01*
X163825820Y-64818000D01*
X164084000Y-64818000D01*
X164094561Y-64815899D01*
X164396167Y-64816162D01*
X164739943Y-64674117D01*
X165003192Y-64411327D01*
X165145838Y-64067799D01*
X165146162Y-63695833D01*
X165012617Y-63372629D01*
X165128884Y-63092628D01*
X165624073Y-62597440D01*
X166370000Y-62597440D01*
X166605317Y-62553162D01*
X166821441Y-62414090D01*
X166966431Y-62201890D01*
X166969081Y-62188803D01*
X167105910Y-62401441D01*
X167318110Y-62546431D01*
X167570000Y-62597440D01*
X168385928Y-62597440D01*
X169516571Y-63728084D01*
X169640883Y-64028943D01*
X169903673Y-64292192D01*
X170247201Y-64434838D01*
X170619167Y-64435162D01*
X170962943Y-64293117D01*
X171226192Y-64030327D01*
X171368838Y-63686799D01*
X171369048Y-63446219D01*
X171470943Y-63404117D01*
X171734192Y-63141327D01*
X171859884Y-62838628D01*
X172161072Y-62537440D01*
X173130000Y-62537440D01*
X173365317Y-62493162D01*
X173581441Y-62354090D01*
X173726431Y-62141890D01*
X173729081Y-62128803D01*
X173865910Y-62341441D01*
X174078110Y-62486431D01*
X174330000Y-62537440D01*
X175310927Y-62537440D01*
X175466000Y-62692513D01*
X175466000Y-64388177D01*
X175098113Y-64315000D01*
X175041887Y-64315000D01*
X174492736Y-64424233D01*
X174027189Y-64735302D01*
X173716120Y-65200849D01*
X173606887Y-65750000D01*
X173716120Y-66299151D01*
X174027189Y-66764698D01*
X174171465Y-66861101D01*
X174034683Y-66886838D01*
X173818559Y-67025910D01*
X173673569Y-67238110D01*
X173622560Y-67490000D01*
X173622560Y-69090000D01*
X173666838Y-69325317D01*
X173805910Y-69541441D01*
X174018110Y-69686431D01*
X174270000Y-69737440D01*
X175870000Y-69737440D01*
X176105317Y-69693162D01*
X176321441Y-69554090D01*
X176390000Y-69453751D01*
X176390000Y-73329608D01*
X176351890Y-73303569D01*
X176100000Y-73252560D01*
X174982072Y-73252560D01*
X174399430Y-72669918D01*
X174275117Y-72369057D01*
X174012327Y-72105808D01*
X173668799Y-71963162D01*
X173296833Y-71962838D01*
X172953057Y-72104883D01*
X172689808Y-72367673D01*
X172547162Y-72711201D01*
X172546838Y-73083167D01*
X172618366Y-73256279D01*
X172600000Y-73252560D01*
X171300000Y-73252560D01*
X171064683Y-73296838D01*
X170848559Y-73435910D01*
X170703569Y-73648110D01*
X170659445Y-73866000D01*
X170437440Y-73866000D01*
X170437440Y-73740000D01*
X170393162Y-73504683D01*
X170254090Y-73288559D01*
X170041890Y-73143569D01*
X169790000Y-73092560D01*
X169285466Y-73092560D01*
X169378327Y-72999698D01*
X169475000Y-72766309D01*
X169475000Y-71975750D01*
X169316250Y-71817000D01*
X168567000Y-71817000D01*
X168567000Y-73116250D01*
X168653012Y-73202262D01*
X168538559Y-73275910D01*
X168439367Y-73421083D01*
X168354090Y-73288559D01*
X168227314Y-73201936D01*
X168313000Y-73116250D01*
X168313000Y-71817000D01*
X167563750Y-71817000D01*
X167405000Y-71975750D01*
X167405000Y-72766309D01*
X167501673Y-72999698D01*
X167594534Y-73092560D01*
X167090000Y-73092560D01*
X166854683Y-73136838D01*
X166638559Y-73275910D01*
X166493569Y-73488110D01*
X166442560Y-73740000D01*
X166442560Y-74247000D01*
X165185586Y-74247000D01*
X165153162Y-74074683D01*
X165014090Y-73858559D01*
X164801890Y-73713569D01*
X164788803Y-73710919D01*
X165001441Y-73574090D01*
X165146431Y-73361890D01*
X165197440Y-73110000D01*
X165197440Y-71610000D01*
X165153162Y-71374683D01*
X165014090Y-71158559D01*
X164801890Y-71013569D01*
X164767000Y-71006504D01*
X164767000Y-70613691D01*
X167405000Y-70613691D01*
X167405000Y-71404250D01*
X167563750Y-71563000D01*
X168313000Y-71563000D01*
X168313000Y-70263750D01*
X168567000Y-70263750D01*
X168567000Y-71563000D01*
X169316250Y-71563000D01*
X169475000Y-71404250D01*
X169475000Y-70613691D01*
X169378327Y-70380302D01*
X169199699Y-70201673D01*
X168966310Y-70105000D01*
X168725750Y-70105000D01*
X168567000Y-70263750D01*
X168313000Y-70263750D01*
X168154250Y-70105000D01*
X167913690Y-70105000D01*
X167680301Y-70201673D01*
X167501673Y-70380302D01*
X167405000Y-70613691D01*
X164767000Y-70613691D01*
X164767000Y-69677512D01*
X166014698Y-68429815D01*
X166096120Y-68839151D01*
X166407189Y-69304698D01*
X166872736Y-69615767D01*
X167421887Y-69725000D01*
X167478113Y-69725000D01*
X168027264Y-69615767D01*
X168492811Y-69304698D01*
X168803880Y-68839151D01*
X168913113Y-68290000D01*
X168803880Y-67740849D01*
X168492811Y-67275302D01*
X168110725Y-67020000D01*
X168492811Y-66764698D01*
X168803880Y-66299151D01*
X168913113Y-65750000D01*
X168803880Y-65200849D01*
X168492811Y-64735302D01*
X168027264Y-64424233D01*
X167478113Y-64315000D01*
X167421887Y-64315000D01*
X166872736Y-64424233D01*
X166407189Y-64735302D01*
X166096120Y-65200849D01*
X165986887Y-65750000D01*
X166056005Y-66097482D01*
X163384244Y-68769244D01*
X163208658Y-69032026D01*
X163147000Y-69342000D01*
X163147000Y-70981941D01*
X163014683Y-71006838D01*
X162798559Y-71145910D01*
X162653569Y-71358110D01*
X162602560Y-71610000D01*
X162602560Y-73110000D01*
X162646838Y-73345317D01*
X162785910Y-73561441D01*
X162998110Y-73706431D01*
X163011197Y-73709081D01*
X162798559Y-73845910D01*
X162653569Y-74058110D01*
X162602560Y-74310000D01*
X162602560Y-75810000D01*
X162646838Y-76045317D01*
X162785910Y-76261441D01*
X162980256Y-76394232D01*
X162377244Y-76997244D01*
X162253372Y-77182630D01*
X162000257Y-77182999D01*
X160240722Y-77173002D01*
X160170272Y-77193854D01*
X159229232Y-77812027D01*
X158957440Y-77844229D01*
X158957440Y-74910000D01*
X158913162Y-74674683D01*
X158774090Y-74458559D01*
X158561890Y-74313569D01*
X158310000Y-74262560D01*
X157274000Y-74262560D01*
X157274000Y-71985989D01*
X157395317Y-71963162D01*
X157559492Y-71857518D01*
X157600301Y-71898327D01*
X157833690Y-71995000D01*
X158424250Y-71995000D01*
X158583000Y-71836250D01*
X158583000Y-70237000D01*
X158563000Y-70237000D01*
X158563000Y-69983000D01*
X158583000Y-69983000D01*
X158583000Y-68383750D01*
X158424250Y-68225000D01*
X157833690Y-68225000D01*
X157600301Y-68321673D01*
X157558340Y-68363634D01*
X157411890Y-68263569D01*
X157274000Y-68235646D01*
X157274000Y-67916634D01*
X157425317Y-67888162D01*
X157641441Y-67749090D01*
X157687969Y-67680994D01*
X157830302Y-67823327D01*
X158063691Y-67920000D01*
X158654250Y-67920000D01*
X158813000Y-67761250D01*
X158813000Y-66787000D01*
X158793000Y-66787000D01*
X158793000Y-66533000D01*
X158813000Y-66533000D01*
X158813000Y-65558750D01*
X158654250Y-65400000D01*
X158063691Y-65400000D01*
X157830302Y-65496673D01*
X157689064Y-65637910D01*
X157654090Y-65583559D01*
X157441890Y-65438569D01*
X157190000Y-65387560D01*
X156436440Y-65387560D01*
X156509838Y-65210799D01*
X156510162Y-64838833D01*
X156368117Y-64495057D01*
X156105327Y-64231808D01*
X155761799Y-64089162D01*
X155389833Y-64088838D01*
X155046057Y-64230883D01*
X154782808Y-64493673D01*
X154640162Y-64837201D01*
X154639838Y-65209167D01*
X154765000Y-65512083D01*
X154765000Y-65786000D01*
X154826658Y-66095974D01*
X154958975Y-66294000D01*
X155002244Y-66358756D01*
X155042560Y-66399072D01*
X155042560Y-67285000D01*
X155086838Y-67520317D01*
X155225910Y-67736441D01*
X155438110Y-67881431D01*
X155654000Y-67925150D01*
X155654000Y-68213689D01*
X155424683Y-68256838D01*
X155258523Y-68363759D01*
X155111890Y-68263569D01*
X154860000Y-68212560D01*
X153360000Y-68212560D01*
X153124683Y-68256838D01*
X152908559Y-68395910D01*
X152763569Y-68608110D01*
X152712560Y-68860000D01*
X152712560Y-71360000D01*
X152756838Y-71595317D01*
X152895910Y-71811441D01*
X153108110Y-71956431D01*
X153241000Y-71983342D01*
X153241000Y-72435487D01*
X148511000Y-77165488D01*
X148511000Y-72644000D01*
X148449342Y-72334026D01*
X148326151Y-72149658D01*
X148273756Y-72071243D01*
X147916116Y-71713603D01*
X148477378Y-71601961D01*
X148959147Y-71280054D01*
X149281054Y-70798285D01*
X149394093Y-70230000D01*
X149281054Y-69661715D01*
X148959147Y-69179946D01*
X148915223Y-69150597D01*
X149089698Y-69078327D01*
X149268327Y-68899699D01*
X149365000Y-68666310D01*
X149365000Y-67975750D01*
X149206250Y-67817000D01*
X148007000Y-67817000D01*
X148007000Y-67837000D01*
X147753000Y-67837000D01*
X147753000Y-67817000D01*
X147733000Y-67817000D01*
X147733000Y-67563000D01*
X147753000Y-67563000D01*
X147753000Y-66363750D01*
X148007000Y-66363750D01*
X148007000Y-67563000D01*
X149206250Y-67563000D01*
X149365000Y-67404250D01*
X149365000Y-66713690D01*
X149268327Y-66480301D01*
X149089698Y-66301673D01*
X148856309Y-66205000D01*
X148165750Y-66205000D01*
X148007000Y-66363750D01*
X147753000Y-66363750D01*
X147594250Y-66205000D01*
X147368000Y-66205000D01*
X147368000Y-62726266D01*
X154273339Y-62726266D01*
X154585487Y-63174932D01*
X155828343Y-63693331D01*
X157174976Y-63696648D01*
X158420371Y-63184380D01*
X158434513Y-63174932D01*
X158746661Y-62726266D01*
X156510000Y-60489605D01*
X154273339Y-62726266D01*
X147368000Y-62726266D01*
X147368000Y-56723512D01*
X147795000Y-56296512D01*
X147795000Y-56426310D01*
X147866755Y-56599541D01*
X147833569Y-56648110D01*
X147782560Y-56900000D01*
X147782560Y-57800000D01*
X147826838Y-58035317D01*
X147867481Y-58098478D01*
X147833569Y-58148110D01*
X147782560Y-58400000D01*
X147782560Y-59300000D01*
X147826838Y-59535317D01*
X147867481Y-59598478D01*
X147833569Y-59648110D01*
X147782560Y-59900000D01*
X147782560Y-60800000D01*
X147826838Y-61035317D01*
X147965910Y-61251441D01*
X148178110Y-61396431D01*
X148430000Y-61447440D01*
X149963928Y-61447440D01*
X150212571Y-61696083D01*
X150336883Y-61996943D01*
X150599673Y-62260192D01*
X150943201Y-62402838D01*
X151315167Y-62403162D01*
X151658943Y-62261117D01*
X151922192Y-61998327D01*
X152064838Y-61654799D01*
X152065162Y-61282833D01*
X151991103Y-61103595D01*
X152026431Y-61051890D01*
X152077440Y-60800000D01*
X152077440Y-59900000D01*
X152033162Y-59664683D01*
X151992519Y-59601522D01*
X152026431Y-59551890D01*
X152040603Y-59481909D01*
X152331167Y-59482162D01*
X152674943Y-59340117D01*
X152780954Y-59234290D01*
X152885673Y-59339192D01*
X153193892Y-59467176D01*
X153126669Y-59628343D01*
X153123352Y-60974976D01*
X153635620Y-62220371D01*
X153645068Y-62234513D01*
X154093734Y-62546661D01*
X156330395Y-60310000D01*
X156689605Y-60310000D01*
X158926266Y-62546661D01*
X159374932Y-62234513D01*
X159893331Y-60991657D01*
X159896648Y-59645024D01*
X159384380Y-58399629D01*
X159374932Y-58385487D01*
X158926266Y-58073339D01*
X156689605Y-60310000D01*
X156330395Y-60310000D01*
X156316253Y-60295858D01*
X156495858Y-60116253D01*
X156510000Y-60130395D01*
X158746661Y-57893734D01*
X158434513Y-57445068D01*
X157191657Y-56926669D01*
X155845024Y-56923352D01*
X155594180Y-57026532D01*
X155479117Y-56748057D01*
X155216327Y-56484808D01*
X154872799Y-56342162D01*
X154732041Y-56342039D01*
X154732162Y-56202833D01*
X154590117Y-55859057D01*
X154327327Y-55595808D01*
X153983799Y-55453162D01*
X153611833Y-55452838D01*
X153268057Y-55594883D01*
X153004808Y-55857673D01*
X152969299Y-55943188D01*
X152266713Y-56645775D01*
X152217026Y-56655658D01*
X152119235Y-56721000D01*
X152043759Y-56721000D01*
X152033162Y-56664683D01*
X151992462Y-56601433D01*
X152065000Y-56426310D01*
X152065000Y-56135750D01*
X151906250Y-55977000D01*
X150057000Y-55977000D01*
X150057000Y-55997000D01*
X149803000Y-55997000D01*
X149803000Y-55977000D01*
X149783000Y-55977000D01*
X149783000Y-55723000D01*
X149803000Y-55723000D01*
X149803000Y-55703000D01*
X150057000Y-55703000D01*
X150057000Y-55723000D01*
X151906250Y-55723000D01*
X152065000Y-55564250D01*
X152065000Y-55273690D01*
X151993245Y-55100459D01*
X152026431Y-55051890D01*
X152077440Y-54800000D01*
X152077440Y-53900000D01*
X152033162Y-53664683D01*
X151992519Y-53601522D01*
X152026431Y-53551890D01*
X152077440Y-53300000D01*
X152077440Y-52400000D01*
X152033162Y-52164683D01*
X151992519Y-52101522D01*
X152026431Y-52051890D01*
X152077440Y-51800000D01*
X152077440Y-50900000D01*
X152033162Y-50664683D01*
X151992519Y-50601522D01*
X152026431Y-50551890D01*
X152077440Y-50300000D01*
X152077440Y-49400000D01*
X152033162Y-49164683D01*
X151992462Y-49101433D01*
X152065000Y-48926310D01*
X152065000Y-48635750D01*
X151906250Y-48477000D01*
X150057000Y-48477000D01*
X150057000Y-48497000D01*
X149803000Y-48497000D01*
X149803000Y-48477000D01*
X147953750Y-48477000D01*
X147795000Y-48635750D01*
X147795000Y-48926310D01*
X147866755Y-49099541D01*
X147833569Y-49148110D01*
X147782560Y-49400000D01*
X147782560Y-50300000D01*
X147826838Y-50535317D01*
X147867481Y-50598478D01*
X147833569Y-50648110D01*
X147782560Y-50900000D01*
X147782560Y-51008070D01*
X147515833Y-51007838D01*
X147172057Y-51149883D01*
X146908808Y-51412673D01*
X146766162Y-51756201D01*
X146765838Y-52128167D01*
X146907883Y-52471943D01*
X147170673Y-52735192D01*
X147473372Y-52860884D01*
X147782560Y-53170073D01*
X147782560Y-53300000D01*
X147826838Y-53535317D01*
X147867481Y-53598478D01*
X147833569Y-53648110D01*
X147782560Y-53900000D01*
X147782560Y-54017927D01*
X145985245Y-55815243D01*
X145985244Y-55815244D01*
X145809658Y-56078026D01*
X145748000Y-56388000D01*
X145748000Y-64403870D01*
X145601799Y-64343162D01*
X145229833Y-64342838D01*
X145047440Y-64418201D01*
X145047440Y-64000000D01*
X145003162Y-63764683D01*
X144864090Y-63548559D01*
X144651890Y-63403569D01*
X144560000Y-63384961D01*
X144560000Y-62750000D01*
X144552753Y-62713569D01*
X144498343Y-62440027D01*
X144322757Y-62177244D01*
X143040000Y-60894488D01*
X143040000Y-60620000D01*
X143026366Y-60551456D01*
X142978343Y-60310027D01*
X142802757Y-60047244D01*
X140502953Y-57747440D01*
X144270000Y-57747440D01*
X144505317Y-57703162D01*
X144721441Y-57564090D01*
X144866431Y-57351890D01*
X144917440Y-57100000D01*
X144917440Y-52800000D01*
X144873162Y-52564683D01*
X144734090Y-52348559D01*
X144521890Y-52203569D01*
X144270000Y-52152560D01*
X139970000Y-52152560D01*
X139818792Y-52181012D01*
X139703117Y-51901057D01*
X139440327Y-51637808D01*
X139137628Y-51512116D01*
X137804445Y-50178933D01*
X138108943Y-50053117D01*
X138372192Y-49790327D01*
X138514838Y-49446799D01*
X138515162Y-49074833D01*
X138373117Y-48731057D01*
X138110327Y-48467808D01*
X137807629Y-48342116D01*
X137675512Y-48210000D01*
X147940750Y-48210000D01*
X147953750Y-48223000D01*
X147953750Y-48223000D01*
G37*
X147953750Y-48223000D02*
X149803000Y-48223000D01*
X149803000Y-48210000D01*
X150057000Y-48210000D01*
X150057000Y-48223000D01*
X151906250Y-48223000D01*
X151919250Y-48210000D01*
X166196939Y-48210000D01*
X166143569Y-48288110D01*
X166092560Y-48540000D01*
X166092560Y-50240000D01*
X166136838Y-50475317D01*
X166275910Y-50691441D01*
X166488110Y-50836431D01*
X166703000Y-50879947D01*
X166703000Y-53072560D01*
X166290000Y-53072560D01*
X166054683Y-53116838D01*
X165838559Y-53255910D01*
X165693569Y-53468110D01*
X165642560Y-53720000D01*
X165642560Y-55520000D01*
X165686838Y-55755317D01*
X165825910Y-55971441D01*
X166038110Y-56116431D01*
X166290000Y-56167440D01*
X168790000Y-56167440D01*
X169025317Y-56123162D01*
X169241441Y-55984090D01*
X169386431Y-55771890D01*
X169437440Y-55520000D01*
X169437440Y-53720000D01*
X169393162Y-53484683D01*
X169254090Y-53268559D01*
X169041890Y-53123569D01*
X168790000Y-53072560D01*
X168323000Y-53072560D01*
X168323000Y-50887440D01*
X168440000Y-50887440D01*
X168675317Y-50843162D01*
X168891441Y-50704090D01*
X169036431Y-50491890D01*
X169058301Y-50383893D01*
X169363076Y-50661645D01*
X169773110Y-50831476D01*
X170003000Y-50710155D01*
X170003000Y-49517000D01*
X169983000Y-49517000D01*
X169983000Y-49263000D01*
X170003000Y-49263000D01*
X170003000Y-49243000D01*
X170257000Y-49243000D01*
X170257000Y-49263000D01*
X170277000Y-49263000D01*
X170277000Y-49517000D01*
X170257000Y-49517000D01*
X170257000Y-50710155D01*
X170486890Y-50831476D01*
X170896924Y-50661645D01*
X171325183Y-50271358D01*
X171392298Y-50128447D01*
X171619946Y-50469147D01*
X171910000Y-50662954D01*
X171910000Y-51033258D01*
X171784683Y-51056838D01*
X171568559Y-51195910D01*
X171423569Y-51408110D01*
X171372560Y-51660000D01*
X171372560Y-53160000D01*
X171416838Y-53395317D01*
X171555910Y-53611441D01*
X171768110Y-53756431D01*
X171781197Y-53759081D01*
X171568559Y-53895910D01*
X171423569Y-54108110D01*
X171372560Y-54360000D01*
X171372560Y-55319927D01*
X170332918Y-56359570D01*
X170032057Y-56483883D01*
X169768808Y-56746673D01*
X169626162Y-57090201D01*
X169625838Y-57462167D01*
X169767883Y-57805943D01*
X170030673Y-58069192D01*
X170374201Y-58211838D01*
X170746167Y-58212162D01*
X171089943Y-58070117D01*
X171353192Y-57807327D01*
X171478884Y-57504628D01*
X172476073Y-56507440D01*
X172928006Y-56507440D01*
X172927838Y-56700167D01*
X173069883Y-57043943D01*
X173332673Y-57307192D01*
X173676201Y-57449838D01*
X174048167Y-57450162D01*
X174391943Y-57308117D01*
X174655192Y-57045327D01*
X174780884Y-56742628D01*
X174976072Y-56547440D01*
X175870000Y-56547440D01*
X176105317Y-56503162D01*
X176321441Y-56364090D01*
X176390000Y-56263751D01*
X176390000Y-60287607D01*
X176294090Y-60138559D01*
X176081890Y-59993569D01*
X175830000Y-59942560D01*
X174330000Y-59942560D01*
X174094683Y-59986838D01*
X173878559Y-60125910D01*
X173733569Y-60338110D01*
X173730919Y-60351197D01*
X173594090Y-60138559D01*
X173381890Y-59993569D01*
X173130000Y-59942560D01*
X171630000Y-59942560D01*
X171394683Y-59986838D01*
X171178559Y-60125910D01*
X171033569Y-60338110D01*
X170982560Y-60590000D01*
X170982560Y-61424928D01*
X170713917Y-61693570D01*
X170413057Y-61817883D01*
X170155001Y-62075489D01*
X169717440Y-61637928D01*
X169717440Y-60650000D01*
X169673162Y-60414683D01*
X169534090Y-60198559D01*
X169321890Y-60053569D01*
X169070000Y-60002560D01*
X167570000Y-60002560D01*
X167334683Y-60046838D01*
X167118559Y-60185910D01*
X166973569Y-60398110D01*
X166970919Y-60411197D01*
X166834090Y-60198559D01*
X166621890Y-60053569D01*
X166370000Y-60002560D01*
X164870000Y-60002560D01*
X164634683Y-60046838D01*
X164418559Y-60185910D01*
X164273569Y-60398110D01*
X164222560Y-60650000D01*
X164222560Y-61707928D01*
X163982917Y-61947570D01*
X163827440Y-62011812D01*
X163827440Y-60610000D01*
X163783162Y-60374683D01*
X163644090Y-60158559D01*
X163431890Y-60013569D01*
X163370000Y-60001036D01*
X163370000Y-59100932D01*
X163634167Y-59101162D01*
X163977943Y-58959117D01*
X164241192Y-58696327D01*
X164383838Y-58352799D01*
X164384103Y-58048537D01*
X164386000Y-58039000D01*
X164386000Y-56167440D01*
X164790000Y-56167440D01*
X165025317Y-56123162D01*
X165241441Y-55984090D01*
X165386431Y-55771890D01*
X165437440Y-55520000D01*
X165437440Y-53720000D01*
X165393162Y-53484683D01*
X165254090Y-53268559D01*
X165041890Y-53123569D01*
X164790000Y-53072560D01*
X162290000Y-53072560D01*
X162054683Y-53116838D01*
X161838559Y-53255910D01*
X161693569Y-53468110D01*
X161642560Y-53720000D01*
X161642560Y-55214047D01*
X157600031Y-51171518D01*
X157736431Y-50971890D01*
X157787440Y-50720000D01*
X157787440Y-50255750D01*
X159005000Y-50255750D01*
X159005000Y-50846310D01*
X159101673Y-51079699D01*
X159280302Y-51258327D01*
X159513691Y-51355000D01*
X161354250Y-51355000D01*
X161513000Y-51196250D01*
X161513000Y-50097000D01*
X161767000Y-50097000D01*
X161767000Y-51196250D01*
X161925750Y-51355000D01*
X163766309Y-51355000D01*
X163999698Y-51258327D01*
X164178327Y-51079699D01*
X164275000Y-50846310D01*
X164275000Y-50255750D01*
X164116250Y-50097000D01*
X161767000Y-50097000D01*
X161513000Y-50097000D01*
X159163750Y-50097000D01*
X159005000Y-50255750D01*
X157787440Y-50255750D01*
X157787440Y-49220000D01*
X157763674Y-49093690D01*
X159005000Y-49093690D01*
X159005000Y-49684250D01*
X159163750Y-49843000D01*
X161513000Y-49843000D01*
X161513000Y-48743750D01*
X161767000Y-48743750D01*
X161767000Y-49843000D01*
X164116250Y-49843000D01*
X164275000Y-49684250D01*
X164275000Y-49093690D01*
X164178327Y-48860301D01*
X163999698Y-48681673D01*
X163766309Y-48585000D01*
X161925750Y-48585000D01*
X161767000Y-48743750D01*
X161513000Y-48743750D01*
X161354250Y-48585000D01*
X159513691Y-48585000D01*
X159280302Y-48681673D01*
X159101673Y-48860301D01*
X159005000Y-49093690D01*
X157763674Y-49093690D01*
X157743162Y-48984683D01*
X157604090Y-48768559D01*
X157391890Y-48623569D01*
X157140000Y-48572560D01*
X153140000Y-48572560D01*
X152904683Y-48616838D01*
X152688559Y-48755910D01*
X152543569Y-48968110D01*
X152492560Y-49220000D01*
X152492560Y-50720000D01*
X152536838Y-50955317D01*
X152675910Y-51171441D01*
X152746896Y-51219943D01*
X152735162Y-51248201D01*
X152734838Y-51620167D01*
X152876883Y-51963943D01*
X153139673Y-52227192D01*
X153483201Y-52369838D01*
X153855167Y-52370162D01*
X154198943Y-52228117D01*
X154462192Y-51965327D01*
X154587884Y-51662628D01*
X154883072Y-51367440D01*
X155504928Y-51367440D01*
X161750000Y-57612513D01*
X161750000Y-59009068D01*
X161485833Y-59008838D01*
X161142057Y-59150883D01*
X160878808Y-59413673D01*
X160736162Y-59757201D01*
X160736136Y-59787038D01*
X160668658Y-59888026D01*
X160607000Y-60198000D01*
X160607000Y-62148487D01*
X159701244Y-63054244D01*
X159525658Y-63317026D01*
X159471581Y-63588890D01*
X159398658Y-63698026D01*
X159337000Y-64008000D01*
X159337000Y-65400000D01*
X159225750Y-65400000D01*
X159067000Y-65558750D01*
X159067000Y-66533000D01*
X159087000Y-66533000D01*
X159087000Y-66787000D01*
X159067000Y-66787000D01*
X159067000Y-67761250D01*
X159225750Y-67920000D01*
X159337000Y-67920000D01*
X159337000Y-68225000D01*
X158995750Y-68225000D01*
X158837000Y-68383750D01*
X158837000Y-69983000D01*
X158857000Y-69983000D01*
X158857000Y-70237000D01*
X158837000Y-70237000D01*
X158837000Y-71836250D01*
X158995750Y-71995000D01*
X159586310Y-71995000D01*
X159819699Y-71898327D01*
X159998327Y-71719698D01*
X160095000Y-71486309D01*
X160095000Y-70395750D01*
X159936252Y-70237002D01*
X160095000Y-70237002D01*
X160095000Y-70149955D01*
X160332167Y-70150162D01*
X160675943Y-70008117D01*
X160939192Y-69745327D01*
X161081838Y-69401799D01*
X161082162Y-69029833D01*
X160957000Y-68726917D01*
X160957000Y-65197043D01*
X161094167Y-65197162D01*
X161315658Y-65105644D01*
X161415910Y-65261441D01*
X161628110Y-65406431D01*
X161880000Y-65457440D01*
X163180000Y-65457440D01*
X163415317Y-65413162D01*
X163631441Y-65274090D01*
X163776431Y-65061890D01*
X163825820Y-64818000D01*
X164084000Y-64818000D01*
X164094561Y-64815899D01*
X164396167Y-64816162D01*
X164739943Y-64674117D01*
X165003192Y-64411327D01*
X165145838Y-64067799D01*
X165146162Y-63695833D01*
X165012617Y-63372629D01*
X165128884Y-63092628D01*
X165624073Y-62597440D01*
X166370000Y-62597440D01*
X166605317Y-62553162D01*
X166821441Y-62414090D01*
X166966431Y-62201890D01*
X166969081Y-62188803D01*
X167105910Y-62401441D01*
X167318110Y-62546431D01*
X167570000Y-62597440D01*
X168385928Y-62597440D01*
X169516571Y-63728084D01*
X169640883Y-64028943D01*
X169903673Y-64292192D01*
X170247201Y-64434838D01*
X170619167Y-64435162D01*
X170962943Y-64293117D01*
X171226192Y-64030327D01*
X171368838Y-63686799D01*
X171369048Y-63446219D01*
X171470943Y-63404117D01*
X171734192Y-63141327D01*
X171859884Y-62838628D01*
X172161072Y-62537440D01*
X173130000Y-62537440D01*
X173365317Y-62493162D01*
X173581441Y-62354090D01*
X173726431Y-62141890D01*
X173729081Y-62128803D01*
X173865910Y-62341441D01*
X174078110Y-62486431D01*
X174330000Y-62537440D01*
X175310927Y-62537440D01*
X175466000Y-62692513D01*
X175466000Y-64388177D01*
X175098113Y-64315000D01*
X175041887Y-64315000D01*
X174492736Y-64424233D01*
X174027189Y-64735302D01*
X173716120Y-65200849D01*
X173606887Y-65750000D01*
X173716120Y-66299151D01*
X174027189Y-66764698D01*
X174171465Y-66861101D01*
X174034683Y-66886838D01*
X173818559Y-67025910D01*
X173673569Y-67238110D01*
X173622560Y-67490000D01*
X173622560Y-69090000D01*
X173666838Y-69325317D01*
X173805910Y-69541441D01*
X174018110Y-69686431D01*
X174270000Y-69737440D01*
X175870000Y-69737440D01*
X176105317Y-69693162D01*
X176321441Y-69554090D01*
X176390000Y-69453751D01*
X176390000Y-73329608D01*
X176351890Y-73303569D01*
X176100000Y-73252560D01*
X174982072Y-73252560D01*
X174399430Y-72669918D01*
X174275117Y-72369057D01*
X174012327Y-72105808D01*
X173668799Y-71963162D01*
X173296833Y-71962838D01*
X172953057Y-72104883D01*
X172689808Y-72367673D01*
X172547162Y-72711201D01*
X172546838Y-73083167D01*
X172618366Y-73256279D01*
X172600000Y-73252560D01*
X171300000Y-73252560D01*
X171064683Y-73296838D01*
X170848559Y-73435910D01*
X170703569Y-73648110D01*
X170659445Y-73866000D01*
X170437440Y-73866000D01*
X170437440Y-73740000D01*
X170393162Y-73504683D01*
X170254090Y-73288559D01*
X170041890Y-73143569D01*
X169790000Y-73092560D01*
X169285466Y-73092560D01*
X169378327Y-72999698D01*
X169475000Y-72766309D01*
X169475000Y-71975750D01*
X169316250Y-71817000D01*
X168567000Y-71817000D01*
X168567000Y-73116250D01*
X168653012Y-73202262D01*
X168538559Y-73275910D01*
X168439367Y-73421083D01*
X168354090Y-73288559D01*
X168227314Y-73201936D01*
X168313000Y-73116250D01*
X168313000Y-71817000D01*
X167563750Y-71817000D01*
X167405000Y-71975750D01*
X167405000Y-72766309D01*
X167501673Y-72999698D01*
X167594534Y-73092560D01*
X167090000Y-73092560D01*
X166854683Y-73136838D01*
X166638559Y-73275910D01*
X166493569Y-73488110D01*
X166442560Y-73740000D01*
X166442560Y-74247000D01*
X165185586Y-74247000D01*
X165153162Y-74074683D01*
X165014090Y-73858559D01*
X164801890Y-73713569D01*
X164788803Y-73710919D01*
X165001441Y-73574090D01*
X165146431Y-73361890D01*
X165197440Y-73110000D01*
X165197440Y-71610000D01*
X165153162Y-71374683D01*
X165014090Y-71158559D01*
X164801890Y-71013569D01*
X164767000Y-71006504D01*
X164767000Y-70613691D01*
X167405000Y-70613691D01*
X167405000Y-71404250D01*
X167563750Y-71563000D01*
X168313000Y-71563000D01*
X168313000Y-70263750D01*
X168567000Y-70263750D01*
X168567000Y-71563000D01*
X169316250Y-71563000D01*
X169475000Y-71404250D01*
X169475000Y-70613691D01*
X169378327Y-70380302D01*
X169199699Y-70201673D01*
X168966310Y-70105000D01*
X168725750Y-70105000D01*
X168567000Y-70263750D01*
X168313000Y-70263750D01*
X168154250Y-70105000D01*
X167913690Y-70105000D01*
X167680301Y-70201673D01*
X167501673Y-70380302D01*
X167405000Y-70613691D01*
X164767000Y-70613691D01*
X164767000Y-69677512D01*
X166014698Y-68429815D01*
X166096120Y-68839151D01*
X166407189Y-69304698D01*
X166872736Y-69615767D01*
X167421887Y-69725000D01*
X167478113Y-69725000D01*
X168027264Y-69615767D01*
X168492811Y-69304698D01*
X168803880Y-68839151D01*
X168913113Y-68290000D01*
X168803880Y-67740849D01*
X168492811Y-67275302D01*
X168110725Y-67020000D01*
X168492811Y-66764698D01*
X168803880Y-66299151D01*
X168913113Y-65750000D01*
X168803880Y-65200849D01*
X168492811Y-64735302D01*
X168027264Y-64424233D01*
X167478113Y-64315000D01*
X167421887Y-64315000D01*
X166872736Y-64424233D01*
X166407189Y-64735302D01*
X166096120Y-65200849D01*
X165986887Y-65750000D01*
X166056005Y-66097482D01*
X163384244Y-68769244D01*
X163208658Y-69032026D01*
X163147000Y-69342000D01*
X163147000Y-70981941D01*
X163014683Y-71006838D01*
X162798559Y-71145910D01*
X162653569Y-71358110D01*
X162602560Y-71610000D01*
X162602560Y-73110000D01*
X162646838Y-73345317D01*
X162785910Y-73561441D01*
X162998110Y-73706431D01*
X163011197Y-73709081D01*
X162798559Y-73845910D01*
X162653569Y-74058110D01*
X162602560Y-74310000D01*
X162602560Y-75810000D01*
X162646838Y-76045317D01*
X162785910Y-76261441D01*
X162980256Y-76394232D01*
X162377244Y-76997244D01*
X162253372Y-77182630D01*
X162000257Y-77182999D01*
X160240722Y-77173002D01*
X160170272Y-77193854D01*
X159229232Y-77812027D01*
X158957440Y-77844229D01*
X158957440Y-74910000D01*
X158913162Y-74674683D01*
X158774090Y-74458559D01*
X158561890Y-74313569D01*
X158310000Y-74262560D01*
X157274000Y-74262560D01*
X157274000Y-71985989D01*
X157395317Y-71963162D01*
X157559492Y-71857518D01*
X157600301Y-71898327D01*
X157833690Y-71995000D01*
X158424250Y-71995000D01*
X158583000Y-71836250D01*
X158583000Y-70237000D01*
X158563000Y-70237000D01*
X158563000Y-69983000D01*
X158583000Y-69983000D01*
X158583000Y-68383750D01*
X158424250Y-68225000D01*
X157833690Y-68225000D01*
X157600301Y-68321673D01*
X157558340Y-68363634D01*
X157411890Y-68263569D01*
X157274000Y-68235646D01*
X157274000Y-67916634D01*
X157425317Y-67888162D01*
X157641441Y-67749090D01*
X157687969Y-67680994D01*
X157830302Y-67823327D01*
X158063691Y-67920000D01*
X158654250Y-67920000D01*
X158813000Y-67761250D01*
X158813000Y-66787000D01*
X158793000Y-66787000D01*
X158793000Y-66533000D01*
X158813000Y-66533000D01*
X158813000Y-65558750D01*
X158654250Y-65400000D01*
X158063691Y-65400000D01*
X157830302Y-65496673D01*
X157689064Y-65637910D01*
X157654090Y-65583559D01*
X157441890Y-65438569D01*
X157190000Y-65387560D01*
X156436440Y-65387560D01*
X156509838Y-65210799D01*
X156510162Y-64838833D01*
X156368117Y-64495057D01*
X156105327Y-64231808D01*
X155761799Y-64089162D01*
X155389833Y-64088838D01*
X155046057Y-64230883D01*
X154782808Y-64493673D01*
X154640162Y-64837201D01*
X154639838Y-65209167D01*
X154765000Y-65512083D01*
X154765000Y-65786000D01*
X154826658Y-66095974D01*
X154958975Y-66294000D01*
X155002244Y-66358756D01*
X155042560Y-66399072D01*
X155042560Y-67285000D01*
X155086838Y-67520317D01*
X155225910Y-67736441D01*
X155438110Y-67881431D01*
X155654000Y-67925150D01*
X155654000Y-68213689D01*
X155424683Y-68256838D01*
X155258523Y-68363759D01*
X155111890Y-68263569D01*
X154860000Y-68212560D01*
X153360000Y-68212560D01*
X153124683Y-68256838D01*
X152908559Y-68395910D01*
X152763569Y-68608110D01*
X152712560Y-68860000D01*
X152712560Y-71360000D01*
X152756838Y-71595317D01*
X152895910Y-71811441D01*
X153108110Y-71956431D01*
X153241000Y-71983342D01*
X153241000Y-72435487D01*
X148511000Y-77165488D01*
X148511000Y-72644000D01*
X148449342Y-72334026D01*
X148326151Y-72149658D01*
X148273756Y-72071243D01*
X147916116Y-71713603D01*
X148477378Y-71601961D01*
X148959147Y-71280054D01*
X149281054Y-70798285D01*
X149394093Y-70230000D01*
X149281054Y-69661715D01*
X148959147Y-69179946D01*
X148915223Y-69150597D01*
X149089698Y-69078327D01*
X149268327Y-68899699D01*
X149365000Y-68666310D01*
X149365000Y-67975750D01*
X149206250Y-67817000D01*
X148007000Y-67817000D01*
X148007000Y-67837000D01*
X147753000Y-67837000D01*
X147753000Y-67817000D01*
X147733000Y-67817000D01*
X147733000Y-67563000D01*
X147753000Y-67563000D01*
X147753000Y-66363750D01*
X148007000Y-66363750D01*
X148007000Y-67563000D01*
X149206250Y-67563000D01*
X149365000Y-67404250D01*
X149365000Y-66713690D01*
X149268327Y-66480301D01*
X149089698Y-66301673D01*
X148856309Y-66205000D01*
X148165750Y-66205000D01*
X148007000Y-66363750D01*
X147753000Y-66363750D01*
X147594250Y-66205000D01*
X147368000Y-66205000D01*
X147368000Y-62726266D01*
X154273339Y-62726266D01*
X154585487Y-63174932D01*
X155828343Y-63693331D01*
X157174976Y-63696648D01*
X158420371Y-63184380D01*
X158434513Y-63174932D01*
X158746661Y-62726266D01*
X156510000Y-60489605D01*
X154273339Y-62726266D01*
X147368000Y-62726266D01*
X147368000Y-56723512D01*
X147795000Y-56296512D01*
X147795000Y-56426310D01*
X147866755Y-56599541D01*
X147833569Y-56648110D01*
X147782560Y-56900000D01*
X147782560Y-57800000D01*
X147826838Y-58035317D01*
X147867481Y-58098478D01*
X147833569Y-58148110D01*
X147782560Y-58400000D01*
X147782560Y-59300000D01*
X147826838Y-59535317D01*
X147867481Y-59598478D01*
X147833569Y-59648110D01*
X147782560Y-59900000D01*
X147782560Y-60800000D01*
X147826838Y-61035317D01*
X147965910Y-61251441D01*
X148178110Y-61396431D01*
X148430000Y-61447440D01*
X149963928Y-61447440D01*
X150212571Y-61696083D01*
X150336883Y-61996943D01*
X150599673Y-62260192D01*
X150943201Y-62402838D01*
X151315167Y-62403162D01*
X151658943Y-62261117D01*
X151922192Y-61998327D01*
X152064838Y-61654799D01*
X152065162Y-61282833D01*
X151991103Y-61103595D01*
X152026431Y-61051890D01*
X152077440Y-60800000D01*
X152077440Y-59900000D01*
X152033162Y-59664683D01*
X151992519Y-59601522D01*
X152026431Y-59551890D01*
X152040603Y-59481909D01*
X152331167Y-59482162D01*
X152674943Y-59340117D01*
X152780954Y-59234290D01*
X152885673Y-59339192D01*
X153193892Y-59467176D01*
X153126669Y-59628343D01*
X153123352Y-60974976D01*
X153635620Y-62220371D01*
X153645068Y-62234513D01*
X154093734Y-62546661D01*
X156330395Y-60310000D01*
X156689605Y-60310000D01*
X158926266Y-62546661D01*
X159374932Y-62234513D01*
X159893331Y-60991657D01*
X159896648Y-59645024D01*
X159384380Y-58399629D01*
X159374932Y-58385487D01*
X158926266Y-58073339D01*
X156689605Y-60310000D01*
X156330395Y-60310000D01*
X156316253Y-60295858D01*
X156495858Y-60116253D01*
X156510000Y-60130395D01*
X158746661Y-57893734D01*
X158434513Y-57445068D01*
X157191657Y-56926669D01*
X155845024Y-56923352D01*
X155594180Y-57026532D01*
X155479117Y-56748057D01*
X155216327Y-56484808D01*
X154872799Y-56342162D01*
X154732041Y-56342039D01*
X154732162Y-56202833D01*
X154590117Y-55859057D01*
X154327327Y-55595808D01*
X153983799Y-55453162D01*
X153611833Y-55452838D01*
X153268057Y-55594883D01*
X153004808Y-55857673D01*
X152969299Y-55943188D01*
X152266713Y-56645775D01*
X152217026Y-56655658D01*
X152119235Y-56721000D01*
X152043759Y-56721000D01*
X152033162Y-56664683D01*
X151992462Y-56601433D01*
X152065000Y-56426310D01*
X152065000Y-56135750D01*
X151906250Y-55977000D01*
X150057000Y-55977000D01*
X150057000Y-55997000D01*
X149803000Y-55997000D01*
X149803000Y-55977000D01*
X149783000Y-55977000D01*
X149783000Y-55723000D01*
X149803000Y-55723000D01*
X149803000Y-55703000D01*
X150057000Y-55703000D01*
X150057000Y-55723000D01*
X151906250Y-55723000D01*
X152065000Y-55564250D01*
X152065000Y-55273690D01*
X151993245Y-55100459D01*
X152026431Y-55051890D01*
X152077440Y-54800000D01*
X152077440Y-53900000D01*
X152033162Y-53664683D01*
X151992519Y-53601522D01*
X152026431Y-53551890D01*
X152077440Y-53300000D01*
X152077440Y-52400000D01*
X152033162Y-52164683D01*
X151992519Y-52101522D01*
X152026431Y-52051890D01*
X152077440Y-51800000D01*
X152077440Y-50900000D01*
X152033162Y-50664683D01*
X151992519Y-50601522D01*
X152026431Y-50551890D01*
X152077440Y-50300000D01*
X152077440Y-49400000D01*
X152033162Y-49164683D01*
X151992462Y-49101433D01*
X152065000Y-48926310D01*
X152065000Y-48635750D01*
X151906250Y-48477000D01*
X150057000Y-48477000D01*
X150057000Y-48497000D01*
X149803000Y-48497000D01*
X149803000Y-48477000D01*
X147953750Y-48477000D01*
X147795000Y-48635750D01*
X147795000Y-48926310D01*
X147866755Y-49099541D01*
X147833569Y-49148110D01*
X147782560Y-49400000D01*
X147782560Y-50300000D01*
X147826838Y-50535317D01*
X147867481Y-50598478D01*
X147833569Y-50648110D01*
X147782560Y-50900000D01*
X147782560Y-51008070D01*
X147515833Y-51007838D01*
X147172057Y-51149883D01*
X146908808Y-51412673D01*
X146766162Y-51756201D01*
X146765838Y-52128167D01*
X146907883Y-52471943D01*
X147170673Y-52735192D01*
X147473372Y-52860884D01*
X147782560Y-53170073D01*
X147782560Y-53300000D01*
X147826838Y-53535317D01*
X147867481Y-53598478D01*
X147833569Y-53648110D01*
X147782560Y-53900000D01*
X147782560Y-54017927D01*
X145985245Y-55815243D01*
X145985244Y-55815244D01*
X145809658Y-56078026D01*
X145748000Y-56388000D01*
X145748000Y-64403870D01*
X145601799Y-64343162D01*
X145229833Y-64342838D01*
X145047440Y-64418201D01*
X145047440Y-64000000D01*
X145003162Y-63764683D01*
X144864090Y-63548559D01*
X144651890Y-63403569D01*
X144560000Y-63384961D01*
X144560000Y-62750000D01*
X144552753Y-62713569D01*
X144498343Y-62440027D01*
X144322757Y-62177244D01*
X143040000Y-60894488D01*
X143040000Y-60620000D01*
X143026366Y-60551456D01*
X142978343Y-60310027D01*
X142802757Y-60047244D01*
X140502953Y-57747440D01*
X144270000Y-57747440D01*
X144505317Y-57703162D01*
X144721441Y-57564090D01*
X144866431Y-57351890D01*
X144917440Y-57100000D01*
X144917440Y-52800000D01*
X144873162Y-52564683D01*
X144734090Y-52348559D01*
X144521890Y-52203569D01*
X144270000Y-52152560D01*
X139970000Y-52152560D01*
X139818792Y-52181012D01*
X139703117Y-51901057D01*
X139440327Y-51637808D01*
X139137628Y-51512116D01*
X137804445Y-50178933D01*
X138108943Y-50053117D01*
X138372192Y-49790327D01*
X138514838Y-49446799D01*
X138515162Y-49074833D01*
X138373117Y-48731057D01*
X138110327Y-48467808D01*
X137807629Y-48342116D01*
X137675512Y-48210000D01*
X147940750Y-48210000D01*
X147953750Y-48223000D01*
M02*
