M48
;DRILL file {KiCad 4.0.6} date 10/30/17 11:30:09
;FORMAT={3:3/ absolute / metric / keep zeros}
FMAT,2
METRIC,TZ
T1C0.400
T2C0.800
T3C1.000
T4C1.200
T5C1.300
T6C3.150
%
G90
G05
M71
T1
X132334Y-096266
X135128Y-089916
X136970Y-065150
X137160Y-092837
X137580Y-049260
X138910Y-052430
X138950Y-059170
X140208Y-085598
X140335Y-063373
X142240Y-089408
X142367Y-068961
X142494Y-085598
X142621Y-079502
X143256Y-096012
X144399Y-081280
X144399Y-084328
X144907Y-088138
X145161Y-104648
X145415Y-065278
X145415Y-067691
X147701Y-051943
X147828Y-096266
X148590Y-078232
X148971Y-102616
X149352Y-101727
X151130Y-061468
X152146Y-056769
X152146Y-058547
X153416Y-058547
X153670Y-051435
X153797Y-056388
X154686Y-057277
X155448Y-072009
X155575Y-065024
X157353Y-068199
X160147Y-069215
X160660Y-070490
X160909Y-064262
X161671Y-059944
X163370Y-051890
X163449Y-058166
X164211Y-062865
X164211Y-063881
X165570Y-069850
X168783Y-076581
X169240Y-052010
X170307Y-076454
X170434Y-063500
X170561Y-057277
X170942Y-062611
X173482Y-072898
X173863Y-056515
T2
X147800Y-086870
X147800Y-094490
X150340Y-086870
X150340Y-094490
X167450Y-065750
X167450Y-068290
X175070Y-065750
X175070Y-068290
T3
X147880Y-067690
X147880Y-070230
X162950Y-082670
X167590Y-049390
X170130Y-049390
X172670Y-049390
X174950Y-082670
X175210Y-049390
T4
X132280Y-103020
X135780Y-103020
X140150Y-103010
X143650Y-103010
X165800Y-103040
X169300Y-103040
X172800Y-103040
T5
X162950Y-094870
X169000Y-080720
X175000Y-094920
T6
X133290Y-067100
X155320Y-104840
X156510Y-060310
T0
M30
