G04 #@! TF.FileFunction,Copper,L2,Bot,Signal*
%FSLAX46Y46*%
G04 Gerber Fmt 4.6, Leading zero omitted, Abs format (unit mm)*
G04 Created by KiCad (PCBNEW 4.0.6) date 10/30/17 11:30:06*
%MOMM*%
%LPD*%
G01*
G04 APERTURE LIST*
%ADD10C,0.025400*%
%ADD11C,2.400000*%
%ADD12R,2.400000X2.400000*%
%ADD13R,1.700000X1.700000*%
%ADD14O,1.700000X1.700000*%
%ADD15C,2.500000*%
%ADD16C,3.000000*%
%ADD17R,1.600000X1.600000*%
%ADD18O,1.600000X1.600000*%
%ADD19C,5.500000*%
%ADD20C,0.600000*%
%ADD21C,0.350000*%
%ADD22C,0.254000*%
G04 APERTURE END LIST*
D10*
D11*
X135780000Y-103020000D03*
D12*
X132280000Y-103020000D03*
D11*
X143650000Y-103010000D03*
D12*
X140150000Y-103010000D03*
D13*
X167590000Y-49390000D03*
D14*
X170130000Y-49390000D03*
X172670000Y-49390000D03*
X175210000Y-49390000D03*
D13*
X147880000Y-67690000D03*
D14*
X147880000Y-70230000D03*
D11*
X169300000Y-103040000D03*
X172800000Y-103040000D03*
D12*
X165800000Y-103040000D03*
D15*
X162950000Y-82670000D03*
D16*
X162950000Y-94870000D03*
X175000000Y-94920000D03*
D15*
X174950000Y-82670000D03*
D16*
X169000000Y-80720000D03*
D17*
X147800000Y-94490000D03*
D18*
X150340000Y-86870000D03*
X150340000Y-94490000D03*
X147800000Y-86870000D03*
D19*
X156510000Y-60310000D03*
X133290000Y-67100000D03*
X155320000Y-104840000D03*
D17*
X175070000Y-68290000D03*
D18*
X167450000Y-65750000D03*
X175070000Y-65750000D03*
X167450000Y-68290000D03*
D20*
X140208000Y-85598000D03*
X148590000Y-78232000D03*
X155448000Y-72009000D03*
X160147000Y-69215000D03*
X161671000Y-59944000D03*
X163449000Y-58166000D03*
X160660000Y-70490000D03*
X165570000Y-69850000D03*
X169240000Y-52010000D03*
X163370000Y-51890000D03*
X142240000Y-89408000D03*
X137160000Y-92837000D03*
X152146000Y-56769000D03*
X149352000Y-101727000D03*
X157353000Y-68199000D03*
X142367000Y-68961000D03*
X144907000Y-88138000D03*
X145415000Y-67691000D03*
X173482000Y-72898000D03*
X155575000Y-65024000D03*
X151130000Y-61468000D03*
X164211000Y-62865000D03*
X170434000Y-63500000D03*
X168783000Y-76581000D03*
X170307000Y-76454000D03*
X135128000Y-89916000D03*
X132334000Y-96266000D03*
X136970000Y-65150000D03*
X137580000Y-49260000D03*
X145415000Y-65278000D03*
X160909000Y-64262000D03*
X147828000Y-96266000D03*
X143256000Y-96012000D03*
X144399000Y-81280000D03*
X142621000Y-79502000D03*
X148971000Y-102616000D03*
X142494000Y-85598000D03*
X144399000Y-84328000D03*
X164211000Y-63881000D03*
X170942000Y-62611000D03*
X145161000Y-104648000D03*
X140335000Y-63373000D03*
X138910000Y-52430000D03*
X138950000Y-59170000D03*
X170561000Y-57277000D03*
X154686000Y-57277000D03*
X153416000Y-58547000D03*
X152146000Y-58547000D03*
X173863000Y-56515000D03*
X153797000Y-56388000D03*
X147701000Y-51943000D03*
X153670000Y-51435000D03*
D21*
X140208000Y-85598000D02*
X143764000Y-82042000D01*
X143764000Y-82042000D02*
X144653000Y-82042000D01*
X144653000Y-82042000D02*
X144780000Y-81915000D01*
X144780000Y-81915000D02*
X144907000Y-81915000D01*
X144907000Y-81915000D02*
X148590000Y-78232000D01*
X155448000Y-72009000D02*
X158242000Y-69215000D01*
X158242000Y-69215000D02*
X160147000Y-69215000D01*
X161671000Y-59944000D02*
X163449000Y-58166000D01*
X164930000Y-70490000D02*
X160660000Y-70490000D01*
X165570000Y-69850000D02*
X164930000Y-70490000D01*
X163490000Y-52010000D02*
X169240000Y-52010000D01*
X163370000Y-51890000D02*
X163490000Y-52010000D01*
X142240000Y-89408000D02*
X138811000Y-92837000D01*
X138811000Y-92837000D02*
X137160000Y-92837000D01*
X156510000Y-60310000D02*
X156464000Y-60325000D01*
X156464000Y-60325000D02*
X152908000Y-56769000D01*
X152908000Y-56769000D02*
X152146000Y-56769000D01*
X135780000Y-103020000D02*
X135763000Y-102997000D01*
X135763000Y-102997000D02*
X137414000Y-101346000D01*
X137414000Y-101346000D02*
X144526000Y-101346000D01*
X144526000Y-101346000D02*
X144653000Y-101473000D01*
X144653000Y-101473000D02*
X144907000Y-101473000D01*
X144907000Y-101473000D02*
X145034000Y-101600000D01*
X145034000Y-101600000D02*
X145161000Y-101600000D01*
X145161000Y-101600000D02*
X145288000Y-101727000D01*
X145288000Y-101727000D02*
X149352000Y-101727000D01*
X147880000Y-67690000D02*
X147828000Y-67691000D01*
X147828000Y-67691000D02*
X148336000Y-68199000D01*
X148336000Y-68199000D02*
X157353000Y-68199000D01*
X133290000Y-67100000D02*
X133350000Y-67056000D01*
X133350000Y-67056000D02*
X135255000Y-68961000D01*
X135255000Y-68961000D02*
X142367000Y-68961000D01*
X170180000Y-49403000D02*
X170130000Y-49390000D01*
X144907000Y-88138000D02*
X149098000Y-88138000D01*
X149098000Y-88138000D02*
X150368000Y-86868000D01*
X150368000Y-86868000D02*
X150340000Y-86870000D01*
X145415000Y-67691000D02*
X147828000Y-67691000D01*
X147828000Y-67691000D02*
X147880000Y-67690000D01*
X167450000Y-68290000D02*
X167513000Y-68326000D01*
X167513000Y-68326000D02*
X172085000Y-72898000D01*
X172085000Y-72898000D02*
X173482000Y-72898000D01*
X155575000Y-65024000D02*
X158877000Y-68326000D01*
X158877000Y-68326000D02*
X167513000Y-68326000D01*
X167513000Y-68326000D02*
X167450000Y-68290000D01*
X151130000Y-61468000D02*
X153162000Y-63500000D01*
X153162000Y-63500000D02*
X157226000Y-63500000D01*
X157226000Y-63500000D02*
X157353000Y-63373000D01*
X157353000Y-63373000D02*
X157607000Y-63373000D01*
X157607000Y-63373000D02*
X157734000Y-63246000D01*
X157734000Y-63246000D02*
X157988000Y-63246000D01*
X157988000Y-63246000D02*
X158242000Y-62992000D01*
X158242000Y-62992000D02*
X158369000Y-62992000D01*
X158369000Y-62992000D02*
X158496000Y-62865000D01*
X158496000Y-62865000D02*
X164211000Y-62865000D01*
X170434000Y-63500000D02*
X172720000Y-65786000D01*
X172720000Y-65786000D02*
X175133000Y-65786000D01*
X175133000Y-65786000D02*
X175070000Y-65750000D01*
X168783000Y-76581000D02*
X168910000Y-76454000D01*
X168910000Y-76454000D02*
X170307000Y-76454000D01*
X135128000Y-89916000D02*
X135128000Y-93472000D01*
X135128000Y-93472000D02*
X132334000Y-96266000D01*
X136970000Y-63700000D02*
X136970000Y-65150000D01*
X137920000Y-62750000D02*
X136970000Y-63700000D01*
X137920000Y-49600000D02*
X137920000Y-62750000D01*
X137580000Y-49260000D02*
X137920000Y-49600000D01*
X145415000Y-65278000D02*
X146431000Y-64262000D01*
X146431000Y-64262000D02*
X160909000Y-64262000D01*
X147828000Y-96266000D02*
X147574000Y-96012000D01*
X147574000Y-96012000D02*
X143256000Y-96012000D01*
X144399000Y-81280000D02*
X142621000Y-79502000D01*
X143650000Y-103010000D02*
X143595000Y-102987000D01*
X143595000Y-102987000D02*
X143976000Y-102606000D01*
X143976000Y-102606000D02*
X148971000Y-102616000D01*
X142494000Y-85598000D02*
X143764000Y-84328000D01*
X143764000Y-84328000D02*
X144399000Y-84328000D01*
X164211000Y-63881000D02*
X164592000Y-63500000D01*
X164592000Y-63500000D02*
X164846000Y-63500000D01*
X164846000Y-63500000D02*
X165735000Y-62611000D01*
X165735000Y-62611000D02*
X170942000Y-62611000D01*
X145161000Y-104648000D02*
X143637000Y-104648000D01*
X143637000Y-104648000D02*
X143510000Y-104521000D01*
X143510000Y-104521000D02*
X143383000Y-104521000D01*
X143383000Y-104521000D02*
X143256000Y-104394000D01*
X143256000Y-104394000D02*
X143129000Y-104394000D01*
X143129000Y-104394000D02*
X141182000Y-102987000D01*
X141182000Y-102987000D02*
X140166000Y-102987000D01*
X140166000Y-102987000D02*
X140150000Y-103010000D01*
X140335000Y-63373000D02*
X140335000Y-63881000D01*
X140335000Y-63881000D02*
X146685000Y-70231000D01*
X146685000Y-70231000D02*
X147828000Y-70231000D01*
X147828000Y-70231000D02*
X147880000Y-70230000D01*
X138910000Y-59130000D02*
X138910000Y-52430000D01*
X138950000Y-59170000D02*
X138910000Y-59130000D01*
X170561000Y-57277000D02*
X170434000Y-57150000D01*
X170434000Y-57150000D02*
X155702000Y-57150000D01*
X155702000Y-57150000D02*
X155575000Y-57277000D01*
X155575000Y-57277000D02*
X154686000Y-57277000D01*
X153416000Y-58547000D02*
X152146000Y-58547000D01*
X173863000Y-56515000D02*
X173736000Y-56388000D01*
X173736000Y-56388000D02*
X153797000Y-56388000D01*
X147701000Y-51943000D02*
X148209000Y-51435000D01*
X148209000Y-51435000D02*
X153670000Y-51435000D01*
D22*
G36*
X166143569Y-48288110D02*
X166092560Y-48540000D01*
X166092560Y-50240000D01*
X166136838Y-50475317D01*
X166275910Y-50691441D01*
X166488110Y-50836431D01*
X166740000Y-50887440D01*
X168440000Y-50887440D01*
X168675317Y-50843162D01*
X168891441Y-50704090D01*
X169036431Y-50491890D01*
X169058301Y-50383893D01*
X169363076Y-50661645D01*
X169773110Y-50831476D01*
X170003000Y-50710155D01*
X170003000Y-49517000D01*
X169983000Y-49517000D01*
X169983000Y-49263000D01*
X170003000Y-49263000D01*
X170003000Y-49243000D01*
X170257000Y-49243000D01*
X170257000Y-49263000D01*
X170277000Y-49263000D01*
X170277000Y-49517000D01*
X170257000Y-49517000D01*
X170257000Y-50710155D01*
X170486890Y-50831476D01*
X170896924Y-50661645D01*
X171325183Y-50271358D01*
X171392298Y-50128447D01*
X171619946Y-50469147D01*
X172101715Y-50791054D01*
X172670000Y-50904093D01*
X173238285Y-50791054D01*
X173720054Y-50469147D01*
X173940000Y-50139974D01*
X174159946Y-50469147D01*
X174641715Y-50791054D01*
X175210000Y-50904093D01*
X175778285Y-50791054D01*
X176260054Y-50469147D01*
X176390000Y-50274669D01*
X176390000Y-65150144D01*
X176112811Y-64735302D01*
X175647264Y-64424233D01*
X175098113Y-64315000D01*
X175041887Y-64315000D01*
X174492736Y-64424233D01*
X174027189Y-64735302D01*
X173866360Y-64976000D01*
X173055513Y-64976000D01*
X171477292Y-63397779D01*
X171734192Y-63141327D01*
X171876838Y-62797799D01*
X171877162Y-62425833D01*
X171735117Y-62082057D01*
X171472327Y-61818808D01*
X171128799Y-61676162D01*
X170756833Y-61675838D01*
X170453917Y-61801000D01*
X165735000Y-61801000D01*
X165562897Y-61835234D01*
X165425027Y-61862657D01*
X165162244Y-62038243D01*
X164934335Y-62266153D01*
X164741327Y-62072808D01*
X164397799Y-61930162D01*
X164025833Y-61929838D01*
X163722917Y-62055000D01*
X159449807Y-62055000D01*
X159893331Y-60991657D01*
X159896648Y-59645024D01*
X159384380Y-58399629D01*
X159374932Y-58385487D01*
X158926268Y-58073340D01*
X159038494Y-57961114D01*
X159037380Y-57960000D01*
X162509487Y-57960000D01*
X161442918Y-59026570D01*
X161142057Y-59150883D01*
X160878808Y-59413673D01*
X160736162Y-59757201D01*
X160735838Y-60129167D01*
X160877883Y-60472943D01*
X161140673Y-60736192D01*
X161484201Y-60878838D01*
X161856167Y-60879162D01*
X162199943Y-60737117D01*
X162463192Y-60474327D01*
X162588884Y-60171628D01*
X163677083Y-59083429D01*
X163977943Y-58959117D01*
X164241192Y-58696327D01*
X164383838Y-58352799D01*
X164384162Y-57980833D01*
X164375554Y-57960000D01*
X169921671Y-57960000D01*
X170030673Y-58069192D01*
X170374201Y-58211838D01*
X170746167Y-58212162D01*
X171089943Y-58070117D01*
X171353192Y-57807327D01*
X171495838Y-57463799D01*
X171496070Y-57198000D01*
X173223671Y-57198000D01*
X173332673Y-57307192D01*
X173676201Y-57449838D01*
X174048167Y-57450162D01*
X174391943Y-57308117D01*
X174655192Y-57045327D01*
X174797838Y-56701799D01*
X174798162Y-56329833D01*
X174656117Y-55986057D01*
X174393327Y-55722808D01*
X174049799Y-55580162D01*
X173745537Y-55579897D01*
X173736000Y-55578000D01*
X154284441Y-55578000D01*
X153983799Y-55453162D01*
X153611833Y-55452838D01*
X153268057Y-55594883D01*
X153004808Y-55857673D01*
X152862162Y-56201201D01*
X152861838Y-56573167D01*
X153003883Y-56916943D01*
X153266673Y-57180192D01*
X153610201Y-57322838D01*
X153750959Y-57322961D01*
X153750838Y-57462167D01*
X153856310Y-57717430D01*
X153602799Y-57612162D01*
X153230833Y-57611838D01*
X152927917Y-57737000D01*
X152633441Y-57737000D01*
X152332799Y-57612162D01*
X151960833Y-57611838D01*
X151617057Y-57753883D01*
X151353808Y-58016673D01*
X151211162Y-58360201D01*
X151210838Y-58732167D01*
X151352883Y-59075943D01*
X151615673Y-59339192D01*
X151959201Y-59481838D01*
X152331167Y-59482162D01*
X152634083Y-59357000D01*
X152928559Y-59357000D01*
X153193892Y-59467176D01*
X153126669Y-59628343D01*
X153123352Y-60974976D01*
X153635620Y-62220371D01*
X153645068Y-62234513D01*
X154093732Y-62546660D01*
X153981506Y-62658886D01*
X154012620Y-62690000D01*
X153497513Y-62690000D01*
X152047430Y-61239918D01*
X151923117Y-60939057D01*
X151660327Y-60675808D01*
X151316799Y-60533162D01*
X150944833Y-60532838D01*
X150601057Y-60674883D01*
X150337808Y-60937673D01*
X150195162Y-61281201D01*
X150194838Y-61653167D01*
X150336883Y-61996943D01*
X150599673Y-62260192D01*
X150902372Y-62385884D01*
X151968487Y-63452000D01*
X146431000Y-63452000D01*
X146121026Y-63513658D01*
X146035168Y-63571027D01*
X145858244Y-63689243D01*
X145186917Y-64360570D01*
X144886057Y-64484883D01*
X144622808Y-64747673D01*
X144480162Y-65091201D01*
X144479838Y-65463167D01*
X144621883Y-65806943D01*
X144884673Y-66070192D01*
X145228201Y-66212838D01*
X145600167Y-66213162D01*
X145943943Y-66071117D01*
X146207192Y-65808327D01*
X146332884Y-65505628D01*
X146766513Y-65072000D01*
X154639957Y-65072000D01*
X154639838Y-65209167D01*
X154781883Y-65552943D01*
X155044673Y-65816192D01*
X155347372Y-65941884D01*
X157896130Y-68490643D01*
X157669244Y-68642243D01*
X155219918Y-71091570D01*
X154919057Y-71215883D01*
X154655808Y-71478673D01*
X154513162Y-71822201D01*
X154512838Y-72194167D01*
X154654883Y-72537943D01*
X154917673Y-72801192D01*
X155261201Y-72943838D01*
X155633167Y-72944162D01*
X155976943Y-72802117D01*
X156240192Y-72539327D01*
X156365884Y-72236628D01*
X158577513Y-70025000D01*
X159659559Y-70025000D01*
X159960201Y-70149838D01*
X160332167Y-70150162D01*
X160675943Y-70008117D01*
X160939192Y-69745327D01*
X161081838Y-69401799D01*
X161082070Y-69136000D01*
X166294468Y-69136000D01*
X166407189Y-69304698D01*
X166872736Y-69615767D01*
X167421887Y-69725000D01*
X167478113Y-69725000D01*
X167718643Y-69677156D01*
X171512243Y-73470756D01*
X171643635Y-73558549D01*
X171775026Y-73646342D01*
X172085000Y-73708000D01*
X172994559Y-73708000D01*
X173295201Y-73832838D01*
X173667167Y-73833162D01*
X174010943Y-73691117D01*
X174274192Y-73428327D01*
X174416838Y-73084799D01*
X174417162Y-72712833D01*
X174275117Y-72369057D01*
X174012327Y-72105808D01*
X173668799Y-71963162D01*
X173296833Y-71962838D01*
X172993917Y-72088000D01*
X172420513Y-72088000D01*
X168864899Y-68532387D01*
X168913113Y-68290000D01*
X168803880Y-67740849D01*
X168492811Y-67275302D01*
X168110725Y-67020000D01*
X168492811Y-66764698D01*
X168803880Y-66299151D01*
X168913113Y-65750000D01*
X168803880Y-65200849D01*
X168492811Y-64735302D01*
X168027264Y-64424233D01*
X167478113Y-64315000D01*
X167421887Y-64315000D01*
X166872736Y-64424233D01*
X166407189Y-64735302D01*
X166096120Y-65200849D01*
X165986887Y-65750000D01*
X166096120Y-66299151D01*
X166407189Y-66764698D01*
X166789275Y-67020000D01*
X166407189Y-67275302D01*
X166246360Y-67516000D01*
X159212513Y-67516000D01*
X156768512Y-65072000D01*
X160421559Y-65072000D01*
X160722201Y-65196838D01*
X161094167Y-65197162D01*
X161437943Y-65055117D01*
X161701192Y-64792327D01*
X161843838Y-64448799D01*
X161844162Y-64076833D01*
X161702117Y-63733057D01*
X161644161Y-63675000D01*
X163284135Y-63675000D01*
X163276162Y-63694201D01*
X163275838Y-64066167D01*
X163417883Y-64409943D01*
X163680673Y-64673192D01*
X164024201Y-64815838D01*
X164396167Y-64816162D01*
X164739943Y-64674117D01*
X165003192Y-64411327D01*
X165063207Y-64266795D01*
X165155974Y-64248342D01*
X165418756Y-64072756D01*
X166070513Y-63421000D01*
X169499068Y-63421000D01*
X169498838Y-63685167D01*
X169640883Y-64028943D01*
X169903673Y-64292192D01*
X170206372Y-64417884D01*
X172147243Y-66358756D01*
X172236422Y-66418343D01*
X172410026Y-66534342D01*
X172720000Y-66596000D01*
X173914468Y-66596000D01*
X174027189Y-66764698D01*
X174171465Y-66861101D01*
X174034683Y-66886838D01*
X173818559Y-67025910D01*
X173673569Y-67238110D01*
X173622560Y-67490000D01*
X173622560Y-69090000D01*
X173666838Y-69325317D01*
X173805910Y-69541441D01*
X174018110Y-69686431D01*
X174270000Y-69737440D01*
X175870000Y-69737440D01*
X176105317Y-69693162D01*
X176321441Y-69554090D01*
X176390000Y-69453751D01*
X176390000Y-76200199D01*
X175666478Y-77163122D01*
X169726627Y-77174604D01*
X169118514Y-77053642D01*
X168980000Y-77053643D01*
X168841486Y-77053642D01*
X168218716Y-77177519D01*
X160209755Y-77193000D01*
X160140160Y-77213927D01*
X159231617Y-77812126D01*
X158931877Y-77849314D01*
X158931875Y-77849315D01*
X158675935Y-77955329D01*
X158481280Y-78085393D01*
X158422219Y-78144455D01*
X158285393Y-78281280D01*
X158155329Y-78475934D01*
X158155329Y-78475935D01*
X158155328Y-78475936D01*
X158129792Y-78537585D01*
X158120160Y-78543927D01*
X158084394Y-78579456D01*
X158065269Y-78626100D01*
X158065798Y-78676511D01*
X158069101Y-78684108D01*
X158049314Y-78731877D01*
X158003642Y-78961487D01*
X158003642Y-79031416D01*
X157990000Y-79100000D01*
X157990000Y-102779868D01*
X157736266Y-102603339D01*
X155499605Y-104840000D01*
X157736266Y-107076661D01*
X157990000Y-106900132D01*
X157990000Y-107000000D01*
X157992698Y-107013562D01*
X157989433Y-107032100D01*
X157990172Y-107065640D01*
X158007447Y-107143485D01*
X158011429Y-107223117D01*
X158068581Y-107450442D01*
X158156038Y-107634936D01*
X158187244Y-107700768D01*
X158285247Y-107832670D01*
X156947353Y-107830794D01*
X157230371Y-107714380D01*
X157244513Y-107704932D01*
X157556661Y-107256266D01*
X155320000Y-105019605D01*
X153083339Y-107256266D01*
X153395487Y-107704932D01*
X153686274Y-107826220D01*
X130710000Y-107793996D01*
X130710000Y-104735730D01*
X130828110Y-104816431D01*
X131080000Y-104867440D01*
X133480000Y-104867440D01*
X133715317Y-104823162D01*
X133931441Y-104684090D01*
X134076431Y-104471890D01*
X134107761Y-104317175D01*
X134662430Y-104317175D01*
X134785565Y-104604788D01*
X135467734Y-104864707D01*
X136197443Y-104843786D01*
X136774435Y-104604788D01*
X136897570Y-104317175D01*
X135780000Y-103199605D01*
X134662430Y-104317175D01*
X134107761Y-104317175D01*
X134127440Y-104220000D01*
X134127440Y-103850819D01*
X134195212Y-104014435D01*
X134482825Y-104137570D01*
X135600395Y-103020000D01*
X135959605Y-103020000D01*
X137077175Y-104137570D01*
X137364788Y-104014435D01*
X137624707Y-103332266D01*
X137603786Y-102602557D01*
X137364788Y-102025565D01*
X137077175Y-101902430D01*
X135959605Y-103020000D01*
X135600395Y-103020000D01*
X134482825Y-101902430D01*
X134195212Y-102025565D01*
X134127440Y-102203436D01*
X134127440Y-101820000D01*
X134109156Y-101722825D01*
X134662430Y-101722825D01*
X135780000Y-102840395D01*
X136810395Y-101810000D01*
X138302560Y-101810000D01*
X138302560Y-104210000D01*
X138346838Y-104445317D01*
X138485910Y-104661441D01*
X138698110Y-104806431D01*
X138950000Y-104857440D01*
X141350000Y-104857440D01*
X141585317Y-104813162D01*
X141801441Y-104674090D01*
X141911260Y-104513365D01*
X142654568Y-105050517D01*
X142740472Y-105089854D01*
X142819026Y-105142342D01*
X142882799Y-105155027D01*
X142941921Y-105182100D01*
X142942491Y-105182121D01*
X143073026Y-105269342D01*
X143164057Y-105287449D01*
X143195635Y-105308549D01*
X143327026Y-105396342D01*
X143637000Y-105458000D01*
X144673559Y-105458000D01*
X144974201Y-105582838D01*
X145346167Y-105583162D01*
X145535392Y-105504976D01*
X151933352Y-105504976D01*
X152445620Y-106750371D01*
X152455068Y-106764513D01*
X152903734Y-107076661D01*
X155140395Y-104840000D01*
X152903734Y-102603339D01*
X152455068Y-102915487D01*
X151936669Y-104158343D01*
X151933352Y-105504976D01*
X145535392Y-105504976D01*
X145689943Y-105441117D01*
X145953192Y-105178327D01*
X146095838Y-104834799D01*
X146096162Y-104462833D01*
X145954117Y-104119057D01*
X145691327Y-103855808D01*
X145347799Y-103713162D01*
X145344931Y-103713160D01*
X145467083Y-103418986D01*
X148481201Y-103425021D01*
X148784201Y-103550838D01*
X149156167Y-103551162D01*
X149499943Y-103409117D01*
X149763192Y-103146327D01*
X149905838Y-102802799D01*
X149906162Y-102430833D01*
X149903229Y-102423734D01*
X153083339Y-102423734D01*
X155320000Y-104660395D01*
X157556661Y-102423734D01*
X157244513Y-101975068D01*
X156001657Y-101456669D01*
X154655024Y-101453352D01*
X153409629Y-101965620D01*
X153395487Y-101975068D01*
X153083339Y-102423734D01*
X149903229Y-102423734D01*
X149764117Y-102087057D01*
X149501327Y-101823808D01*
X149157799Y-101681162D01*
X148785833Y-101680838D01*
X148485274Y-101805026D01*
X145033049Y-101798115D01*
X144690801Y-101455270D01*
X144016605Y-101175319D01*
X143286597Y-101174682D01*
X142611914Y-101453455D01*
X142095270Y-101969199D01*
X141997440Y-102204799D01*
X141997440Y-101810000D01*
X141953162Y-101574683D01*
X141814090Y-101358559D01*
X141601890Y-101213569D01*
X141350000Y-101162560D01*
X138950000Y-101162560D01*
X138714683Y-101206838D01*
X138498559Y-101345910D01*
X138353569Y-101558110D01*
X138302560Y-101810000D01*
X136810395Y-101810000D01*
X136897570Y-101722825D01*
X136774435Y-101435212D01*
X136092266Y-101175293D01*
X135362557Y-101196214D01*
X134785565Y-101435212D01*
X134662430Y-101722825D01*
X134109156Y-101722825D01*
X134083162Y-101584683D01*
X133944090Y-101368559D01*
X133731890Y-101223569D01*
X133480000Y-101172560D01*
X131080000Y-101172560D01*
X130844683Y-101216838D01*
X130710000Y-101303504D01*
X130710000Y-96451167D01*
X131398838Y-96451167D01*
X131540883Y-96794943D01*
X131803673Y-97058192D01*
X132147201Y-97200838D01*
X132519167Y-97201162D01*
X132862943Y-97059117D01*
X133126192Y-96796327D01*
X133251884Y-96493628D01*
X133548345Y-96197167D01*
X142320838Y-96197167D01*
X142462883Y-96540943D01*
X142725673Y-96804192D01*
X143069201Y-96946838D01*
X143441167Y-96947162D01*
X143744083Y-96822000D01*
X147061893Y-96822000D01*
X147297673Y-97058192D01*
X147641201Y-97200838D01*
X148013167Y-97201162D01*
X148356943Y-97059117D01*
X148620192Y-96796327D01*
X148762838Y-96452799D01*
X148763162Y-96080833D01*
X148696417Y-95919298D01*
X148835317Y-95893162D01*
X149051441Y-95754090D01*
X149196431Y-95541890D01*
X149227815Y-95386911D01*
X149325302Y-95532811D01*
X149790849Y-95843880D01*
X150340000Y-95953113D01*
X150889151Y-95843880D01*
X151354698Y-95532811D01*
X151665767Y-95067264D01*
X151775000Y-94518113D01*
X151775000Y-94461887D01*
X151665767Y-93912736D01*
X151354698Y-93447189D01*
X150889151Y-93136120D01*
X150340000Y-93026887D01*
X149790849Y-93136120D01*
X149325302Y-93447189D01*
X149228899Y-93591465D01*
X149203162Y-93454683D01*
X149064090Y-93238559D01*
X148851890Y-93093569D01*
X148600000Y-93042560D01*
X147000000Y-93042560D01*
X146764683Y-93086838D01*
X146548559Y-93225910D01*
X146403569Y-93438110D01*
X146352560Y-93690000D01*
X146352560Y-95202000D01*
X143743441Y-95202000D01*
X143442799Y-95077162D01*
X143070833Y-95076838D01*
X142727057Y-95218883D01*
X142463808Y-95481673D01*
X142321162Y-95825201D01*
X142320838Y-96197167D01*
X133548345Y-96197167D01*
X135700757Y-94044756D01*
X135876343Y-93781973D01*
X135938000Y-93472000D01*
X135938000Y-90403441D01*
X136062838Y-90102799D01*
X136063162Y-89730833D01*
X135921117Y-89387057D01*
X135658327Y-89123808D01*
X135314799Y-88981162D01*
X134942833Y-88980838D01*
X134599057Y-89122883D01*
X134335808Y-89385673D01*
X134193162Y-89729201D01*
X134192838Y-90101167D01*
X134318000Y-90404083D01*
X134318000Y-93136487D01*
X132105918Y-95348570D01*
X131805057Y-95472883D01*
X131541808Y-95735673D01*
X131399162Y-96079201D01*
X131398838Y-96451167D01*
X130710000Y-96451167D01*
X130710000Y-86841887D01*
X146365000Y-86841887D01*
X146365000Y-86898113D01*
X146474233Y-87447264D01*
X146785302Y-87912811D01*
X147250849Y-88223880D01*
X147800000Y-88333113D01*
X148349151Y-88223880D01*
X148814698Y-87912811D01*
X149084986Y-87508297D01*
X149187611Y-87725134D01*
X149602577Y-88101041D01*
X149990961Y-88261904D01*
X150213000Y-88139915D01*
X150213000Y-86997000D01*
X150467000Y-86997000D01*
X150467000Y-88139915D01*
X150689039Y-88261904D01*
X151077423Y-88101041D01*
X151492389Y-87725134D01*
X151731914Y-87219041D01*
X151610629Y-86997000D01*
X150467000Y-86997000D01*
X150213000Y-86997000D01*
X150193000Y-86997000D01*
X150193000Y-86743000D01*
X150213000Y-86743000D01*
X150213000Y-85600085D01*
X150467000Y-85600085D01*
X150467000Y-86743000D01*
X151610629Y-86743000D01*
X151731914Y-86520959D01*
X151492389Y-86014866D01*
X151077423Y-85638959D01*
X150689039Y-85478096D01*
X150467000Y-85600085D01*
X150213000Y-85600085D01*
X149990961Y-85478096D01*
X149602577Y-85638959D01*
X149187611Y-86014866D01*
X149084986Y-86231703D01*
X148814698Y-85827189D01*
X148349151Y-85516120D01*
X147800000Y-85406887D01*
X147250849Y-85516120D01*
X146785302Y-85827189D01*
X146474233Y-86292736D01*
X146365000Y-86841887D01*
X130710000Y-86841887D01*
X130710000Y-85044873D01*
X130904812Y-85044873D01*
X131069646Y-85443800D01*
X131374595Y-85749282D01*
X131773233Y-85914811D01*
X132204873Y-85915188D01*
X132524386Y-85783167D01*
X139272838Y-85783167D01*
X139414883Y-86126943D01*
X139677673Y-86390192D01*
X140021201Y-86532838D01*
X140393167Y-86533162D01*
X140736943Y-86391117D01*
X141000192Y-86128327D01*
X141125884Y-85825628D01*
X141572548Y-85378964D01*
X141559162Y-85411201D01*
X141558838Y-85783167D01*
X141700883Y-86126943D01*
X141963673Y-86390192D01*
X142307201Y-86532838D01*
X142679167Y-86533162D01*
X143022943Y-86391117D01*
X143286192Y-86128327D01*
X143411884Y-85825628D01*
X144044366Y-85193147D01*
X144212201Y-85262838D01*
X144584167Y-85263162D01*
X144927943Y-85121117D01*
X145191192Y-84858327D01*
X145333838Y-84514799D01*
X145334162Y-84142833D01*
X145192117Y-83799057D01*
X144929327Y-83535808D01*
X144585799Y-83393162D01*
X144213833Y-83392838D01*
X143910917Y-83518000D01*
X143764000Y-83518000D01*
X143454026Y-83579658D01*
X143322635Y-83667451D01*
X143206389Y-83745124D01*
X144099513Y-82852000D01*
X144653000Y-82852000D01*
X144962974Y-82790342D01*
X145125943Y-82681449D01*
X145216974Y-82663342D01*
X145479756Y-82487756D01*
X148818084Y-79149429D01*
X149118943Y-79025117D01*
X149382192Y-78762327D01*
X149524838Y-78418799D01*
X149525162Y-78046833D01*
X149383117Y-77703057D01*
X149120327Y-77439808D01*
X148776799Y-77297162D01*
X148404833Y-77296838D01*
X148061057Y-77438883D01*
X147797808Y-77701673D01*
X147672116Y-78004371D01*
X145058890Y-80617598D01*
X144929327Y-80487808D01*
X144626629Y-80362116D01*
X143538430Y-79273918D01*
X143414117Y-78973057D01*
X143151327Y-78709808D01*
X142807799Y-78567162D01*
X142435833Y-78566838D01*
X142092057Y-78708883D01*
X141828808Y-78971673D01*
X141686162Y-79315201D01*
X141685838Y-79687167D01*
X141827883Y-80030943D01*
X142090673Y-80294192D01*
X142393372Y-80419884D01*
X143341999Y-81368512D01*
X143322635Y-81381451D01*
X143191243Y-81469244D01*
X139979918Y-84680570D01*
X139679057Y-84804883D01*
X139415808Y-85067673D01*
X139273162Y-85411201D01*
X139272838Y-85783167D01*
X132524386Y-85783167D01*
X132603800Y-85750354D01*
X132909282Y-85445405D01*
X133074811Y-85046767D01*
X133075188Y-84615127D01*
X132910354Y-84216200D01*
X132605405Y-83910718D01*
X132206767Y-83745189D01*
X131775127Y-83744812D01*
X131376200Y-83909646D01*
X131070718Y-84214595D01*
X130905189Y-84613233D01*
X130904812Y-85044873D01*
X130710000Y-85044873D01*
X130710000Y-82044873D01*
X130904812Y-82044873D01*
X131069646Y-82443800D01*
X131374595Y-82749282D01*
X131773233Y-82914811D01*
X132204873Y-82915188D01*
X132603800Y-82750354D01*
X132909282Y-82445405D01*
X133074811Y-82046767D01*
X133075188Y-81615127D01*
X132910354Y-81216200D01*
X132605405Y-80910718D01*
X132206767Y-80745189D01*
X131775127Y-80744812D01*
X131376200Y-80909646D01*
X131070718Y-81214595D01*
X130905189Y-81613233D01*
X130904812Y-82044873D01*
X130710000Y-82044873D01*
X130710000Y-69516266D01*
X131053339Y-69516266D01*
X131365487Y-69964932D01*
X132608343Y-70483331D01*
X133954976Y-70486648D01*
X135200371Y-69974380D01*
X135214513Y-69964932D01*
X135526661Y-69516266D01*
X133290000Y-67279605D01*
X131053339Y-69516266D01*
X130710000Y-69516266D01*
X130710000Y-69222747D01*
X130873734Y-69336661D01*
X133110395Y-67100000D01*
X133469605Y-67100000D01*
X135706266Y-69336661D01*
X136154932Y-69024513D01*
X136673331Y-67781657D01*
X136676648Y-66435024D01*
X136480988Y-65959348D01*
X136783201Y-66084838D01*
X137155167Y-66085162D01*
X137498943Y-65943117D01*
X137762192Y-65680327D01*
X137904838Y-65336799D01*
X137905162Y-64964833D01*
X137780000Y-64661917D01*
X137780000Y-64035512D01*
X138257345Y-63558167D01*
X139399838Y-63558167D01*
X139525000Y-63861083D01*
X139525000Y-63881000D01*
X139586658Y-64190974D01*
X139732969Y-64409943D01*
X139762244Y-64453756D01*
X146112243Y-70803756D01*
X146128567Y-70814663D01*
X146375026Y-70979342D01*
X146634397Y-71030934D01*
X146800853Y-71280054D01*
X147282622Y-71601961D01*
X147850907Y-71715000D01*
X147909093Y-71715000D01*
X148477378Y-71601961D01*
X148959147Y-71280054D01*
X149281054Y-70798285D01*
X149394093Y-70230000D01*
X149281054Y-69661715D01*
X148959147Y-69179946D01*
X148915223Y-69150597D01*
X149089698Y-69078327D01*
X149268327Y-68899699D01*
X149365000Y-68666310D01*
X149365000Y-67975750D01*
X149206250Y-67817000D01*
X148007000Y-67817000D01*
X148007000Y-67837000D01*
X147753000Y-67837000D01*
X147753000Y-67817000D01*
X146553750Y-67817000D01*
X146395000Y-67975750D01*
X146395000Y-68666310D01*
X146486342Y-68886829D01*
X144313203Y-66713690D01*
X146395000Y-66713690D01*
X146395000Y-67404250D01*
X146553750Y-67563000D01*
X147753000Y-67563000D01*
X147753000Y-66363750D01*
X148007000Y-66363750D01*
X148007000Y-67563000D01*
X149206250Y-67563000D01*
X149365000Y-67404250D01*
X149365000Y-66713690D01*
X149268327Y-66480301D01*
X149089698Y-66301673D01*
X148856309Y-66205000D01*
X148165750Y-66205000D01*
X148007000Y-66363750D01*
X147753000Y-66363750D01*
X147594250Y-66205000D01*
X146903691Y-66205000D01*
X146670302Y-66301673D01*
X146491673Y-66480301D01*
X146395000Y-66713690D01*
X144313203Y-66713690D01*
X141237409Y-63637897D01*
X141269838Y-63559799D01*
X141270162Y-63187833D01*
X141128117Y-62844057D01*
X140865327Y-62580808D01*
X140521799Y-62438162D01*
X140149833Y-62437838D01*
X139806057Y-62579883D01*
X139542808Y-62842673D01*
X139400162Y-63186201D01*
X139399838Y-63558167D01*
X138257345Y-63558167D01*
X138492757Y-63322756D01*
X138668343Y-63059973D01*
X138707125Y-62865000D01*
X138730000Y-62750000D01*
X138730000Y-60091052D01*
X138763201Y-60104838D01*
X139135167Y-60105162D01*
X139478943Y-59963117D01*
X139742192Y-59700327D01*
X139884838Y-59356799D01*
X139885162Y-58984833D01*
X139743117Y-58641057D01*
X139720000Y-58617900D01*
X139720000Y-52917441D01*
X139844838Y-52616799D01*
X139845162Y-52244833D01*
X139796957Y-52128167D01*
X146765838Y-52128167D01*
X146907883Y-52471943D01*
X147170673Y-52735192D01*
X147514201Y-52877838D01*
X147886167Y-52878162D01*
X148229943Y-52736117D01*
X148493192Y-52473327D01*
X148588002Y-52245000D01*
X153182559Y-52245000D01*
X153483201Y-52369838D01*
X153855167Y-52370162D01*
X154198943Y-52228117D01*
X154462192Y-51965327D01*
X154604838Y-51621799D01*
X154605162Y-51249833D01*
X154463117Y-50906057D01*
X154200327Y-50642808D01*
X153856799Y-50500162D01*
X153484833Y-50499838D01*
X153181917Y-50625000D01*
X148209000Y-50625000D01*
X147899026Y-50686658D01*
X147767635Y-50774451D01*
X147636243Y-50862244D01*
X147472917Y-51025571D01*
X147172057Y-51149883D01*
X146908808Y-51412673D01*
X146766162Y-51756201D01*
X146765838Y-52128167D01*
X139796957Y-52128167D01*
X139703117Y-51901057D01*
X139440327Y-51637808D01*
X139096799Y-51495162D01*
X138730000Y-51494843D01*
X138730000Y-49600000D01*
X138713490Y-49517000D01*
X138668343Y-49290027D01*
X138499941Y-49037996D01*
X138373117Y-48731057D01*
X138110327Y-48467808D01*
X137766799Y-48325162D01*
X137394833Y-48324838D01*
X137051057Y-48466883D01*
X136787808Y-48729673D01*
X136645162Y-49073201D01*
X136644838Y-49445167D01*
X136786883Y-49788943D01*
X137049673Y-50052192D01*
X137110000Y-50077242D01*
X137110000Y-62414487D01*
X136397244Y-63127244D01*
X136221658Y-63390026D01*
X136160000Y-63700000D01*
X136160000Y-64662559D01*
X136035162Y-64963201D01*
X136035050Y-65092082D01*
X135706266Y-64863339D01*
X133469605Y-67100000D01*
X133110395Y-67100000D01*
X130873734Y-64863339D01*
X130710000Y-64977253D01*
X130710000Y-64683734D01*
X131053339Y-64683734D01*
X133290000Y-66920395D01*
X135526661Y-64683734D01*
X135214513Y-64235068D01*
X133971657Y-63716669D01*
X132625024Y-63713352D01*
X131379629Y-64225620D01*
X131365487Y-64235068D01*
X131053339Y-64683734D01*
X130710000Y-64683734D01*
X130710000Y-48210000D01*
X166196939Y-48210000D01*
X166143569Y-48288110D01*
X166143569Y-48288110D01*
G37*
X166143569Y-48288110D02*
X166092560Y-48540000D01*
X166092560Y-50240000D01*
X166136838Y-50475317D01*
X166275910Y-50691441D01*
X166488110Y-50836431D01*
X166740000Y-50887440D01*
X168440000Y-50887440D01*
X168675317Y-50843162D01*
X168891441Y-50704090D01*
X169036431Y-50491890D01*
X169058301Y-50383893D01*
X169363076Y-50661645D01*
X169773110Y-50831476D01*
X170003000Y-50710155D01*
X170003000Y-49517000D01*
X169983000Y-49517000D01*
X169983000Y-49263000D01*
X170003000Y-49263000D01*
X170003000Y-49243000D01*
X170257000Y-49243000D01*
X170257000Y-49263000D01*
X170277000Y-49263000D01*
X170277000Y-49517000D01*
X170257000Y-49517000D01*
X170257000Y-50710155D01*
X170486890Y-50831476D01*
X170896924Y-50661645D01*
X171325183Y-50271358D01*
X171392298Y-50128447D01*
X171619946Y-50469147D01*
X172101715Y-50791054D01*
X172670000Y-50904093D01*
X173238285Y-50791054D01*
X173720054Y-50469147D01*
X173940000Y-50139974D01*
X174159946Y-50469147D01*
X174641715Y-50791054D01*
X175210000Y-50904093D01*
X175778285Y-50791054D01*
X176260054Y-50469147D01*
X176390000Y-50274669D01*
X176390000Y-65150144D01*
X176112811Y-64735302D01*
X175647264Y-64424233D01*
X175098113Y-64315000D01*
X175041887Y-64315000D01*
X174492736Y-64424233D01*
X174027189Y-64735302D01*
X173866360Y-64976000D01*
X173055513Y-64976000D01*
X171477292Y-63397779D01*
X171734192Y-63141327D01*
X171876838Y-62797799D01*
X171877162Y-62425833D01*
X171735117Y-62082057D01*
X171472327Y-61818808D01*
X171128799Y-61676162D01*
X170756833Y-61675838D01*
X170453917Y-61801000D01*
X165735000Y-61801000D01*
X165562897Y-61835234D01*
X165425027Y-61862657D01*
X165162244Y-62038243D01*
X164934335Y-62266153D01*
X164741327Y-62072808D01*
X164397799Y-61930162D01*
X164025833Y-61929838D01*
X163722917Y-62055000D01*
X159449807Y-62055000D01*
X159893331Y-60991657D01*
X159896648Y-59645024D01*
X159384380Y-58399629D01*
X159374932Y-58385487D01*
X158926268Y-58073340D01*
X159038494Y-57961114D01*
X159037380Y-57960000D01*
X162509487Y-57960000D01*
X161442918Y-59026570D01*
X161142057Y-59150883D01*
X160878808Y-59413673D01*
X160736162Y-59757201D01*
X160735838Y-60129167D01*
X160877883Y-60472943D01*
X161140673Y-60736192D01*
X161484201Y-60878838D01*
X161856167Y-60879162D01*
X162199943Y-60737117D01*
X162463192Y-60474327D01*
X162588884Y-60171628D01*
X163677083Y-59083429D01*
X163977943Y-58959117D01*
X164241192Y-58696327D01*
X164383838Y-58352799D01*
X164384162Y-57980833D01*
X164375554Y-57960000D01*
X169921671Y-57960000D01*
X170030673Y-58069192D01*
X170374201Y-58211838D01*
X170746167Y-58212162D01*
X171089943Y-58070117D01*
X171353192Y-57807327D01*
X171495838Y-57463799D01*
X171496070Y-57198000D01*
X173223671Y-57198000D01*
X173332673Y-57307192D01*
X173676201Y-57449838D01*
X174048167Y-57450162D01*
X174391943Y-57308117D01*
X174655192Y-57045327D01*
X174797838Y-56701799D01*
X174798162Y-56329833D01*
X174656117Y-55986057D01*
X174393327Y-55722808D01*
X174049799Y-55580162D01*
X173745537Y-55579897D01*
X173736000Y-55578000D01*
X154284441Y-55578000D01*
X153983799Y-55453162D01*
X153611833Y-55452838D01*
X153268057Y-55594883D01*
X153004808Y-55857673D01*
X152862162Y-56201201D01*
X152861838Y-56573167D01*
X153003883Y-56916943D01*
X153266673Y-57180192D01*
X153610201Y-57322838D01*
X153750959Y-57322961D01*
X153750838Y-57462167D01*
X153856310Y-57717430D01*
X153602799Y-57612162D01*
X153230833Y-57611838D01*
X152927917Y-57737000D01*
X152633441Y-57737000D01*
X152332799Y-57612162D01*
X151960833Y-57611838D01*
X151617057Y-57753883D01*
X151353808Y-58016673D01*
X151211162Y-58360201D01*
X151210838Y-58732167D01*
X151352883Y-59075943D01*
X151615673Y-59339192D01*
X151959201Y-59481838D01*
X152331167Y-59482162D01*
X152634083Y-59357000D01*
X152928559Y-59357000D01*
X153193892Y-59467176D01*
X153126669Y-59628343D01*
X153123352Y-60974976D01*
X153635620Y-62220371D01*
X153645068Y-62234513D01*
X154093732Y-62546660D01*
X153981506Y-62658886D01*
X154012620Y-62690000D01*
X153497513Y-62690000D01*
X152047430Y-61239918D01*
X151923117Y-60939057D01*
X151660327Y-60675808D01*
X151316799Y-60533162D01*
X150944833Y-60532838D01*
X150601057Y-60674883D01*
X150337808Y-60937673D01*
X150195162Y-61281201D01*
X150194838Y-61653167D01*
X150336883Y-61996943D01*
X150599673Y-62260192D01*
X150902372Y-62385884D01*
X151968487Y-63452000D01*
X146431000Y-63452000D01*
X146121026Y-63513658D01*
X146035168Y-63571027D01*
X145858244Y-63689243D01*
X145186917Y-64360570D01*
X144886057Y-64484883D01*
X144622808Y-64747673D01*
X144480162Y-65091201D01*
X144479838Y-65463167D01*
X144621883Y-65806943D01*
X144884673Y-66070192D01*
X145228201Y-66212838D01*
X145600167Y-66213162D01*
X145943943Y-66071117D01*
X146207192Y-65808327D01*
X146332884Y-65505628D01*
X146766513Y-65072000D01*
X154639957Y-65072000D01*
X154639838Y-65209167D01*
X154781883Y-65552943D01*
X155044673Y-65816192D01*
X155347372Y-65941884D01*
X157896130Y-68490643D01*
X157669244Y-68642243D01*
X155219918Y-71091570D01*
X154919057Y-71215883D01*
X154655808Y-71478673D01*
X154513162Y-71822201D01*
X154512838Y-72194167D01*
X154654883Y-72537943D01*
X154917673Y-72801192D01*
X155261201Y-72943838D01*
X155633167Y-72944162D01*
X155976943Y-72802117D01*
X156240192Y-72539327D01*
X156365884Y-72236628D01*
X158577513Y-70025000D01*
X159659559Y-70025000D01*
X159960201Y-70149838D01*
X160332167Y-70150162D01*
X160675943Y-70008117D01*
X160939192Y-69745327D01*
X161081838Y-69401799D01*
X161082070Y-69136000D01*
X166294468Y-69136000D01*
X166407189Y-69304698D01*
X166872736Y-69615767D01*
X167421887Y-69725000D01*
X167478113Y-69725000D01*
X167718643Y-69677156D01*
X171512243Y-73470756D01*
X171643635Y-73558549D01*
X171775026Y-73646342D01*
X172085000Y-73708000D01*
X172994559Y-73708000D01*
X173295201Y-73832838D01*
X173667167Y-73833162D01*
X174010943Y-73691117D01*
X174274192Y-73428327D01*
X174416838Y-73084799D01*
X174417162Y-72712833D01*
X174275117Y-72369057D01*
X174012327Y-72105808D01*
X173668799Y-71963162D01*
X173296833Y-71962838D01*
X172993917Y-72088000D01*
X172420513Y-72088000D01*
X168864899Y-68532387D01*
X168913113Y-68290000D01*
X168803880Y-67740849D01*
X168492811Y-67275302D01*
X168110725Y-67020000D01*
X168492811Y-66764698D01*
X168803880Y-66299151D01*
X168913113Y-65750000D01*
X168803880Y-65200849D01*
X168492811Y-64735302D01*
X168027264Y-64424233D01*
X167478113Y-64315000D01*
X167421887Y-64315000D01*
X166872736Y-64424233D01*
X166407189Y-64735302D01*
X166096120Y-65200849D01*
X165986887Y-65750000D01*
X166096120Y-66299151D01*
X166407189Y-66764698D01*
X166789275Y-67020000D01*
X166407189Y-67275302D01*
X166246360Y-67516000D01*
X159212513Y-67516000D01*
X156768512Y-65072000D01*
X160421559Y-65072000D01*
X160722201Y-65196838D01*
X161094167Y-65197162D01*
X161437943Y-65055117D01*
X161701192Y-64792327D01*
X161843838Y-64448799D01*
X161844162Y-64076833D01*
X161702117Y-63733057D01*
X161644161Y-63675000D01*
X163284135Y-63675000D01*
X163276162Y-63694201D01*
X163275838Y-64066167D01*
X163417883Y-64409943D01*
X163680673Y-64673192D01*
X164024201Y-64815838D01*
X164396167Y-64816162D01*
X164739943Y-64674117D01*
X165003192Y-64411327D01*
X165063207Y-64266795D01*
X165155974Y-64248342D01*
X165418756Y-64072756D01*
X166070513Y-63421000D01*
X169499068Y-63421000D01*
X169498838Y-63685167D01*
X169640883Y-64028943D01*
X169903673Y-64292192D01*
X170206372Y-64417884D01*
X172147243Y-66358756D01*
X172236422Y-66418343D01*
X172410026Y-66534342D01*
X172720000Y-66596000D01*
X173914468Y-66596000D01*
X174027189Y-66764698D01*
X174171465Y-66861101D01*
X174034683Y-66886838D01*
X173818559Y-67025910D01*
X173673569Y-67238110D01*
X173622560Y-67490000D01*
X173622560Y-69090000D01*
X173666838Y-69325317D01*
X173805910Y-69541441D01*
X174018110Y-69686431D01*
X174270000Y-69737440D01*
X175870000Y-69737440D01*
X176105317Y-69693162D01*
X176321441Y-69554090D01*
X176390000Y-69453751D01*
X176390000Y-76200199D01*
X175666478Y-77163122D01*
X169726627Y-77174604D01*
X169118514Y-77053642D01*
X168980000Y-77053643D01*
X168841486Y-77053642D01*
X168218716Y-77177519D01*
X160209755Y-77193000D01*
X160140160Y-77213927D01*
X159231617Y-77812126D01*
X158931877Y-77849314D01*
X158931875Y-77849315D01*
X158675935Y-77955329D01*
X158481280Y-78085393D01*
X158422219Y-78144455D01*
X158285393Y-78281280D01*
X158155329Y-78475934D01*
X158155329Y-78475935D01*
X158155328Y-78475936D01*
X158129792Y-78537585D01*
X158120160Y-78543927D01*
X158084394Y-78579456D01*
X158065269Y-78626100D01*
X158065798Y-78676511D01*
X158069101Y-78684108D01*
X158049314Y-78731877D01*
X158003642Y-78961487D01*
X158003642Y-79031416D01*
X157990000Y-79100000D01*
X157990000Y-102779868D01*
X157736266Y-102603339D01*
X155499605Y-104840000D01*
X157736266Y-107076661D01*
X157990000Y-106900132D01*
X157990000Y-107000000D01*
X157992698Y-107013562D01*
X157989433Y-107032100D01*
X157990172Y-107065640D01*
X158007447Y-107143485D01*
X158011429Y-107223117D01*
X158068581Y-107450442D01*
X158156038Y-107634936D01*
X158187244Y-107700768D01*
X158285247Y-107832670D01*
X156947353Y-107830794D01*
X157230371Y-107714380D01*
X157244513Y-107704932D01*
X157556661Y-107256266D01*
X155320000Y-105019605D01*
X153083339Y-107256266D01*
X153395487Y-107704932D01*
X153686274Y-107826220D01*
X130710000Y-107793996D01*
X130710000Y-104735730D01*
X130828110Y-104816431D01*
X131080000Y-104867440D01*
X133480000Y-104867440D01*
X133715317Y-104823162D01*
X133931441Y-104684090D01*
X134076431Y-104471890D01*
X134107761Y-104317175D01*
X134662430Y-104317175D01*
X134785565Y-104604788D01*
X135467734Y-104864707D01*
X136197443Y-104843786D01*
X136774435Y-104604788D01*
X136897570Y-104317175D01*
X135780000Y-103199605D01*
X134662430Y-104317175D01*
X134107761Y-104317175D01*
X134127440Y-104220000D01*
X134127440Y-103850819D01*
X134195212Y-104014435D01*
X134482825Y-104137570D01*
X135600395Y-103020000D01*
X135959605Y-103020000D01*
X137077175Y-104137570D01*
X137364788Y-104014435D01*
X137624707Y-103332266D01*
X137603786Y-102602557D01*
X137364788Y-102025565D01*
X137077175Y-101902430D01*
X135959605Y-103020000D01*
X135600395Y-103020000D01*
X134482825Y-101902430D01*
X134195212Y-102025565D01*
X134127440Y-102203436D01*
X134127440Y-101820000D01*
X134109156Y-101722825D01*
X134662430Y-101722825D01*
X135780000Y-102840395D01*
X136810395Y-101810000D01*
X138302560Y-101810000D01*
X138302560Y-104210000D01*
X138346838Y-104445317D01*
X138485910Y-104661441D01*
X138698110Y-104806431D01*
X138950000Y-104857440D01*
X141350000Y-104857440D01*
X141585317Y-104813162D01*
X141801441Y-104674090D01*
X141911260Y-104513365D01*
X142654568Y-105050517D01*
X142740472Y-105089854D01*
X142819026Y-105142342D01*
X142882799Y-105155027D01*
X142941921Y-105182100D01*
X142942491Y-105182121D01*
X143073026Y-105269342D01*
X143164057Y-105287449D01*
X143195635Y-105308549D01*
X143327026Y-105396342D01*
X143637000Y-105458000D01*
X144673559Y-105458000D01*
X144974201Y-105582838D01*
X145346167Y-105583162D01*
X145535392Y-105504976D01*
X151933352Y-105504976D01*
X152445620Y-106750371D01*
X152455068Y-106764513D01*
X152903734Y-107076661D01*
X155140395Y-104840000D01*
X152903734Y-102603339D01*
X152455068Y-102915487D01*
X151936669Y-104158343D01*
X151933352Y-105504976D01*
X145535392Y-105504976D01*
X145689943Y-105441117D01*
X145953192Y-105178327D01*
X146095838Y-104834799D01*
X146096162Y-104462833D01*
X145954117Y-104119057D01*
X145691327Y-103855808D01*
X145347799Y-103713162D01*
X145344931Y-103713160D01*
X145467083Y-103418986D01*
X148481201Y-103425021D01*
X148784201Y-103550838D01*
X149156167Y-103551162D01*
X149499943Y-103409117D01*
X149763192Y-103146327D01*
X149905838Y-102802799D01*
X149906162Y-102430833D01*
X149903229Y-102423734D01*
X153083339Y-102423734D01*
X155320000Y-104660395D01*
X157556661Y-102423734D01*
X157244513Y-101975068D01*
X156001657Y-101456669D01*
X154655024Y-101453352D01*
X153409629Y-101965620D01*
X153395487Y-101975068D01*
X153083339Y-102423734D01*
X149903229Y-102423734D01*
X149764117Y-102087057D01*
X149501327Y-101823808D01*
X149157799Y-101681162D01*
X148785833Y-101680838D01*
X148485274Y-101805026D01*
X145033049Y-101798115D01*
X144690801Y-101455270D01*
X144016605Y-101175319D01*
X143286597Y-101174682D01*
X142611914Y-101453455D01*
X142095270Y-101969199D01*
X141997440Y-102204799D01*
X141997440Y-101810000D01*
X141953162Y-101574683D01*
X141814090Y-101358559D01*
X141601890Y-101213569D01*
X141350000Y-101162560D01*
X138950000Y-101162560D01*
X138714683Y-101206838D01*
X138498559Y-101345910D01*
X138353569Y-101558110D01*
X138302560Y-101810000D01*
X136810395Y-101810000D01*
X136897570Y-101722825D01*
X136774435Y-101435212D01*
X136092266Y-101175293D01*
X135362557Y-101196214D01*
X134785565Y-101435212D01*
X134662430Y-101722825D01*
X134109156Y-101722825D01*
X134083162Y-101584683D01*
X133944090Y-101368559D01*
X133731890Y-101223569D01*
X133480000Y-101172560D01*
X131080000Y-101172560D01*
X130844683Y-101216838D01*
X130710000Y-101303504D01*
X130710000Y-96451167D01*
X131398838Y-96451167D01*
X131540883Y-96794943D01*
X131803673Y-97058192D01*
X132147201Y-97200838D01*
X132519167Y-97201162D01*
X132862943Y-97059117D01*
X133126192Y-96796327D01*
X133251884Y-96493628D01*
X133548345Y-96197167D01*
X142320838Y-96197167D01*
X142462883Y-96540943D01*
X142725673Y-96804192D01*
X143069201Y-96946838D01*
X143441167Y-96947162D01*
X143744083Y-96822000D01*
X147061893Y-96822000D01*
X147297673Y-97058192D01*
X147641201Y-97200838D01*
X148013167Y-97201162D01*
X148356943Y-97059117D01*
X148620192Y-96796327D01*
X148762838Y-96452799D01*
X148763162Y-96080833D01*
X148696417Y-95919298D01*
X148835317Y-95893162D01*
X149051441Y-95754090D01*
X149196431Y-95541890D01*
X149227815Y-95386911D01*
X149325302Y-95532811D01*
X149790849Y-95843880D01*
X150340000Y-95953113D01*
X150889151Y-95843880D01*
X151354698Y-95532811D01*
X151665767Y-95067264D01*
X151775000Y-94518113D01*
X151775000Y-94461887D01*
X151665767Y-93912736D01*
X151354698Y-93447189D01*
X150889151Y-93136120D01*
X150340000Y-93026887D01*
X149790849Y-93136120D01*
X149325302Y-93447189D01*
X149228899Y-93591465D01*
X149203162Y-93454683D01*
X149064090Y-93238559D01*
X148851890Y-93093569D01*
X148600000Y-93042560D01*
X147000000Y-93042560D01*
X146764683Y-93086838D01*
X146548559Y-93225910D01*
X146403569Y-93438110D01*
X146352560Y-93690000D01*
X146352560Y-95202000D01*
X143743441Y-95202000D01*
X143442799Y-95077162D01*
X143070833Y-95076838D01*
X142727057Y-95218883D01*
X142463808Y-95481673D01*
X142321162Y-95825201D01*
X142320838Y-96197167D01*
X133548345Y-96197167D01*
X135700757Y-94044756D01*
X135876343Y-93781973D01*
X135938000Y-93472000D01*
X135938000Y-90403441D01*
X136062838Y-90102799D01*
X136063162Y-89730833D01*
X135921117Y-89387057D01*
X135658327Y-89123808D01*
X135314799Y-88981162D01*
X134942833Y-88980838D01*
X134599057Y-89122883D01*
X134335808Y-89385673D01*
X134193162Y-89729201D01*
X134192838Y-90101167D01*
X134318000Y-90404083D01*
X134318000Y-93136487D01*
X132105918Y-95348570D01*
X131805057Y-95472883D01*
X131541808Y-95735673D01*
X131399162Y-96079201D01*
X131398838Y-96451167D01*
X130710000Y-96451167D01*
X130710000Y-86841887D01*
X146365000Y-86841887D01*
X146365000Y-86898113D01*
X146474233Y-87447264D01*
X146785302Y-87912811D01*
X147250849Y-88223880D01*
X147800000Y-88333113D01*
X148349151Y-88223880D01*
X148814698Y-87912811D01*
X149084986Y-87508297D01*
X149187611Y-87725134D01*
X149602577Y-88101041D01*
X149990961Y-88261904D01*
X150213000Y-88139915D01*
X150213000Y-86997000D01*
X150467000Y-86997000D01*
X150467000Y-88139915D01*
X150689039Y-88261904D01*
X151077423Y-88101041D01*
X151492389Y-87725134D01*
X151731914Y-87219041D01*
X151610629Y-86997000D01*
X150467000Y-86997000D01*
X150213000Y-86997000D01*
X150193000Y-86997000D01*
X150193000Y-86743000D01*
X150213000Y-86743000D01*
X150213000Y-85600085D01*
X150467000Y-85600085D01*
X150467000Y-86743000D01*
X151610629Y-86743000D01*
X151731914Y-86520959D01*
X151492389Y-86014866D01*
X151077423Y-85638959D01*
X150689039Y-85478096D01*
X150467000Y-85600085D01*
X150213000Y-85600085D01*
X149990961Y-85478096D01*
X149602577Y-85638959D01*
X149187611Y-86014866D01*
X149084986Y-86231703D01*
X148814698Y-85827189D01*
X148349151Y-85516120D01*
X147800000Y-85406887D01*
X147250849Y-85516120D01*
X146785302Y-85827189D01*
X146474233Y-86292736D01*
X146365000Y-86841887D01*
X130710000Y-86841887D01*
X130710000Y-85044873D01*
X130904812Y-85044873D01*
X131069646Y-85443800D01*
X131374595Y-85749282D01*
X131773233Y-85914811D01*
X132204873Y-85915188D01*
X132524386Y-85783167D01*
X139272838Y-85783167D01*
X139414883Y-86126943D01*
X139677673Y-86390192D01*
X140021201Y-86532838D01*
X140393167Y-86533162D01*
X140736943Y-86391117D01*
X141000192Y-86128327D01*
X141125884Y-85825628D01*
X141572548Y-85378964D01*
X141559162Y-85411201D01*
X141558838Y-85783167D01*
X141700883Y-86126943D01*
X141963673Y-86390192D01*
X142307201Y-86532838D01*
X142679167Y-86533162D01*
X143022943Y-86391117D01*
X143286192Y-86128327D01*
X143411884Y-85825628D01*
X144044366Y-85193147D01*
X144212201Y-85262838D01*
X144584167Y-85263162D01*
X144927943Y-85121117D01*
X145191192Y-84858327D01*
X145333838Y-84514799D01*
X145334162Y-84142833D01*
X145192117Y-83799057D01*
X144929327Y-83535808D01*
X144585799Y-83393162D01*
X144213833Y-83392838D01*
X143910917Y-83518000D01*
X143764000Y-83518000D01*
X143454026Y-83579658D01*
X143322635Y-83667451D01*
X143206389Y-83745124D01*
X144099513Y-82852000D01*
X144653000Y-82852000D01*
X144962974Y-82790342D01*
X145125943Y-82681449D01*
X145216974Y-82663342D01*
X145479756Y-82487756D01*
X148818084Y-79149429D01*
X149118943Y-79025117D01*
X149382192Y-78762327D01*
X149524838Y-78418799D01*
X149525162Y-78046833D01*
X149383117Y-77703057D01*
X149120327Y-77439808D01*
X148776799Y-77297162D01*
X148404833Y-77296838D01*
X148061057Y-77438883D01*
X147797808Y-77701673D01*
X147672116Y-78004371D01*
X145058890Y-80617598D01*
X144929327Y-80487808D01*
X144626629Y-80362116D01*
X143538430Y-79273918D01*
X143414117Y-78973057D01*
X143151327Y-78709808D01*
X142807799Y-78567162D01*
X142435833Y-78566838D01*
X142092057Y-78708883D01*
X141828808Y-78971673D01*
X141686162Y-79315201D01*
X141685838Y-79687167D01*
X141827883Y-80030943D01*
X142090673Y-80294192D01*
X142393372Y-80419884D01*
X143341999Y-81368512D01*
X143322635Y-81381451D01*
X143191243Y-81469244D01*
X139979918Y-84680570D01*
X139679057Y-84804883D01*
X139415808Y-85067673D01*
X139273162Y-85411201D01*
X139272838Y-85783167D01*
X132524386Y-85783167D01*
X132603800Y-85750354D01*
X132909282Y-85445405D01*
X133074811Y-85046767D01*
X133075188Y-84615127D01*
X132910354Y-84216200D01*
X132605405Y-83910718D01*
X132206767Y-83745189D01*
X131775127Y-83744812D01*
X131376200Y-83909646D01*
X131070718Y-84214595D01*
X130905189Y-84613233D01*
X130904812Y-85044873D01*
X130710000Y-85044873D01*
X130710000Y-82044873D01*
X130904812Y-82044873D01*
X131069646Y-82443800D01*
X131374595Y-82749282D01*
X131773233Y-82914811D01*
X132204873Y-82915188D01*
X132603800Y-82750354D01*
X132909282Y-82445405D01*
X133074811Y-82046767D01*
X133075188Y-81615127D01*
X132910354Y-81216200D01*
X132605405Y-80910718D01*
X132206767Y-80745189D01*
X131775127Y-80744812D01*
X131376200Y-80909646D01*
X131070718Y-81214595D01*
X130905189Y-81613233D01*
X130904812Y-82044873D01*
X130710000Y-82044873D01*
X130710000Y-69516266D01*
X131053339Y-69516266D01*
X131365487Y-69964932D01*
X132608343Y-70483331D01*
X133954976Y-70486648D01*
X135200371Y-69974380D01*
X135214513Y-69964932D01*
X135526661Y-69516266D01*
X133290000Y-67279605D01*
X131053339Y-69516266D01*
X130710000Y-69516266D01*
X130710000Y-69222747D01*
X130873734Y-69336661D01*
X133110395Y-67100000D01*
X133469605Y-67100000D01*
X135706266Y-69336661D01*
X136154932Y-69024513D01*
X136673331Y-67781657D01*
X136676648Y-66435024D01*
X136480988Y-65959348D01*
X136783201Y-66084838D01*
X137155167Y-66085162D01*
X137498943Y-65943117D01*
X137762192Y-65680327D01*
X137904838Y-65336799D01*
X137905162Y-64964833D01*
X137780000Y-64661917D01*
X137780000Y-64035512D01*
X138257345Y-63558167D01*
X139399838Y-63558167D01*
X139525000Y-63861083D01*
X139525000Y-63881000D01*
X139586658Y-64190974D01*
X139732969Y-64409943D01*
X139762244Y-64453756D01*
X146112243Y-70803756D01*
X146128567Y-70814663D01*
X146375026Y-70979342D01*
X146634397Y-71030934D01*
X146800853Y-71280054D01*
X147282622Y-71601961D01*
X147850907Y-71715000D01*
X147909093Y-71715000D01*
X148477378Y-71601961D01*
X148959147Y-71280054D01*
X149281054Y-70798285D01*
X149394093Y-70230000D01*
X149281054Y-69661715D01*
X148959147Y-69179946D01*
X148915223Y-69150597D01*
X149089698Y-69078327D01*
X149268327Y-68899699D01*
X149365000Y-68666310D01*
X149365000Y-67975750D01*
X149206250Y-67817000D01*
X148007000Y-67817000D01*
X148007000Y-67837000D01*
X147753000Y-67837000D01*
X147753000Y-67817000D01*
X146553750Y-67817000D01*
X146395000Y-67975750D01*
X146395000Y-68666310D01*
X146486342Y-68886829D01*
X144313203Y-66713690D01*
X146395000Y-66713690D01*
X146395000Y-67404250D01*
X146553750Y-67563000D01*
X147753000Y-67563000D01*
X147753000Y-66363750D01*
X148007000Y-66363750D01*
X148007000Y-67563000D01*
X149206250Y-67563000D01*
X149365000Y-67404250D01*
X149365000Y-66713690D01*
X149268327Y-66480301D01*
X149089698Y-66301673D01*
X148856309Y-66205000D01*
X148165750Y-66205000D01*
X148007000Y-66363750D01*
X147753000Y-66363750D01*
X147594250Y-66205000D01*
X146903691Y-66205000D01*
X146670302Y-66301673D01*
X146491673Y-66480301D01*
X146395000Y-66713690D01*
X144313203Y-66713690D01*
X141237409Y-63637897D01*
X141269838Y-63559799D01*
X141270162Y-63187833D01*
X141128117Y-62844057D01*
X140865327Y-62580808D01*
X140521799Y-62438162D01*
X140149833Y-62437838D01*
X139806057Y-62579883D01*
X139542808Y-62842673D01*
X139400162Y-63186201D01*
X139399838Y-63558167D01*
X138257345Y-63558167D01*
X138492757Y-63322756D01*
X138668343Y-63059973D01*
X138707125Y-62865000D01*
X138730000Y-62750000D01*
X138730000Y-60091052D01*
X138763201Y-60104838D01*
X139135167Y-60105162D01*
X139478943Y-59963117D01*
X139742192Y-59700327D01*
X139884838Y-59356799D01*
X139885162Y-58984833D01*
X139743117Y-58641057D01*
X139720000Y-58617900D01*
X139720000Y-52917441D01*
X139844838Y-52616799D01*
X139845162Y-52244833D01*
X139796957Y-52128167D01*
X146765838Y-52128167D01*
X146907883Y-52471943D01*
X147170673Y-52735192D01*
X147514201Y-52877838D01*
X147886167Y-52878162D01*
X148229943Y-52736117D01*
X148493192Y-52473327D01*
X148588002Y-52245000D01*
X153182559Y-52245000D01*
X153483201Y-52369838D01*
X153855167Y-52370162D01*
X154198943Y-52228117D01*
X154462192Y-51965327D01*
X154604838Y-51621799D01*
X154605162Y-51249833D01*
X154463117Y-50906057D01*
X154200327Y-50642808D01*
X153856799Y-50500162D01*
X153484833Y-50499838D01*
X153181917Y-50625000D01*
X148209000Y-50625000D01*
X147899026Y-50686658D01*
X147767635Y-50774451D01*
X147636243Y-50862244D01*
X147472917Y-51025571D01*
X147172057Y-51149883D01*
X146908808Y-51412673D01*
X146766162Y-51756201D01*
X146765838Y-52128167D01*
X139796957Y-52128167D01*
X139703117Y-51901057D01*
X139440327Y-51637808D01*
X139096799Y-51495162D01*
X138730000Y-51494843D01*
X138730000Y-49600000D01*
X138713490Y-49517000D01*
X138668343Y-49290027D01*
X138499941Y-49037996D01*
X138373117Y-48731057D01*
X138110327Y-48467808D01*
X137766799Y-48325162D01*
X137394833Y-48324838D01*
X137051057Y-48466883D01*
X136787808Y-48729673D01*
X136645162Y-49073201D01*
X136644838Y-49445167D01*
X136786883Y-49788943D01*
X137049673Y-50052192D01*
X137110000Y-50077242D01*
X137110000Y-62414487D01*
X136397244Y-63127244D01*
X136221658Y-63390026D01*
X136160000Y-63700000D01*
X136160000Y-64662559D01*
X136035162Y-64963201D01*
X136035050Y-65092082D01*
X135706266Y-64863339D01*
X133469605Y-67100000D01*
X133110395Y-67100000D01*
X130873734Y-64863339D01*
X130710000Y-64977253D01*
X130710000Y-64683734D01*
X131053339Y-64683734D01*
X133290000Y-66920395D01*
X135526661Y-64683734D01*
X135214513Y-64235068D01*
X133971657Y-63716669D01*
X132625024Y-63713352D01*
X131379629Y-64225620D01*
X131365487Y-64235068D01*
X131053339Y-64683734D01*
X130710000Y-64683734D01*
X130710000Y-48210000D01*
X166196939Y-48210000D01*
X166143569Y-48288110D01*
G36*
X156703748Y-60295858D02*
X156689605Y-60310000D01*
X156703748Y-60324143D01*
X156524143Y-60503748D01*
X156510000Y-60489605D01*
X156495858Y-60503748D01*
X156316253Y-60324143D01*
X156330395Y-60310000D01*
X156316253Y-60295858D01*
X156495858Y-60116253D01*
X156510000Y-60130395D01*
X156524143Y-60116253D01*
X156703748Y-60295858D01*
X156703748Y-60295858D01*
G37*
X156703748Y-60295858D02*
X156689605Y-60310000D01*
X156703748Y-60324143D01*
X156524143Y-60503748D01*
X156510000Y-60489605D01*
X156495858Y-60503748D01*
X156316253Y-60324143D01*
X156330395Y-60310000D01*
X156316253Y-60295858D01*
X156495858Y-60116253D01*
X156510000Y-60130395D01*
X156524143Y-60116253D01*
X156703748Y-60295858D01*
M02*
