G04 #@! TF.FileFunction,Legend,Top*
%FSLAX46Y46*%
G04 Gerber Fmt 4.6, Leading zero omitted, Abs format (unit mm)*
G04 Created by KiCad (PCBNEW 4.0.6) date 10/30/17 11:30:06*
%MOMM*%
%LPD*%
G01*
G04 APERTURE LIST*
%ADD10C,0.025400*%
%ADD11C,0.180000*%
%ADD12C,0.200000*%
%ADD13C,0.100000*%
%ADD14C,0.120000*%
%ADD15C,0.150000*%
%ADD16C,0.010000*%
G04 APERTURE END LIST*
D10*
D11*
X131225715Y-112242381D02*
X131225715Y-111242381D01*
X131606668Y-111242381D01*
X131701906Y-111290000D01*
X131749525Y-111337619D01*
X131797144Y-111432857D01*
X131797144Y-111575714D01*
X131749525Y-111670952D01*
X131701906Y-111718571D01*
X131606668Y-111766190D01*
X131225715Y-111766190D01*
X132130477Y-111242381D02*
X132368572Y-112242381D01*
X132559049Y-111528095D01*
X132749525Y-112242381D01*
X132987620Y-111242381D01*
X133940001Y-112242381D02*
X133606667Y-111766190D01*
X133368572Y-112242381D02*
X133368572Y-111242381D01*
X133749525Y-111242381D01*
X133844763Y-111290000D01*
X133892382Y-111337619D01*
X133940001Y-111432857D01*
X133940001Y-111575714D01*
X133892382Y-111670952D01*
X133844763Y-111718571D01*
X133749525Y-111766190D01*
X133368572Y-111766190D01*
X134368572Y-111861429D02*
X135130477Y-111861429D01*
X135606667Y-112242381D02*
X135606667Y-111242381D01*
X136082857Y-112242381D02*
X136082857Y-111242381D01*
X136654286Y-112242381D01*
X136654286Y-111242381D01*
X138255238Y-112194762D02*
X138398095Y-112242381D01*
X138636191Y-112242381D01*
X138731429Y-112194762D01*
X138779048Y-112147143D01*
X138826667Y-112051905D01*
X138826667Y-111956667D01*
X138779048Y-111861429D01*
X138731429Y-111813810D01*
X138636191Y-111766190D01*
X138445714Y-111718571D01*
X138350476Y-111670952D01*
X138302857Y-111623333D01*
X138255238Y-111528095D01*
X138255238Y-111432857D01*
X138302857Y-111337619D01*
X138350476Y-111290000D01*
X138445714Y-111242381D01*
X138683810Y-111242381D01*
X138826667Y-111290000D01*
X139445714Y-111766190D02*
X139445714Y-112242381D01*
X139112381Y-111242381D02*
X139445714Y-111766190D01*
X139779048Y-111242381D01*
X140112381Y-112242381D02*
X140112381Y-111242381D01*
X140683810Y-112242381D01*
X140683810Y-111242381D01*
X141731429Y-112147143D02*
X141683810Y-112194762D01*
X141540953Y-112242381D01*
X141445715Y-112242381D01*
X141302857Y-112194762D01*
X141207619Y-112099524D01*
X141160000Y-112004286D01*
X141112381Y-111813810D01*
X141112381Y-111670952D01*
X141160000Y-111480476D01*
X141207619Y-111385238D01*
X141302857Y-111290000D01*
X141445715Y-111242381D01*
X141540953Y-111242381D01*
X141683810Y-111290000D01*
X141731429Y-111337619D01*
X142160000Y-111861429D02*
X142921905Y-111861429D01*
X143350476Y-112194762D02*
X143493333Y-112242381D01*
X143731429Y-112242381D01*
X143826667Y-112194762D01*
X143874286Y-112147143D01*
X143921905Y-112051905D01*
X143921905Y-111956667D01*
X143874286Y-111861429D01*
X143826667Y-111813810D01*
X143731429Y-111766190D01*
X143540952Y-111718571D01*
X143445714Y-111670952D01*
X143398095Y-111623333D01*
X143350476Y-111528095D01*
X143350476Y-111432857D01*
X143398095Y-111337619D01*
X143445714Y-111290000D01*
X143540952Y-111242381D01*
X143779048Y-111242381D01*
X143921905Y-111290000D01*
X144255238Y-111242381D02*
X144493333Y-112242381D01*
X144683810Y-111528095D01*
X144874286Y-112242381D01*
X145112381Y-111242381D01*
X166495714Y-112212381D02*
X166162380Y-111736190D01*
X165924285Y-112212381D02*
X165924285Y-111212381D01*
X166305238Y-111212381D01*
X166400476Y-111260000D01*
X166448095Y-111307619D01*
X166495714Y-111402857D01*
X166495714Y-111545714D01*
X166448095Y-111640952D01*
X166400476Y-111688571D01*
X166305238Y-111736190D01*
X165924285Y-111736190D01*
X166924285Y-111688571D02*
X167257619Y-111688571D01*
X167400476Y-112212381D02*
X166924285Y-112212381D01*
X166924285Y-111212381D01*
X167400476Y-111212381D01*
X168305238Y-112212381D02*
X167829047Y-112212381D01*
X167829047Y-111212381D01*
X168590952Y-111926667D02*
X169067143Y-111926667D01*
X168495714Y-112212381D02*
X168829047Y-111212381D01*
X169162381Y-112212381D01*
X169686190Y-111736190D02*
X169686190Y-112212381D01*
X169352857Y-111212381D02*
X169686190Y-111736190D01*
X170019524Y-111212381D01*
X171305238Y-111212381D02*
X171495715Y-111212381D01*
X171590953Y-111260000D01*
X171686191Y-111355238D01*
X171733810Y-111545714D01*
X171733810Y-111879048D01*
X171686191Y-112069524D01*
X171590953Y-112164762D01*
X171495715Y-112212381D01*
X171305238Y-112212381D01*
X171210000Y-112164762D01*
X171114762Y-112069524D01*
X171067143Y-111879048D01*
X171067143Y-111545714D01*
X171114762Y-111355238D01*
X171210000Y-111260000D01*
X171305238Y-111212381D01*
X172162381Y-111212381D02*
X172162381Y-112021905D01*
X172210000Y-112117143D01*
X172257619Y-112164762D01*
X172352857Y-112212381D01*
X172543334Y-112212381D01*
X172638572Y-112164762D01*
X172686191Y-112117143D01*
X172733810Y-112021905D01*
X172733810Y-111212381D01*
X173067143Y-111212381D02*
X173638572Y-111212381D01*
X173352857Y-112212381D02*
X173352857Y-111212381D01*
X154478571Y-99981905D02*
X154478571Y-99648571D01*
X155002381Y-99505714D02*
X155002381Y-99981905D01*
X154002381Y-99981905D01*
X154002381Y-99505714D01*
X154954762Y-99124762D02*
X155002381Y-98981905D01*
X155002381Y-98743809D01*
X154954762Y-98648571D01*
X154907143Y-98600952D01*
X154811905Y-98553333D01*
X154716667Y-98553333D01*
X154621429Y-98600952D01*
X154573810Y-98648571D01*
X154526190Y-98743809D01*
X154478571Y-98934286D01*
X154430952Y-99029524D01*
X154383333Y-99077143D01*
X154288095Y-99124762D01*
X154192857Y-99124762D01*
X154097619Y-99077143D01*
X154050000Y-99029524D01*
X154002381Y-98934286D01*
X154002381Y-98696190D01*
X154050000Y-98553333D01*
X155002381Y-98124762D02*
X154002381Y-98124762D01*
X154002381Y-97743809D01*
X154050000Y-97648571D01*
X154097619Y-97600952D01*
X154192857Y-97553333D01*
X154335714Y-97553333D01*
X154430952Y-97600952D01*
X154478571Y-97648571D01*
X154526190Y-97743809D01*
X154526190Y-98124762D01*
X154621429Y-97124762D02*
X154621429Y-96362857D01*
X154002381Y-95981905D02*
X155002381Y-95743810D01*
X154288095Y-95553333D01*
X155002381Y-95362857D01*
X154002381Y-95124762D01*
X155002381Y-94172381D02*
X154526190Y-94505715D01*
X155002381Y-94743810D02*
X154002381Y-94743810D01*
X154002381Y-94362857D01*
X154050000Y-94267619D01*
X154097619Y-94220000D01*
X154192857Y-94172381D01*
X154335714Y-94172381D01*
X154430952Y-94220000D01*
X154478571Y-94267619D01*
X154526190Y-94362857D01*
X154526190Y-94743810D01*
X154002381Y-93553334D02*
X154002381Y-93362857D01*
X154050000Y-93267619D01*
X154145238Y-93172381D01*
X154335714Y-93124762D01*
X154669048Y-93124762D01*
X154859524Y-93172381D01*
X154954762Y-93267619D01*
X155002381Y-93362857D01*
X155002381Y-93553334D01*
X154954762Y-93648572D01*
X154859524Y-93743810D01*
X154669048Y-93791429D01*
X154335714Y-93791429D01*
X154145238Y-93743810D01*
X154050000Y-93648572D01*
X154002381Y-93553334D01*
X154002381Y-92505715D02*
X154002381Y-92315238D01*
X154050000Y-92220000D01*
X154145238Y-92124762D01*
X154335714Y-92077143D01*
X154669048Y-92077143D01*
X154859524Y-92124762D01*
X154954762Y-92220000D01*
X155002381Y-92315238D01*
X155002381Y-92505715D01*
X154954762Y-92600953D01*
X154859524Y-92696191D01*
X154669048Y-92743810D01*
X154335714Y-92743810D01*
X154145238Y-92696191D01*
X154050000Y-92600953D01*
X154002381Y-92505715D01*
X155002381Y-91648572D02*
X154002381Y-91648572D01*
X154716667Y-91315238D01*
X154002381Y-90981905D01*
X155002381Y-90981905D01*
X154621429Y-90505715D02*
X154621429Y-89743810D01*
X154002381Y-89077144D02*
X154002381Y-88981905D01*
X154050000Y-88886667D01*
X154097619Y-88839048D01*
X154192857Y-88791429D01*
X154383333Y-88743810D01*
X154621429Y-88743810D01*
X154811905Y-88791429D01*
X154907143Y-88839048D01*
X154954762Y-88886667D01*
X155002381Y-88981905D01*
X155002381Y-89077144D01*
X154954762Y-89172382D01*
X154907143Y-89220001D01*
X154811905Y-89267620D01*
X154621429Y-89315239D01*
X154383333Y-89315239D01*
X154192857Y-89267620D01*
X154097619Y-89220001D01*
X154050000Y-89172382D01*
X154002381Y-89077144D01*
X154097619Y-88362858D02*
X154050000Y-88315239D01*
X154002381Y-88220001D01*
X154002381Y-87981905D01*
X154050000Y-87886667D01*
X154097619Y-87839048D01*
X154192857Y-87791429D01*
X154288095Y-87791429D01*
X154430952Y-87839048D01*
X155002381Y-88410477D01*
X155002381Y-87791429D01*
X154478571Y-86267619D02*
X154526190Y-86124762D01*
X154573810Y-86077143D01*
X154669048Y-86029524D01*
X154811905Y-86029524D01*
X154907143Y-86077143D01*
X154954762Y-86124762D01*
X155002381Y-86220000D01*
X155002381Y-86600953D01*
X154002381Y-86600953D01*
X154002381Y-86267619D01*
X154050000Y-86172381D01*
X154097619Y-86124762D01*
X154192857Y-86077143D01*
X154288095Y-86077143D01*
X154383333Y-86124762D01*
X154430952Y-86172381D01*
X154478571Y-86267619D01*
X154478571Y-86600953D01*
X155002381Y-85124762D02*
X155002381Y-85600953D01*
X154002381Y-85600953D01*
X154526190Y-84600953D02*
X155002381Y-84600953D01*
X154002381Y-84934286D02*
X154526190Y-84600953D01*
X154002381Y-84267619D01*
X155002381Y-83934286D02*
X154002381Y-83934286D01*
X155002381Y-83362857D01*
X154002381Y-83362857D01*
X155002381Y-82886667D02*
X154002381Y-82886667D01*
X155002381Y-82315238D02*
X154430952Y-82743810D01*
X154002381Y-82315238D02*
X154573810Y-82886667D01*
X155920476Y-99172381D02*
X155872857Y-99267619D01*
X155872857Y-99458095D01*
X155920476Y-99553333D01*
X156015714Y-99648571D01*
X156110952Y-99696190D01*
X156301429Y-99696190D01*
X156396667Y-99648571D01*
X156491905Y-99553333D01*
X156539524Y-99458095D01*
X156539524Y-99267619D01*
X156491905Y-99172381D01*
X155539524Y-99362857D02*
X155587143Y-99600952D01*
X155730000Y-99839048D01*
X155968095Y-99981905D01*
X156206190Y-100029524D01*
X156444286Y-99981905D01*
X156682381Y-99839048D01*
X156825238Y-99600952D01*
X156872857Y-99362857D01*
X156825238Y-99124762D01*
X156682381Y-98886667D01*
X156444286Y-98743810D01*
X156206190Y-98696190D01*
X155968095Y-98743810D01*
X155730000Y-98886667D01*
X155587143Y-99124762D01*
X155539524Y-99362857D01*
X156158571Y-97172380D02*
X156206190Y-97029523D01*
X156253810Y-96981904D01*
X156349048Y-96934285D01*
X156491905Y-96934285D01*
X156587143Y-96981904D01*
X156634762Y-97029523D01*
X156682381Y-97124761D01*
X156682381Y-97505714D01*
X155682381Y-97505714D01*
X155682381Y-97172380D01*
X155730000Y-97077142D01*
X155777619Y-97029523D01*
X155872857Y-96981904D01*
X155968095Y-96981904D01*
X156063333Y-97029523D01*
X156110952Y-97077142D01*
X156158571Y-97172380D01*
X156158571Y-97505714D01*
X156682381Y-96029523D02*
X156682381Y-96505714D01*
X155682381Y-96505714D01*
X156206190Y-95505714D02*
X156682381Y-95505714D01*
X155682381Y-95839047D02*
X156206190Y-95505714D01*
X155682381Y-95172380D01*
X156682381Y-94839047D02*
X155682381Y-94839047D01*
X156682381Y-94267618D01*
X155682381Y-94267618D01*
X156682381Y-93791428D02*
X155682381Y-93791428D01*
X156682381Y-93219999D02*
X156110952Y-93648571D01*
X155682381Y-93219999D02*
X156253810Y-93791428D01*
X156301429Y-92791428D02*
X156301429Y-92029523D01*
X155682381Y-91362857D02*
X155682381Y-91172380D01*
X155730000Y-91077142D01*
X155825238Y-90981904D01*
X156015714Y-90934285D01*
X156349048Y-90934285D01*
X156539524Y-90981904D01*
X156634762Y-91077142D01*
X156682381Y-91172380D01*
X156682381Y-91362857D01*
X156634762Y-91458095D01*
X156539524Y-91553333D01*
X156349048Y-91600952D01*
X156015714Y-91600952D01*
X155825238Y-91553333D01*
X155730000Y-91458095D01*
X155682381Y-91362857D01*
X156682381Y-90505714D02*
X155682381Y-90505714D01*
X156682381Y-89934285D01*
X155682381Y-89934285D01*
X156158571Y-89458095D02*
X156158571Y-89124761D01*
X156682381Y-88981904D02*
X156682381Y-89458095D01*
X155682381Y-89458095D01*
X155682381Y-88981904D01*
X156301429Y-88553333D02*
X156301429Y-87791428D01*
X156634762Y-87362857D02*
X156682381Y-87220000D01*
X156682381Y-86981904D01*
X156634762Y-86886666D01*
X156587143Y-86839047D01*
X156491905Y-86791428D01*
X156396667Y-86791428D01*
X156301429Y-86839047D01*
X156253810Y-86886666D01*
X156206190Y-86981904D01*
X156158571Y-87172381D01*
X156110952Y-87267619D01*
X156063333Y-87315238D01*
X155968095Y-87362857D01*
X155872857Y-87362857D01*
X155777619Y-87315238D01*
X155730000Y-87267619D01*
X155682381Y-87172381D01*
X155682381Y-86934285D01*
X155730000Y-86791428D01*
X155682381Y-86458095D02*
X156682381Y-86220000D01*
X155968095Y-86029523D01*
X156682381Y-85839047D01*
X155682381Y-85600952D01*
D12*
X131101905Y-97702381D02*
X130530476Y-97702381D01*
X130816190Y-97702381D02*
X130816190Y-96702381D01*
X130720952Y-96845238D01*
X130625714Y-96940476D01*
X130530476Y-96988095D01*
X131482857Y-96797619D02*
X131530476Y-96750000D01*
X131625714Y-96702381D01*
X131863810Y-96702381D01*
X131959048Y-96750000D01*
X132006667Y-96797619D01*
X132054286Y-96892857D01*
X132054286Y-96988095D01*
X132006667Y-97130952D01*
X131435238Y-97702381D01*
X132054286Y-97702381D01*
X132340000Y-96702381D02*
X132673333Y-97702381D01*
X133006667Y-96702381D01*
X133340000Y-97702381D02*
X133340000Y-96702381D01*
X133578095Y-96702381D01*
X133720953Y-96750000D01*
X133816191Y-96845238D01*
X133863810Y-96940476D01*
X133911429Y-97130952D01*
X133911429Y-97273810D01*
X133863810Y-97464286D01*
X133816191Y-97559524D01*
X133720953Y-97654762D01*
X133578095Y-97702381D01*
X133340000Y-97702381D01*
X134911429Y-97607143D02*
X134863810Y-97654762D01*
X134720953Y-97702381D01*
X134625715Y-97702381D01*
X134482857Y-97654762D01*
X134387619Y-97559524D01*
X134340000Y-97464286D01*
X134292381Y-97273810D01*
X134292381Y-97130952D01*
X134340000Y-96940476D01*
X134387619Y-96845238D01*
X134482857Y-96750000D01*
X134625715Y-96702381D01*
X134720953Y-96702381D01*
X134863810Y-96750000D01*
X134911429Y-96797619D01*
X130578095Y-99402381D02*
X130578095Y-98402381D01*
X130911429Y-99116667D01*
X131244762Y-98402381D01*
X131244762Y-99402381D01*
X131673333Y-99116667D02*
X132149524Y-99116667D01*
X131578095Y-99402381D02*
X131911428Y-98402381D01*
X132244762Y-99402381D01*
X132482857Y-98402381D02*
X133149524Y-99402381D01*
X133149524Y-98402381D02*
X132482857Y-99402381D01*
D11*
X131744286Y-110061429D02*
X132506191Y-110061429D01*
X132125239Y-110442381D02*
X132125239Y-109680476D01*
X135030001Y-109490000D02*
X134934763Y-109442381D01*
X134791906Y-109442381D01*
X134649048Y-109490000D01*
X134553810Y-109585238D01*
X134506191Y-109680476D01*
X134458572Y-109870952D01*
X134458572Y-110013810D01*
X134506191Y-110204286D01*
X134553810Y-110299524D01*
X134649048Y-110394762D01*
X134791906Y-110442381D01*
X134887144Y-110442381D01*
X135030001Y-110394762D01*
X135077620Y-110347143D01*
X135077620Y-110013810D01*
X134887144Y-110013810D01*
X135506191Y-110442381D02*
X135506191Y-109442381D01*
X136077620Y-110442381D01*
X136077620Y-109442381D01*
X136553810Y-110442381D02*
X136553810Y-109442381D01*
X136791905Y-109442381D01*
X136934763Y-109490000D01*
X137030001Y-109585238D01*
X137077620Y-109680476D01*
X137125239Y-109870952D01*
X137125239Y-110013810D01*
X137077620Y-110204286D01*
X137030001Y-110299524D01*
X136934763Y-110394762D01*
X136791905Y-110442381D01*
X136553810Y-110442381D01*
D12*
X169290000Y-108850000D02*
X169290000Y-108590000D01*
X142030000Y-109280000D02*
X142580000Y-109280000D01*
X141000000Y-110310000D02*
X142030000Y-109280000D01*
X142620000Y-110320000D02*
X145150000Y-110320000D01*
X138450000Y-110320000D02*
X141000000Y-110320000D01*
X164020000Y-110320000D02*
X167440000Y-110320000D01*
X171160000Y-110320000D02*
X174580000Y-110320000D01*
X169290000Y-108860000D02*
X170710000Y-110280000D01*
D11*
X157977619Y-53552381D02*
X157644285Y-53076190D01*
X157406190Y-53552381D02*
X157406190Y-52552381D01*
X157787143Y-52552381D01*
X157882381Y-52600000D01*
X157930000Y-52647619D01*
X157977619Y-52742857D01*
X157977619Y-52885714D01*
X157930000Y-52980952D01*
X157882381Y-53028571D01*
X157787143Y-53076190D01*
X157406190Y-53076190D01*
X158406190Y-53028571D02*
X158739524Y-53028571D01*
X158882381Y-53552381D02*
X158406190Y-53552381D01*
X158406190Y-52552381D01*
X158882381Y-52552381D01*
X159263333Y-53504762D02*
X159406190Y-53552381D01*
X159644286Y-53552381D01*
X159739524Y-53504762D01*
X159787143Y-53457143D01*
X159834762Y-53361905D01*
X159834762Y-53266667D01*
X159787143Y-53171429D01*
X159739524Y-53123810D01*
X159644286Y-53076190D01*
X159453809Y-53028571D01*
X159358571Y-52980952D01*
X159310952Y-52933333D01*
X159263333Y-52838095D01*
X159263333Y-52742857D01*
X159310952Y-52647619D01*
X159358571Y-52600000D01*
X159453809Y-52552381D01*
X159691905Y-52552381D01*
X159834762Y-52600000D01*
X160263333Y-53028571D02*
X160596667Y-53028571D01*
X160739524Y-53552381D02*
X160263333Y-53552381D01*
X160263333Y-52552381D01*
X160739524Y-52552381D01*
X161025238Y-52552381D02*
X161596667Y-52552381D01*
X161310952Y-53552381D02*
X161310952Y-52552381D01*
D13*
X168840711Y-71100000D02*
G75*
G03X168840711Y-71100000I-70711J0D01*
G01*
D14*
X168770000Y-71430000D02*
X168770000Y-75830000D01*
X136370000Y-93730000D02*
X136370000Y-92730000D01*
X134670000Y-92730000D02*
X134670000Y-93730000D01*
X158190000Y-65810000D02*
X157190000Y-65810000D01*
X157190000Y-67510000D02*
X158190000Y-67510000D01*
X130400000Y-95410000D02*
X133700000Y-95410000D01*
X133700000Y-95410000D02*
X133700000Y-90010000D01*
X130400000Y-95410000D02*
X130400000Y-90010000D01*
X162140000Y-52970000D02*
X162140000Y-56270000D01*
X162140000Y-56270000D02*
X167540000Y-56270000D01*
X162140000Y-52970000D02*
X167540000Y-52970000D01*
X167970000Y-62050000D02*
X164770000Y-62050000D01*
X164770000Y-60550000D02*
X167970000Y-60550000D01*
X164770000Y-60550000D02*
X164770000Y-62050000D01*
X171950000Y-75750000D02*
X176250000Y-75750000D01*
X176250000Y-75750000D02*
X176250000Y-73750000D01*
X176250000Y-73750000D02*
X171950000Y-73750000D01*
D15*
X134030000Y-107120000D02*
X134030000Y-107520000D01*
X130530000Y-106020000D02*
X137530000Y-106020000D01*
X130530000Y-107120000D02*
X137530000Y-107120000D01*
X130530000Y-99920000D02*
X130530000Y-107520000D01*
X137530000Y-107520000D02*
X137530000Y-99920000D01*
X137530000Y-99920000D02*
X130530000Y-99920000D01*
X141900000Y-107110000D02*
X141900000Y-107510000D01*
X138400000Y-106010000D02*
X145400000Y-106010000D01*
X138400000Y-107110000D02*
X145400000Y-107110000D01*
X138400000Y-99910000D02*
X138400000Y-107510000D01*
X145400000Y-107510000D02*
X145400000Y-99910000D01*
X145400000Y-99910000D02*
X138400000Y-99910000D01*
D14*
X176540000Y-50720000D02*
X176540000Y-48060000D01*
X168860000Y-50720000D02*
X176540000Y-50720000D01*
X168860000Y-48060000D02*
X176540000Y-48060000D01*
X168860000Y-50720000D02*
X168860000Y-48060000D01*
X167590000Y-50720000D02*
X166260000Y-50720000D01*
X166260000Y-50720000D02*
X166260000Y-49390000D01*
X146550000Y-71560000D02*
X149210000Y-71560000D01*
X146550000Y-68960000D02*
X146550000Y-71560000D01*
X149210000Y-68960000D02*
X149210000Y-71560000D01*
X146550000Y-68960000D02*
X149210000Y-68960000D01*
X146550000Y-67690000D02*
X146550000Y-66360000D01*
X146550000Y-66360000D02*
X147880000Y-66360000D01*
D15*
X167500000Y-107140000D02*
X167500000Y-107540000D01*
X171100000Y-107140000D02*
X171100000Y-107540000D01*
X164000000Y-106040000D02*
X174600000Y-106040000D01*
X164000000Y-107140000D02*
X174600000Y-107140000D01*
X164000000Y-99940000D02*
X164000000Y-107540000D01*
X174600000Y-107540000D02*
X174600000Y-99940000D01*
X174600000Y-99940000D02*
X164000000Y-99940000D01*
D14*
X150720000Y-102560000D02*
X150720000Y-99760000D01*
X152480000Y-99760000D02*
X152480000Y-102560000D01*
X144950000Y-82050000D02*
X147750000Y-82050000D01*
X147750000Y-83810000D02*
X144950000Y-83810000D01*
X172330000Y-60360000D02*
X175130000Y-60360000D01*
X175130000Y-62120000D02*
X172330000Y-62120000D01*
X142870000Y-67500000D02*
X142870000Y-64700000D01*
X144630000Y-64700000D02*
X144630000Y-67500000D01*
X138150000Y-67470000D02*
X138150000Y-64670000D01*
X139910000Y-64670000D02*
X139910000Y-67470000D01*
X140660000Y-67510000D02*
X140660000Y-64710000D01*
X142420000Y-64710000D02*
X142420000Y-67510000D01*
X164780000Y-72310000D02*
X164780000Y-75110000D01*
X163020000Y-75110000D02*
X163020000Y-72310000D01*
X171790000Y-55160000D02*
X171790000Y-52360000D01*
X173550000Y-52360000D02*
X173550000Y-55160000D01*
X174340000Y-55200000D02*
X174340000Y-52400000D01*
X176100000Y-52400000D02*
X176100000Y-55200000D01*
X167800000Y-79320000D02*
X161200000Y-79320000D01*
X176800000Y-79320000D02*
X170200000Y-79320000D01*
X176800000Y-79320000D02*
X176800000Y-99120000D01*
X176800000Y-99120000D02*
X161200000Y-99120000D01*
X161200000Y-99120000D02*
X161200000Y-79320000D01*
X164800000Y-94870000D02*
X167250000Y-94870000D01*
X173200000Y-94870000D02*
X170700000Y-94870000D01*
X162950000Y-84270000D02*
X162950000Y-86770000D01*
X168950000Y-83370000D02*
X168950000Y-82570000D01*
X174950000Y-86770000D02*
X174950000Y-84270000D01*
X168950000Y-90170000D02*
X168950000Y-91670000D01*
X168950000Y-91670000D02*
X171450000Y-96270000D01*
X165350000Y-90170000D02*
X165350000Y-83370000D01*
X168950000Y-90170000D02*
X165350000Y-90170000D01*
X168950000Y-83370000D02*
X165350000Y-83370000D01*
X174950000Y-86770000D02*
X170750000Y-86770000D01*
X167150000Y-86770000D02*
X162950000Y-86770000D01*
X167150000Y-88770000D02*
X170750000Y-84770000D01*
X167150000Y-84770000D02*
X170750000Y-84770000D01*
X170750000Y-84770000D02*
X170750000Y-88770000D01*
X170750000Y-88770000D02*
X167150000Y-88770000D01*
X167150000Y-88770000D02*
X167150000Y-84770000D01*
X133440000Y-84730000D02*
X133440000Y-84930000D01*
X130590000Y-80480000D02*
X130590000Y-86180000D01*
X133440000Y-81730000D02*
X133440000Y-83430000D01*
X132390000Y-79880000D02*
X131600000Y-79880000D01*
X131600000Y-86780000D02*
X132390000Y-86780000D01*
D13*
X150400000Y-99050000D02*
X150400000Y-105550000D01*
X146440000Y-99030000D02*
X146440000Y-105530000D01*
D14*
X130960000Y-73290000D02*
X136910000Y-73290000D01*
X130960000Y-78090000D02*
X136910000Y-78090000D01*
X130960000Y-73290000D02*
X130960000Y-78090000D01*
X146410000Y-91680000D02*
X146410000Y-93450000D01*
X146410000Y-93450000D02*
X151730000Y-93450000D01*
X151730000Y-93450000D02*
X151730000Y-87910000D01*
X151730000Y-87910000D02*
X146410000Y-87910000D01*
X146410000Y-87910000D02*
X146410000Y-89680000D01*
X146410000Y-89680000D02*
G75*
G02X146410000Y-91680000I0J-1000000D01*
G01*
X172260000Y-69680000D02*
X174030000Y-69680000D01*
X174030000Y-69680000D02*
X174030000Y-64360000D01*
X174030000Y-64360000D02*
X168490000Y-64360000D01*
X168490000Y-64360000D02*
X168490000Y-69680000D01*
X168490000Y-69680000D02*
X170260000Y-69680000D01*
X170260000Y-69680000D02*
G75*
G02X172260000Y-69680000I1000000J0D01*
G01*
X161650000Y-64110000D02*
X161650000Y-61310000D01*
X163410000Y-61310000D02*
X163410000Y-64110000D01*
D13*
X155190000Y-48040000D02*
X161690000Y-48040000D01*
X155170000Y-52000000D02*
X161670000Y-52000000D01*
D16*
G36*
X149745057Y-110721349D02*
X149783096Y-110730555D01*
X149814186Y-110749393D01*
X149842087Y-110780723D01*
X149870556Y-110827405D01*
X149891021Y-110867083D01*
X149905628Y-110898258D01*
X149920241Y-110933471D01*
X149935606Y-110975045D01*
X149952471Y-111025302D01*
X149971582Y-111086564D01*
X149993687Y-111161153D01*
X150019531Y-111251392D01*
X150049863Y-111359602D01*
X150052696Y-111369791D01*
X150083845Y-111481344D01*
X150110325Y-111574367D01*
X150132959Y-111650774D01*
X150152570Y-111712477D01*
X150169981Y-111761389D01*
X150186015Y-111799422D01*
X150201496Y-111828490D01*
X150217246Y-111850505D01*
X150234089Y-111867380D01*
X150252846Y-111881027D01*
X150274343Y-111893359D01*
X150279059Y-111895844D01*
X150335667Y-111925416D01*
X150862894Y-111925416D01*
X150860009Y-112118562D01*
X150857125Y-112311708D01*
X150613708Y-112314663D01*
X150527460Y-112315764D01*
X150455443Y-112315653D01*
X150395890Y-112312633D01*
X150347033Y-112305002D01*
X150307104Y-112291063D01*
X150274335Y-112269117D01*
X150246958Y-112237464D01*
X150223206Y-112194405D01*
X150201311Y-112138242D01*
X150179505Y-112067274D01*
X150156020Y-111979804D01*
X150129088Y-111874132D01*
X150120612Y-111840750D01*
X150081043Y-111690282D01*
X150043921Y-111559889D01*
X150008897Y-111448664D01*
X149975626Y-111355699D01*
X149943760Y-111280088D01*
X149912952Y-111220923D01*
X149882855Y-111177297D01*
X149856898Y-111151211D01*
X149822544Y-111130606D01*
X149776293Y-111112002D01*
X149747685Y-111103714D01*
X149708037Y-111094622D01*
X149680199Y-111091248D01*
X149655595Y-111093603D01*
X149625651Y-111101698D01*
X149618637Y-111103891D01*
X149560114Y-111133107D01*
X149512656Y-111180294D01*
X149476408Y-111245295D01*
X149466018Y-111273363D01*
X149458719Y-111297465D01*
X149446704Y-111339501D01*
X149430668Y-111396939D01*
X149411306Y-111467250D01*
X149389314Y-111547903D01*
X149365386Y-111636367D01*
X149340218Y-111730112D01*
X149328242Y-111774961D01*
X149303253Y-111868236D01*
X149279589Y-111955658D01*
X149257873Y-112034996D01*
X149238724Y-112104021D01*
X149222766Y-112160501D01*
X149210619Y-112202207D01*
X149202905Y-112226908D01*
X149200772Y-112232447D01*
X149176509Y-112257441D01*
X149140362Y-112272262D01*
X149099411Y-112276136D01*
X149060736Y-112268293D01*
X149033794Y-112250650D01*
X149026501Y-112238608D01*
X149016761Y-112214839D01*
X149004204Y-112178095D01*
X148988458Y-112127130D01*
X148969152Y-112060697D01*
X148945914Y-111977548D01*
X148918373Y-111876437D01*
X148886157Y-111756117D01*
X148883542Y-111746287D01*
X148850736Y-111623495D01*
X148822481Y-111519475D01*
X148798153Y-111432474D01*
X148777125Y-111360740D01*
X148758771Y-111302521D01*
X148742464Y-111256065D01*
X148727580Y-111219618D01*
X148713491Y-111191430D01*
X148699573Y-111169748D01*
X148685198Y-111152820D01*
X148669740Y-111138893D01*
X148665261Y-111135391D01*
X148609478Y-111105276D01*
X148547884Y-111093052D01*
X148484068Y-111097649D01*
X148421620Y-111117993D01*
X148364131Y-111153012D01*
X148315190Y-111201635D01*
X148284915Y-111248991D01*
X148270822Y-111277853D01*
X148257619Y-111307650D01*
X148244538Y-111340778D01*
X148230812Y-111379632D01*
X148215672Y-111426611D01*
X148198353Y-111484109D01*
X148178085Y-111554522D01*
X148154102Y-111640248D01*
X148125635Y-111743683D01*
X148120794Y-111761375D01*
X148091864Y-111866931D01*
X148067767Y-111954098D01*
X148047840Y-112024926D01*
X148031420Y-112081467D01*
X148017844Y-112125771D01*
X148006448Y-112159890D01*
X147996568Y-112185874D01*
X147987541Y-112205774D01*
X147978704Y-112221642D01*
X147969393Y-112235528D01*
X147965848Y-112240368D01*
X147947782Y-112262904D01*
X147929199Y-112280551D01*
X147907332Y-112293902D01*
X147879419Y-112303549D01*
X147842693Y-112310084D01*
X147794390Y-112314099D01*
X147731747Y-112316186D01*
X147651997Y-112316939D01*
X147608131Y-112317000D01*
X147525029Y-112316745D01*
X147461008Y-112315906D01*
X147413984Y-112314373D01*
X147381877Y-112312033D01*
X147362605Y-112308775D01*
X147354087Y-112304488D01*
X147353443Y-112303382D01*
X147351878Y-112288699D01*
X147350847Y-112256650D01*
X147350395Y-112211031D01*
X147350567Y-112155637D01*
X147351130Y-112110236D01*
X147354042Y-111930708D01*
X147623917Y-111925416D01*
X147707507Y-111923659D01*
X147772758Y-111921898D01*
X147822496Y-111919885D01*
X147859547Y-111917371D01*
X147886737Y-111914110D01*
X147906891Y-111909852D01*
X147922836Y-111904351D01*
X147936125Y-111898026D01*
X147965116Y-111879492D01*
X147991759Y-111854486D01*
X148016784Y-111821283D01*
X148040922Y-111778153D01*
X148064902Y-111723372D01*
X148089456Y-111655211D01*
X148115315Y-111571945D01*
X148143208Y-111471845D01*
X148173866Y-111353184D01*
X148184304Y-111311317D01*
X148217471Y-111181660D01*
X148248102Y-111071528D01*
X148276781Y-110979513D01*
X148304091Y-110904203D01*
X148330617Y-110844189D01*
X148356943Y-110798061D01*
X148383652Y-110764410D01*
X148411329Y-110741826D01*
X148422799Y-110735576D01*
X148456971Y-110725388D01*
X148503213Y-110719664D01*
X148527377Y-110718916D01*
X148567063Y-110719997D01*
X148593520Y-110724835D01*
X148614641Y-110735827D01*
X148633538Y-110751131D01*
X148662179Y-110782426D01*
X148687045Y-110819493D01*
X148691352Y-110827860D01*
X148698301Y-110847236D01*
X148709724Y-110884844D01*
X148724990Y-110938372D01*
X148743469Y-111005510D01*
X148764532Y-111083948D01*
X148787550Y-111171375D01*
X148811892Y-111265480D01*
X148830384Y-111338041D01*
X148855071Y-111434713D01*
X148878704Y-111525678D01*
X148900685Y-111608749D01*
X148920416Y-111681736D01*
X148937300Y-111742450D01*
X148950738Y-111788701D01*
X148960134Y-111818301D01*
X148964263Y-111828407D01*
X148989960Y-111853196D01*
X149029126Y-111874557D01*
X149074065Y-111889061D01*
X149110179Y-111893434D01*
X149156764Y-111886591D01*
X149202535Y-111868069D01*
X149239854Y-111841619D01*
X149256048Y-111821801D01*
X149262227Y-111805606D01*
X149272933Y-111771064D01*
X149287564Y-111720366D01*
X149305519Y-111655699D01*
X149326198Y-111579255D01*
X149349001Y-111493223D01*
X149373327Y-111399792D01*
X149395086Y-111314887D01*
X149427092Y-111189426D01*
X149454713Y-111082937D01*
X149478734Y-110993862D01*
X149499942Y-110920649D01*
X149519123Y-110861742D01*
X149537062Y-110815585D01*
X149554545Y-110780625D01*
X149572358Y-110755307D01*
X149591287Y-110738075D01*
X149612118Y-110727375D01*
X149635636Y-110721652D01*
X149662628Y-110719351D01*
X149693879Y-110718917D01*
X149696312Y-110718916D01*
X149745057Y-110721349D01*
X149745057Y-110721349D01*
G37*
X149745057Y-110721349D02*
X149783096Y-110730555D01*
X149814186Y-110749393D01*
X149842087Y-110780723D01*
X149870556Y-110827405D01*
X149891021Y-110867083D01*
X149905628Y-110898258D01*
X149920241Y-110933471D01*
X149935606Y-110975045D01*
X149952471Y-111025302D01*
X149971582Y-111086564D01*
X149993687Y-111161153D01*
X150019531Y-111251392D01*
X150049863Y-111359602D01*
X150052696Y-111369791D01*
X150083845Y-111481344D01*
X150110325Y-111574367D01*
X150132959Y-111650774D01*
X150152570Y-111712477D01*
X150169981Y-111761389D01*
X150186015Y-111799422D01*
X150201496Y-111828490D01*
X150217246Y-111850505D01*
X150234089Y-111867380D01*
X150252846Y-111881027D01*
X150274343Y-111893359D01*
X150279059Y-111895844D01*
X150335667Y-111925416D01*
X150862894Y-111925416D01*
X150860009Y-112118562D01*
X150857125Y-112311708D01*
X150613708Y-112314663D01*
X150527460Y-112315764D01*
X150455443Y-112315653D01*
X150395890Y-112312633D01*
X150347033Y-112305002D01*
X150307104Y-112291063D01*
X150274335Y-112269117D01*
X150246958Y-112237464D01*
X150223206Y-112194405D01*
X150201311Y-112138242D01*
X150179505Y-112067274D01*
X150156020Y-111979804D01*
X150129088Y-111874132D01*
X150120612Y-111840750D01*
X150081043Y-111690282D01*
X150043921Y-111559889D01*
X150008897Y-111448664D01*
X149975626Y-111355699D01*
X149943760Y-111280088D01*
X149912952Y-111220923D01*
X149882855Y-111177297D01*
X149856898Y-111151211D01*
X149822544Y-111130606D01*
X149776293Y-111112002D01*
X149747685Y-111103714D01*
X149708037Y-111094622D01*
X149680199Y-111091248D01*
X149655595Y-111093603D01*
X149625651Y-111101698D01*
X149618637Y-111103891D01*
X149560114Y-111133107D01*
X149512656Y-111180294D01*
X149476408Y-111245295D01*
X149466018Y-111273363D01*
X149458719Y-111297465D01*
X149446704Y-111339501D01*
X149430668Y-111396939D01*
X149411306Y-111467250D01*
X149389314Y-111547903D01*
X149365386Y-111636367D01*
X149340218Y-111730112D01*
X149328242Y-111774961D01*
X149303253Y-111868236D01*
X149279589Y-111955658D01*
X149257873Y-112034996D01*
X149238724Y-112104021D01*
X149222766Y-112160501D01*
X149210619Y-112202207D01*
X149202905Y-112226908D01*
X149200772Y-112232447D01*
X149176509Y-112257441D01*
X149140362Y-112272262D01*
X149099411Y-112276136D01*
X149060736Y-112268293D01*
X149033794Y-112250650D01*
X149026501Y-112238608D01*
X149016761Y-112214839D01*
X149004204Y-112178095D01*
X148988458Y-112127130D01*
X148969152Y-112060697D01*
X148945914Y-111977548D01*
X148918373Y-111876437D01*
X148886157Y-111756117D01*
X148883542Y-111746287D01*
X148850736Y-111623495D01*
X148822481Y-111519475D01*
X148798153Y-111432474D01*
X148777125Y-111360740D01*
X148758771Y-111302521D01*
X148742464Y-111256065D01*
X148727580Y-111219618D01*
X148713491Y-111191430D01*
X148699573Y-111169748D01*
X148685198Y-111152820D01*
X148669740Y-111138893D01*
X148665261Y-111135391D01*
X148609478Y-111105276D01*
X148547884Y-111093052D01*
X148484068Y-111097649D01*
X148421620Y-111117993D01*
X148364131Y-111153012D01*
X148315190Y-111201635D01*
X148284915Y-111248991D01*
X148270822Y-111277853D01*
X148257619Y-111307650D01*
X148244538Y-111340778D01*
X148230812Y-111379632D01*
X148215672Y-111426611D01*
X148198353Y-111484109D01*
X148178085Y-111554522D01*
X148154102Y-111640248D01*
X148125635Y-111743683D01*
X148120794Y-111761375D01*
X148091864Y-111866931D01*
X148067767Y-111954098D01*
X148047840Y-112024926D01*
X148031420Y-112081467D01*
X148017844Y-112125771D01*
X148006448Y-112159890D01*
X147996568Y-112185874D01*
X147987541Y-112205774D01*
X147978704Y-112221642D01*
X147969393Y-112235528D01*
X147965848Y-112240368D01*
X147947782Y-112262904D01*
X147929199Y-112280551D01*
X147907332Y-112293902D01*
X147879419Y-112303549D01*
X147842693Y-112310084D01*
X147794390Y-112314099D01*
X147731747Y-112316186D01*
X147651997Y-112316939D01*
X147608131Y-112317000D01*
X147525029Y-112316745D01*
X147461008Y-112315906D01*
X147413984Y-112314373D01*
X147381877Y-112312033D01*
X147362605Y-112308775D01*
X147354087Y-112304488D01*
X147353443Y-112303382D01*
X147351878Y-112288699D01*
X147350847Y-112256650D01*
X147350395Y-112211031D01*
X147350567Y-112155637D01*
X147351130Y-112110236D01*
X147354042Y-111930708D01*
X147623917Y-111925416D01*
X147707507Y-111923659D01*
X147772758Y-111921898D01*
X147822496Y-111919885D01*
X147859547Y-111917371D01*
X147886737Y-111914110D01*
X147906891Y-111909852D01*
X147922836Y-111904351D01*
X147936125Y-111898026D01*
X147965116Y-111879492D01*
X147991759Y-111854486D01*
X148016784Y-111821283D01*
X148040922Y-111778153D01*
X148064902Y-111723372D01*
X148089456Y-111655211D01*
X148115315Y-111571945D01*
X148143208Y-111471845D01*
X148173866Y-111353184D01*
X148184304Y-111311317D01*
X148217471Y-111181660D01*
X148248102Y-111071528D01*
X148276781Y-110979513D01*
X148304091Y-110904203D01*
X148330617Y-110844189D01*
X148356943Y-110798061D01*
X148383652Y-110764410D01*
X148411329Y-110741826D01*
X148422799Y-110735576D01*
X148456971Y-110725388D01*
X148503213Y-110719664D01*
X148527377Y-110718916D01*
X148567063Y-110719997D01*
X148593520Y-110724835D01*
X148614641Y-110735827D01*
X148633538Y-110751131D01*
X148662179Y-110782426D01*
X148687045Y-110819493D01*
X148691352Y-110827860D01*
X148698301Y-110847236D01*
X148709724Y-110884844D01*
X148724990Y-110938372D01*
X148743469Y-111005510D01*
X148764532Y-111083948D01*
X148787550Y-111171375D01*
X148811892Y-111265480D01*
X148830384Y-111338041D01*
X148855071Y-111434713D01*
X148878704Y-111525678D01*
X148900685Y-111608749D01*
X148920416Y-111681736D01*
X148937300Y-111742450D01*
X148950738Y-111788701D01*
X148960134Y-111818301D01*
X148964263Y-111828407D01*
X148989960Y-111853196D01*
X149029126Y-111874557D01*
X149074065Y-111889061D01*
X149110179Y-111893434D01*
X149156764Y-111886591D01*
X149202535Y-111868069D01*
X149239854Y-111841619D01*
X149256048Y-111821801D01*
X149262227Y-111805606D01*
X149272933Y-111771064D01*
X149287564Y-111720366D01*
X149305519Y-111655699D01*
X149326198Y-111579255D01*
X149349001Y-111493223D01*
X149373327Y-111399792D01*
X149395086Y-111314887D01*
X149427092Y-111189426D01*
X149454713Y-111082937D01*
X149478734Y-110993862D01*
X149499942Y-110920649D01*
X149519123Y-110861742D01*
X149537062Y-110815585D01*
X149554545Y-110780625D01*
X149572358Y-110755307D01*
X149591287Y-110738075D01*
X149612118Y-110727375D01*
X149635636Y-110721652D01*
X149662628Y-110719351D01*
X149693879Y-110718917D01*
X149696312Y-110718916D01*
X149745057Y-110721349D01*
G36*
X155739510Y-111358378D02*
X155803277Y-111376632D01*
X155853208Y-111410770D01*
X155854465Y-111412014D01*
X155889500Y-111447050D01*
X155889500Y-111364500D01*
X155995333Y-111364500D01*
X155995333Y-111690818D01*
X155995046Y-111798099D01*
X155993999Y-111886613D01*
X155991918Y-111958756D01*
X155988526Y-112016923D01*
X155983548Y-112063508D01*
X155976708Y-112100906D01*
X155967729Y-112131513D01*
X155956336Y-112157722D01*
X155942253Y-112181930D01*
X155938025Y-112188328D01*
X155900534Y-112232474D01*
X155854883Y-112263410D01*
X155797547Y-112282721D01*
X155725001Y-112291990D01*
X155705393Y-112292881D01*
X155651527Y-112293434D01*
X155611511Y-112290350D01*
X155578215Y-112282779D01*
X155557116Y-112275177D01*
X155504932Y-112247383D01*
X155461322Y-112211128D01*
X155429907Y-112170406D01*
X155414309Y-112129214D01*
X155413250Y-112116442D01*
X155416029Y-112103199D01*
X155427926Y-112096771D01*
X155454281Y-112094858D01*
X155463521Y-112094816D01*
X155495609Y-112096487D01*
X155514528Y-112103794D01*
X155528178Y-112120347D01*
X155531391Y-112125818D01*
X155562941Y-112161304D01*
X155607352Y-112185035D01*
X155659711Y-112196755D01*
X155715109Y-112196208D01*
X155768633Y-112183136D01*
X155815373Y-112157284D01*
X155832753Y-112141552D01*
X155860718Y-112099236D01*
X155880266Y-112043484D01*
X155889184Y-111981098D01*
X155889500Y-111967229D01*
X155889500Y-111936000D01*
X155849558Y-111975941D01*
X155796995Y-112014388D01*
X155735539Y-112036431D01*
X155669283Y-112042381D01*
X155602319Y-112032551D01*
X155538739Y-112007252D01*
X155482637Y-111966796D01*
X155463288Y-111946534D01*
X155426297Y-111893698D01*
X155402404Y-111834911D01*
X155390192Y-111765500D01*
X155387914Y-111698454D01*
X155506915Y-111698454D01*
X155513832Y-111778706D01*
X155533468Y-111844282D01*
X155564882Y-111894239D01*
X155607132Y-111927631D01*
X155659278Y-111943517D01*
X155720377Y-111940951D01*
X155743457Y-111935587D01*
X155782672Y-111915431D01*
X155819975Y-111880268D01*
X155850230Y-111836009D01*
X155867233Y-111793110D01*
X155876487Y-111734721D01*
X155878121Y-111670279D01*
X155872199Y-111609984D01*
X155865941Y-111582940D01*
X155839765Y-111528508D01*
X155799954Y-111487283D01*
X155750307Y-111461191D01*
X155694617Y-111452155D01*
X155636681Y-111462099D01*
X155631359Y-111464039D01*
X155580787Y-111491149D01*
X155544205Y-111529577D01*
X155520547Y-111581332D01*
X155508745Y-111648420D01*
X155506915Y-111698454D01*
X155387914Y-111698454D01*
X155387894Y-111697875D01*
X155396723Y-111604821D01*
X155420409Y-111525032D01*
X155458202Y-111459442D01*
X155509351Y-111408988D01*
X155573106Y-111374606D01*
X155648715Y-111357230D01*
X155662126Y-111356072D01*
X155739510Y-111358378D01*
X155739510Y-111358378D01*
G37*
X155739510Y-111358378D02*
X155803277Y-111376632D01*
X155853208Y-111410770D01*
X155854465Y-111412014D01*
X155889500Y-111447050D01*
X155889500Y-111364500D01*
X155995333Y-111364500D01*
X155995333Y-111690818D01*
X155995046Y-111798099D01*
X155993999Y-111886613D01*
X155991918Y-111958756D01*
X155988526Y-112016923D01*
X155983548Y-112063508D01*
X155976708Y-112100906D01*
X155967729Y-112131513D01*
X155956336Y-112157722D01*
X155942253Y-112181930D01*
X155938025Y-112188328D01*
X155900534Y-112232474D01*
X155854883Y-112263410D01*
X155797547Y-112282721D01*
X155725001Y-112291990D01*
X155705393Y-112292881D01*
X155651527Y-112293434D01*
X155611511Y-112290350D01*
X155578215Y-112282779D01*
X155557116Y-112275177D01*
X155504932Y-112247383D01*
X155461322Y-112211128D01*
X155429907Y-112170406D01*
X155414309Y-112129214D01*
X155413250Y-112116442D01*
X155416029Y-112103199D01*
X155427926Y-112096771D01*
X155454281Y-112094858D01*
X155463521Y-112094816D01*
X155495609Y-112096487D01*
X155514528Y-112103794D01*
X155528178Y-112120347D01*
X155531391Y-112125818D01*
X155562941Y-112161304D01*
X155607352Y-112185035D01*
X155659711Y-112196755D01*
X155715109Y-112196208D01*
X155768633Y-112183136D01*
X155815373Y-112157284D01*
X155832753Y-112141552D01*
X155860718Y-112099236D01*
X155880266Y-112043484D01*
X155889184Y-111981098D01*
X155889500Y-111967229D01*
X155889500Y-111936000D01*
X155849558Y-111975941D01*
X155796995Y-112014388D01*
X155735539Y-112036431D01*
X155669283Y-112042381D01*
X155602319Y-112032551D01*
X155538739Y-112007252D01*
X155482637Y-111966796D01*
X155463288Y-111946534D01*
X155426297Y-111893698D01*
X155402404Y-111834911D01*
X155390192Y-111765500D01*
X155387914Y-111698454D01*
X155506915Y-111698454D01*
X155513832Y-111778706D01*
X155533468Y-111844282D01*
X155564882Y-111894239D01*
X155607132Y-111927631D01*
X155659278Y-111943517D01*
X155720377Y-111940951D01*
X155743457Y-111935587D01*
X155782672Y-111915431D01*
X155819975Y-111880268D01*
X155850230Y-111836009D01*
X155867233Y-111793110D01*
X155876487Y-111734721D01*
X155878121Y-111670279D01*
X155872199Y-111609984D01*
X155865941Y-111582940D01*
X155839765Y-111528508D01*
X155799954Y-111487283D01*
X155750307Y-111461191D01*
X155694617Y-111452155D01*
X155636681Y-111462099D01*
X155631359Y-111464039D01*
X155580787Y-111491149D01*
X155544205Y-111529577D01*
X155520547Y-111581332D01*
X155508745Y-111648420D01*
X155506915Y-111698454D01*
X155387914Y-111698454D01*
X155387894Y-111697875D01*
X155396723Y-111604821D01*
X155420409Y-111525032D01*
X155458202Y-111459442D01*
X155509351Y-111408988D01*
X155573106Y-111374606D01*
X155648715Y-111357230D01*
X155662126Y-111356072D01*
X155739510Y-111358378D01*
G36*
X154783656Y-111356500D02*
X154845706Y-111368446D01*
X154898345Y-111390997D01*
X154917958Y-111404953D01*
X154946392Y-111436746D01*
X154970679Y-111477576D01*
X154986306Y-111518841D01*
X154989684Y-111541770D01*
X154987686Y-111555962D01*
X154977779Y-111563036D01*
X154954635Y-111565407D01*
X154937142Y-111565583D01*
X154905206Y-111564526D01*
X154887244Y-111558803D01*
X154876083Y-111544589D01*
X154869234Y-111529364D01*
X154844524Y-111490929D01*
X154806799Y-111466140D01*
X154756286Y-111453433D01*
X154703242Y-111452083D01*
X154656734Y-111461868D01*
X154620132Y-111480844D01*
X154596805Y-111507067D01*
X154590124Y-111538594D01*
X154591751Y-111548332D01*
X154600831Y-111568283D01*
X154619002Y-111585559D01*
X154649041Y-111601549D01*
X154693723Y-111617645D01*
X154755823Y-111635237D01*
X154775173Y-111640229D01*
X154857748Y-111663890D01*
X154921110Y-111688698D01*
X154967206Y-111716211D01*
X154997986Y-111747986D01*
X155015399Y-111785581D01*
X155021392Y-111830554D01*
X155021434Y-111837057D01*
X155011471Y-111899005D01*
X154982525Y-111951791D01*
X154934873Y-111995030D01*
X154889375Y-112019930D01*
X154862664Y-112026991D01*
X154821331Y-112032655D01*
X154771894Y-112036603D01*
X154720869Y-112038516D01*
X154674775Y-112038076D01*
X154640127Y-112034963D01*
X154630015Y-112032609D01*
X154566824Y-112003915D01*
X154516147Y-111964874D01*
X154480519Y-111918291D01*
X154462476Y-111866971D01*
X154460750Y-111845352D01*
X154462639Y-111829871D01*
X154471955Y-111822259D01*
X154494172Y-111819768D01*
X154512061Y-111819583D01*
X154543283Y-111820600D01*
X154560749Y-111826676D01*
X154571861Y-111842351D01*
X154579650Y-111861023D01*
X154600343Y-111896909D01*
X154631316Y-111921144D01*
X154675641Y-111935187D01*
X154736388Y-111940497D01*
X154747178Y-111940630D01*
X154796893Y-111939098D01*
X154831245Y-111933305D01*
X154855774Y-111922309D01*
X154856139Y-111922071D01*
X154887649Y-111892022D01*
X154902205Y-111857194D01*
X154899412Y-111822224D01*
X154878877Y-111791749D01*
X154867943Y-111783341D01*
X154847129Y-111773759D01*
X154810963Y-111761078D01*
X154764707Y-111747016D01*
X154718331Y-111734481D01*
X154641957Y-111713226D01*
X154583814Y-111692458D01*
X154541056Y-111670728D01*
X154510836Y-111646590D01*
X154490307Y-111618595D01*
X154490255Y-111618500D01*
X154475508Y-111572277D01*
X154474456Y-111519363D01*
X154486544Y-111468714D01*
X154501243Y-111441167D01*
X154537919Y-111406380D01*
X154589326Y-111380100D01*
X154650637Y-111362747D01*
X154717023Y-111354741D01*
X154783656Y-111356500D01*
X154783656Y-111356500D01*
G37*
X154783656Y-111356500D02*
X154845706Y-111368446D01*
X154898345Y-111390997D01*
X154917958Y-111404953D01*
X154946392Y-111436746D01*
X154970679Y-111477576D01*
X154986306Y-111518841D01*
X154989684Y-111541770D01*
X154987686Y-111555962D01*
X154977779Y-111563036D01*
X154954635Y-111565407D01*
X154937142Y-111565583D01*
X154905206Y-111564526D01*
X154887244Y-111558803D01*
X154876083Y-111544589D01*
X154869234Y-111529364D01*
X154844524Y-111490929D01*
X154806799Y-111466140D01*
X154756286Y-111453433D01*
X154703242Y-111452083D01*
X154656734Y-111461868D01*
X154620132Y-111480844D01*
X154596805Y-111507067D01*
X154590124Y-111538594D01*
X154591751Y-111548332D01*
X154600831Y-111568283D01*
X154619002Y-111585559D01*
X154649041Y-111601549D01*
X154693723Y-111617645D01*
X154755823Y-111635237D01*
X154775173Y-111640229D01*
X154857748Y-111663890D01*
X154921110Y-111688698D01*
X154967206Y-111716211D01*
X154997986Y-111747986D01*
X155015399Y-111785581D01*
X155021392Y-111830554D01*
X155021434Y-111837057D01*
X155011471Y-111899005D01*
X154982525Y-111951791D01*
X154934873Y-111995030D01*
X154889375Y-112019930D01*
X154862664Y-112026991D01*
X154821331Y-112032655D01*
X154771894Y-112036603D01*
X154720869Y-112038516D01*
X154674775Y-112038076D01*
X154640127Y-112034963D01*
X154630015Y-112032609D01*
X154566824Y-112003915D01*
X154516147Y-111964874D01*
X154480519Y-111918291D01*
X154462476Y-111866971D01*
X154460750Y-111845352D01*
X154462639Y-111829871D01*
X154471955Y-111822259D01*
X154494172Y-111819768D01*
X154512061Y-111819583D01*
X154543283Y-111820600D01*
X154560749Y-111826676D01*
X154571861Y-111842351D01*
X154579650Y-111861023D01*
X154600343Y-111896909D01*
X154631316Y-111921144D01*
X154675641Y-111935187D01*
X154736388Y-111940497D01*
X154747178Y-111940630D01*
X154796893Y-111939098D01*
X154831245Y-111933305D01*
X154855774Y-111922309D01*
X154856139Y-111922071D01*
X154887649Y-111892022D01*
X154902205Y-111857194D01*
X154899412Y-111822224D01*
X154878877Y-111791749D01*
X154867943Y-111783341D01*
X154847129Y-111773759D01*
X154810963Y-111761078D01*
X154764707Y-111747016D01*
X154718331Y-111734481D01*
X154641957Y-111713226D01*
X154583814Y-111692458D01*
X154541056Y-111670728D01*
X154510836Y-111646590D01*
X154490307Y-111618595D01*
X154490255Y-111618500D01*
X154475508Y-111572277D01*
X154474456Y-111519363D01*
X154486544Y-111468714D01*
X154501243Y-111441167D01*
X154537919Y-111406380D01*
X154589326Y-111380100D01*
X154650637Y-111362747D01*
X154717023Y-111354741D01*
X154783656Y-111356500D01*
G36*
X157172962Y-111355985D02*
X157245023Y-111364198D01*
X157300138Y-111380826D01*
X157341252Y-111407042D01*
X157363437Y-111431950D01*
X157371118Y-111443782D01*
X157377026Y-111456936D01*
X157381478Y-111474367D01*
X157384788Y-111499031D01*
X157387270Y-111533884D01*
X157389241Y-111581881D01*
X157391015Y-111645979D01*
X157392333Y-111703166D01*
X157397625Y-111941291D01*
X157426729Y-111940874D01*
X157445118Y-111942401D01*
X157453503Y-111951592D01*
X157455767Y-111974299D01*
X157455833Y-111984721D01*
X157453329Y-112014617D01*
X157442920Y-112031908D01*
X157420261Y-112039883D01*
X157381007Y-112041833D01*
X157380403Y-112041833D01*
X157341634Y-112034065D01*
X157309679Y-112013724D01*
X157290057Y-111985251D01*
X157286500Y-111966251D01*
X157285717Y-111951551D01*
X157280307Y-111949989D01*
X157265679Y-111962133D01*
X157257396Y-111969853D01*
X157214966Y-112002934D01*
X157168736Y-112023944D01*
X157112422Y-112035168D01*
X157069542Y-112038221D01*
X157018830Y-112038140D01*
X156975866Y-112034282D01*
X156950448Y-112028359D01*
X156898772Y-111998520D01*
X156861324Y-111956240D01*
X156839060Y-111905567D01*
X156832936Y-111850549D01*
X156833484Y-111847785D01*
X156958417Y-111847785D01*
X156962700Y-111885436D01*
X156976917Y-111909625D01*
X156979819Y-111912291D01*
X157023953Y-111936710D01*
X157079387Y-111945296D01*
X157142921Y-111937635D01*
X157153970Y-111934778D01*
X157187560Y-111919627D01*
X157222973Y-111894966D01*
X157235990Y-111883166D01*
X157257378Y-111860476D01*
X157269336Y-111841360D01*
X157274597Y-111818209D01*
X157275892Y-111783414D01*
X157275917Y-111771969D01*
X157275530Y-111734332D01*
X157273329Y-111713636D01*
X157267750Y-111705653D01*
X157257233Y-111706159D01*
X157252104Y-111707558D01*
X157231097Y-111712384D01*
X157195583Y-111719346D01*
X157151954Y-111727212D01*
X157134571Y-111730184D01*
X157067685Y-111743321D01*
X157019346Y-111757981D01*
X156986936Y-111775912D01*
X156967838Y-111798861D01*
X156959432Y-111828576D01*
X156958417Y-111847785D01*
X156833484Y-111847785D01*
X156843906Y-111795234D01*
X156872927Y-111743669D01*
X156880990Y-111734153D01*
X156905413Y-111711091D01*
X156934534Y-111692566D01*
X156971984Y-111677253D01*
X157021393Y-111663825D01*
X157086392Y-111650956D01*
X157127750Y-111644014D01*
X157187189Y-111633269D01*
X157228594Y-111622170D01*
X157255041Y-111608853D01*
X157269608Y-111591454D01*
X157275372Y-111568109D01*
X157275917Y-111554274D01*
X157266933Y-111510311D01*
X157240516Y-111477942D01*
X157197465Y-111458013D01*
X157181514Y-111454601D01*
X157120724Y-111451049D01*
X157066039Y-111460506D01*
X157021081Y-111481393D01*
X156989470Y-111512133D01*
X156975920Y-111544209D01*
X156970671Y-111563154D01*
X156960749Y-111572598D01*
X156940018Y-111575834D01*
X156916348Y-111576166D01*
X156884888Y-111575385D01*
X156869159Y-111571109D01*
X156863737Y-111560440D01*
X156863167Y-111547758D01*
X156871428Y-111506110D01*
X156893137Y-111461516D01*
X156923678Y-111422064D01*
X156945560Y-111403364D01*
X157001956Y-111374571D01*
X157069793Y-111358687D01*
X157151880Y-111355127D01*
X157172962Y-111355985D01*
X157172962Y-111355985D01*
G37*
X157172962Y-111355985D02*
X157245023Y-111364198D01*
X157300138Y-111380826D01*
X157341252Y-111407042D01*
X157363437Y-111431950D01*
X157371118Y-111443782D01*
X157377026Y-111456936D01*
X157381478Y-111474367D01*
X157384788Y-111499031D01*
X157387270Y-111533884D01*
X157389241Y-111581881D01*
X157391015Y-111645979D01*
X157392333Y-111703166D01*
X157397625Y-111941291D01*
X157426729Y-111940874D01*
X157445118Y-111942401D01*
X157453503Y-111951592D01*
X157455767Y-111974299D01*
X157455833Y-111984721D01*
X157453329Y-112014617D01*
X157442920Y-112031908D01*
X157420261Y-112039883D01*
X157381007Y-112041833D01*
X157380403Y-112041833D01*
X157341634Y-112034065D01*
X157309679Y-112013724D01*
X157290057Y-111985251D01*
X157286500Y-111966251D01*
X157285717Y-111951551D01*
X157280307Y-111949989D01*
X157265679Y-111962133D01*
X157257396Y-111969853D01*
X157214966Y-112002934D01*
X157168736Y-112023944D01*
X157112422Y-112035168D01*
X157069542Y-112038221D01*
X157018830Y-112038140D01*
X156975866Y-112034282D01*
X156950448Y-112028359D01*
X156898772Y-111998520D01*
X156861324Y-111956240D01*
X156839060Y-111905567D01*
X156832936Y-111850549D01*
X156833484Y-111847785D01*
X156958417Y-111847785D01*
X156962700Y-111885436D01*
X156976917Y-111909625D01*
X156979819Y-111912291D01*
X157023953Y-111936710D01*
X157079387Y-111945296D01*
X157142921Y-111937635D01*
X157153970Y-111934778D01*
X157187560Y-111919627D01*
X157222973Y-111894966D01*
X157235990Y-111883166D01*
X157257378Y-111860476D01*
X157269336Y-111841360D01*
X157274597Y-111818209D01*
X157275892Y-111783414D01*
X157275917Y-111771969D01*
X157275530Y-111734332D01*
X157273329Y-111713636D01*
X157267750Y-111705653D01*
X157257233Y-111706159D01*
X157252104Y-111707558D01*
X157231097Y-111712384D01*
X157195583Y-111719346D01*
X157151954Y-111727212D01*
X157134571Y-111730184D01*
X157067685Y-111743321D01*
X157019346Y-111757981D01*
X156986936Y-111775912D01*
X156967838Y-111798861D01*
X156959432Y-111828576D01*
X156958417Y-111847785D01*
X156833484Y-111847785D01*
X156843906Y-111795234D01*
X156872927Y-111743669D01*
X156880990Y-111734153D01*
X156905413Y-111711091D01*
X156934534Y-111692566D01*
X156971984Y-111677253D01*
X157021393Y-111663825D01*
X157086392Y-111650956D01*
X157127750Y-111644014D01*
X157187189Y-111633269D01*
X157228594Y-111622170D01*
X157255041Y-111608853D01*
X157269608Y-111591454D01*
X157275372Y-111568109D01*
X157275917Y-111554274D01*
X157266933Y-111510311D01*
X157240516Y-111477942D01*
X157197465Y-111458013D01*
X157181514Y-111454601D01*
X157120724Y-111451049D01*
X157066039Y-111460506D01*
X157021081Y-111481393D01*
X156989470Y-111512133D01*
X156975920Y-111544209D01*
X156970671Y-111563154D01*
X156960749Y-111572598D01*
X156940018Y-111575834D01*
X156916348Y-111576166D01*
X156884888Y-111575385D01*
X156869159Y-111571109D01*
X156863737Y-111560440D01*
X156863167Y-111547758D01*
X156871428Y-111506110D01*
X156893137Y-111461516D01*
X156923678Y-111422064D01*
X156945560Y-111403364D01*
X157001956Y-111374571D01*
X157069793Y-111358687D01*
X157151880Y-111355127D01*
X157172962Y-111355985D01*
G36*
X158537181Y-111357932D02*
X158611409Y-111375478D01*
X158672690Y-111408468D01*
X158719945Y-111456390D01*
X158742384Y-111494776D01*
X158760730Y-111536871D01*
X158767730Y-111563780D01*
X158762280Y-111578838D01*
X158743280Y-111585381D01*
X158711995Y-111586750D01*
X158679047Y-111585956D01*
X158660154Y-111580907D01*
X158648206Y-111567598D01*
X158637258Y-111544670D01*
X158607215Y-111497116D01*
X158565885Y-111467033D01*
X158520607Y-111454077D01*
X158456493Y-111454019D01*
X158398826Y-111472396D01*
X158350824Y-111507225D01*
X158315708Y-111556526D01*
X158303448Y-111587758D01*
X158296204Y-111623082D01*
X158291180Y-111668873D01*
X158289565Y-111709426D01*
X158296777Y-111786156D01*
X158318710Y-111848343D01*
X158355806Y-111897069D01*
X158371856Y-111910689D01*
X158398995Y-111928714D01*
X158425385Y-111937909D01*
X158460283Y-111940966D01*
X158476301Y-111941085D01*
X158530822Y-111936520D01*
X158571594Y-111922422D01*
X158576028Y-111919918D01*
X158603788Y-111896318D01*
X158629058Y-111863097D01*
X158646662Y-111828167D01*
X158651750Y-111804129D01*
X158656606Y-111794367D01*
X158673960Y-111789326D01*
X158707989Y-111787835D01*
X158709958Y-111787833D01*
X158743765Y-111788838D01*
X158761978Y-111794608D01*
X158766858Y-111809272D01*
X158760669Y-111836962D01*
X158751717Y-111864089D01*
X158719109Y-111929586D01*
X158671482Y-111980791D01*
X158610166Y-112016857D01*
X158536489Y-112036936D01*
X158474082Y-112040997D01*
X158428404Y-112037919D01*
X158383337Y-112030810D01*
X158355983Y-112023547D01*
X158304965Y-111996282D01*
X158256410Y-111953975D01*
X158215959Y-111902513D01*
X158190253Y-111850715D01*
X158176401Y-111791814D01*
X158170420Y-111722830D01*
X158172231Y-111651797D01*
X158181753Y-111586746D01*
X158193264Y-111548311D01*
X158231621Y-111475100D01*
X158281669Y-111419500D01*
X158343768Y-111381242D01*
X158418279Y-111360057D01*
X158451082Y-111356343D01*
X158537181Y-111357932D01*
X158537181Y-111357932D01*
G37*
X158537181Y-111357932D02*
X158611409Y-111375478D01*
X158672690Y-111408468D01*
X158719945Y-111456390D01*
X158742384Y-111494776D01*
X158760730Y-111536871D01*
X158767730Y-111563780D01*
X158762280Y-111578838D01*
X158743280Y-111585381D01*
X158711995Y-111586750D01*
X158679047Y-111585956D01*
X158660154Y-111580907D01*
X158648206Y-111567598D01*
X158637258Y-111544670D01*
X158607215Y-111497116D01*
X158565885Y-111467033D01*
X158520607Y-111454077D01*
X158456493Y-111454019D01*
X158398826Y-111472396D01*
X158350824Y-111507225D01*
X158315708Y-111556526D01*
X158303448Y-111587758D01*
X158296204Y-111623082D01*
X158291180Y-111668873D01*
X158289565Y-111709426D01*
X158296777Y-111786156D01*
X158318710Y-111848343D01*
X158355806Y-111897069D01*
X158371856Y-111910689D01*
X158398995Y-111928714D01*
X158425385Y-111937909D01*
X158460283Y-111940966D01*
X158476301Y-111941085D01*
X158530822Y-111936520D01*
X158571594Y-111922422D01*
X158576028Y-111919918D01*
X158603788Y-111896318D01*
X158629058Y-111863097D01*
X158646662Y-111828167D01*
X158651750Y-111804129D01*
X158656606Y-111794367D01*
X158673960Y-111789326D01*
X158707989Y-111787835D01*
X158709958Y-111787833D01*
X158743765Y-111788838D01*
X158761978Y-111794608D01*
X158766858Y-111809272D01*
X158760669Y-111836962D01*
X158751717Y-111864089D01*
X158719109Y-111929586D01*
X158671482Y-111980791D01*
X158610166Y-112016857D01*
X158536489Y-112036936D01*
X158474082Y-112040997D01*
X158428404Y-112037919D01*
X158383337Y-112030810D01*
X158355983Y-112023547D01*
X158304965Y-111996282D01*
X158256410Y-111953975D01*
X158215959Y-111902513D01*
X158190253Y-111850715D01*
X158176401Y-111791814D01*
X158170420Y-111722830D01*
X158172231Y-111651797D01*
X158181753Y-111586746D01*
X158193264Y-111548311D01*
X158231621Y-111475100D01*
X158281669Y-111419500D01*
X158343768Y-111381242D01*
X158418279Y-111360057D01*
X158451082Y-111356343D01*
X158537181Y-111357932D01*
G36*
X159284510Y-111369890D02*
X159355390Y-111400460D01*
X159412974Y-111446815D01*
X159456443Y-111508014D01*
X159484981Y-111583118D01*
X159497769Y-111671187D01*
X159498417Y-111697875D01*
X159490165Y-111789751D01*
X159465530Y-111868684D01*
X159424690Y-111934331D01*
X159367824Y-111986350D01*
X159338389Y-112004498D01*
X159305068Y-112020845D01*
X159273868Y-112030749D01*
X159236778Y-112036060D01*
X159191500Y-112038452D01*
X159126986Y-112037888D01*
X159077582Y-112031010D01*
X159054204Y-112024067D01*
X159017926Y-112005103D01*
X158977257Y-111975022D01*
X158952633Y-111952514D01*
X158908563Y-111899831D01*
X158879377Y-111842757D01*
X158863269Y-111776418D01*
X158858437Y-111697875D01*
X158859304Y-111684120D01*
X158977827Y-111684120D01*
X158979705Y-111743083D01*
X158988592Y-111795144D01*
X158995037Y-111814318D01*
X159028278Y-111870043D01*
X159073245Y-111911036D01*
X159126371Y-111936057D01*
X159184087Y-111943862D01*
X159242823Y-111933209D01*
X159282281Y-111914324D01*
X159309351Y-111891516D01*
X159336670Y-111859209D01*
X159347698Y-111842474D01*
X159361970Y-111815849D01*
X159370646Y-111791097D01*
X159375074Y-111761492D01*
X159376605Y-111720303D01*
X159376708Y-111697875D01*
X159375994Y-111649797D01*
X159372950Y-111616135D01*
X159366227Y-111590161D01*
X159354475Y-111565144D01*
X159347698Y-111553275D01*
X159307623Y-111503014D01*
X159259001Y-111469881D01*
X159205328Y-111453598D01*
X159150100Y-111453886D01*
X159096815Y-111470470D01*
X159048969Y-111503069D01*
X159010060Y-111551408D01*
X158995094Y-111581286D01*
X158982958Y-111627204D01*
X158977827Y-111684120D01*
X158859304Y-111684120D01*
X158863489Y-111617777D01*
X158879849Y-111551712D01*
X158909324Y-111494798D01*
X158952685Y-111443184D01*
X159005624Y-111398672D01*
X159061287Y-111370513D01*
X159124805Y-111356907D01*
X159201148Y-111356044D01*
X159284510Y-111369890D01*
X159284510Y-111369890D01*
G37*
X159284510Y-111369890D02*
X159355390Y-111400460D01*
X159412974Y-111446815D01*
X159456443Y-111508014D01*
X159484981Y-111583118D01*
X159497769Y-111671187D01*
X159498417Y-111697875D01*
X159490165Y-111789751D01*
X159465530Y-111868684D01*
X159424690Y-111934331D01*
X159367824Y-111986350D01*
X159338389Y-112004498D01*
X159305068Y-112020845D01*
X159273868Y-112030749D01*
X159236778Y-112036060D01*
X159191500Y-112038452D01*
X159126986Y-112037888D01*
X159077582Y-112031010D01*
X159054204Y-112024067D01*
X159017926Y-112005103D01*
X158977257Y-111975022D01*
X158952633Y-111952514D01*
X158908563Y-111899831D01*
X158879377Y-111842757D01*
X158863269Y-111776418D01*
X158858437Y-111697875D01*
X158859304Y-111684120D01*
X158977827Y-111684120D01*
X158979705Y-111743083D01*
X158988592Y-111795144D01*
X158995037Y-111814318D01*
X159028278Y-111870043D01*
X159073245Y-111911036D01*
X159126371Y-111936057D01*
X159184087Y-111943862D01*
X159242823Y-111933209D01*
X159282281Y-111914324D01*
X159309351Y-111891516D01*
X159336670Y-111859209D01*
X159347698Y-111842474D01*
X159361970Y-111815849D01*
X159370646Y-111791097D01*
X159375074Y-111761492D01*
X159376605Y-111720303D01*
X159376708Y-111697875D01*
X159375994Y-111649797D01*
X159372950Y-111616135D01*
X159366227Y-111590161D01*
X159354475Y-111565144D01*
X159347698Y-111553275D01*
X159307623Y-111503014D01*
X159259001Y-111469881D01*
X159205328Y-111453598D01*
X159150100Y-111453886D01*
X159096815Y-111470470D01*
X159048969Y-111503069D01*
X159010060Y-111551408D01*
X158995094Y-111581286D01*
X158982958Y-111627204D01*
X158977827Y-111684120D01*
X158859304Y-111684120D01*
X158863489Y-111617777D01*
X158879849Y-111551712D01*
X158909324Y-111494798D01*
X158952685Y-111443184D01*
X159005624Y-111398672D01*
X159061287Y-111370513D01*
X159124805Y-111356907D01*
X159201148Y-111356044D01*
X159284510Y-111369890D01*
G36*
X151438751Y-111631729D02*
X151458208Y-111703441D01*
X151475884Y-111768132D01*
X151491028Y-111823080D01*
X151502885Y-111865566D01*
X151510701Y-111892871D01*
X151513686Y-111902257D01*
X151516779Y-111893318D01*
X151524126Y-111866438D01*
X151535053Y-111824263D01*
X151548885Y-111769435D01*
X151564946Y-111704600D01*
X151581925Y-111635028D01*
X151647488Y-111364500D01*
X151769534Y-111364500D01*
X151835128Y-111621145D01*
X151853262Y-111691981D01*
X151869753Y-111756172D01*
X151883852Y-111810821D01*
X151894809Y-111853032D01*
X151901876Y-111879906D01*
X151904212Y-111888375D01*
X151906184Y-111892271D01*
X151908813Y-111891332D01*
X151912739Y-111883496D01*
X151918600Y-111866700D01*
X151927034Y-111838884D01*
X151938680Y-111797986D01*
X151954176Y-111741943D01*
X151974162Y-111668695D01*
X151987795Y-111618500D01*
X152055286Y-111369791D01*
X152115987Y-111366588D01*
X152147590Y-111366197D01*
X152167650Y-111368450D01*
X152171813Y-111371880D01*
X152167114Y-111384438D01*
X152157331Y-111413547D01*
X152143661Y-111455546D01*
X152127303Y-111506772D01*
X152117100Y-111539125D01*
X152094778Y-111610131D01*
X152068978Y-111692047D01*
X152042623Y-111775603D01*
X152018633Y-111851534D01*
X152014512Y-111864562D01*
X151961761Y-112031250D01*
X151840754Y-112031250D01*
X151777875Y-111777250D01*
X151760358Y-111707412D01*
X151744244Y-111644917D01*
X151730283Y-111592535D01*
X151719227Y-111553038D01*
X151711826Y-111529196D01*
X151709083Y-111523250D01*
X151705026Y-111533073D01*
X151696732Y-111560697D01*
X151684954Y-111603350D01*
X151670441Y-111658260D01*
X151653944Y-111722658D01*
X151640292Y-111777250D01*
X151577413Y-112031250D01*
X151515916Y-112031250D01*
X151475438Y-112028925D01*
X151453349Y-112022177D01*
X151449931Y-112018020D01*
X151445714Y-112004939D01*
X151435934Y-111974270D01*
X151421415Y-111928605D01*
X151402979Y-111870536D01*
X151381450Y-111802655D01*
X151357651Y-111727554D01*
X151348251Y-111697875D01*
X151323794Y-111620719D01*
X151301269Y-111549807D01*
X151281504Y-111487729D01*
X151265325Y-111437079D01*
X151253560Y-111400448D01*
X151247035Y-111380430D01*
X151246106Y-111377729D01*
X151249548Y-111369874D01*
X151268999Y-111365664D01*
X151303822Y-111364500D01*
X151366492Y-111364500D01*
X151438751Y-111631729D01*
X151438751Y-111631729D01*
G37*
X151438751Y-111631729D02*
X151458208Y-111703441D01*
X151475884Y-111768132D01*
X151491028Y-111823080D01*
X151502885Y-111865566D01*
X151510701Y-111892871D01*
X151513686Y-111902257D01*
X151516779Y-111893318D01*
X151524126Y-111866438D01*
X151535053Y-111824263D01*
X151548885Y-111769435D01*
X151564946Y-111704600D01*
X151581925Y-111635028D01*
X151647488Y-111364500D01*
X151769534Y-111364500D01*
X151835128Y-111621145D01*
X151853262Y-111691981D01*
X151869753Y-111756172D01*
X151883852Y-111810821D01*
X151894809Y-111853032D01*
X151901876Y-111879906D01*
X151904212Y-111888375D01*
X151906184Y-111892271D01*
X151908813Y-111891332D01*
X151912739Y-111883496D01*
X151918600Y-111866700D01*
X151927034Y-111838884D01*
X151938680Y-111797986D01*
X151954176Y-111741943D01*
X151974162Y-111668695D01*
X151987795Y-111618500D01*
X152055286Y-111369791D01*
X152115987Y-111366588D01*
X152147590Y-111366197D01*
X152167650Y-111368450D01*
X152171813Y-111371880D01*
X152167114Y-111384438D01*
X152157331Y-111413547D01*
X152143661Y-111455546D01*
X152127303Y-111506772D01*
X152117100Y-111539125D01*
X152094778Y-111610131D01*
X152068978Y-111692047D01*
X152042623Y-111775603D01*
X152018633Y-111851534D01*
X152014512Y-111864562D01*
X151961761Y-112031250D01*
X151840754Y-112031250D01*
X151777875Y-111777250D01*
X151760358Y-111707412D01*
X151744244Y-111644917D01*
X151730283Y-111592535D01*
X151719227Y-111553038D01*
X151711826Y-111529196D01*
X151709083Y-111523250D01*
X151705026Y-111533073D01*
X151696732Y-111560697D01*
X151684954Y-111603350D01*
X151670441Y-111658260D01*
X151653944Y-111722658D01*
X151640292Y-111777250D01*
X151577413Y-112031250D01*
X151515916Y-112031250D01*
X151475438Y-112028925D01*
X151453349Y-112022177D01*
X151449931Y-112018020D01*
X151445714Y-112004939D01*
X151435934Y-111974270D01*
X151421415Y-111928605D01*
X151402979Y-111870536D01*
X151381450Y-111802655D01*
X151357651Y-111727554D01*
X151348251Y-111697875D01*
X151323794Y-111620719D01*
X151301269Y-111549807D01*
X151281504Y-111487729D01*
X151265325Y-111437079D01*
X151253560Y-111400448D01*
X151247035Y-111380430D01*
X151246106Y-111377729D01*
X151249548Y-111369874D01*
X151268999Y-111365664D01*
X151303822Y-111364500D01*
X151366492Y-111364500D01*
X151438751Y-111631729D01*
G36*
X152412418Y-111631729D02*
X152431874Y-111703441D01*
X152449551Y-111768132D01*
X152464695Y-111823080D01*
X152476551Y-111865566D01*
X152484368Y-111892871D01*
X152487353Y-111902257D01*
X152490445Y-111893318D01*
X152497793Y-111866438D01*
X152508720Y-111824263D01*
X152522552Y-111769435D01*
X152538613Y-111704600D01*
X152555592Y-111635028D01*
X152621155Y-111364500D01*
X152743201Y-111364500D01*
X152808794Y-111621145D01*
X152826929Y-111691981D01*
X152843420Y-111756172D01*
X152857519Y-111810821D01*
X152868476Y-111853032D01*
X152875543Y-111879906D01*
X152877878Y-111888375D01*
X152879850Y-111892271D01*
X152882480Y-111891332D01*
X152886406Y-111883496D01*
X152892266Y-111866700D01*
X152900700Y-111838884D01*
X152912346Y-111797986D01*
X152927843Y-111741943D01*
X152947829Y-111668695D01*
X152961461Y-111618500D01*
X153028953Y-111369791D01*
X153089653Y-111366588D01*
X153121256Y-111366197D01*
X153141317Y-111368450D01*
X153145480Y-111371880D01*
X153140781Y-111384438D01*
X153130998Y-111413547D01*
X153117328Y-111455546D01*
X153100970Y-111506772D01*
X153090767Y-111539125D01*
X153068445Y-111610131D01*
X153042645Y-111692047D01*
X153016290Y-111775603D01*
X152992300Y-111851534D01*
X152988178Y-111864562D01*
X152935428Y-112031250D01*
X152814420Y-112031250D01*
X152751542Y-111777250D01*
X152734024Y-111707412D01*
X152717910Y-111644917D01*
X152703950Y-111592535D01*
X152692894Y-111553038D01*
X152685493Y-111529196D01*
X152682750Y-111523250D01*
X152678692Y-111533073D01*
X152670399Y-111560697D01*
X152658621Y-111603350D01*
X152644108Y-111658260D01*
X152627611Y-111722658D01*
X152613958Y-111777250D01*
X152551079Y-112031250D01*
X152489582Y-112031250D01*
X152449104Y-112028925D01*
X152427015Y-112022177D01*
X152423598Y-112018020D01*
X152419380Y-112004939D01*
X152409601Y-111974270D01*
X152395081Y-111928605D01*
X152376645Y-111870536D01*
X152355117Y-111802655D01*
X152331318Y-111727554D01*
X152321918Y-111697875D01*
X152297461Y-111620719D01*
X152274936Y-111549807D01*
X152255170Y-111487729D01*
X152238992Y-111437079D01*
X152227226Y-111400448D01*
X152220702Y-111380430D01*
X152219773Y-111377729D01*
X152223215Y-111369874D01*
X152242666Y-111365664D01*
X152277488Y-111364500D01*
X152340158Y-111364500D01*
X152412418Y-111631729D01*
X152412418Y-111631729D01*
G37*
X152412418Y-111631729D02*
X152431874Y-111703441D01*
X152449551Y-111768132D01*
X152464695Y-111823080D01*
X152476551Y-111865566D01*
X152484368Y-111892871D01*
X152487353Y-111902257D01*
X152490445Y-111893318D01*
X152497793Y-111866438D01*
X152508720Y-111824263D01*
X152522552Y-111769435D01*
X152538613Y-111704600D01*
X152555592Y-111635028D01*
X152621155Y-111364500D01*
X152743201Y-111364500D01*
X152808794Y-111621145D01*
X152826929Y-111691981D01*
X152843420Y-111756172D01*
X152857519Y-111810821D01*
X152868476Y-111853032D01*
X152875543Y-111879906D01*
X152877878Y-111888375D01*
X152879850Y-111892271D01*
X152882480Y-111891332D01*
X152886406Y-111883496D01*
X152892266Y-111866700D01*
X152900700Y-111838884D01*
X152912346Y-111797986D01*
X152927843Y-111741943D01*
X152947829Y-111668695D01*
X152961461Y-111618500D01*
X153028953Y-111369791D01*
X153089653Y-111366588D01*
X153121256Y-111366197D01*
X153141317Y-111368450D01*
X153145480Y-111371880D01*
X153140781Y-111384438D01*
X153130998Y-111413547D01*
X153117328Y-111455546D01*
X153100970Y-111506772D01*
X153090767Y-111539125D01*
X153068445Y-111610131D01*
X153042645Y-111692047D01*
X153016290Y-111775603D01*
X152992300Y-111851534D01*
X152988178Y-111864562D01*
X152935428Y-112031250D01*
X152814420Y-112031250D01*
X152751542Y-111777250D01*
X152734024Y-111707412D01*
X152717910Y-111644917D01*
X152703950Y-111592535D01*
X152692894Y-111553038D01*
X152685493Y-111529196D01*
X152682750Y-111523250D01*
X152678692Y-111533073D01*
X152670399Y-111560697D01*
X152658621Y-111603350D01*
X152644108Y-111658260D01*
X152627611Y-111722658D01*
X152613958Y-111777250D01*
X152551079Y-112031250D01*
X152489582Y-112031250D01*
X152449104Y-112028925D01*
X152427015Y-112022177D01*
X152423598Y-112018020D01*
X152419380Y-112004939D01*
X152409601Y-111974270D01*
X152395081Y-111928605D01*
X152376645Y-111870536D01*
X152355117Y-111802655D01*
X152331318Y-111727554D01*
X152321918Y-111697875D01*
X152297461Y-111620719D01*
X152274936Y-111549807D01*
X152255170Y-111487729D01*
X152238992Y-111437079D01*
X152227226Y-111400448D01*
X152220702Y-111380430D01*
X152219773Y-111377729D01*
X152223215Y-111369874D01*
X152242666Y-111365664D01*
X152277488Y-111364500D01*
X152340158Y-111364500D01*
X152412418Y-111631729D01*
G36*
X153375501Y-111631729D02*
X153394958Y-111703441D01*
X153412634Y-111768132D01*
X153427778Y-111823080D01*
X153439635Y-111865566D01*
X153447451Y-111892871D01*
X153450436Y-111902257D01*
X153453529Y-111893318D01*
X153460876Y-111866438D01*
X153471803Y-111824263D01*
X153485635Y-111769435D01*
X153501696Y-111704600D01*
X153518675Y-111635028D01*
X153584238Y-111364500D01*
X153706284Y-111364500D01*
X153771878Y-111621145D01*
X153790012Y-111691981D01*
X153806503Y-111756172D01*
X153820602Y-111810821D01*
X153831559Y-111853032D01*
X153838626Y-111879906D01*
X153840962Y-111888375D01*
X153842934Y-111892271D01*
X153845563Y-111891332D01*
X153849489Y-111883496D01*
X153855350Y-111866700D01*
X153863784Y-111838884D01*
X153875430Y-111797986D01*
X153890926Y-111741943D01*
X153910912Y-111668695D01*
X153924545Y-111618500D01*
X153992036Y-111369791D01*
X154052737Y-111366588D01*
X154084340Y-111366197D01*
X154104400Y-111368450D01*
X154108563Y-111371880D01*
X154103864Y-111384438D01*
X154094081Y-111413547D01*
X154080411Y-111455546D01*
X154064053Y-111506772D01*
X154053850Y-111539125D01*
X154031528Y-111610131D01*
X154005728Y-111692047D01*
X153979373Y-111775603D01*
X153955383Y-111851534D01*
X153951262Y-111864562D01*
X153898511Y-112031250D01*
X153777504Y-112031250D01*
X153714625Y-111777250D01*
X153697108Y-111707412D01*
X153680994Y-111644917D01*
X153667033Y-111592535D01*
X153655977Y-111553038D01*
X153648576Y-111529196D01*
X153645833Y-111523250D01*
X153641776Y-111533073D01*
X153633482Y-111560697D01*
X153621704Y-111603350D01*
X153607191Y-111658260D01*
X153590694Y-111722658D01*
X153577042Y-111777250D01*
X153514163Y-112031250D01*
X153452666Y-112031250D01*
X153412188Y-112028925D01*
X153390099Y-112022177D01*
X153386681Y-112018020D01*
X153382464Y-112004939D01*
X153372684Y-111974270D01*
X153358165Y-111928605D01*
X153339729Y-111870536D01*
X153318200Y-111802655D01*
X153294401Y-111727554D01*
X153285001Y-111697875D01*
X153260544Y-111620719D01*
X153238019Y-111549807D01*
X153218254Y-111487729D01*
X153202075Y-111437079D01*
X153190310Y-111400448D01*
X153183785Y-111380430D01*
X153182856Y-111377729D01*
X153186298Y-111369874D01*
X153205749Y-111365664D01*
X153240572Y-111364500D01*
X153303242Y-111364500D01*
X153375501Y-111631729D01*
X153375501Y-111631729D01*
G37*
X153375501Y-111631729D02*
X153394958Y-111703441D01*
X153412634Y-111768132D01*
X153427778Y-111823080D01*
X153439635Y-111865566D01*
X153447451Y-111892871D01*
X153450436Y-111902257D01*
X153453529Y-111893318D01*
X153460876Y-111866438D01*
X153471803Y-111824263D01*
X153485635Y-111769435D01*
X153501696Y-111704600D01*
X153518675Y-111635028D01*
X153584238Y-111364500D01*
X153706284Y-111364500D01*
X153771878Y-111621145D01*
X153790012Y-111691981D01*
X153806503Y-111756172D01*
X153820602Y-111810821D01*
X153831559Y-111853032D01*
X153838626Y-111879906D01*
X153840962Y-111888375D01*
X153842934Y-111892271D01*
X153845563Y-111891332D01*
X153849489Y-111883496D01*
X153855350Y-111866700D01*
X153863784Y-111838884D01*
X153875430Y-111797986D01*
X153890926Y-111741943D01*
X153910912Y-111668695D01*
X153924545Y-111618500D01*
X153992036Y-111369791D01*
X154052737Y-111366588D01*
X154084340Y-111366197D01*
X154104400Y-111368450D01*
X154108563Y-111371880D01*
X154103864Y-111384438D01*
X154094081Y-111413547D01*
X154080411Y-111455546D01*
X154064053Y-111506772D01*
X154053850Y-111539125D01*
X154031528Y-111610131D01*
X154005728Y-111692047D01*
X153979373Y-111775603D01*
X153955383Y-111851534D01*
X153951262Y-111864562D01*
X153898511Y-112031250D01*
X153777504Y-112031250D01*
X153714625Y-111777250D01*
X153697108Y-111707412D01*
X153680994Y-111644917D01*
X153667033Y-111592535D01*
X153655977Y-111553038D01*
X153648576Y-111529196D01*
X153645833Y-111523250D01*
X153641776Y-111533073D01*
X153633482Y-111560697D01*
X153621704Y-111603350D01*
X153607191Y-111658260D01*
X153590694Y-111722658D01*
X153577042Y-111777250D01*
X153514163Y-112031250D01*
X153452666Y-112031250D01*
X153412188Y-112028925D01*
X153390099Y-112022177D01*
X153386681Y-112018020D01*
X153382464Y-112004939D01*
X153372684Y-111974270D01*
X153358165Y-111928605D01*
X153339729Y-111870536D01*
X153318200Y-111802655D01*
X153294401Y-111727554D01*
X153285001Y-111697875D01*
X153260544Y-111620719D01*
X153238019Y-111549807D01*
X153218254Y-111487729D01*
X153202075Y-111437079D01*
X153190310Y-111400448D01*
X153183785Y-111380430D01*
X153182856Y-111377729D01*
X153186298Y-111369874D01*
X153205749Y-111365664D01*
X153240572Y-111364500D01*
X153303242Y-111364500D01*
X153375501Y-111631729D01*
G36*
X154312583Y-112031250D02*
X154164417Y-112031250D01*
X154164417Y-111893666D01*
X154312583Y-111893666D01*
X154312583Y-112031250D01*
X154312583Y-112031250D01*
G37*
X154312583Y-112031250D02*
X154164417Y-112031250D01*
X154164417Y-111893666D01*
X154312583Y-111893666D01*
X154312583Y-112031250D01*
G36*
X155265083Y-112031250D02*
X155148667Y-112031250D01*
X155148667Y-111364500D01*
X155265083Y-111364500D01*
X155265083Y-112031250D01*
X155265083Y-112031250D01*
G37*
X155265083Y-112031250D02*
X155148667Y-112031250D01*
X155148667Y-111364500D01*
X155265083Y-111364500D01*
X155265083Y-112031250D01*
G36*
X156557553Y-111362483D02*
X156617339Y-111386525D01*
X156662993Y-111425669D01*
X156693678Y-111479307D01*
X156703473Y-111512878D01*
X156706910Y-111539515D01*
X156709939Y-111583287D01*
X156712397Y-111640163D01*
X156714121Y-111706114D01*
X156714950Y-111777108D01*
X156715000Y-111798937D01*
X156715000Y-112031250D01*
X156598583Y-112031250D01*
X156598583Y-111787307D01*
X156598340Y-111701219D01*
X156597230Y-111633676D01*
X156594686Y-111582056D01*
X156590140Y-111543739D01*
X156583022Y-111516106D01*
X156572764Y-111496535D01*
X156558798Y-111482406D01*
X156540555Y-111471100D01*
X156528717Y-111465241D01*
X156478276Y-111452217D01*
X156423512Y-111455895D01*
X156370616Y-111474607D01*
X156325779Y-111506682D01*
X156310591Y-111524069D01*
X156297593Y-111544948D01*
X156287667Y-111570215D01*
X156280431Y-111602828D01*
X156275505Y-111645747D01*
X156272506Y-111701929D01*
X156271052Y-111774335D01*
X156270752Y-111832812D01*
X156270500Y-112031250D01*
X156154083Y-112031250D01*
X156154083Y-111364500D01*
X156270500Y-111364500D01*
X156270500Y-111453318D01*
X156304896Y-111420029D01*
X156356019Y-111381985D01*
X156415318Y-111360527D01*
X156484472Y-111354149D01*
X156557553Y-111362483D01*
X156557553Y-111362483D01*
G37*
X156557553Y-111362483D02*
X156617339Y-111386525D01*
X156662993Y-111425669D01*
X156693678Y-111479307D01*
X156703473Y-111512878D01*
X156706910Y-111539515D01*
X156709939Y-111583287D01*
X156712397Y-111640163D01*
X156714121Y-111706114D01*
X156714950Y-111777108D01*
X156715000Y-111798937D01*
X156715000Y-112031250D01*
X156598583Y-112031250D01*
X156598583Y-111787307D01*
X156598340Y-111701219D01*
X156597230Y-111633676D01*
X156594686Y-111582056D01*
X156590140Y-111543739D01*
X156583022Y-111516106D01*
X156572764Y-111496535D01*
X156558798Y-111482406D01*
X156540555Y-111471100D01*
X156528717Y-111465241D01*
X156478276Y-111452217D01*
X156423512Y-111455895D01*
X156370616Y-111474607D01*
X156325779Y-111506682D01*
X156310591Y-111524069D01*
X156297593Y-111544948D01*
X156287667Y-111570215D01*
X156280431Y-111602828D01*
X156275505Y-111645747D01*
X156272506Y-111701929D01*
X156271052Y-111774335D01*
X156270752Y-111832812D01*
X156270500Y-112031250D01*
X156154083Y-112031250D01*
X156154083Y-111364500D01*
X156270500Y-111364500D01*
X156270500Y-111453318D01*
X156304896Y-111420029D01*
X156356019Y-111381985D01*
X156415318Y-111360527D01*
X156484472Y-111354149D01*
X156557553Y-111362483D01*
G36*
X157678083Y-112031250D02*
X157561667Y-112031250D01*
X157561667Y-111121083D01*
X157678083Y-111121083D01*
X157678083Y-112031250D01*
X157678083Y-112031250D01*
G37*
X157678083Y-112031250D02*
X157561667Y-112031250D01*
X157561667Y-111121083D01*
X157678083Y-111121083D01*
X157678083Y-112031250D01*
G36*
X158016750Y-112031250D02*
X157868583Y-112031250D01*
X157868583Y-111893666D01*
X158016750Y-111893666D01*
X158016750Y-112031250D01*
X158016750Y-112031250D01*
G37*
X158016750Y-112031250D02*
X157868583Y-112031250D01*
X157868583Y-111893666D01*
X158016750Y-111893666D01*
X158016750Y-112031250D01*
G36*
X160405915Y-111360192D02*
X160464127Y-111382956D01*
X160500217Y-111409388D01*
X160516616Y-111427001D01*
X160529558Y-111447198D01*
X160539438Y-111472584D01*
X160546652Y-111505763D01*
X160551594Y-111549338D01*
X160554660Y-111605915D01*
X160556245Y-111678095D01*
X160556744Y-111768485D01*
X160556750Y-111781936D01*
X160556750Y-112031250D01*
X160440333Y-112031250D01*
X160440317Y-111790479D01*
X160440123Y-111710751D01*
X160439422Y-111649247D01*
X160438018Y-111603024D01*
X160435715Y-111569142D01*
X160432316Y-111544659D01*
X160427626Y-111526634D01*
X160421796Y-111512813D01*
X160392349Y-111475039D01*
X160351874Y-111453935D01*
X160303065Y-111450059D01*
X160248621Y-111463967D01*
X160229046Y-111472979D01*
X160203495Y-111487225D01*
X160183631Y-111502428D01*
X160168743Y-111521333D01*
X160158119Y-111546682D01*
X160151048Y-111581220D01*
X160146818Y-111627689D01*
X160144717Y-111688832D01*
X160144035Y-111767395D01*
X160144000Y-111800897D01*
X160144000Y-112031250D01*
X160028635Y-112031250D01*
X160025463Y-111772790D01*
X160024427Y-111692293D01*
X160023361Y-111630227D01*
X160021989Y-111583855D01*
X160020038Y-111550443D01*
X160017232Y-111527256D01*
X160013296Y-111511557D01*
X160007957Y-111500613D01*
X160000940Y-111491687D01*
X159996786Y-111487202D01*
X159958217Y-111459986D01*
X159913383Y-111450125D01*
X159866249Y-111456447D01*
X159820784Y-111477777D01*
X159780955Y-111512943D01*
X159751143Y-111559853D01*
X159744376Y-111577270D01*
X159739347Y-111597723D01*
X159735804Y-111624496D01*
X159733497Y-111660875D01*
X159732174Y-111710146D01*
X159731583Y-111775594D01*
X159731482Y-111816937D01*
X159731250Y-112031250D01*
X159614833Y-112031250D01*
X159614833Y-111364500D01*
X159731250Y-111364500D01*
X159731250Y-111452053D01*
X159760354Y-111422636D01*
X159804835Y-111389224D01*
X159858126Y-111367001D01*
X159915840Y-111355903D01*
X159973595Y-111355865D01*
X160027006Y-111366819D01*
X160071688Y-111388702D01*
X160103257Y-111421448D01*
X160106861Y-111427812D01*
X160122062Y-111457206D01*
X160162861Y-111418395D01*
X160215199Y-111381721D01*
X160276473Y-111359707D01*
X160341704Y-111352486D01*
X160405915Y-111360192D01*
X160405915Y-111360192D01*
G37*
X160405915Y-111360192D02*
X160464127Y-111382956D01*
X160500217Y-111409388D01*
X160516616Y-111427001D01*
X160529558Y-111447198D01*
X160539438Y-111472584D01*
X160546652Y-111505763D01*
X160551594Y-111549338D01*
X160554660Y-111605915D01*
X160556245Y-111678095D01*
X160556744Y-111768485D01*
X160556750Y-111781936D01*
X160556750Y-112031250D01*
X160440333Y-112031250D01*
X160440317Y-111790479D01*
X160440123Y-111710751D01*
X160439422Y-111649247D01*
X160438018Y-111603024D01*
X160435715Y-111569142D01*
X160432316Y-111544659D01*
X160427626Y-111526634D01*
X160421796Y-111512813D01*
X160392349Y-111475039D01*
X160351874Y-111453935D01*
X160303065Y-111450059D01*
X160248621Y-111463967D01*
X160229046Y-111472979D01*
X160203495Y-111487225D01*
X160183631Y-111502428D01*
X160168743Y-111521333D01*
X160158119Y-111546682D01*
X160151048Y-111581220D01*
X160146818Y-111627689D01*
X160144717Y-111688832D01*
X160144035Y-111767395D01*
X160144000Y-111800897D01*
X160144000Y-112031250D01*
X160028635Y-112031250D01*
X160025463Y-111772790D01*
X160024427Y-111692293D01*
X160023361Y-111630227D01*
X160021989Y-111583855D01*
X160020038Y-111550443D01*
X160017232Y-111527256D01*
X160013296Y-111511557D01*
X160007957Y-111500613D01*
X160000940Y-111491687D01*
X159996786Y-111487202D01*
X159958217Y-111459986D01*
X159913383Y-111450125D01*
X159866249Y-111456447D01*
X159820784Y-111477777D01*
X159780955Y-111512943D01*
X159751143Y-111559853D01*
X159744376Y-111577270D01*
X159739347Y-111597723D01*
X159735804Y-111624496D01*
X159733497Y-111660875D01*
X159732174Y-111710146D01*
X159731583Y-111775594D01*
X159731482Y-111816937D01*
X159731250Y-112031250D01*
X159614833Y-112031250D01*
X159614833Y-111364500D01*
X159731250Y-111364500D01*
X159731250Y-111452053D01*
X159760354Y-111422636D01*
X159804835Y-111389224D01*
X159858126Y-111367001D01*
X159915840Y-111355903D01*
X159973595Y-111355865D01*
X160027006Y-111366819D01*
X160071688Y-111388702D01*
X160103257Y-111421448D01*
X160106861Y-111427812D01*
X160122062Y-111457206D01*
X160162861Y-111418395D01*
X160215199Y-111381721D01*
X160276473Y-111359707D01*
X160341704Y-111352486D01*
X160405915Y-111360192D01*
G36*
X160884833Y-112031250D02*
X160736667Y-112031250D01*
X160736667Y-111893666D01*
X160884833Y-111893666D01*
X160884833Y-112031250D01*
X160884833Y-112031250D01*
G37*
X160884833Y-112031250D02*
X160736667Y-112031250D01*
X160736667Y-111893666D01*
X160884833Y-111893666D01*
X160884833Y-112031250D01*
G36*
X161223500Y-111364500D02*
X161361083Y-111364500D01*
X161361083Y-111459750D01*
X161223500Y-111459750D01*
X161223500Y-111681244D01*
X161223632Y-111761012D01*
X161224587Y-111822104D01*
X161227199Y-111867011D01*
X161232303Y-111898224D01*
X161240734Y-111918233D01*
X161253328Y-111929530D01*
X161270920Y-111934605D01*
X161294346Y-111935948D01*
X161308922Y-111936000D01*
X161361083Y-111936000D01*
X161361083Y-112031250D01*
X161279062Y-112030579D01*
X161236361Y-112029074D01*
X161199487Y-112025722D01*
X161175634Y-112021209D01*
X161173846Y-112020565D01*
X161151523Y-112005100D01*
X161131513Y-111982032D01*
X161125281Y-111970391D01*
X161120440Y-111954963D01*
X161116759Y-111932938D01*
X161114005Y-111901507D01*
X161111946Y-111857859D01*
X161110350Y-111799185D01*
X161108985Y-111722675D01*
X161108739Y-111706296D01*
X161105103Y-111459750D01*
X161001250Y-111459750D01*
X161001250Y-111364500D01*
X161107083Y-111364500D01*
X161107083Y-111174000D01*
X161223500Y-111174000D01*
X161223500Y-111364500D01*
X161223500Y-111364500D01*
G37*
X161223500Y-111364500D02*
X161361083Y-111364500D01*
X161361083Y-111459750D01*
X161223500Y-111459750D01*
X161223500Y-111681244D01*
X161223632Y-111761012D01*
X161224587Y-111822104D01*
X161227199Y-111867011D01*
X161232303Y-111898224D01*
X161240734Y-111918233D01*
X161253328Y-111929530D01*
X161270920Y-111934605D01*
X161294346Y-111935948D01*
X161308922Y-111936000D01*
X161361083Y-111936000D01*
X161361083Y-112031250D01*
X161279062Y-112030579D01*
X161236361Y-112029074D01*
X161199487Y-112025722D01*
X161175634Y-112021209D01*
X161173846Y-112020565D01*
X161151523Y-112005100D01*
X161131513Y-111982032D01*
X161125281Y-111970391D01*
X161120440Y-111954963D01*
X161116759Y-111932938D01*
X161114005Y-111901507D01*
X161111946Y-111857859D01*
X161110350Y-111799185D01*
X161108985Y-111722675D01*
X161108739Y-111706296D01*
X161105103Y-111459750D01*
X161001250Y-111459750D01*
X161001250Y-111364500D01*
X161107083Y-111364500D01*
X161107083Y-111174000D01*
X161223500Y-111174000D01*
X161223500Y-111364500D01*
G36*
X161826750Y-111466597D02*
X161763101Y-111478434D01*
X161701202Y-111496082D01*
X161654839Y-111524434D01*
X161619939Y-111566221D01*
X161612198Y-111579703D01*
X161603920Y-111596695D01*
X161597733Y-111614632D01*
X161593259Y-111636963D01*
X161590123Y-111667143D01*
X161587947Y-111708621D01*
X161586356Y-111764851D01*
X161585170Y-111827520D01*
X161581715Y-112031250D01*
X161466917Y-112031250D01*
X161466917Y-111364500D01*
X161571740Y-111364500D01*
X161574891Y-111430645D01*
X161578042Y-111496791D01*
X161603157Y-111456391D01*
X161646027Y-111406573D01*
X161701809Y-111373065D01*
X161767393Y-111357081D01*
X161826750Y-111350955D01*
X161826750Y-111466597D01*
X161826750Y-111466597D01*
G37*
X161826750Y-111466597D02*
X161763101Y-111478434D01*
X161701202Y-111496082D01*
X161654839Y-111524434D01*
X161619939Y-111566221D01*
X161612198Y-111579703D01*
X161603920Y-111596695D01*
X161597733Y-111614632D01*
X161593259Y-111636963D01*
X161590123Y-111667143D01*
X161587947Y-111708621D01*
X161586356Y-111764851D01*
X161585170Y-111827520D01*
X161581715Y-112031250D01*
X161466917Y-112031250D01*
X161466917Y-111364500D01*
X161571740Y-111364500D01*
X161574891Y-111430645D01*
X161578042Y-111496791D01*
X161603157Y-111456391D01*
X161646027Y-111406573D01*
X161701809Y-111373065D01*
X161767393Y-111357081D01*
X161826750Y-111350955D01*
X161826750Y-111466597D01*
G36*
X148563784Y-110137910D02*
X148591505Y-110142387D01*
X148612537Y-110152129D01*
X148628729Y-110164407D01*
X148655002Y-110191722D01*
X148680270Y-110225967D01*
X148686227Y-110235844D01*
X148694945Y-110257196D01*
X148708109Y-110297732D01*
X148725324Y-110356032D01*
X148746192Y-110430674D01*
X148770319Y-110520238D01*
X148797308Y-110623302D01*
X148826762Y-110738446D01*
X148830735Y-110754163D01*
X148860227Y-110870825D01*
X148885229Y-110968712D01*
X148906440Y-111049570D01*
X148924558Y-111115144D01*
X148940282Y-111167180D01*
X148954311Y-111207425D01*
X148967341Y-111237624D01*
X148980073Y-111259523D01*
X148993203Y-111274868D01*
X149007431Y-111285404D01*
X149023455Y-111292878D01*
X149041974Y-111299036D01*
X149049610Y-111301334D01*
X149111622Y-111310389D01*
X149169543Y-111300431D01*
X149219764Y-111272269D01*
X149232849Y-111260329D01*
X149241925Y-111250760D01*
X149250015Y-111240600D01*
X149257700Y-111227952D01*
X149265566Y-111210919D01*
X149274193Y-111187603D01*
X149284165Y-111156107D01*
X149296065Y-111114532D01*
X149310475Y-111060983D01*
X149327979Y-110993560D01*
X149349160Y-110910366D01*
X149374599Y-110809505D01*
X149389397Y-110750666D01*
X149414326Y-110652493D01*
X149438473Y-110559261D01*
X149461207Y-110473272D01*
X149481898Y-110396829D01*
X149499917Y-110332235D01*
X149514634Y-110281792D01*
X149525419Y-110247804D01*
X149530698Y-110234193D01*
X149552083Y-110199787D01*
X149577738Y-110169046D01*
X149585593Y-110161752D01*
X149603208Y-110148420D01*
X149620751Y-110140724D01*
X149644239Y-110137488D01*
X149679691Y-110137539D01*
X149704857Y-110138475D01*
X149749191Y-110140968D01*
X149778472Y-110145128D01*
X149798814Y-110152741D01*
X149816332Y-110165589D01*
X149824871Y-110173506D01*
X149851278Y-110205039D01*
X149878331Y-110250113D01*
X149906426Y-110309807D01*
X149935962Y-110385202D01*
X149967335Y-110477374D01*
X150000942Y-110587406D01*
X150037182Y-110716374D01*
X150069051Y-110836669D01*
X150095272Y-110937076D01*
X150117296Y-111019164D01*
X150135921Y-111085182D01*
X150151944Y-111137379D01*
X150166163Y-111178006D01*
X150179375Y-111209311D01*
X150192377Y-111233546D01*
X150205966Y-111252959D01*
X150220940Y-111269800D01*
X150223452Y-111272340D01*
X150245714Y-111292925D01*
X150268481Y-111309136D01*
X150294546Y-111321487D01*
X150326707Y-111330489D01*
X150367757Y-111336657D01*
X150420494Y-111340504D01*
X150487711Y-111342542D01*
X150572206Y-111343284D01*
X150610302Y-111343333D01*
X150862417Y-111343333D01*
X150862417Y-111724333D01*
X150596437Y-111724333D01*
X150511922Y-111724642D01*
X150441860Y-111724405D01*
X150384426Y-111721878D01*
X150337794Y-111715317D01*
X150300142Y-111702975D01*
X150269645Y-111683109D01*
X150244477Y-111653973D01*
X150222815Y-111613824D01*
X150202835Y-111560915D01*
X150182711Y-111493503D01*
X150160620Y-111409842D01*
X150134737Y-111308188D01*
X150126119Y-111274541D01*
X150087766Y-111129160D01*
X150052404Y-111003352D01*
X150019527Y-110895814D01*
X149988627Y-110805242D01*
X149959198Y-110730335D01*
X149930734Y-110669788D01*
X149902727Y-110622299D01*
X149874672Y-110586566D01*
X149849881Y-110564064D01*
X149791976Y-110531449D01*
X149728185Y-110513745D01*
X149663768Y-110511358D01*
X149603982Y-110524692D01*
X149569379Y-110542459D01*
X149550448Y-110556003D01*
X149533708Y-110570725D01*
X149518438Y-110588490D01*
X149503916Y-110611165D01*
X149489422Y-110640615D01*
X149474235Y-110678708D01*
X149457634Y-110727308D01*
X149438897Y-110788282D01*
X149417304Y-110863496D01*
X149392133Y-110954816D01*
X149362664Y-111064109D01*
X149351065Y-111107462D01*
X149319025Y-111227356D01*
X149291957Y-111328467D01*
X149269353Y-111412458D01*
X149250705Y-111480990D01*
X149235503Y-111535725D01*
X149223240Y-111578324D01*
X149213407Y-111610452D01*
X149205496Y-111633768D01*
X149198997Y-111649935D01*
X149193403Y-111660615D01*
X149188205Y-111667470D01*
X149182894Y-111672161D01*
X149177019Y-111676313D01*
X149143741Y-111689788D01*
X149103297Y-111692937D01*
X149064295Y-111686212D01*
X149035341Y-111670069D01*
X149034074Y-111668770D01*
X149026703Y-111656345D01*
X149016686Y-111631466D01*
X149003677Y-111592962D01*
X148987327Y-111539665D01*
X148967287Y-111470406D01*
X148943210Y-111384013D01*
X148914748Y-111279319D01*
X148884195Y-111165092D01*
X148851399Y-111042397D01*
X148823147Y-110938462D01*
X148798816Y-110851521D01*
X148777786Y-110779805D01*
X148759433Y-110721548D01*
X148743136Y-110674983D01*
X148728272Y-110638344D01*
X148714219Y-110609863D01*
X148700355Y-110587774D01*
X148686059Y-110570309D01*
X148670708Y-110555703D01*
X148669179Y-110554406D01*
X148616444Y-110523422D01*
X148554184Y-110509456D01*
X148486096Y-110512996D01*
X148441849Y-110524440D01*
X148406938Y-110538148D01*
X148375917Y-110555196D01*
X148347925Y-110577300D01*
X148322105Y-110606172D01*
X148297596Y-110643528D01*
X148273541Y-110691081D01*
X148249081Y-110750546D01*
X148223355Y-110823636D01*
X148195507Y-110912066D01*
X148164675Y-111017550D01*
X148130003Y-111141802D01*
X148126975Y-111152833D01*
X148096673Y-111263250D01*
X148071310Y-111355180D01*
X148050225Y-111430549D01*
X148032757Y-111491283D01*
X148018245Y-111539308D01*
X148006027Y-111576548D01*
X147995443Y-111604931D01*
X147985831Y-111626380D01*
X147976530Y-111642823D01*
X147966878Y-111656185D01*
X147956216Y-111668392D01*
X147946412Y-111678724D01*
X147902711Y-111724333D01*
X147348261Y-111724333D01*
X147351151Y-111536479D01*
X147354042Y-111348625D01*
X147618625Y-111343333D01*
X147700942Y-111341587D01*
X147765030Y-111339860D01*
X147813827Y-111337876D01*
X147850269Y-111335358D01*
X147877292Y-111332027D01*
X147897832Y-111327607D01*
X147914827Y-111321821D01*
X147931211Y-111314392D01*
X147932629Y-111313696D01*
X147989050Y-111274326D01*
X148032558Y-111218397D01*
X148051947Y-111177894D01*
X148058499Y-111158288D01*
X148069902Y-111120911D01*
X148085391Y-111068401D01*
X148104203Y-111003397D01*
X148125571Y-110928535D01*
X148148734Y-110846455D01*
X148169581Y-110771833D01*
X148206070Y-110641681D01*
X148238146Y-110530546D01*
X148266636Y-110436938D01*
X148292368Y-110359366D01*
X148316169Y-110296339D01*
X148338866Y-110246369D01*
X148361288Y-110207963D01*
X148384262Y-110179631D01*
X148408616Y-110159884D01*
X148435176Y-110147231D01*
X148464771Y-110140180D01*
X148498228Y-110137243D01*
X148522162Y-110136833D01*
X148563784Y-110137910D01*
X148563784Y-110137910D01*
G37*
X148563784Y-110137910D02*
X148591505Y-110142387D01*
X148612537Y-110152129D01*
X148628729Y-110164407D01*
X148655002Y-110191722D01*
X148680270Y-110225967D01*
X148686227Y-110235844D01*
X148694945Y-110257196D01*
X148708109Y-110297732D01*
X148725324Y-110356032D01*
X148746192Y-110430674D01*
X148770319Y-110520238D01*
X148797308Y-110623302D01*
X148826762Y-110738446D01*
X148830735Y-110754163D01*
X148860227Y-110870825D01*
X148885229Y-110968712D01*
X148906440Y-111049570D01*
X148924558Y-111115144D01*
X148940282Y-111167180D01*
X148954311Y-111207425D01*
X148967341Y-111237624D01*
X148980073Y-111259523D01*
X148993203Y-111274868D01*
X149007431Y-111285404D01*
X149023455Y-111292878D01*
X149041974Y-111299036D01*
X149049610Y-111301334D01*
X149111622Y-111310389D01*
X149169543Y-111300431D01*
X149219764Y-111272269D01*
X149232849Y-111260329D01*
X149241925Y-111250760D01*
X149250015Y-111240600D01*
X149257700Y-111227952D01*
X149265566Y-111210919D01*
X149274193Y-111187603D01*
X149284165Y-111156107D01*
X149296065Y-111114532D01*
X149310475Y-111060983D01*
X149327979Y-110993560D01*
X149349160Y-110910366D01*
X149374599Y-110809505D01*
X149389397Y-110750666D01*
X149414326Y-110652493D01*
X149438473Y-110559261D01*
X149461207Y-110473272D01*
X149481898Y-110396829D01*
X149499917Y-110332235D01*
X149514634Y-110281792D01*
X149525419Y-110247804D01*
X149530698Y-110234193D01*
X149552083Y-110199787D01*
X149577738Y-110169046D01*
X149585593Y-110161752D01*
X149603208Y-110148420D01*
X149620751Y-110140724D01*
X149644239Y-110137488D01*
X149679691Y-110137539D01*
X149704857Y-110138475D01*
X149749191Y-110140968D01*
X149778472Y-110145128D01*
X149798814Y-110152741D01*
X149816332Y-110165589D01*
X149824871Y-110173506D01*
X149851278Y-110205039D01*
X149878331Y-110250113D01*
X149906426Y-110309807D01*
X149935962Y-110385202D01*
X149967335Y-110477374D01*
X150000942Y-110587406D01*
X150037182Y-110716374D01*
X150069051Y-110836669D01*
X150095272Y-110937076D01*
X150117296Y-111019164D01*
X150135921Y-111085182D01*
X150151944Y-111137379D01*
X150166163Y-111178006D01*
X150179375Y-111209311D01*
X150192377Y-111233546D01*
X150205966Y-111252959D01*
X150220940Y-111269800D01*
X150223452Y-111272340D01*
X150245714Y-111292925D01*
X150268481Y-111309136D01*
X150294546Y-111321487D01*
X150326707Y-111330489D01*
X150367757Y-111336657D01*
X150420494Y-111340504D01*
X150487711Y-111342542D01*
X150572206Y-111343284D01*
X150610302Y-111343333D01*
X150862417Y-111343333D01*
X150862417Y-111724333D01*
X150596437Y-111724333D01*
X150511922Y-111724642D01*
X150441860Y-111724405D01*
X150384426Y-111721878D01*
X150337794Y-111715317D01*
X150300142Y-111702975D01*
X150269645Y-111683109D01*
X150244477Y-111653973D01*
X150222815Y-111613824D01*
X150202835Y-111560915D01*
X150182711Y-111493503D01*
X150160620Y-111409842D01*
X150134737Y-111308188D01*
X150126119Y-111274541D01*
X150087766Y-111129160D01*
X150052404Y-111003352D01*
X150019527Y-110895814D01*
X149988627Y-110805242D01*
X149959198Y-110730335D01*
X149930734Y-110669788D01*
X149902727Y-110622299D01*
X149874672Y-110586566D01*
X149849881Y-110564064D01*
X149791976Y-110531449D01*
X149728185Y-110513745D01*
X149663768Y-110511358D01*
X149603982Y-110524692D01*
X149569379Y-110542459D01*
X149550448Y-110556003D01*
X149533708Y-110570725D01*
X149518438Y-110588490D01*
X149503916Y-110611165D01*
X149489422Y-110640615D01*
X149474235Y-110678708D01*
X149457634Y-110727308D01*
X149438897Y-110788282D01*
X149417304Y-110863496D01*
X149392133Y-110954816D01*
X149362664Y-111064109D01*
X149351065Y-111107462D01*
X149319025Y-111227356D01*
X149291957Y-111328467D01*
X149269353Y-111412458D01*
X149250705Y-111480990D01*
X149235503Y-111535725D01*
X149223240Y-111578324D01*
X149213407Y-111610452D01*
X149205496Y-111633768D01*
X149198997Y-111649935D01*
X149193403Y-111660615D01*
X149188205Y-111667470D01*
X149182894Y-111672161D01*
X149177019Y-111676313D01*
X149143741Y-111689788D01*
X149103297Y-111692937D01*
X149064295Y-111686212D01*
X149035341Y-111670069D01*
X149034074Y-111668770D01*
X149026703Y-111656345D01*
X149016686Y-111631466D01*
X149003677Y-111592962D01*
X148987327Y-111539665D01*
X148967287Y-111470406D01*
X148943210Y-111384013D01*
X148914748Y-111279319D01*
X148884195Y-111165092D01*
X148851399Y-111042397D01*
X148823147Y-110938462D01*
X148798816Y-110851521D01*
X148777786Y-110779805D01*
X148759433Y-110721548D01*
X148743136Y-110674983D01*
X148728272Y-110638344D01*
X148714219Y-110609863D01*
X148700355Y-110587774D01*
X148686059Y-110570309D01*
X148670708Y-110555703D01*
X148669179Y-110554406D01*
X148616444Y-110523422D01*
X148554184Y-110509456D01*
X148486096Y-110512996D01*
X148441849Y-110524440D01*
X148406938Y-110538148D01*
X148375917Y-110555196D01*
X148347925Y-110577300D01*
X148322105Y-110606172D01*
X148297596Y-110643528D01*
X148273541Y-110691081D01*
X148249081Y-110750546D01*
X148223355Y-110823636D01*
X148195507Y-110912066D01*
X148164675Y-111017550D01*
X148130003Y-111141802D01*
X148126975Y-111152833D01*
X148096673Y-111263250D01*
X148071310Y-111355180D01*
X148050225Y-111430549D01*
X148032757Y-111491283D01*
X148018245Y-111539308D01*
X148006027Y-111576548D01*
X147995443Y-111604931D01*
X147985831Y-111626380D01*
X147976530Y-111642823D01*
X147966878Y-111656185D01*
X147956216Y-111668392D01*
X147946412Y-111678724D01*
X147902711Y-111724333D01*
X147348261Y-111724333D01*
X147351151Y-111536479D01*
X147354042Y-111348625D01*
X147618625Y-111343333D01*
X147700942Y-111341587D01*
X147765030Y-111339860D01*
X147813827Y-111337876D01*
X147850269Y-111335358D01*
X147877292Y-111332027D01*
X147897832Y-111327607D01*
X147914827Y-111321821D01*
X147931211Y-111314392D01*
X147932629Y-111313696D01*
X147989050Y-111274326D01*
X148032558Y-111218397D01*
X148051947Y-111177894D01*
X148058499Y-111158288D01*
X148069902Y-111120911D01*
X148085391Y-111068401D01*
X148104203Y-111003397D01*
X148125571Y-110928535D01*
X148148734Y-110846455D01*
X148169581Y-110771833D01*
X148206070Y-110641681D01*
X148238146Y-110530546D01*
X148266636Y-110436938D01*
X148292368Y-110359366D01*
X148316169Y-110296339D01*
X148338866Y-110246369D01*
X148361288Y-110207963D01*
X148384262Y-110179631D01*
X148408616Y-110159884D01*
X148435176Y-110147231D01*
X148464771Y-110140180D01*
X148498228Y-110137243D01*
X148522162Y-110136833D01*
X148563784Y-110137910D01*
G36*
X155265083Y-111248083D02*
X155148667Y-111248083D01*
X155148667Y-111110500D01*
X155265083Y-111110500D01*
X155265083Y-111248083D01*
X155265083Y-111248083D01*
G37*
X155265083Y-111248083D02*
X155148667Y-111248083D01*
X155148667Y-111110500D01*
X155265083Y-111110500D01*
X155265083Y-111248083D01*
G36*
X148555142Y-109538840D02*
X148602139Y-109550257D01*
X148624224Y-109561134D01*
X148638096Y-109572126D01*
X148651316Y-109587371D01*
X148664452Y-109608551D01*
X148678075Y-109637349D01*
X148692754Y-109675447D01*
X148709056Y-109724530D01*
X148727553Y-109786279D01*
X148748814Y-109862378D01*
X148773407Y-109954509D01*
X148801901Y-110064355D01*
X148824895Y-110154344D01*
X148849821Y-110251432D01*
X148873733Y-110342879D01*
X148896028Y-110426494D01*
X148916103Y-110500088D01*
X148933353Y-110561471D01*
X148947176Y-110608455D01*
X148956966Y-110638850D01*
X148961502Y-110649768D01*
X148996376Y-110684180D01*
X149046028Y-110705496D01*
X149105583Y-110712540D01*
X149167732Y-110705048D01*
X149215722Y-110682269D01*
X149250492Y-110643752D01*
X149251284Y-110642444D01*
X149258155Y-110625172D01*
X149269516Y-110589615D01*
X149284738Y-110538023D01*
X149303195Y-110472649D01*
X149324257Y-110395745D01*
X149347298Y-110309563D01*
X149371688Y-110216355D01*
X149390500Y-110143151D01*
X149415484Y-110046008D01*
X149439541Y-109954072D01*
X149462045Y-109869615D01*
X149482375Y-109794909D01*
X149499904Y-109732227D01*
X149514010Y-109683841D01*
X149524068Y-109652024D01*
X149528558Y-109640443D01*
X149549852Y-109607370D01*
X149576919Y-109575219D01*
X149581571Y-109570625D01*
X149601367Y-109553598D01*
X149620204Y-109544197D01*
X149645256Y-109540350D01*
X149683697Y-109539987D01*
X149687517Y-109540046D01*
X149751418Y-109546582D01*
X149800569Y-109565016D01*
X149838798Y-109597103D01*
X149853125Y-109615971D01*
X149871632Y-109647798D01*
X149891685Y-109691114D01*
X149913758Y-109747312D01*
X149938323Y-109817786D01*
X149965852Y-109903926D01*
X149996817Y-110007128D01*
X150031691Y-110128784D01*
X150053737Y-110207779D01*
X150082793Y-110312281D01*
X150107140Y-110398444D01*
X150127528Y-110468381D01*
X150144706Y-110524206D01*
X150159421Y-110568031D01*
X150172423Y-110601969D01*
X150184460Y-110628132D01*
X150196282Y-110648633D01*
X150208638Y-110665586D01*
X150221029Y-110679765D01*
X150239737Y-110698524D01*
X150258868Y-110713370D01*
X150281148Y-110724825D01*
X150309304Y-110733408D01*
X150346061Y-110739640D01*
X150394148Y-110744041D01*
X150456291Y-110747132D01*
X150535216Y-110749433D01*
X150592542Y-110750666D01*
X150857125Y-110755958D01*
X150862905Y-111131666D01*
X150595432Y-111131627D01*
X150505988Y-111131443D01*
X150435086Y-111130501D01*
X150380099Y-111128170D01*
X150338401Y-111123820D01*
X150307369Y-111116821D01*
X150284375Y-111106542D01*
X150266794Y-111092354D01*
X150252001Y-111073625D01*
X150237371Y-111049726D01*
X150234661Y-111045017D01*
X150225269Y-111023192D01*
X150211268Y-110983144D01*
X150193353Y-110927143D01*
X150172218Y-110857458D01*
X150148556Y-110776357D01*
X150123063Y-110686112D01*
X150106351Y-110625498D01*
X150077330Y-110519569D01*
X150052968Y-110431626D01*
X150032459Y-110359206D01*
X150014999Y-110299846D01*
X149999780Y-110251082D01*
X149985999Y-110210451D01*
X149972849Y-110175490D01*
X149959526Y-110143736D01*
X149945225Y-110112725D01*
X149929138Y-110079994D01*
X149925866Y-110073481D01*
X149886783Y-110010309D01*
X149841018Y-109965249D01*
X149785279Y-109935517D01*
X149750061Y-109924901D01*
X149676770Y-109916289D01*
X149610926Y-109926805D01*
X149553956Y-109955894D01*
X149507287Y-110003001D01*
X149492811Y-110025066D01*
X149482445Y-110048002D01*
X149468118Y-110088371D01*
X149449672Y-110146703D01*
X149426950Y-110223531D01*
X149399795Y-110319386D01*
X149368048Y-110434798D01*
X149333592Y-110562672D01*
X149301914Y-110681111D01*
X149275052Y-110780738D01*
X149252306Y-110863177D01*
X149232976Y-110930054D01*
X149216364Y-110982990D01*
X149201770Y-111023612D01*
X149188494Y-111053542D01*
X149175837Y-111074405D01*
X149163099Y-111087825D01*
X149149581Y-111095426D01*
X149134583Y-111098832D01*
X149117406Y-111099666D01*
X149102347Y-111099580D01*
X149059072Y-111093798D01*
X149029376Y-111075419D01*
X149013217Y-111052291D01*
X149008125Y-111037646D01*
X148998329Y-111004847D01*
X148984475Y-110956221D01*
X148967208Y-110894095D01*
X148947173Y-110820794D01*
X148925013Y-110738645D01*
X148901375Y-110649974D01*
X148894413Y-110623666D01*
X148862824Y-110504191D01*
X148836058Y-110403354D01*
X148813556Y-110319323D01*
X148794755Y-110250266D01*
X148779097Y-110194350D01*
X148766019Y-110149744D01*
X148754962Y-110114616D01*
X148745364Y-110087132D01*
X148736665Y-110065461D01*
X148728305Y-110047772D01*
X148719722Y-110032230D01*
X148710357Y-110017006D01*
X148707307Y-110012220D01*
X148664240Y-109961111D01*
X148612339Y-109928959D01*
X148551203Y-109915640D01*
X148480430Y-109921031D01*
X148441256Y-109930719D01*
X148407759Y-109942153D01*
X148378019Y-109956377D01*
X148351229Y-109975029D01*
X148326581Y-109999745D01*
X148303268Y-110032164D01*
X148280482Y-110073923D01*
X148257415Y-110126659D01*
X148233261Y-110192010D01*
X148207212Y-110271615D01*
X148178459Y-110367109D01*
X148146197Y-110480131D01*
X148115215Y-110591916D01*
X148091565Y-110677642D01*
X148069209Y-110757993D01*
X148048874Y-110830409D01*
X148031285Y-110892332D01*
X148017169Y-110941203D01*
X148007252Y-110974464D01*
X148002574Y-110988791D01*
X147970530Y-111050508D01*
X147929438Y-111095625D01*
X147908226Y-111110008D01*
X147894952Y-111116775D01*
X147880316Y-111121969D01*
X147861467Y-111125797D01*
X147835556Y-111128465D01*
X147799733Y-111130180D01*
X147751148Y-111131148D01*
X147686951Y-111131574D01*
X147609002Y-111131666D01*
X147348261Y-111131666D01*
X147351151Y-110943812D01*
X147354042Y-110755958D01*
X147618625Y-110750666D01*
X147707757Y-110748656D01*
X147778536Y-110746229D01*
X147833775Y-110742838D01*
X147876289Y-110737934D01*
X147908890Y-110730970D01*
X147934392Y-110721396D01*
X147955608Y-110708665D01*
X147975352Y-110692229D01*
X147989654Y-110678376D01*
X148011769Y-110651962D01*
X148033413Y-110616695D01*
X148055180Y-110570895D01*
X148077662Y-110512882D01*
X148101450Y-110440976D01*
X148127136Y-110353497D01*
X148155314Y-110248766D01*
X148186575Y-110125103D01*
X148190915Y-110107471D01*
X148222892Y-109981494D01*
X148252428Y-109874921D01*
X148280231Y-109786224D01*
X148307010Y-109713876D01*
X148333473Y-109656350D01*
X148360329Y-109612118D01*
X148388287Y-109579653D01*
X148418055Y-109557429D01*
X148450342Y-109543916D01*
X148452680Y-109543267D01*
X148502398Y-109536205D01*
X148555142Y-109538840D01*
X148555142Y-109538840D01*
G37*
X148555142Y-109538840D02*
X148602139Y-109550257D01*
X148624224Y-109561134D01*
X148638096Y-109572126D01*
X148651316Y-109587371D01*
X148664452Y-109608551D01*
X148678075Y-109637349D01*
X148692754Y-109675447D01*
X148709056Y-109724530D01*
X148727553Y-109786279D01*
X148748814Y-109862378D01*
X148773407Y-109954509D01*
X148801901Y-110064355D01*
X148824895Y-110154344D01*
X148849821Y-110251432D01*
X148873733Y-110342879D01*
X148896028Y-110426494D01*
X148916103Y-110500088D01*
X148933353Y-110561471D01*
X148947176Y-110608455D01*
X148956966Y-110638850D01*
X148961502Y-110649768D01*
X148996376Y-110684180D01*
X149046028Y-110705496D01*
X149105583Y-110712540D01*
X149167732Y-110705048D01*
X149215722Y-110682269D01*
X149250492Y-110643752D01*
X149251284Y-110642444D01*
X149258155Y-110625172D01*
X149269516Y-110589615D01*
X149284738Y-110538023D01*
X149303195Y-110472649D01*
X149324257Y-110395745D01*
X149347298Y-110309563D01*
X149371688Y-110216355D01*
X149390500Y-110143151D01*
X149415484Y-110046008D01*
X149439541Y-109954072D01*
X149462045Y-109869615D01*
X149482375Y-109794909D01*
X149499904Y-109732227D01*
X149514010Y-109683841D01*
X149524068Y-109652024D01*
X149528558Y-109640443D01*
X149549852Y-109607370D01*
X149576919Y-109575219D01*
X149581571Y-109570625D01*
X149601367Y-109553598D01*
X149620204Y-109544197D01*
X149645256Y-109540350D01*
X149683697Y-109539987D01*
X149687517Y-109540046D01*
X149751418Y-109546582D01*
X149800569Y-109565016D01*
X149838798Y-109597103D01*
X149853125Y-109615971D01*
X149871632Y-109647798D01*
X149891685Y-109691114D01*
X149913758Y-109747312D01*
X149938323Y-109817786D01*
X149965852Y-109903926D01*
X149996817Y-110007128D01*
X150031691Y-110128784D01*
X150053737Y-110207779D01*
X150082793Y-110312281D01*
X150107140Y-110398444D01*
X150127528Y-110468381D01*
X150144706Y-110524206D01*
X150159421Y-110568031D01*
X150172423Y-110601969D01*
X150184460Y-110628132D01*
X150196282Y-110648633D01*
X150208638Y-110665586D01*
X150221029Y-110679765D01*
X150239737Y-110698524D01*
X150258868Y-110713370D01*
X150281148Y-110724825D01*
X150309304Y-110733408D01*
X150346061Y-110739640D01*
X150394148Y-110744041D01*
X150456291Y-110747132D01*
X150535216Y-110749433D01*
X150592542Y-110750666D01*
X150857125Y-110755958D01*
X150862905Y-111131666D01*
X150595432Y-111131627D01*
X150505988Y-111131443D01*
X150435086Y-111130501D01*
X150380099Y-111128170D01*
X150338401Y-111123820D01*
X150307369Y-111116821D01*
X150284375Y-111106542D01*
X150266794Y-111092354D01*
X150252001Y-111073625D01*
X150237371Y-111049726D01*
X150234661Y-111045017D01*
X150225269Y-111023192D01*
X150211268Y-110983144D01*
X150193353Y-110927143D01*
X150172218Y-110857458D01*
X150148556Y-110776357D01*
X150123063Y-110686112D01*
X150106351Y-110625498D01*
X150077330Y-110519569D01*
X150052968Y-110431626D01*
X150032459Y-110359206D01*
X150014999Y-110299846D01*
X149999780Y-110251082D01*
X149985999Y-110210451D01*
X149972849Y-110175490D01*
X149959526Y-110143736D01*
X149945225Y-110112725D01*
X149929138Y-110079994D01*
X149925866Y-110073481D01*
X149886783Y-110010309D01*
X149841018Y-109965249D01*
X149785279Y-109935517D01*
X149750061Y-109924901D01*
X149676770Y-109916289D01*
X149610926Y-109926805D01*
X149553956Y-109955894D01*
X149507287Y-110003001D01*
X149492811Y-110025066D01*
X149482445Y-110048002D01*
X149468118Y-110088371D01*
X149449672Y-110146703D01*
X149426950Y-110223531D01*
X149399795Y-110319386D01*
X149368048Y-110434798D01*
X149333592Y-110562672D01*
X149301914Y-110681111D01*
X149275052Y-110780738D01*
X149252306Y-110863177D01*
X149232976Y-110930054D01*
X149216364Y-110982990D01*
X149201770Y-111023612D01*
X149188494Y-111053542D01*
X149175837Y-111074405D01*
X149163099Y-111087825D01*
X149149581Y-111095426D01*
X149134583Y-111098832D01*
X149117406Y-111099666D01*
X149102347Y-111099580D01*
X149059072Y-111093798D01*
X149029376Y-111075419D01*
X149013217Y-111052291D01*
X149008125Y-111037646D01*
X148998329Y-111004847D01*
X148984475Y-110956221D01*
X148967208Y-110894095D01*
X148947173Y-110820794D01*
X148925013Y-110738645D01*
X148901375Y-110649974D01*
X148894413Y-110623666D01*
X148862824Y-110504191D01*
X148836058Y-110403354D01*
X148813556Y-110319323D01*
X148794755Y-110250266D01*
X148779097Y-110194350D01*
X148766019Y-110149744D01*
X148754962Y-110114616D01*
X148745364Y-110087132D01*
X148736665Y-110065461D01*
X148728305Y-110047772D01*
X148719722Y-110032230D01*
X148710357Y-110017006D01*
X148707307Y-110012220D01*
X148664240Y-109961111D01*
X148612339Y-109928959D01*
X148551203Y-109915640D01*
X148480430Y-109921031D01*
X148441256Y-109930719D01*
X148407759Y-109942153D01*
X148378019Y-109956377D01*
X148351229Y-109975029D01*
X148326581Y-109999745D01*
X148303268Y-110032164D01*
X148280482Y-110073923D01*
X148257415Y-110126659D01*
X148233261Y-110192010D01*
X148207212Y-110271615D01*
X148178459Y-110367109D01*
X148146197Y-110480131D01*
X148115215Y-110591916D01*
X148091565Y-110677642D01*
X148069209Y-110757993D01*
X148048874Y-110830409D01*
X148031285Y-110892332D01*
X148017169Y-110941203D01*
X148007252Y-110974464D01*
X148002574Y-110988791D01*
X147970530Y-111050508D01*
X147929438Y-111095625D01*
X147908226Y-111110008D01*
X147894952Y-111116775D01*
X147880316Y-111121969D01*
X147861467Y-111125797D01*
X147835556Y-111128465D01*
X147799733Y-111130180D01*
X147751148Y-111131148D01*
X147686951Y-111131574D01*
X147609002Y-111131666D01*
X147348261Y-111131666D01*
X147351151Y-110943812D01*
X147354042Y-110755958D01*
X147618625Y-110750666D01*
X147707757Y-110748656D01*
X147778536Y-110746229D01*
X147833775Y-110742838D01*
X147876289Y-110737934D01*
X147908890Y-110730970D01*
X147934392Y-110721396D01*
X147955608Y-110708665D01*
X147975352Y-110692229D01*
X147989654Y-110678376D01*
X148011769Y-110651962D01*
X148033413Y-110616695D01*
X148055180Y-110570895D01*
X148077662Y-110512882D01*
X148101450Y-110440976D01*
X148127136Y-110353497D01*
X148155314Y-110248766D01*
X148186575Y-110125103D01*
X148190915Y-110107471D01*
X148222892Y-109981494D01*
X148252428Y-109874921D01*
X148280231Y-109786224D01*
X148307010Y-109713876D01*
X148333473Y-109656350D01*
X148360329Y-109612118D01*
X148388287Y-109579653D01*
X148418055Y-109557429D01*
X148450342Y-109543916D01*
X148452680Y-109543267D01*
X148502398Y-109536205D01*
X148555142Y-109538840D01*
G36*
X152733843Y-109823795D02*
X152797611Y-109842049D01*
X152847541Y-109876187D01*
X152848798Y-109877431D01*
X152883833Y-109912466D01*
X152883833Y-109829916D01*
X152989667Y-109829916D01*
X152989667Y-110156234D01*
X152989379Y-110263515D01*
X152988333Y-110352030D01*
X152986252Y-110424173D01*
X152982860Y-110482340D01*
X152977882Y-110528925D01*
X152971041Y-110566323D01*
X152962062Y-110596929D01*
X152950669Y-110623139D01*
X152936587Y-110647346D01*
X152932358Y-110653745D01*
X152894868Y-110697891D01*
X152849217Y-110728827D01*
X152791880Y-110748137D01*
X152719334Y-110757406D01*
X152699727Y-110758298D01*
X152645860Y-110758851D01*
X152605845Y-110755767D01*
X152572548Y-110748196D01*
X152551449Y-110740593D01*
X152499265Y-110712800D01*
X152455655Y-110676544D01*
X152424240Y-110635822D01*
X152408643Y-110594630D01*
X152407583Y-110581858D01*
X152410362Y-110568616D01*
X152422260Y-110562187D01*
X152448615Y-110560275D01*
X152457854Y-110560233D01*
X152489942Y-110561903D01*
X152508861Y-110569211D01*
X152522512Y-110585763D01*
X152525724Y-110591235D01*
X152557274Y-110626721D01*
X152601685Y-110650452D01*
X152654045Y-110662172D01*
X152709442Y-110661624D01*
X152762966Y-110648553D01*
X152809706Y-110622701D01*
X152827086Y-110606969D01*
X152855051Y-110564652D01*
X152874600Y-110508900D01*
X152883518Y-110446514D01*
X152883833Y-110432645D01*
X152883833Y-110401416D01*
X152843892Y-110441358D01*
X152791329Y-110479804D01*
X152729872Y-110501847D01*
X152663616Y-110507798D01*
X152596652Y-110497968D01*
X152533072Y-110472669D01*
X152476970Y-110432212D01*
X152457621Y-110411950D01*
X152420630Y-110359115D01*
X152396737Y-110300328D01*
X152384525Y-110230917D01*
X152382247Y-110163870D01*
X152501249Y-110163870D01*
X152508165Y-110244123D01*
X152527801Y-110309699D01*
X152559215Y-110359655D01*
X152601466Y-110393048D01*
X152653611Y-110408933D01*
X152714710Y-110406367D01*
X152737790Y-110401004D01*
X152777006Y-110380848D01*
X152814309Y-110345684D01*
X152844564Y-110301426D01*
X152861566Y-110258527D01*
X152870820Y-110200137D01*
X152872455Y-110135696D01*
X152866533Y-110075401D01*
X152860275Y-110048356D01*
X152834098Y-109993924D01*
X152794288Y-109952700D01*
X152744640Y-109926608D01*
X152688950Y-109917572D01*
X152631014Y-109927516D01*
X152625692Y-109929456D01*
X152575121Y-109956566D01*
X152538539Y-109994994D01*
X152514880Y-110046748D01*
X152503079Y-110113837D01*
X152501249Y-110163870D01*
X152382247Y-110163870D01*
X152382227Y-110163291D01*
X152391056Y-110070238D01*
X152414743Y-109990448D01*
X152452536Y-109924859D01*
X152503685Y-109874405D01*
X152567439Y-109840022D01*
X152643048Y-109822647D01*
X152656459Y-109821489D01*
X152733843Y-109823795D01*
X152733843Y-109823795D01*
G37*
X152733843Y-109823795D02*
X152797611Y-109842049D01*
X152847541Y-109876187D01*
X152848798Y-109877431D01*
X152883833Y-109912466D01*
X152883833Y-109829916D01*
X152989667Y-109829916D01*
X152989667Y-110156234D01*
X152989379Y-110263515D01*
X152988333Y-110352030D01*
X152986252Y-110424173D01*
X152982860Y-110482340D01*
X152977882Y-110528925D01*
X152971041Y-110566323D01*
X152962062Y-110596929D01*
X152950669Y-110623139D01*
X152936587Y-110647346D01*
X152932358Y-110653745D01*
X152894868Y-110697891D01*
X152849217Y-110728827D01*
X152791880Y-110748137D01*
X152719334Y-110757406D01*
X152699727Y-110758298D01*
X152645860Y-110758851D01*
X152605845Y-110755767D01*
X152572548Y-110748196D01*
X152551449Y-110740593D01*
X152499265Y-110712800D01*
X152455655Y-110676544D01*
X152424240Y-110635822D01*
X152408643Y-110594630D01*
X152407583Y-110581858D01*
X152410362Y-110568616D01*
X152422260Y-110562187D01*
X152448615Y-110560275D01*
X152457854Y-110560233D01*
X152489942Y-110561903D01*
X152508861Y-110569211D01*
X152522512Y-110585763D01*
X152525724Y-110591235D01*
X152557274Y-110626721D01*
X152601685Y-110650452D01*
X152654045Y-110662172D01*
X152709442Y-110661624D01*
X152762966Y-110648553D01*
X152809706Y-110622701D01*
X152827086Y-110606969D01*
X152855051Y-110564652D01*
X152874600Y-110508900D01*
X152883518Y-110446514D01*
X152883833Y-110432645D01*
X152883833Y-110401416D01*
X152843892Y-110441358D01*
X152791329Y-110479804D01*
X152729872Y-110501847D01*
X152663616Y-110507798D01*
X152596652Y-110497968D01*
X152533072Y-110472669D01*
X152476970Y-110432212D01*
X152457621Y-110411950D01*
X152420630Y-110359115D01*
X152396737Y-110300328D01*
X152384525Y-110230917D01*
X152382247Y-110163870D01*
X152501249Y-110163870D01*
X152508165Y-110244123D01*
X152527801Y-110309699D01*
X152559215Y-110359655D01*
X152601466Y-110393048D01*
X152653611Y-110408933D01*
X152714710Y-110406367D01*
X152737790Y-110401004D01*
X152777006Y-110380848D01*
X152814309Y-110345684D01*
X152844564Y-110301426D01*
X152861566Y-110258527D01*
X152870820Y-110200137D01*
X152872455Y-110135696D01*
X152866533Y-110075401D01*
X152860275Y-110048356D01*
X152834098Y-109993924D01*
X152794288Y-109952700D01*
X152744640Y-109926608D01*
X152688950Y-109917572D01*
X152631014Y-109927516D01*
X152625692Y-109929456D01*
X152575121Y-109956566D01*
X152538539Y-109994994D01*
X152514880Y-110046748D01*
X152503079Y-110113837D01*
X152501249Y-110163870D01*
X152382247Y-110163870D01*
X152382227Y-110163291D01*
X152391056Y-110070238D01*
X152414743Y-109990448D01*
X152452536Y-109924859D01*
X152503685Y-109874405D01*
X152567439Y-109840022D01*
X152643048Y-109822647D01*
X152656459Y-109821489D01*
X152733843Y-109823795D01*
G36*
X151695335Y-109569489D02*
X151777254Y-109586842D01*
X151845609Y-109619382D01*
X151899675Y-109666638D01*
X151938722Y-109728136D01*
X151961922Y-109802843D01*
X151970934Y-109851083D01*
X151909978Y-109851083D01*
X151875604Y-109850546D01*
X151856753Y-109847017D01*
X151847783Y-109837619D01*
X151843051Y-109819474D01*
X151842522Y-109816687D01*
X151822253Y-109758695D01*
X151786208Y-109714650D01*
X151734745Y-109684797D01*
X151668224Y-109669382D01*
X151624417Y-109667149D01*
X151550248Y-109673600D01*
X151493002Y-109692580D01*
X151452754Y-109724030D01*
X151429583Y-109767893D01*
X151423373Y-109814691D01*
X151427395Y-109849042D01*
X151441044Y-109877368D01*
X151466589Y-109901203D01*
X151506301Y-109922078D01*
X151562448Y-109941524D01*
X151637301Y-109961074D01*
X151641896Y-109962157D01*
X151734860Y-109985455D01*
X151809257Y-110007840D01*
X151867574Y-110030610D01*
X151912295Y-110055062D01*
X151945906Y-110082491D01*
X151970892Y-110114194D01*
X151985384Y-110141376D01*
X152000860Y-110195764D01*
X152004120Y-110257417D01*
X151995153Y-110316604D01*
X151985638Y-110343208D01*
X151950787Y-110397221D01*
X151900710Y-110444943D01*
X151841325Y-110481032D01*
X151825617Y-110487649D01*
X151763090Y-110504585D01*
X151689091Y-110513777D01*
X151611737Y-110515011D01*
X151539143Y-110508072D01*
X151490014Y-110496514D01*
X151446204Y-110478880D01*
X151402817Y-110456171D01*
X151378999Y-110440429D01*
X151338368Y-110399063D01*
X151303398Y-110344152D01*
X151278338Y-110283270D01*
X151269559Y-110245312D01*
X151262723Y-110200333D01*
X151391583Y-110200333D01*
X151391583Y-110232608D01*
X151402112Y-110282704D01*
X151433548Y-110331200D01*
X151458926Y-110356391D01*
X151502056Y-110386921D01*
X151551111Y-110405964D01*
X151611277Y-110415052D01*
X151661458Y-110416328D01*
X151736220Y-110409014D01*
X151796373Y-110389168D01*
X151840835Y-110357563D01*
X151868527Y-110314977D01*
X151878369Y-110262184D01*
X151878377Y-110260661D01*
X151873453Y-110219368D01*
X151857329Y-110184662D01*
X151828110Y-110155219D01*
X151783900Y-110129718D01*
X151722805Y-110106835D01*
X151642928Y-110085249D01*
X151619125Y-110079748D01*
X151543238Y-110061769D01*
X151484582Y-110045523D01*
X151439444Y-110029694D01*
X151404110Y-110012964D01*
X151374866Y-109994016D01*
X151372637Y-109992333D01*
X151331500Y-109948534D01*
X151306192Y-109894635D01*
X151296862Y-109834750D01*
X151303658Y-109772998D01*
X151326729Y-109713493D01*
X151360879Y-109665965D01*
X151413941Y-109620884D01*
X151478071Y-109589978D01*
X151555978Y-109572141D01*
X151600580Y-109567798D01*
X151695335Y-109569489D01*
X151695335Y-109569489D01*
G37*
X151695335Y-109569489D02*
X151777254Y-109586842D01*
X151845609Y-109619382D01*
X151899675Y-109666638D01*
X151938722Y-109728136D01*
X151961922Y-109802843D01*
X151970934Y-109851083D01*
X151909978Y-109851083D01*
X151875604Y-109850546D01*
X151856753Y-109847017D01*
X151847783Y-109837619D01*
X151843051Y-109819474D01*
X151842522Y-109816687D01*
X151822253Y-109758695D01*
X151786208Y-109714650D01*
X151734745Y-109684797D01*
X151668224Y-109669382D01*
X151624417Y-109667149D01*
X151550248Y-109673600D01*
X151493002Y-109692580D01*
X151452754Y-109724030D01*
X151429583Y-109767893D01*
X151423373Y-109814691D01*
X151427395Y-109849042D01*
X151441044Y-109877368D01*
X151466589Y-109901203D01*
X151506301Y-109922078D01*
X151562448Y-109941524D01*
X151637301Y-109961074D01*
X151641896Y-109962157D01*
X151734860Y-109985455D01*
X151809257Y-110007840D01*
X151867574Y-110030610D01*
X151912295Y-110055062D01*
X151945906Y-110082491D01*
X151970892Y-110114194D01*
X151985384Y-110141376D01*
X152000860Y-110195764D01*
X152004120Y-110257417D01*
X151995153Y-110316604D01*
X151985638Y-110343208D01*
X151950787Y-110397221D01*
X151900710Y-110444943D01*
X151841325Y-110481032D01*
X151825617Y-110487649D01*
X151763090Y-110504585D01*
X151689091Y-110513777D01*
X151611737Y-110515011D01*
X151539143Y-110508072D01*
X151490014Y-110496514D01*
X151446204Y-110478880D01*
X151402817Y-110456171D01*
X151378999Y-110440429D01*
X151338368Y-110399063D01*
X151303398Y-110344152D01*
X151278338Y-110283270D01*
X151269559Y-110245312D01*
X151262723Y-110200333D01*
X151391583Y-110200333D01*
X151391583Y-110232608D01*
X151402112Y-110282704D01*
X151433548Y-110331200D01*
X151458926Y-110356391D01*
X151502056Y-110386921D01*
X151551111Y-110405964D01*
X151611277Y-110415052D01*
X151661458Y-110416328D01*
X151736220Y-110409014D01*
X151796373Y-110389168D01*
X151840835Y-110357563D01*
X151868527Y-110314977D01*
X151878369Y-110262184D01*
X151878377Y-110260661D01*
X151873453Y-110219368D01*
X151857329Y-110184662D01*
X151828110Y-110155219D01*
X151783900Y-110129718D01*
X151722805Y-110106835D01*
X151642928Y-110085249D01*
X151619125Y-110079748D01*
X151543238Y-110061769D01*
X151484582Y-110045523D01*
X151439444Y-110029694D01*
X151404110Y-110012964D01*
X151374866Y-109994016D01*
X151372637Y-109992333D01*
X151331500Y-109948534D01*
X151306192Y-109894635D01*
X151296862Y-109834750D01*
X151303658Y-109772998D01*
X151326729Y-109713493D01*
X151360879Y-109665965D01*
X151413941Y-109620884D01*
X151478071Y-109589978D01*
X151555978Y-109572141D01*
X151600580Y-109567798D01*
X151695335Y-109569489D01*
G36*
X154167295Y-109821401D02*
X154239356Y-109829615D01*
X154294471Y-109846243D01*
X154335585Y-109872458D01*
X154357771Y-109897367D01*
X154365451Y-109909199D01*
X154371360Y-109922352D01*
X154375811Y-109939783D01*
X154379121Y-109964447D01*
X154381604Y-109999300D01*
X154383575Y-110047298D01*
X154385348Y-110111395D01*
X154386667Y-110168583D01*
X154391958Y-110406708D01*
X154421062Y-110406291D01*
X154439452Y-110407818D01*
X154447836Y-110417008D01*
X154450100Y-110439715D01*
X154450167Y-110450137D01*
X154447663Y-110480034D01*
X154437254Y-110497325D01*
X154414595Y-110505300D01*
X154375340Y-110507249D01*
X154374737Y-110507250D01*
X154335967Y-110499482D01*
X154304012Y-110479140D01*
X154284390Y-110450668D01*
X154280833Y-110431667D01*
X154280050Y-110416968D01*
X154274641Y-110415405D01*
X154260012Y-110427549D01*
X154251729Y-110435270D01*
X154209299Y-110468351D01*
X154163069Y-110489360D01*
X154106755Y-110500584D01*
X154063875Y-110503638D01*
X154013163Y-110503557D01*
X153970199Y-110499698D01*
X153944781Y-110493775D01*
X153893105Y-110463936D01*
X153855658Y-110421656D01*
X153833394Y-110370984D01*
X153827269Y-110315966D01*
X153827817Y-110313202D01*
X153952750Y-110313202D01*
X153957033Y-110350853D01*
X153971251Y-110375042D01*
X153974152Y-110377707D01*
X154018286Y-110402127D01*
X154073720Y-110410713D01*
X154137254Y-110403052D01*
X154148303Y-110400195D01*
X154181893Y-110385044D01*
X154217306Y-110360383D01*
X154230324Y-110348582D01*
X154251711Y-110325893D01*
X154263669Y-110306777D01*
X154268930Y-110283626D01*
X154270225Y-110248831D01*
X154270250Y-110237385D01*
X154269863Y-110199749D01*
X154267662Y-110179053D01*
X154262084Y-110171070D01*
X154251566Y-110171576D01*
X154246437Y-110172974D01*
X154225430Y-110177801D01*
X154189916Y-110184762D01*
X154146287Y-110192629D01*
X154128904Y-110195601D01*
X154062018Y-110208738D01*
X154013679Y-110223398D01*
X153981270Y-110241328D01*
X153962171Y-110264277D01*
X153953765Y-110293993D01*
X153952750Y-110313202D01*
X153827817Y-110313202D01*
X153838240Y-110260651D01*
X153867261Y-110209086D01*
X153875324Y-110199569D01*
X153899747Y-110176507D01*
X153928868Y-110157983D01*
X153966317Y-110142670D01*
X154015726Y-110129242D01*
X154080725Y-110116373D01*
X154122083Y-110109431D01*
X154181523Y-110098686D01*
X154222927Y-110087587D01*
X154249374Y-110074270D01*
X154263941Y-110056871D01*
X154269706Y-110033526D01*
X154270250Y-110019691D01*
X154261266Y-109975728D01*
X154234849Y-109943359D01*
X154191798Y-109923430D01*
X154175847Y-109920018D01*
X154115057Y-109916466D01*
X154060373Y-109925922D01*
X154015415Y-109946810D01*
X153983803Y-109977550D01*
X153970254Y-110009626D01*
X153965004Y-110028571D01*
X153955082Y-110038015D01*
X153934351Y-110041250D01*
X153910681Y-110041583D01*
X153879221Y-110040802D01*
X153863493Y-110036526D01*
X153858070Y-110025857D01*
X153857500Y-110013174D01*
X153865762Y-109971527D01*
X153887471Y-109926933D01*
X153918011Y-109887481D01*
X153939893Y-109868780D01*
X153996289Y-109839987D01*
X154064126Y-109824104D01*
X154146213Y-109820544D01*
X154167295Y-109821401D01*
X154167295Y-109821401D01*
G37*
X154167295Y-109821401D02*
X154239356Y-109829615D01*
X154294471Y-109846243D01*
X154335585Y-109872458D01*
X154357771Y-109897367D01*
X154365451Y-109909199D01*
X154371360Y-109922352D01*
X154375811Y-109939783D01*
X154379121Y-109964447D01*
X154381604Y-109999300D01*
X154383575Y-110047298D01*
X154385348Y-110111395D01*
X154386667Y-110168583D01*
X154391958Y-110406708D01*
X154421062Y-110406291D01*
X154439452Y-110407818D01*
X154447836Y-110417008D01*
X154450100Y-110439715D01*
X154450167Y-110450137D01*
X154447663Y-110480034D01*
X154437254Y-110497325D01*
X154414595Y-110505300D01*
X154375340Y-110507249D01*
X154374737Y-110507250D01*
X154335967Y-110499482D01*
X154304012Y-110479140D01*
X154284390Y-110450668D01*
X154280833Y-110431667D01*
X154280050Y-110416968D01*
X154274641Y-110415405D01*
X154260012Y-110427549D01*
X154251729Y-110435270D01*
X154209299Y-110468351D01*
X154163069Y-110489360D01*
X154106755Y-110500584D01*
X154063875Y-110503638D01*
X154013163Y-110503557D01*
X153970199Y-110499698D01*
X153944781Y-110493775D01*
X153893105Y-110463936D01*
X153855658Y-110421656D01*
X153833394Y-110370984D01*
X153827269Y-110315966D01*
X153827817Y-110313202D01*
X153952750Y-110313202D01*
X153957033Y-110350853D01*
X153971251Y-110375042D01*
X153974152Y-110377707D01*
X154018286Y-110402127D01*
X154073720Y-110410713D01*
X154137254Y-110403052D01*
X154148303Y-110400195D01*
X154181893Y-110385044D01*
X154217306Y-110360383D01*
X154230324Y-110348582D01*
X154251711Y-110325893D01*
X154263669Y-110306777D01*
X154268930Y-110283626D01*
X154270225Y-110248831D01*
X154270250Y-110237385D01*
X154269863Y-110199749D01*
X154267662Y-110179053D01*
X154262084Y-110171070D01*
X154251566Y-110171576D01*
X154246437Y-110172974D01*
X154225430Y-110177801D01*
X154189916Y-110184762D01*
X154146287Y-110192629D01*
X154128904Y-110195601D01*
X154062018Y-110208738D01*
X154013679Y-110223398D01*
X153981270Y-110241328D01*
X153962171Y-110264277D01*
X153953765Y-110293993D01*
X153952750Y-110313202D01*
X153827817Y-110313202D01*
X153838240Y-110260651D01*
X153867261Y-110209086D01*
X153875324Y-110199569D01*
X153899747Y-110176507D01*
X153928868Y-110157983D01*
X153966317Y-110142670D01*
X154015726Y-110129242D01*
X154080725Y-110116373D01*
X154122083Y-110109431D01*
X154181523Y-110098686D01*
X154222927Y-110087587D01*
X154249374Y-110074270D01*
X154263941Y-110056871D01*
X154269706Y-110033526D01*
X154270250Y-110019691D01*
X154261266Y-109975728D01*
X154234849Y-109943359D01*
X154191798Y-109923430D01*
X154175847Y-109920018D01*
X154115057Y-109916466D01*
X154060373Y-109925922D01*
X154015415Y-109946810D01*
X153983803Y-109977550D01*
X153970254Y-110009626D01*
X153965004Y-110028571D01*
X153955082Y-110038015D01*
X153934351Y-110041250D01*
X153910681Y-110041583D01*
X153879221Y-110040802D01*
X153863493Y-110036526D01*
X153858070Y-110025857D01*
X153857500Y-110013174D01*
X153865762Y-109971527D01*
X153887471Y-109926933D01*
X153918011Y-109887481D01*
X153939893Y-109868780D01*
X153996289Y-109839987D01*
X154064126Y-109824104D01*
X154146213Y-109820544D01*
X154167295Y-109821401D01*
G36*
X156613831Y-109829142D02*
X156679538Y-109857330D01*
X156735563Y-109902037D01*
X156780165Y-109961403D01*
X156811603Y-110033569D01*
X156828135Y-110116675D01*
X156829078Y-110127899D01*
X156834261Y-110200333D01*
X156335331Y-110200333D01*
X156341331Y-110240020D01*
X156360213Y-110302294D01*
X156395291Y-110351492D01*
X156445239Y-110386415D01*
X156508735Y-110405868D01*
X156527336Y-110408247D01*
X156586477Y-110405014D01*
X156638738Y-110385098D01*
X156679833Y-110350611D01*
X156696903Y-110324687D01*
X156710394Y-110301030D01*
X156724472Y-110289322D01*
X156746857Y-110285380D01*
X156770101Y-110285000D01*
X156801310Y-110285553D01*
X156816065Y-110289209D01*
X156819077Y-110298956D01*
X156815965Y-110314104D01*
X156799968Y-110356081D01*
X156774411Y-110400020D01*
X156744780Y-110437378D01*
X156726242Y-110453864D01*
X156695502Y-110471929D01*
X156658690Y-110488682D01*
X156650868Y-110491597D01*
X156612093Y-110500327D01*
X156561792Y-110505144D01*
X156508822Y-110505806D01*
X156462041Y-110502071D01*
X156439765Y-110497361D01*
X156379955Y-110471345D01*
X156326108Y-110430022D01*
X156305799Y-110409333D01*
X156265444Y-110354226D01*
X156239169Y-110290244D01*
X156225835Y-110213904D01*
X156223567Y-110158000D01*
X156224715Y-110108146D01*
X156228449Y-110077929D01*
X156344583Y-110077929D01*
X156344583Y-110105083D01*
X156716682Y-110105083D01*
X156709407Y-110070687D01*
X156688452Y-110014869D01*
X156653927Y-109970490D01*
X156609560Y-109938769D01*
X156559076Y-109920922D01*
X156506202Y-109918167D01*
X156454666Y-109931723D01*
X156408193Y-109962805D01*
X156401044Y-109969941D01*
X156366837Y-110011440D01*
X156348900Y-110047903D01*
X156344583Y-110077929D01*
X156228449Y-110077929D01*
X156229358Y-110070574D01*
X156239208Y-110036472D01*
X156254025Y-110001279D01*
X156296686Y-109930399D01*
X156351797Y-109876554D01*
X156418668Y-109840180D01*
X156496614Y-109821714D01*
X156540182Y-109819333D01*
X156613831Y-109829142D01*
X156613831Y-109829142D01*
G37*
X156613831Y-109829142D02*
X156679538Y-109857330D01*
X156735563Y-109902037D01*
X156780165Y-109961403D01*
X156811603Y-110033569D01*
X156828135Y-110116675D01*
X156829078Y-110127899D01*
X156834261Y-110200333D01*
X156335331Y-110200333D01*
X156341331Y-110240020D01*
X156360213Y-110302294D01*
X156395291Y-110351492D01*
X156445239Y-110386415D01*
X156508735Y-110405868D01*
X156527336Y-110408247D01*
X156586477Y-110405014D01*
X156638738Y-110385098D01*
X156679833Y-110350611D01*
X156696903Y-110324687D01*
X156710394Y-110301030D01*
X156724472Y-110289322D01*
X156746857Y-110285380D01*
X156770101Y-110285000D01*
X156801310Y-110285553D01*
X156816065Y-110289209D01*
X156819077Y-110298956D01*
X156815965Y-110314104D01*
X156799968Y-110356081D01*
X156774411Y-110400020D01*
X156744780Y-110437378D01*
X156726242Y-110453864D01*
X156695502Y-110471929D01*
X156658690Y-110488682D01*
X156650868Y-110491597D01*
X156612093Y-110500327D01*
X156561792Y-110505144D01*
X156508822Y-110505806D01*
X156462041Y-110502071D01*
X156439765Y-110497361D01*
X156379955Y-110471345D01*
X156326108Y-110430022D01*
X156305799Y-110409333D01*
X156265444Y-110354226D01*
X156239169Y-110290244D01*
X156225835Y-110213904D01*
X156223567Y-110158000D01*
X156224715Y-110108146D01*
X156228449Y-110077929D01*
X156344583Y-110077929D01*
X156344583Y-110105083D01*
X156716682Y-110105083D01*
X156709407Y-110070687D01*
X156688452Y-110014869D01*
X156653927Y-109970490D01*
X156609560Y-109938769D01*
X156559076Y-109920922D01*
X156506202Y-109918167D01*
X156454666Y-109931723D01*
X156408193Y-109962805D01*
X156401044Y-109969941D01*
X156366837Y-110011440D01*
X156348900Y-110047903D01*
X156344583Y-110077929D01*
X156228449Y-110077929D01*
X156229358Y-110070574D01*
X156239208Y-110036472D01*
X156254025Y-110001279D01*
X156296686Y-109930399D01*
X156351797Y-109876554D01*
X156418668Y-109840180D01*
X156496614Y-109821714D01*
X156540182Y-109819333D01*
X156613831Y-109829142D01*
G36*
X158808260Y-109835307D02*
X158879140Y-109865877D01*
X158936724Y-109912232D01*
X158980193Y-109973431D01*
X159008731Y-110048535D01*
X159021519Y-110136604D01*
X159022167Y-110163291D01*
X159013915Y-110255167D01*
X158989280Y-110334100D01*
X158948440Y-110399748D01*
X158891574Y-110451767D01*
X158862139Y-110469915D01*
X158828818Y-110486262D01*
X158797618Y-110496166D01*
X158760528Y-110501477D01*
X158715250Y-110503869D01*
X158650736Y-110503305D01*
X158601332Y-110496427D01*
X158577954Y-110489484D01*
X158541676Y-110470520D01*
X158501007Y-110440438D01*
X158476383Y-110417930D01*
X158432313Y-110365247D01*
X158403127Y-110308174D01*
X158387019Y-110241835D01*
X158382187Y-110163291D01*
X158383054Y-110149536D01*
X158501577Y-110149536D01*
X158503455Y-110208500D01*
X158512342Y-110260561D01*
X158518787Y-110279735D01*
X158552028Y-110335459D01*
X158596995Y-110376453D01*
X158650121Y-110401474D01*
X158707837Y-110409279D01*
X158766573Y-110398626D01*
X158806031Y-110379741D01*
X158833101Y-110356932D01*
X158860420Y-110324625D01*
X158871448Y-110307891D01*
X158885720Y-110281265D01*
X158894396Y-110256514D01*
X158898824Y-110226908D01*
X158900355Y-110185720D01*
X158900458Y-110163291D01*
X158899744Y-110115214D01*
X158896700Y-110081552D01*
X158889977Y-110055577D01*
X158878225Y-110030561D01*
X158871448Y-110018691D01*
X158831373Y-109968431D01*
X158782751Y-109935297D01*
X158729078Y-109919014D01*
X158673850Y-109919303D01*
X158620565Y-109935886D01*
X158572719Y-109968486D01*
X158533810Y-110016824D01*
X158518844Y-110046703D01*
X158506708Y-110092621D01*
X158501577Y-110149536D01*
X158383054Y-110149536D01*
X158387239Y-110083194D01*
X158403599Y-110017129D01*
X158433074Y-109960214D01*
X158476435Y-109908601D01*
X158529374Y-109864089D01*
X158585037Y-109835930D01*
X158648555Y-109822323D01*
X158724898Y-109821460D01*
X158808260Y-109835307D01*
X158808260Y-109835307D01*
G37*
X158808260Y-109835307D02*
X158879140Y-109865877D01*
X158936724Y-109912232D01*
X158980193Y-109973431D01*
X159008731Y-110048535D01*
X159021519Y-110136604D01*
X159022167Y-110163291D01*
X159013915Y-110255167D01*
X158989280Y-110334100D01*
X158948440Y-110399748D01*
X158891574Y-110451767D01*
X158862139Y-110469915D01*
X158828818Y-110486262D01*
X158797618Y-110496166D01*
X158760528Y-110501477D01*
X158715250Y-110503869D01*
X158650736Y-110503305D01*
X158601332Y-110496427D01*
X158577954Y-110489484D01*
X158541676Y-110470520D01*
X158501007Y-110440438D01*
X158476383Y-110417930D01*
X158432313Y-110365247D01*
X158403127Y-110308174D01*
X158387019Y-110241835D01*
X158382187Y-110163291D01*
X158383054Y-110149536D01*
X158501577Y-110149536D01*
X158503455Y-110208500D01*
X158512342Y-110260561D01*
X158518787Y-110279735D01*
X158552028Y-110335459D01*
X158596995Y-110376453D01*
X158650121Y-110401474D01*
X158707837Y-110409279D01*
X158766573Y-110398626D01*
X158806031Y-110379741D01*
X158833101Y-110356932D01*
X158860420Y-110324625D01*
X158871448Y-110307891D01*
X158885720Y-110281265D01*
X158894396Y-110256514D01*
X158898824Y-110226908D01*
X158900355Y-110185720D01*
X158900458Y-110163291D01*
X158899744Y-110115214D01*
X158896700Y-110081552D01*
X158889977Y-110055577D01*
X158878225Y-110030561D01*
X158871448Y-110018691D01*
X158831373Y-109968431D01*
X158782751Y-109935297D01*
X158729078Y-109919014D01*
X158673850Y-109919303D01*
X158620565Y-109935886D01*
X158572719Y-109968486D01*
X158533810Y-110016824D01*
X158518844Y-110046703D01*
X158506708Y-110092621D01*
X158501577Y-110149536D01*
X158383054Y-110149536D01*
X158387239Y-110083194D01*
X158403599Y-110017129D01*
X158433074Y-109960214D01*
X158476435Y-109908601D01*
X158529374Y-109864089D01*
X158585037Y-109835930D01*
X158648555Y-109822323D01*
X158724898Y-109821460D01*
X158808260Y-109835307D01*
G36*
X152248833Y-110496666D02*
X152132417Y-110496666D01*
X152132417Y-109829916D01*
X152248833Y-109829916D01*
X152248833Y-110496666D01*
X152248833Y-110496666D01*
G37*
X152248833Y-110496666D02*
X152132417Y-110496666D01*
X152132417Y-109829916D01*
X152248833Y-109829916D01*
X152248833Y-110496666D01*
G36*
X153551886Y-109827899D02*
X153611672Y-109851942D01*
X153657327Y-109891086D01*
X153688012Y-109944724D01*
X153697807Y-109978295D01*
X153701244Y-110004932D01*
X153704272Y-110048703D01*
X153706730Y-110105580D01*
X153708454Y-110171530D01*
X153709283Y-110242525D01*
X153709333Y-110264354D01*
X153709333Y-110496666D01*
X153592917Y-110496666D01*
X153592917Y-110252724D01*
X153592673Y-110166636D01*
X153591564Y-110099092D01*
X153589020Y-110047473D01*
X153584473Y-110009156D01*
X153577355Y-109981523D01*
X153567097Y-109961952D01*
X153553131Y-109947823D01*
X153534889Y-109936516D01*
X153523051Y-109930658D01*
X153472609Y-109917634D01*
X153417845Y-109921312D01*
X153364950Y-109940023D01*
X153320112Y-109972098D01*
X153304924Y-109989485D01*
X153291926Y-110010365D01*
X153282000Y-110035632D01*
X153274765Y-110068245D01*
X153269838Y-110111163D01*
X153266839Y-110167346D01*
X153265385Y-110239752D01*
X153265086Y-110298229D01*
X153264833Y-110496666D01*
X153148417Y-110496666D01*
X153148417Y-109829916D01*
X153264833Y-109829916D01*
X153264833Y-109918735D01*
X153299229Y-109885445D01*
X153350352Y-109847402D01*
X153409652Y-109825944D01*
X153478806Y-109819565D01*
X153551886Y-109827899D01*
X153551886Y-109827899D01*
G37*
X153551886Y-109827899D02*
X153611672Y-109851942D01*
X153657327Y-109891086D01*
X153688012Y-109944724D01*
X153697807Y-109978295D01*
X153701244Y-110004932D01*
X153704272Y-110048703D01*
X153706730Y-110105580D01*
X153708454Y-110171530D01*
X153709283Y-110242525D01*
X153709333Y-110264354D01*
X153709333Y-110496666D01*
X153592917Y-110496666D01*
X153592917Y-110252724D01*
X153592673Y-110166636D01*
X153591564Y-110099092D01*
X153589020Y-110047473D01*
X153584473Y-110009156D01*
X153577355Y-109981523D01*
X153567097Y-109961952D01*
X153553131Y-109947823D01*
X153534889Y-109936516D01*
X153523051Y-109930658D01*
X153472609Y-109917634D01*
X153417845Y-109921312D01*
X153364950Y-109940023D01*
X153320112Y-109972098D01*
X153304924Y-109989485D01*
X153291926Y-110010365D01*
X153282000Y-110035632D01*
X153274765Y-110068245D01*
X153269838Y-110111163D01*
X153266839Y-110167346D01*
X153265385Y-110239752D01*
X153265086Y-110298229D01*
X153264833Y-110496666D01*
X153148417Y-110496666D01*
X153148417Y-109829916D01*
X153264833Y-109829916D01*
X153264833Y-109918735D01*
X153299229Y-109885445D01*
X153350352Y-109847402D01*
X153409652Y-109825944D01*
X153478806Y-109819565D01*
X153551886Y-109827899D01*
G36*
X154672417Y-110496666D02*
X154556000Y-110496666D01*
X154556000Y-109586500D01*
X154672417Y-109586500D01*
X154672417Y-110496666D01*
X154672417Y-110496666D01*
G37*
X154672417Y-110496666D02*
X154556000Y-110496666D01*
X154556000Y-109586500D01*
X154672417Y-109586500D01*
X154672417Y-110496666D01*
G36*
X155836583Y-109681750D02*
X155328583Y-109681750D01*
X155328583Y-109978083D01*
X155804833Y-109978083D01*
X155804833Y-110073333D01*
X155328583Y-110073333D01*
X155328583Y-110401416D01*
X155847167Y-110401416D01*
X155847167Y-110496666D01*
X155201583Y-110496666D01*
X155201583Y-109586500D01*
X155836583Y-109586500D01*
X155836583Y-109681750D01*
X155836583Y-109681750D01*
G37*
X155836583Y-109681750D02*
X155328583Y-109681750D01*
X155328583Y-109978083D01*
X155804833Y-109978083D01*
X155804833Y-110073333D01*
X155328583Y-110073333D01*
X155328583Y-110401416D01*
X155847167Y-110401416D01*
X155847167Y-110496666D01*
X155201583Y-110496666D01*
X155201583Y-109586500D01*
X155836583Y-109586500D01*
X155836583Y-109681750D01*
G36*
X156090583Y-110496666D02*
X155974167Y-110496666D01*
X155974167Y-109586500D01*
X156090583Y-109586500D01*
X156090583Y-110496666D01*
X156090583Y-110496666D01*
G37*
X156090583Y-110496666D02*
X155974167Y-110496666D01*
X155974167Y-109586500D01*
X156090583Y-109586500D01*
X156090583Y-110496666D01*
G36*
X157066711Y-109847589D02*
X157069542Y-110108679D01*
X157214356Y-109968820D01*
X157359171Y-109828960D01*
X157432950Y-109832084D01*
X157506728Y-109835208D01*
X157380739Y-109950413D01*
X157338198Y-109989864D01*
X157301793Y-110024677D01*
X157274159Y-110052248D01*
X157257932Y-110069969D01*
X157254750Y-110074964D01*
X157260396Y-110086061D01*
X157276237Y-110112132D01*
X157300632Y-110150606D01*
X157331936Y-110198912D01*
X157368507Y-110254478D01*
X157392465Y-110290489D01*
X157530180Y-110496666D01*
X157387008Y-110496666D01*
X157281191Y-110336306D01*
X157246868Y-110284280D01*
X157216344Y-110237997D01*
X157191629Y-110200505D01*
X157174734Y-110174853D01*
X157167848Y-110164366D01*
X157156451Y-110164477D01*
X157134005Y-110180041D01*
X157112285Y-110199930D01*
X157064250Y-110247073D01*
X157064250Y-110496666D01*
X156947833Y-110496666D01*
X156947833Y-109586500D01*
X157063880Y-109586500D01*
X157066711Y-109847589D01*
X157066711Y-109847589D01*
G37*
X157066711Y-109847589D02*
X157069542Y-110108679D01*
X157214356Y-109968820D01*
X157359171Y-109828960D01*
X157432950Y-109832084D01*
X157506728Y-109835208D01*
X157380739Y-109950413D01*
X157338198Y-109989864D01*
X157301793Y-110024677D01*
X157274159Y-110052248D01*
X157257932Y-110069969D01*
X157254750Y-110074964D01*
X157260396Y-110086061D01*
X157276237Y-110112132D01*
X157300632Y-110150606D01*
X157331936Y-110198912D01*
X157368507Y-110254478D01*
X157392465Y-110290489D01*
X157530180Y-110496666D01*
X157387008Y-110496666D01*
X157281191Y-110336306D01*
X157246868Y-110284280D01*
X157216344Y-110237997D01*
X157191629Y-110200505D01*
X157174734Y-110174853D01*
X157167848Y-110164366D01*
X157156451Y-110164477D01*
X157134005Y-110180041D01*
X157112285Y-110199930D01*
X157064250Y-110247073D01*
X157064250Y-110496666D01*
X156947833Y-110496666D01*
X156947833Y-109586500D01*
X157063880Y-109586500D01*
X157066711Y-109847589D01*
G36*
X157762750Y-109829916D02*
X157900333Y-109829916D01*
X157900333Y-109925166D01*
X157762750Y-109925166D01*
X157762750Y-110146660D01*
X157762882Y-110226428D01*
X157763837Y-110287520D01*
X157766449Y-110332428D01*
X157771553Y-110363640D01*
X157779984Y-110383650D01*
X157792578Y-110394946D01*
X157810170Y-110400021D01*
X157833596Y-110401365D01*
X157848172Y-110401416D01*
X157900333Y-110401416D01*
X157900333Y-110496666D01*
X157818312Y-110495995D01*
X157775611Y-110494490D01*
X157738737Y-110491139D01*
X157714884Y-110486625D01*
X157713096Y-110485981D01*
X157690773Y-110470517D01*
X157670763Y-110447449D01*
X157664531Y-110435808D01*
X157659690Y-110420380D01*
X157656009Y-110398355D01*
X157653255Y-110366923D01*
X157651196Y-110323275D01*
X157649600Y-110264601D01*
X157648235Y-110188092D01*
X157647989Y-110171713D01*
X157644353Y-109925166D01*
X157540500Y-109925166D01*
X157540500Y-109829916D01*
X157646333Y-109829916D01*
X157646333Y-109639416D01*
X157762750Y-109639416D01*
X157762750Y-109829916D01*
X157762750Y-109829916D01*
G37*
X157762750Y-109829916D02*
X157900333Y-109829916D01*
X157900333Y-109925166D01*
X157762750Y-109925166D01*
X157762750Y-110146660D01*
X157762882Y-110226428D01*
X157763837Y-110287520D01*
X157766449Y-110332428D01*
X157771553Y-110363640D01*
X157779984Y-110383650D01*
X157792578Y-110394946D01*
X157810170Y-110400021D01*
X157833596Y-110401365D01*
X157848172Y-110401416D01*
X157900333Y-110401416D01*
X157900333Y-110496666D01*
X157818312Y-110495995D01*
X157775611Y-110494490D01*
X157738737Y-110491139D01*
X157714884Y-110486625D01*
X157713096Y-110485981D01*
X157690773Y-110470517D01*
X157670763Y-110447449D01*
X157664531Y-110435808D01*
X157659690Y-110420380D01*
X157656009Y-110398355D01*
X157653255Y-110366923D01*
X157651196Y-110323275D01*
X157649600Y-110264601D01*
X157648235Y-110188092D01*
X157647989Y-110171713D01*
X157644353Y-109925166D01*
X157540500Y-109925166D01*
X157540500Y-109829916D01*
X157646333Y-109829916D01*
X157646333Y-109639416D01*
X157762750Y-109639416D01*
X157762750Y-109829916D01*
G36*
X158366000Y-109932013D02*
X158302351Y-109943850D01*
X158240452Y-109961499D01*
X158194089Y-109989850D01*
X158159189Y-110031638D01*
X158151448Y-110045120D01*
X158143170Y-110062112D01*
X158136983Y-110080048D01*
X158132509Y-110102380D01*
X158129373Y-110132559D01*
X158127197Y-110174038D01*
X158125606Y-110230268D01*
X158124420Y-110292937D01*
X158120965Y-110496666D01*
X158006167Y-110496666D01*
X158006167Y-109829916D01*
X158110990Y-109829916D01*
X158117292Y-109962208D01*
X158142407Y-109921808D01*
X158185277Y-109871990D01*
X158241059Y-109838481D01*
X158306643Y-109822498D01*
X158366000Y-109816372D01*
X158366000Y-109932013D01*
X158366000Y-109932013D01*
G37*
X158366000Y-109932013D02*
X158302351Y-109943850D01*
X158240452Y-109961499D01*
X158194089Y-109989850D01*
X158159189Y-110031638D01*
X158151448Y-110045120D01*
X158143170Y-110062112D01*
X158136983Y-110080048D01*
X158132509Y-110102380D01*
X158129373Y-110132559D01*
X158127197Y-110174038D01*
X158125606Y-110230268D01*
X158124420Y-110292937D01*
X158120965Y-110496666D01*
X158006167Y-110496666D01*
X158006167Y-109829916D01*
X158110990Y-109829916D01*
X158117292Y-109962208D01*
X158142407Y-109921808D01*
X158185277Y-109871990D01*
X158241059Y-109838481D01*
X158306643Y-109822498D01*
X158366000Y-109816372D01*
X158366000Y-109932013D01*
G36*
X159552636Y-109827899D02*
X159612422Y-109851942D01*
X159658077Y-109891086D01*
X159688762Y-109944724D01*
X159698557Y-109978295D01*
X159701994Y-110004932D01*
X159705022Y-110048703D01*
X159707480Y-110105580D01*
X159709204Y-110171530D01*
X159710033Y-110242525D01*
X159710083Y-110264354D01*
X159710083Y-110496666D01*
X159593667Y-110496666D01*
X159593667Y-110252724D01*
X159593423Y-110166636D01*
X159592314Y-110099092D01*
X159589770Y-110047473D01*
X159585223Y-110009156D01*
X159578105Y-109981523D01*
X159567847Y-109961952D01*
X159553881Y-109947823D01*
X159535639Y-109936516D01*
X159523801Y-109930658D01*
X159473359Y-109917634D01*
X159418595Y-109921312D01*
X159365700Y-109940023D01*
X159320862Y-109972098D01*
X159305674Y-109989485D01*
X159292676Y-110010365D01*
X159282750Y-110035632D01*
X159275515Y-110068245D01*
X159270588Y-110111163D01*
X159267589Y-110167346D01*
X159266135Y-110239752D01*
X159265836Y-110298229D01*
X159265583Y-110496666D01*
X159149167Y-110496666D01*
X159149167Y-109829916D01*
X159265583Y-109829916D01*
X159265583Y-109918735D01*
X159299979Y-109885445D01*
X159351102Y-109847402D01*
X159410402Y-109825944D01*
X159479556Y-109819565D01*
X159552636Y-109827899D01*
X159552636Y-109827899D01*
G37*
X159552636Y-109827899D02*
X159612422Y-109851942D01*
X159658077Y-109891086D01*
X159688762Y-109944724D01*
X159698557Y-109978295D01*
X159701994Y-110004932D01*
X159705022Y-110048703D01*
X159707480Y-110105580D01*
X159709204Y-110171530D01*
X159710033Y-110242525D01*
X159710083Y-110264354D01*
X159710083Y-110496666D01*
X159593667Y-110496666D01*
X159593667Y-110252724D01*
X159593423Y-110166636D01*
X159592314Y-110099092D01*
X159589770Y-110047473D01*
X159585223Y-110009156D01*
X159578105Y-109981523D01*
X159567847Y-109961952D01*
X159553881Y-109947823D01*
X159535639Y-109936516D01*
X159523801Y-109930658D01*
X159473359Y-109917634D01*
X159418595Y-109921312D01*
X159365700Y-109940023D01*
X159320862Y-109972098D01*
X159305674Y-109989485D01*
X159292676Y-110010365D01*
X159282750Y-110035632D01*
X159275515Y-110068245D01*
X159270588Y-110111163D01*
X159267589Y-110167346D01*
X159266135Y-110239752D01*
X159265836Y-110298229D01*
X159265583Y-110496666D01*
X159149167Y-110496666D01*
X159149167Y-109829916D01*
X159265583Y-109829916D01*
X159265583Y-109918735D01*
X159299979Y-109885445D01*
X159351102Y-109847402D01*
X159410402Y-109825944D01*
X159479556Y-109819565D01*
X159552636Y-109827899D01*
G36*
X159985250Y-110496666D02*
X159868833Y-110496666D01*
X159868833Y-109829916D01*
X159985250Y-109829916D01*
X159985250Y-110496666D01*
X159985250Y-110496666D01*
G37*
X159985250Y-110496666D02*
X159868833Y-110496666D01*
X159868833Y-109829916D01*
X159985250Y-109829916D01*
X159985250Y-110496666D01*
G36*
X160273461Y-109847589D02*
X160276292Y-110108679D01*
X160421106Y-109968820D01*
X160565921Y-109828960D01*
X160639700Y-109832084D01*
X160713478Y-109835208D01*
X160587489Y-109950413D01*
X160544948Y-109989864D01*
X160508543Y-110024677D01*
X160480909Y-110052248D01*
X160464682Y-110069969D01*
X160461500Y-110074964D01*
X160467146Y-110086061D01*
X160482987Y-110112132D01*
X160507382Y-110150606D01*
X160538686Y-110198912D01*
X160575257Y-110254478D01*
X160599215Y-110290489D01*
X160736930Y-110496666D01*
X160593758Y-110496666D01*
X160487941Y-110336306D01*
X160453618Y-110284280D01*
X160423094Y-110237997D01*
X160398379Y-110200505D01*
X160381484Y-110174853D01*
X160374598Y-110164366D01*
X160363201Y-110164477D01*
X160340755Y-110180041D01*
X160319035Y-110199930D01*
X160271000Y-110247073D01*
X160271000Y-110496666D01*
X160154583Y-110496666D01*
X160154583Y-109586500D01*
X160270630Y-109586500D01*
X160273461Y-109847589D01*
X160273461Y-109847589D01*
G37*
X160273461Y-109847589D02*
X160276292Y-110108679D01*
X160421106Y-109968820D01*
X160565921Y-109828960D01*
X160639700Y-109832084D01*
X160713478Y-109835208D01*
X160587489Y-109950413D01*
X160544948Y-109989864D01*
X160508543Y-110024677D01*
X160480909Y-110052248D01*
X160464682Y-110069969D01*
X160461500Y-110074964D01*
X160467146Y-110086061D01*
X160482987Y-110112132D01*
X160507382Y-110150606D01*
X160538686Y-110198912D01*
X160575257Y-110254478D01*
X160599215Y-110290489D01*
X160736930Y-110496666D01*
X160593758Y-110496666D01*
X160487941Y-110336306D01*
X160453618Y-110284280D01*
X160423094Y-110237997D01*
X160398379Y-110200505D01*
X160381484Y-110174853D01*
X160374598Y-110164366D01*
X160363201Y-110164477D01*
X160340755Y-110180041D01*
X160319035Y-110199930D01*
X160271000Y-110247073D01*
X160271000Y-110496666D01*
X160154583Y-110496666D01*
X160154583Y-109586500D01*
X160270630Y-109586500D01*
X160273461Y-109847589D01*
G36*
X152248833Y-109713500D02*
X152132417Y-109713500D01*
X152132417Y-109575916D01*
X152248833Y-109575916D01*
X152248833Y-109713500D01*
X152248833Y-109713500D01*
G37*
X152248833Y-109713500D02*
X152132417Y-109713500D01*
X152132417Y-109575916D01*
X152248833Y-109575916D01*
X152248833Y-109713500D01*
G36*
X159985250Y-109713500D02*
X159868833Y-109713500D01*
X159868833Y-109575916D01*
X159985250Y-109575916D01*
X159985250Y-109713500D01*
X159985250Y-109713500D01*
G37*
X159985250Y-109713500D02*
X159868833Y-109713500D01*
X159868833Y-109575916D01*
X159985250Y-109575916D01*
X159985250Y-109713500D01*
D15*
X170097619Y-73065238D02*
X170050000Y-73160476D01*
X169954762Y-73255714D01*
X169811905Y-73398571D01*
X169764286Y-73493810D01*
X169764286Y-73589048D01*
X170002381Y-73541429D02*
X169954762Y-73636667D01*
X169859524Y-73731905D01*
X169669048Y-73779524D01*
X169335714Y-73779524D01*
X169145238Y-73731905D01*
X169050000Y-73636667D01*
X169002381Y-73541429D01*
X169002381Y-73350952D01*
X169050000Y-73255714D01*
X169145238Y-73160476D01*
X169335714Y-73112857D01*
X169669048Y-73112857D01*
X169859524Y-73160476D01*
X169954762Y-73255714D01*
X170002381Y-73350952D01*
X170002381Y-73541429D01*
X170002381Y-72160476D02*
X170002381Y-72731905D01*
X170002381Y-72446191D02*
X169002381Y-72446191D01*
X169145238Y-72541429D01*
X169240476Y-72636667D01*
X169288095Y-72731905D01*
X137223334Y-95307143D02*
X137175715Y-95354762D01*
X137032858Y-95402381D01*
X136937620Y-95402381D01*
X136794762Y-95354762D01*
X136699524Y-95259524D01*
X136651905Y-95164286D01*
X136604286Y-94973810D01*
X136604286Y-94830952D01*
X136651905Y-94640476D01*
X136699524Y-94545238D01*
X136794762Y-94450000D01*
X136937620Y-94402381D01*
X137032858Y-94402381D01*
X137175715Y-94450000D01*
X137223334Y-94497619D01*
X138175715Y-95402381D02*
X137604286Y-95402381D01*
X137890000Y-95402381D02*
X137890000Y-94402381D01*
X137794762Y-94545238D01*
X137699524Y-94640476D01*
X137604286Y-94688095D01*
X155157143Y-66806666D02*
X155204762Y-66854285D01*
X155252381Y-66997142D01*
X155252381Y-67092380D01*
X155204762Y-67235238D01*
X155109524Y-67330476D01*
X155014286Y-67378095D01*
X154823810Y-67425714D01*
X154680952Y-67425714D01*
X154490476Y-67378095D01*
X154395238Y-67330476D01*
X154300000Y-67235238D01*
X154252381Y-67092380D01*
X154252381Y-66997142D01*
X154300000Y-66854285D01*
X154347619Y-66806666D01*
X154347619Y-66425714D02*
X154300000Y-66378095D01*
X154252381Y-66282857D01*
X154252381Y-66044761D01*
X154300000Y-65949523D01*
X154347619Y-65901904D01*
X154442857Y-65854285D01*
X154538095Y-65854285D01*
X154680952Y-65901904D01*
X155252381Y-66473333D01*
X155252381Y-65854285D01*
X134131905Y-89522381D02*
X134131905Y-88522381D01*
X134370000Y-88522381D01*
X134512858Y-88570000D01*
X134608096Y-88665238D01*
X134655715Y-88760476D01*
X134703334Y-88950952D01*
X134703334Y-89093810D01*
X134655715Y-89284286D01*
X134608096Y-89379524D01*
X134512858Y-89474762D01*
X134370000Y-89522381D01*
X134131905Y-89522381D01*
X135655715Y-89522381D02*
X135084286Y-89522381D01*
X135370000Y-89522381D02*
X135370000Y-88522381D01*
X135274762Y-88665238D01*
X135179524Y-88760476D01*
X135084286Y-88808095D01*
X164801905Y-52572381D02*
X164801905Y-51572381D01*
X165040000Y-51572381D01*
X165182858Y-51620000D01*
X165278096Y-51715238D01*
X165325715Y-51810476D01*
X165373334Y-52000952D01*
X165373334Y-52143810D01*
X165325715Y-52334286D01*
X165278096Y-52429524D01*
X165182858Y-52524762D01*
X165040000Y-52572381D01*
X164801905Y-52572381D01*
X165754286Y-51667619D02*
X165801905Y-51620000D01*
X165897143Y-51572381D01*
X166135239Y-51572381D01*
X166230477Y-51620000D01*
X166278096Y-51667619D01*
X166325715Y-51762857D01*
X166325715Y-51858095D01*
X166278096Y-52000952D01*
X165706667Y-52572381D01*
X166325715Y-52572381D01*
X166231905Y-60052381D02*
X166231905Y-59052381D01*
X166470000Y-59052381D01*
X166612858Y-59100000D01*
X166708096Y-59195238D01*
X166755715Y-59290476D01*
X166803334Y-59480952D01*
X166803334Y-59623810D01*
X166755715Y-59814286D01*
X166708096Y-59909524D01*
X166612858Y-60004762D01*
X166470000Y-60052381D01*
X166231905Y-60052381D01*
X167136667Y-59052381D02*
X167755715Y-59052381D01*
X167422381Y-59433333D01*
X167565239Y-59433333D01*
X167660477Y-59480952D01*
X167708096Y-59528571D01*
X167755715Y-59623810D01*
X167755715Y-59861905D01*
X167708096Y-59957143D01*
X167660477Y-60004762D01*
X167565239Y-60052381D01*
X167279524Y-60052381D01*
X167184286Y-60004762D01*
X167136667Y-59957143D01*
X174711905Y-73372381D02*
X174711905Y-72372381D01*
X174950000Y-72372381D01*
X175092858Y-72420000D01*
X175188096Y-72515238D01*
X175235715Y-72610476D01*
X175283334Y-72800952D01*
X175283334Y-72943810D01*
X175235715Y-73134286D01*
X175188096Y-73229524D01*
X175092858Y-73324762D01*
X174950000Y-73372381D01*
X174711905Y-73372381D01*
X176140477Y-72705714D02*
X176140477Y-73372381D01*
X175902381Y-72324762D02*
X175664286Y-73039048D01*
X176283334Y-73039048D01*
X136556667Y-98472381D02*
X136556667Y-99186667D01*
X136509047Y-99329524D01*
X136413809Y-99424762D01*
X136270952Y-99472381D01*
X136175714Y-99472381D01*
X137556667Y-99472381D02*
X136985238Y-99472381D01*
X137270952Y-99472381D02*
X137270952Y-98472381D01*
X137175714Y-98615238D01*
X137080476Y-98710476D01*
X136985238Y-98758095D01*
X144466667Y-98422381D02*
X144466667Y-99136667D01*
X144419047Y-99279524D01*
X144323809Y-99374762D01*
X144180952Y-99422381D01*
X144085714Y-99422381D01*
X144895238Y-98517619D02*
X144942857Y-98470000D01*
X145038095Y-98422381D01*
X145276191Y-98422381D01*
X145371429Y-98470000D01*
X145419048Y-98517619D01*
X145466667Y-98612857D01*
X145466667Y-98708095D01*
X145419048Y-98850952D01*
X144847619Y-99422381D01*
X145466667Y-99422381D01*
X164636667Y-48172381D02*
X164636667Y-48886667D01*
X164589047Y-49029524D01*
X164493809Y-49124762D01*
X164350952Y-49172381D01*
X164255714Y-49172381D01*
X165017619Y-48172381D02*
X165636667Y-48172381D01*
X165303333Y-48553333D01*
X165446191Y-48553333D01*
X165541429Y-48600952D01*
X165589048Y-48648571D01*
X165636667Y-48743810D01*
X165636667Y-48981905D01*
X165589048Y-49077143D01*
X165541429Y-49124762D01*
X165446191Y-49172381D01*
X165160476Y-49172381D01*
X165065238Y-49124762D01*
X165017619Y-49077143D01*
X147566667Y-72492381D02*
X147566667Y-73206667D01*
X147519047Y-73349524D01*
X147423809Y-73444762D01*
X147280952Y-73492381D01*
X147185714Y-73492381D01*
X148471429Y-72825714D02*
X148471429Y-73492381D01*
X148233333Y-72444762D02*
X147995238Y-73159048D01*
X148614286Y-73159048D01*
X168966667Y-98192381D02*
X168966667Y-98906667D01*
X168919047Y-99049524D01*
X168823809Y-99144762D01*
X168680952Y-99192381D01*
X168585714Y-99192381D01*
X169919048Y-98192381D02*
X169442857Y-98192381D01*
X169395238Y-98668571D01*
X169442857Y-98620952D01*
X169538095Y-98573333D01*
X169776191Y-98573333D01*
X169871429Y-98620952D01*
X169919048Y-98668571D01*
X169966667Y-98763810D01*
X169966667Y-99001905D01*
X169919048Y-99097143D01*
X169871429Y-99144762D01*
X169776191Y-99192381D01*
X169538095Y-99192381D01*
X169442857Y-99144762D01*
X169395238Y-99097143D01*
X148990476Y-63842381D02*
X148990476Y-62842381D01*
X149323810Y-63556667D01*
X149657143Y-62842381D01*
X149657143Y-63842381D01*
X150657143Y-63842381D02*
X150085714Y-63842381D01*
X150371428Y-63842381D02*
X150371428Y-62842381D01*
X150276190Y-62985238D01*
X150180952Y-63080476D01*
X150085714Y-63128095D01*
X151393334Y-98442381D02*
X151060000Y-97966190D01*
X150821905Y-98442381D02*
X150821905Y-97442381D01*
X151202858Y-97442381D01*
X151298096Y-97490000D01*
X151345715Y-97537619D01*
X151393334Y-97632857D01*
X151393334Y-97775714D01*
X151345715Y-97870952D01*
X151298096Y-97918571D01*
X151202858Y-97966190D01*
X150821905Y-97966190D01*
X152345715Y-98442381D02*
X151774286Y-98442381D01*
X152060000Y-98442381D02*
X152060000Y-97442381D01*
X151964762Y-97585238D01*
X151869524Y-97680476D01*
X151774286Y-97728095D01*
X143672381Y-83186666D02*
X143196190Y-83520000D01*
X143672381Y-83758095D02*
X142672381Y-83758095D01*
X142672381Y-83377142D01*
X142720000Y-83281904D01*
X142767619Y-83234285D01*
X142862857Y-83186666D01*
X143005714Y-83186666D01*
X143100952Y-83234285D01*
X143148571Y-83281904D01*
X143196190Y-83377142D01*
X143196190Y-83758095D01*
X142767619Y-82805714D02*
X142720000Y-82758095D01*
X142672381Y-82662857D01*
X142672381Y-82424761D01*
X142720000Y-82329523D01*
X142767619Y-82281904D01*
X142862857Y-82234285D01*
X142958095Y-82234285D01*
X143100952Y-82281904D01*
X143672381Y-82853333D01*
X143672381Y-82234285D01*
X171192381Y-61436666D02*
X170716190Y-61770000D01*
X171192381Y-62008095D02*
X170192381Y-62008095D01*
X170192381Y-61627142D01*
X170240000Y-61531904D01*
X170287619Y-61484285D01*
X170382857Y-61436666D01*
X170525714Y-61436666D01*
X170620952Y-61484285D01*
X170668571Y-61531904D01*
X170716190Y-61627142D01*
X170716190Y-62008095D01*
X170192381Y-61103333D02*
X170192381Y-60484285D01*
X170573333Y-60817619D01*
X170573333Y-60674761D01*
X170620952Y-60579523D01*
X170668571Y-60531904D01*
X170763810Y-60484285D01*
X171001905Y-60484285D01*
X171097143Y-60531904D01*
X171144762Y-60579523D01*
X171192381Y-60674761D01*
X171192381Y-60960476D01*
X171144762Y-61055714D01*
X171097143Y-61103333D01*
X143553334Y-70472381D02*
X143220000Y-69996190D01*
X142981905Y-70472381D02*
X142981905Y-69472381D01*
X143362858Y-69472381D01*
X143458096Y-69520000D01*
X143505715Y-69567619D01*
X143553334Y-69662857D01*
X143553334Y-69805714D01*
X143505715Y-69900952D01*
X143458096Y-69948571D01*
X143362858Y-69996190D01*
X142981905Y-69996190D01*
X144410477Y-69805714D02*
X144410477Y-70472381D01*
X144172381Y-69424762D02*
X143934286Y-70139048D01*
X144553334Y-70139048D01*
X138893334Y-70472381D02*
X138560000Y-69996190D01*
X138321905Y-70472381D02*
X138321905Y-69472381D01*
X138702858Y-69472381D01*
X138798096Y-69520000D01*
X138845715Y-69567619D01*
X138893334Y-69662857D01*
X138893334Y-69805714D01*
X138845715Y-69900952D01*
X138798096Y-69948571D01*
X138702858Y-69996190D01*
X138321905Y-69996190D01*
X139798096Y-69472381D02*
X139321905Y-69472381D01*
X139274286Y-69948571D01*
X139321905Y-69900952D01*
X139417143Y-69853333D01*
X139655239Y-69853333D01*
X139750477Y-69900952D01*
X139798096Y-69948571D01*
X139845715Y-70043810D01*
X139845715Y-70281905D01*
X139798096Y-70377143D01*
X139750477Y-70424762D01*
X139655239Y-70472381D01*
X139417143Y-70472381D01*
X139321905Y-70424762D01*
X139274286Y-70377143D01*
X141463334Y-70442381D02*
X141130000Y-69966190D01*
X140891905Y-70442381D02*
X140891905Y-69442381D01*
X141272858Y-69442381D01*
X141368096Y-69490000D01*
X141415715Y-69537619D01*
X141463334Y-69632857D01*
X141463334Y-69775714D01*
X141415715Y-69870952D01*
X141368096Y-69918571D01*
X141272858Y-69966190D01*
X140891905Y-69966190D01*
X142320477Y-69442381D02*
X142130000Y-69442381D01*
X142034762Y-69490000D01*
X141987143Y-69537619D01*
X141891905Y-69680476D01*
X141844286Y-69870952D01*
X141844286Y-70251905D01*
X141891905Y-70347143D01*
X141939524Y-70394762D01*
X142034762Y-70442381D01*
X142225239Y-70442381D01*
X142320477Y-70394762D01*
X142368096Y-70347143D01*
X142415715Y-70251905D01*
X142415715Y-70013810D01*
X142368096Y-69918571D01*
X142320477Y-69870952D01*
X142225239Y-69823333D01*
X142034762Y-69823333D01*
X141939524Y-69870952D01*
X141891905Y-69918571D01*
X141844286Y-70013810D01*
X163813334Y-71092381D02*
X163480000Y-70616190D01*
X163241905Y-71092381D02*
X163241905Y-70092381D01*
X163622858Y-70092381D01*
X163718096Y-70140000D01*
X163765715Y-70187619D01*
X163813334Y-70282857D01*
X163813334Y-70425714D01*
X163765715Y-70520952D01*
X163718096Y-70568571D01*
X163622858Y-70616190D01*
X163241905Y-70616190D01*
X164146667Y-70092381D02*
X164813334Y-70092381D01*
X164384762Y-71092381D01*
X172513334Y-57412381D02*
X172180000Y-56936190D01*
X171941905Y-57412381D02*
X171941905Y-56412381D01*
X172322858Y-56412381D01*
X172418096Y-56460000D01*
X172465715Y-56507619D01*
X172513334Y-56602857D01*
X172513334Y-56745714D01*
X172465715Y-56840952D01*
X172418096Y-56888571D01*
X172322858Y-56936190D01*
X171941905Y-56936190D01*
X173084762Y-56840952D02*
X172989524Y-56793333D01*
X172941905Y-56745714D01*
X172894286Y-56650476D01*
X172894286Y-56602857D01*
X172941905Y-56507619D01*
X172989524Y-56460000D01*
X173084762Y-56412381D01*
X173275239Y-56412381D01*
X173370477Y-56460000D01*
X173418096Y-56507619D01*
X173465715Y-56602857D01*
X173465715Y-56650476D01*
X173418096Y-56745714D01*
X173370477Y-56793333D01*
X173275239Y-56840952D01*
X173084762Y-56840952D01*
X172989524Y-56888571D01*
X172941905Y-56936190D01*
X172894286Y-57031429D01*
X172894286Y-57221905D01*
X172941905Y-57317143D01*
X172989524Y-57364762D01*
X173084762Y-57412381D01*
X173275239Y-57412381D01*
X173370477Y-57364762D01*
X173418096Y-57317143D01*
X173465715Y-57221905D01*
X173465715Y-57031429D01*
X173418096Y-56936190D01*
X173370477Y-56888571D01*
X173275239Y-56840952D01*
X175053334Y-57412381D02*
X174720000Y-56936190D01*
X174481905Y-57412381D02*
X174481905Y-56412381D01*
X174862858Y-56412381D01*
X174958096Y-56460000D01*
X175005715Y-56507619D01*
X175053334Y-56602857D01*
X175053334Y-56745714D01*
X175005715Y-56840952D01*
X174958096Y-56888571D01*
X174862858Y-56936190D01*
X174481905Y-56936190D01*
X175529524Y-57412381D02*
X175720000Y-57412381D01*
X175815239Y-57364762D01*
X175862858Y-57317143D01*
X175958096Y-57174286D01*
X176005715Y-56983810D01*
X176005715Y-56602857D01*
X175958096Y-56507619D01*
X175910477Y-56460000D01*
X175815239Y-56412381D01*
X175624762Y-56412381D01*
X175529524Y-56460000D01*
X175481905Y-56507619D01*
X175434286Y-56602857D01*
X175434286Y-56840952D01*
X175481905Y-56936190D01*
X175529524Y-56983810D01*
X175624762Y-57031429D01*
X175815239Y-57031429D01*
X175910477Y-56983810D01*
X175958096Y-56936190D01*
X176005715Y-56840952D01*
X161698572Y-78822381D02*
X161365238Y-78346190D01*
X161127143Y-78822381D02*
X161127143Y-77822381D01*
X161508096Y-77822381D01*
X161603334Y-77870000D01*
X161650953Y-77917619D01*
X161698572Y-78012857D01*
X161698572Y-78155714D01*
X161650953Y-78250952D01*
X161603334Y-78298571D01*
X161508096Y-78346190D01*
X161127143Y-78346190D01*
X162603334Y-78822381D02*
X162127143Y-78822381D01*
X162127143Y-77822381D01*
X163460477Y-78822381D02*
X162889048Y-78822381D01*
X163174762Y-78822381D02*
X163174762Y-77822381D01*
X163079524Y-77965238D01*
X162984286Y-78060476D01*
X162889048Y-78108095D01*
X135704762Y-82653333D02*
X135752381Y-82510476D01*
X135752381Y-82272380D01*
X135704762Y-82177142D01*
X135657143Y-82129523D01*
X135561905Y-82081904D01*
X135466667Y-82081904D01*
X135371429Y-82129523D01*
X135323810Y-82177142D01*
X135276190Y-82272380D01*
X135228571Y-82462857D01*
X135180952Y-82558095D01*
X135133333Y-82605714D01*
X135038095Y-82653333D01*
X134942857Y-82653333D01*
X134847619Y-82605714D01*
X134800000Y-82558095D01*
X134752381Y-82462857D01*
X134752381Y-82224761D01*
X134800000Y-82081904D01*
X134752381Y-81748571D02*
X135752381Y-81510476D01*
X135038095Y-81319999D01*
X135752381Y-81129523D01*
X134752381Y-80891428D01*
X135752381Y-79986666D02*
X135752381Y-80558095D01*
X135752381Y-80272381D02*
X134752381Y-80272381D01*
X134895238Y-80367619D01*
X134990476Y-80462857D01*
X135038095Y-80558095D01*
X151924762Y-107423333D02*
X151972381Y-107280476D01*
X151972381Y-107042380D01*
X151924762Y-106947142D01*
X151877143Y-106899523D01*
X151781905Y-106851904D01*
X151686667Y-106851904D01*
X151591429Y-106899523D01*
X151543810Y-106947142D01*
X151496190Y-107042380D01*
X151448571Y-107232857D01*
X151400952Y-107328095D01*
X151353333Y-107375714D01*
X151258095Y-107423333D01*
X151162857Y-107423333D01*
X151067619Y-107375714D01*
X151020000Y-107328095D01*
X150972381Y-107232857D01*
X150972381Y-106994761D01*
X151020000Y-106851904D01*
X150972381Y-106518571D02*
X151972381Y-106280476D01*
X151258095Y-106089999D01*
X151972381Y-105899523D01*
X150972381Y-105661428D01*
X151067619Y-105328095D02*
X151020000Y-105280476D01*
X150972381Y-105185238D01*
X150972381Y-104947142D01*
X151020000Y-104851904D01*
X151067619Y-104804285D01*
X151162857Y-104756666D01*
X151258095Y-104756666D01*
X151400952Y-104804285D01*
X151972381Y-105375714D01*
X151972381Y-104756666D01*
X131628095Y-71952381D02*
X132199524Y-71952381D01*
X131913809Y-72952381D02*
X131913809Y-71952381D01*
X132532857Y-72952381D02*
X132532857Y-71952381D01*
X133104286Y-72952381D02*
X132675714Y-72380952D01*
X133104286Y-71952381D02*
X132532857Y-72523810D01*
X134056667Y-72952381D02*
X133485238Y-72952381D01*
X133770952Y-72952381D02*
X133770952Y-71952381D01*
X133675714Y-72095238D01*
X133580476Y-72190476D01*
X133485238Y-72238095D01*
X150188095Y-84372381D02*
X150188095Y-85181905D01*
X150235714Y-85277143D01*
X150283333Y-85324762D01*
X150378571Y-85372381D01*
X150569048Y-85372381D01*
X150664286Y-85324762D01*
X150711905Y-85277143D01*
X150759524Y-85181905D01*
X150759524Y-84372381D01*
X151759524Y-85372381D02*
X151188095Y-85372381D01*
X151473809Y-85372381D02*
X151473809Y-84372381D01*
X151378571Y-84515238D01*
X151283333Y-84610476D01*
X151188095Y-84658095D01*
X143518095Y-94472381D02*
X143518095Y-95281905D01*
X143565714Y-95377143D01*
X143613333Y-95424762D01*
X143708571Y-95472381D01*
X143899048Y-95472381D01*
X143994286Y-95424762D01*
X144041905Y-95377143D01*
X144089524Y-95281905D01*
X144089524Y-94472381D01*
X144518095Y-94567619D02*
X144565714Y-94520000D01*
X144660952Y-94472381D01*
X144899048Y-94472381D01*
X144994286Y-94520000D01*
X145041905Y-94567619D01*
X145089524Y-94662857D01*
X145089524Y-94758095D01*
X145041905Y-94900952D01*
X144470476Y-95472381D01*
X145089524Y-95472381D01*
X152398095Y-77022381D02*
X152398095Y-77831905D01*
X152445714Y-77927143D01*
X152493333Y-77974762D01*
X152588571Y-78022381D01*
X152779048Y-78022381D01*
X152874286Y-77974762D01*
X152921905Y-77927143D01*
X152969524Y-77831905D01*
X152969524Y-77022381D01*
X153350476Y-77022381D02*
X153969524Y-77022381D01*
X153636190Y-77403333D01*
X153779048Y-77403333D01*
X153874286Y-77450952D01*
X153921905Y-77498571D01*
X153969524Y-77593810D01*
X153969524Y-77831905D01*
X153921905Y-77927143D01*
X153874286Y-77974762D01*
X153779048Y-78022381D01*
X153493333Y-78022381D01*
X153398095Y-77974762D01*
X153350476Y-77927143D01*
X170498095Y-70132381D02*
X170498095Y-70941905D01*
X170545714Y-71037143D01*
X170593333Y-71084762D01*
X170688571Y-71132381D01*
X170879048Y-71132381D01*
X170974286Y-71084762D01*
X171021905Y-71037143D01*
X171069524Y-70941905D01*
X171069524Y-70132381D01*
X171450476Y-70132381D02*
X172117143Y-70132381D01*
X171688571Y-71132381D01*
X162307143Y-66252381D02*
X161973809Y-65776190D01*
X161735714Y-66252381D02*
X161735714Y-65252381D01*
X162116667Y-65252381D01*
X162211905Y-65300000D01*
X162259524Y-65347619D01*
X162307143Y-65442857D01*
X162307143Y-65585714D01*
X162259524Y-65680952D01*
X162211905Y-65728571D01*
X162116667Y-65776190D01*
X161735714Y-65776190D01*
X163259524Y-66252381D02*
X162688095Y-66252381D01*
X162973809Y-66252381D02*
X162973809Y-65252381D01*
X162878571Y-65395238D01*
X162783333Y-65490476D01*
X162688095Y-65538095D01*
X163878571Y-65252381D02*
X163973810Y-65252381D01*
X164069048Y-65300000D01*
X164116667Y-65347619D01*
X164164286Y-65442857D01*
X164211905Y-65633333D01*
X164211905Y-65871429D01*
X164164286Y-66061905D01*
X164116667Y-66157143D01*
X164069048Y-66204762D01*
X163973810Y-66252381D01*
X163878571Y-66252381D01*
X163783333Y-66204762D01*
X163735714Y-66157143D01*
X163688095Y-66061905D01*
X163640476Y-65871429D01*
X163640476Y-65633333D01*
X163688095Y-65442857D01*
X163735714Y-65347619D01*
X163783333Y-65300000D01*
X163878571Y-65252381D01*
X152726667Y-53474762D02*
X152869524Y-53522381D01*
X153107620Y-53522381D01*
X153202858Y-53474762D01*
X153250477Y-53427143D01*
X153298096Y-53331905D01*
X153298096Y-53236667D01*
X153250477Y-53141429D01*
X153202858Y-53093810D01*
X153107620Y-53046190D01*
X152917143Y-52998571D01*
X152821905Y-52950952D01*
X152774286Y-52903333D01*
X152726667Y-52808095D01*
X152726667Y-52712857D01*
X152774286Y-52617619D01*
X152821905Y-52570000D01*
X152917143Y-52522381D01*
X153155239Y-52522381D01*
X153298096Y-52570000D01*
X153631429Y-52522381D02*
X153869524Y-53522381D01*
X154060001Y-52808095D01*
X154250477Y-53522381D01*
X154488572Y-52522381D01*
X154774286Y-52522381D02*
X155393334Y-52522381D01*
X155060000Y-52903333D01*
X155202858Y-52903333D01*
X155298096Y-52950952D01*
X155345715Y-52998571D01*
X155393334Y-53093810D01*
X155393334Y-53331905D01*
X155345715Y-53427143D01*
X155298096Y-53474762D01*
X155202858Y-53522381D01*
X154917143Y-53522381D01*
X154821905Y-53474762D01*
X154774286Y-53427143D01*
M02*
