G04 #@! TF.FileFunction,Soldermask,Top*
%FSLAX46Y46*%
G04 Gerber Fmt 4.6, Leading zero omitted, Abs format (unit mm)*
G04 Created by KiCad (PCBNEW 4.0.6) date 10/30/17 11:30:06*
%MOMM*%
%LPD*%
G01*
G04 APERTURE LIST*
%ADD10C,0.025400*%
%ADD11R,1.200000X2.300000*%
%ADD12R,1.650000X1.900000*%
%ADD13R,1.900000X1.650000*%
%ADD14R,2.200000X2.900000*%
%ADD15R,2.900000X2.200000*%
%ADD16R,1.900000X1.700000*%
%ADD17R,1.700000X2.100000*%
%ADD18C,2.800000*%
%ADD19R,2.800000X2.800000*%
%ADD20R,2.100000X2.100000*%
%ADD21O,2.100000X2.100000*%
%ADD22R,3.400000X1.300000*%
%ADD23R,4.700000X4.700000*%
%ADD24R,1.700000X1.900000*%
%ADD25C,2.900000*%
%ADD26C,3.400000*%
%ADD27C,1.300000*%
%ADD28R,2.400000X1.100000*%
%ADD29R,1.600000X1.600000*%
%ADD30R,1.900000X4.400000*%
%ADD31R,4.150000X3.100000*%
%ADD32R,2.000000X2.000000*%
%ADD33O,2.000000X2.000000*%
%ADD34R,4.200000X3.400000*%
%ADD35R,1.900000X2.900000*%
%ADD36C,5.900000*%
%ADD37R,4.400000X1.900000*%
G04 APERTURE END LIST*
D10*
D11*
X168140000Y-71930000D03*
X166240000Y-71930000D03*
X167190000Y-74930000D03*
D12*
X135520000Y-91980000D03*
X135520000Y-94480000D03*
D13*
X156440000Y-66660000D03*
X158940000Y-66660000D03*
D14*
X132050000Y-94010000D03*
X132050000Y-90010000D03*
D15*
X163540000Y-54620000D03*
X167540000Y-54620000D03*
D16*
X165620000Y-61300000D03*
X168320000Y-61300000D03*
D17*
X175450000Y-74750000D03*
X171950000Y-74750000D03*
D18*
X135780000Y-103020000D03*
D19*
X132280000Y-103020000D03*
D18*
X143650000Y-103010000D03*
D19*
X140150000Y-103010000D03*
D20*
X167590000Y-49390000D03*
D21*
X170130000Y-49390000D03*
X172670000Y-49390000D03*
X175210000Y-49390000D03*
D20*
X147880000Y-67690000D03*
D21*
X147880000Y-70230000D03*
D18*
X169300000Y-103040000D03*
X172800000Y-103040000D03*
D19*
X165800000Y-103040000D03*
D22*
X131930000Y-48350000D03*
X131930000Y-49850000D03*
X131930000Y-51350000D03*
X131930000Y-52850000D03*
X131930000Y-54350000D03*
X131930000Y-55850000D03*
X131930000Y-57350000D03*
X131930000Y-58850000D03*
X131930000Y-60350000D03*
X149930000Y-60350000D03*
X149930000Y-58850000D03*
X149930000Y-57350000D03*
X149930000Y-55850000D03*
X149930000Y-54350000D03*
X149930000Y-52850000D03*
X149930000Y-51350000D03*
X149930000Y-49850000D03*
X149930000Y-48350000D03*
D23*
X142120000Y-54950000D03*
D24*
X151600000Y-99810000D03*
X151600000Y-102510000D03*
D16*
X147700000Y-82930000D03*
X145000000Y-82930000D03*
X175080000Y-61240000D03*
X172380000Y-61240000D03*
D24*
X143750000Y-64750000D03*
X143750000Y-67450000D03*
X139030000Y-64720000D03*
X139030000Y-67420000D03*
X141540000Y-64760000D03*
X141540000Y-67460000D03*
X163900000Y-75060000D03*
X163900000Y-72360000D03*
X172670000Y-52410000D03*
X172670000Y-55110000D03*
X175220000Y-52450000D03*
X175220000Y-55150000D03*
D25*
X162950000Y-82670000D03*
D26*
X162950000Y-94870000D03*
X175000000Y-94920000D03*
D25*
X174950000Y-82670000D03*
D26*
X169000000Y-80720000D03*
D27*
X131990000Y-81830000D03*
X131990000Y-84830000D03*
D28*
X133750000Y-81080000D03*
X133750000Y-84080000D03*
X133750000Y-85580000D03*
D29*
X130890000Y-79680000D03*
X130890000Y-86980000D03*
X133100000Y-86980000D03*
X133100000Y-79680000D03*
D30*
X148470000Y-99000000D03*
X148470000Y-105500000D03*
D31*
X133135000Y-75690000D03*
X140685000Y-75690000D03*
D32*
X147800000Y-94490000D03*
D33*
X150340000Y-86870000D03*
X150340000Y-94490000D03*
X147800000Y-86870000D03*
D34*
X141160000Y-93830000D03*
D35*
X141160000Y-87530000D03*
X138860000Y-87530000D03*
X143460000Y-87530000D03*
D34*
X156410000Y-76410000D03*
D35*
X156410000Y-70110000D03*
X154110000Y-70110000D03*
X158710000Y-70110000D03*
D36*
X156510000Y-60310000D03*
X133290000Y-67100000D03*
X155320000Y-104840000D03*
D32*
X175070000Y-68290000D03*
D33*
X167450000Y-65750000D03*
X175070000Y-65750000D03*
X167450000Y-68290000D03*
D24*
X162530000Y-61360000D03*
X162530000Y-64060000D03*
D37*
X155140000Y-49970000D03*
X161640000Y-49970000D03*
M02*
